<svg width="1360" height="221" viewBox="0 0 1360 221" fill="none" xmlns="http://www.w3.org/2000/svg">
<path d="M147.493 216.099C137.202 216.099 128.022 214.483 119.951 211.255C112.082 207.826 105.322 203.487 99.6729 198.241C94.2252 192.995 89.887 187.345 86.6583 181.293C83.4302 175.239 81.2105 169.388 80 163.738L116.319 150.119C118.538 158.997 122.271 165.958 127.517 171.002C132.965 175.845 139.825 178.266 148.098 178.266C154.151 178.266 159.902 176.853 165.349 174.028C170.797 171.204 175.135 166.664 178.364 160.409C181.794 154.154 183.509 146.083 183.509 136.197V2.2048e-10H224.671V148.303C224.671 158.794 222.753 168.278 218.92 176.752C215.086 185.025 209.638 192.087 202.577 197.939C195.717 203.79 187.544 208.329 178.061 211.557C168.78 214.584 158.59 216.099 147.493 216.099Z" fill="#1C222B"/>
<path fill-rule="evenodd" clip-rule="evenodd" d="M687.942 141.956V212.173H646.478V0.312499H683.099L725.169 0.00943032C740.1 -0.192038 753.315 2.8346 764.816 9.08938C776.318 15.1426 785.296 23.516 791.754 34.21C798.21 44.702 801.439 56.9096 801.439 70.8317C801.439 84.5524 798.31 96.7594 792.056 107.453C785.801 118.147 777.226 126.622 766.331 132.876C755.434 138.93 742.824 141.956 728.498 141.956H687.942ZM687.942 103.821H727.59C736.872 103.821 744.438 100.795 750.289 94.7419C756.342 88.6885 759.369 80.7187 759.369 70.8317C759.369 64.3749 757.856 58.7251 754.829 53.883C751.802 48.8387 747.666 44.9041 742.42 42.0788C737.174 39.2542 731.12 37.9427 724.261 38.1447H687.942V103.821Z" fill="#1C222B"/>
<path d="M595.255 215.804C578.508 215.804 565.797 211.667 557.12 203.394C548.645 195.122 544.409 183.318 544.409 167.984V13.6278H584.359V60.8426H622.192V94.7407H584.359V159.206C584.359 165.663 585.772 170.606 588.597 174.037C591.421 177.265 595.558 178.879 601.006 178.879C603.022 178.879 605.242 178.476 607.665 177.669C608.763 177.211 609.883 176.669 611.024 176.045C612.397 175.294 613.798 174.423 615.231 173.431L629.153 203.394C624.31 207.026 618.862 209.952 612.809 212.172C606.958 214.593 601.106 215.804 595.255 215.804Z" fill="#1C222B"/>
<path d="M435.087 211.567C443.562 214.392 452.642 215.805 462.327 215.805C474.232 215.805 484.723 213.887 493.803 210.054C503.085 206.22 510.349 200.873 515.595 194.013C521.043 186.952 523.767 178.88 523.767 169.8C523.767 163.546 522.354 157.19 519.529 150.733C516.907 144.075 512.568 138.122 506.515 132.876C500.462 127.429 492.492 123.494 482.605 121.073L462.933 116.23C457.887 115.02 453.953 113.607 451.128 111.993C448.304 110.177 446.891 107.957 446.891 105.335C446.891 101.501 448.304 98.4742 451.128 96.2546C454.155 94.035 458.291 92.9255 463.538 92.9255C468.985 92.9255 474.433 94.136 479.881 96.5572C485.329 98.7768 488.759 101.904 490.172 105.94L523.161 90.807C520.942 84.1481 516.907 78.2968 511.055 73.2526C505.203 68.2084 498.142 64.2736 489.869 61.449C481.798 58.6239 473.021 57.2119 463.538 57.2119C445.177 57.2119 430.952 61.449 420.863 69.9235C410.774 78.3979 405.73 90.4034 405.73 105.94C405.73 116.836 409.866 126.521 418.139 134.995C426.613 143.268 438.215 149.321 452.945 153.155L466.867 156.786C471.709 157.997 475.543 159.51 478.368 161.326C481.394 162.94 482.907 165.564 482.907 169.195C482.907 172.625 481.092 175.249 477.46 177.065C473.828 178.88 468.784 179.789 462.327 179.789C455.467 179.789 449.413 178.073 444.167 174.644C438.921 171.213 434.785 167.178 431.759 162.537L397.558 178.276C401.19 186.346 406.234 193.206 412.691 198.856C419.147 204.304 426.613 208.541 435.087 211.567Z" fill="#1C222B"/>
<path d="M343.954 192.126L345.698 212.174H383.227V60.8445H343.275V140.142C343.275 152.651 340.552 162.236 335.105 168.893C329.656 175.351 321.686 178.478 311.194 178.277C305.746 178.277 300.803 177.066 296.364 174.645C292.126 172.021 288.797 167.885 286.376 162.236C284.156 156.384 283.046 148.413 283.046 138.325V60.8445H243.096V147.405C243.096 170.609 247.938 187.86 257.624 199.16C267.511 210.258 281.533 215.806 299.693 215.806C311.194 215.806 321.181 212.88 329.656 207.028C335.266 203.115 340.031 198.147 343.954 192.126Z" fill="#1C222B"/>
<path fill-rule="evenodd" clip-rule="evenodd" d="M900.341 212.173L900.145 195.602C899.792 196.186 899.43 196.76 899.059 197.323L898.852 197.633C898.645 197.943 898.434 198.25 898.222 198.553C890.354 210.054 877.44 215.805 859.482 215.805C841.323 215.805 827.199 211.77 817.11 203.698C807.223 195.627 802.28 184.227 802.28 169.498C802.28 153.357 807.626 141.25 818.32 133.179C829.217 124.907 844.451 120.77 864.022 120.77H898.342C897.858 117.82 897.213 115.097 896.407 112.598C894.591 106.142 891.565 101.299 887.327 98.0708C883.292 94.6406 877.843 92.9255 870.983 92.9255C864.931 92.9255 859.482 94.237 854.64 96.8602C849.798 99.4827 845.661 103.72 842.231 109.571L806.517 97.4652C809.342 91.0084 813.378 84.7536 818.624 78.7004C824.072 72.4456 831.133 67.3003 839.81 63.2651C848.687 59.2294 859.381 57.2119 871.891 57.2119C887.025 57.2119 899.635 59.9354 909.723 65.3837C919.813 70.8314 927.378 78.9023 932.423 89.5964C937.467 100.088 939.989 113.002 939.989 128.337V212.173H900.341ZM899.13 150.431H877.945C864.829 150.431 855.75 152.045 850.705 155.273C845.661 158.299 843.139 162.638 843.139 168.287C843.139 172.726 845.157 176.258 849.192 178.88C853.227 181.302 858.877 182.512 866.141 182.512C872.598 182.512 878.247 180.999 883.089 177.972C888.134 174.744 892.069 170.709 894.893 165.866C897.719 160.822 899.13 155.677 899.13 150.431Z" fill="#1C222B"/>
<path d="M962.088 60.8445V212.174H1002.04V60.8445H962.088Z" fill="#1C222B"/>
<path fill-rule="evenodd" clip-rule="evenodd" d="M1134.52 212.174L1132.95 191.292C1129.11 197.246 1124.49 202.188 1119.08 206.121C1110.41 212.578 1099.71 215.806 1087 215.806C1073.08 215.806 1060.97 212.578 1050.68 206.121C1040.59 199.664 1032.72 190.484 1027.07 178.579C1021.42 166.674 1018.6 152.651 1018.6 136.509C1018.6 120.167 1021.42 106.143 1027.07 94.4396C1032.72 82.5351 1040.59 73.3547 1050.68 66.8979C1060.97 60.4411 1073.08 57.213 1087 57.213C1099.71 57.213 1110.41 60.4411 1119.08 66.8979C1124.23 70.6456 1128.67 75.3105 1132.4 80.8928V0.31335H1172.35V212.174H1134.52ZM1128.16 158.603C1130.41 153.813 1131.82 148.524 1132.4 142.735V130.284C1131.82 124.495 1130.41 119.205 1128.16 114.415C1125.13 107.958 1120.9 103.015 1115.45 99.5849C1110.2 95.9532 1104.05 94.1371 1096.99 94.1371C1089.72 94.1371 1083.37 95.9532 1077.92 99.5849C1072.47 103.015 1068.13 107.958 1064.91 114.415C1061.68 120.872 1060.06 128.237 1060.06 136.509C1060.06 144.782 1061.68 152.146 1064.91 158.603C1068.13 165.06 1072.47 170.104 1077.92 173.737C1083.57 177.369 1090.03 179.184 1097.29 179.184C1104.15 179.184 1110.2 177.369 1115.45 173.737C1120.9 170.104 1125.13 165.06 1128.16 158.603Z" fill="#1C222B"/>
<path d="M1280 180.163C1280 202.717 1261.92 221 1239.62 221C1217.32 221 1199.24 202.717 1199.24 180.163C1199.24 157.61 1217.32 139.326 1239.62 139.326C1261.92 139.326 1280 157.61 1280 180.163Z" fill="#3AD43F"/>
<rect x="-10" width="1370" height="221" fill="url(#paint0_linear_34_1653)"/>
<defs>
<linearGradient id="paint0_linear_34_1653" x1="675" y1="0" x2="675" y2="221" gradientUnits="userSpaceOnUse">
<stop stop-color="#111A18" stop-opacity="0"/>
<stop offset="0.822115" stop-color="#0E1116"/>
</linearGradient>
</defs>
</svg>
