<svg width="297" height="237" viewBox="0 0 297 237" fill="none" xmlns="http://www.w3.org/2000/svg">
<g clip-path="url(#clip0_56_1561)">
<rect width="297" height="236.649" rx="12" fill="white"/>
<path d="M17.4343 36.6886V20.325H18.4826V36.6886H17.4343ZM20.4578 25.5601C20.3981 25.0018 20.1467 24.5672 19.7035 24.2561C19.2646 23.945 18.6936 23.7895 17.9905 23.7895C17.4961 23.7895 17.0721 23.864 16.7184 24.0132C16.3647 24.1623 16.0941 24.3647 15.9066 24.6204C15.7191 24.8761 15.6233 25.168 15.619 25.4961C15.619 25.7689 15.6808 26.0054 15.8044 26.2057C15.9322 26.4059 16.1048 26.5764 16.3221 26.717C16.5395 26.8534 16.7802 26.9684 17.0444 27.0622C17.3086 27.1559 17.575 27.2348 17.8434 27.2987L19.0707 27.6055C19.565 27.7206 20.0402 27.8761 20.4961 28.0721C20.9564 28.2682 21.3676 28.5153 21.7298 28.8136C22.0963 29.1119 22.3861 29.472 22.5991 29.8939C22.8122 30.3157 22.9187 30.8101 22.9187 31.3768C22.9187 32.1439 22.7227 32.8193 22.3307 33.4031C21.9386 33.9826 21.3718 34.4365 20.6304 34.7646C19.8932 35.0885 19.0004 35.2504 17.9521 35.2504C16.9336 35.2504 16.0494 35.0927 15.2994 34.7774C14.5537 34.462 13.9699 34.0018 13.548 33.3967C13.1304 32.7916 12.9045 32.0544 12.8704 31.1851H15.2035C15.2376 31.641 15.3782 32.0203 15.6254 32.3228C15.8726 32.6254 16.1943 32.8513 16.5906 33.0004C16.9912 33.1495 17.4386 33.2241 17.9329 33.2241C18.4486 33.2241 18.9003 33.1474 19.288 32.994C19.6801 32.8363 19.9869 32.619 20.2085 32.342C20.4301 32.0608 20.543 31.7326 20.5473 31.3576C20.543 31.0167 20.4429 30.7355 20.2468 30.5139C20.0508 30.288 19.776 30.1005 19.4223 29.9514C19.0728 29.798 18.6638 29.6616 18.195 29.5423L16.7057 29.1588C15.6275 28.8818 14.7753 28.462 14.1488 27.8995C13.5267 27.3328 13.2156 26.5807 13.2156 25.6432C13.2156 24.8718 13.4244 24.1964 13.842 23.6169C14.2639 23.0373 14.837 22.5878 15.5615 22.2682C16.2859 21.9443 17.1062 21.7824 18.0224 21.7824C18.9514 21.7824 19.7653 21.9443 20.4642 22.2682C21.1673 22.5878 21.7191 23.0331 22.1197 23.6041C22.5203 24.1709 22.727 24.8228 22.7397 25.5601H20.4578ZM24.6685 32.6233V30.7376L30.2232 21.9613H31.7957V24.646H30.8369L27.0975 30.5714V30.6737H34.8511V32.6233H24.6685ZM30.9136 35.0522V32.048L30.9391 31.2042V21.9613H33.1764V35.0522H30.9136ZM41.7321 35.3015C40.6796 35.3015 39.7761 35.0352 39.0219 34.5025C38.2719 33.9656 37.6945 33.1922 37.2896 32.1822C36.8891 31.168 36.6888 29.9471 36.6888 28.5196C36.693 27.092 36.8955 25.8775 37.296 24.8761C37.7009 23.8704 38.2783 23.1034 39.0283 22.575C39.7825 22.0466 40.6838 21.7824 41.7321 21.7824C42.7804 21.7824 43.6817 22.0466 44.4359 22.575C45.1902 23.1034 45.7676 23.8704 46.1682 24.8761C46.573 25.8818 46.7754 27.0963 46.7754 28.5196C46.7754 29.9514 46.573 31.1744 46.1682 32.1886C45.7676 33.1986 45.1902 33.9699 44.4359 34.5025C43.6859 35.0352 42.7847 35.3015 41.7321 35.3015ZM41.7321 33.3008C42.5503 33.3008 43.1959 32.8981 43.6689 32.0927C44.1462 31.2831 44.3848 30.092 44.3848 28.5196C44.3848 27.4798 44.2761 26.6062 44.0588 25.8988C43.8415 25.1915 43.5347 24.6588 43.1384 24.3008C42.7421 23.9386 42.2733 23.7575 41.7321 23.7575C40.9182 23.7575 40.2747 24.1623 39.8017 24.972C39.3287 25.7774 39.0901 26.9599 39.0858 28.5196C39.0815 29.5636 39.1859 30.4415 39.399 31.1531C39.6163 31.8647 39.9232 32.4017 40.3195 32.7639C40.7158 33.1218 41.1867 33.3008 41.7321 33.3008ZM51.1316 33.2625L51.0485 33.9656C50.9889 34.5025 50.8823 35.048 50.7289 35.602C50.5798 36.1602 50.4221 36.6737 50.2559 37.1424C50.0897 37.6112 49.9555 37.9798 49.8532 38.2483H48.2935C48.3532 37.9883 48.4342 37.6346 48.5364 37.1872C48.643 36.7397 48.7453 36.2369 48.8433 35.6787C48.9413 35.1204 49.0073 34.5537 49.0414 33.9784L49.0862 33.2625H51.1316ZM53.698 35.0522V33.3392L58.2428 28.8839C58.6774 28.445 59.0396 28.0551 59.3294 27.7142C59.6192 27.3733 59.8365 27.043 59.9814 26.7234C60.1263 26.4038 60.1987 26.0629 60.1987 25.7007C60.1987 25.2873 60.105 24.9336 59.9175 24.6396C59.73 24.3413 59.4722 24.1112 59.144 23.9493C58.8159 23.7873 58.443 23.7064 58.0254 23.7064C57.595 23.7064 57.2179 23.7959 56.894 23.9748C56.5702 24.1495 56.3188 24.3988 56.1398 24.7227C55.9651 25.0466 55.8777 25.4322 55.8777 25.8797H53.6213C53.6213 25.0487 53.8109 24.3264 54.1902 23.7128C54.5695 23.0991 55.0915 22.624 55.7563 22.2873C56.4253 21.9507 57.1923 21.7824 58.0574 21.7824C58.9352 21.7824 59.7065 21.9464 60.3713 22.2745C61.0361 22.6027 61.5517 23.0522 61.9182 23.6233C62.2889 24.1943 62.4743 24.8463 62.4743 25.5792C62.4743 26.0693 62.3805 26.5508 62.193 27.0238C62.0055 27.4968 61.6753 28.021 61.2023 28.5963C60.7335 29.1716 60.0752 29.8683 59.2271 30.6865L56.9707 32.9812V33.0707H62.6725V35.0522H53.698ZM69.7165 35.3015C68.6639 35.3015 67.7605 35.0352 67.0063 34.5025C66.2563 33.9656 65.6788 33.1922 65.274 32.1822C64.8734 31.168 64.6732 29.9471 64.6732 28.5196C64.6774 27.092 64.8798 25.8775 65.2804 24.8761C65.6852 23.8704 66.2627 23.1034 67.0127 22.575C67.7669 22.0466 68.6682 21.7824 69.7165 21.7824C70.7648 21.7824 71.6661 22.0466 72.4203 22.575C73.1746 23.1034 73.752 23.8704 74.1526 24.8761C74.5574 25.8818 74.7598 27.0963 74.7598 28.5196C74.7598 29.9514 74.5574 31.1744 74.1526 32.1886C73.752 33.1986 73.1746 33.9699 72.4203 34.5025C71.6703 35.0352 70.769 35.3015 69.7165 35.3015ZM69.7165 33.3008C70.5347 33.3008 71.1803 32.8981 71.6533 32.0927C72.1305 31.2831 72.3692 30.092 72.3692 28.5196C72.3692 27.4798 72.2605 26.6062 72.0432 25.8988C71.8259 25.1915 71.519 24.6588 71.1227 24.3008C70.7264 23.9386 70.2577 23.7575 69.7165 23.7575C68.9026 23.7575 68.2591 24.1623 67.7861 24.972C67.3131 25.7774 67.0744 26.9599 67.0702 28.5196C67.0659 29.5636 67.1703 30.4415 67.3834 31.1531C67.6007 31.8647 67.9075 32.4017 68.3038 32.7639C68.7002 33.1218 69.171 33.3008 69.7165 33.3008ZM81.6776 35.2312C81.0512 35.227 80.4397 35.1183 79.8431 34.9052C79.2465 34.6879 78.7096 34.3363 78.2323 33.8505C77.755 33.3605 77.3758 32.7106 77.0945 31.901C76.8133 31.087 76.6748 30.0792 76.679 28.8775C76.679 27.7568 76.7983 26.7575 77.037 25.8797C77.2756 25.0018 77.6187 24.2603 78.0661 23.6552C78.5135 23.0459 79.0526 22.5814 79.6833 22.2618C80.3182 21.9422 81.0277 21.7824 81.8118 21.7824C82.6343 21.7824 83.363 21.9443 83.9979 22.2682C84.6371 22.592 85.1527 23.0352 85.5448 23.5977C85.9368 24.1559 86.1797 24.7866 86.2735 25.4897H83.9404C83.8211 24.9869 83.576 24.5863 83.2053 24.288C82.8388 23.9855 82.3743 23.8342 81.8118 23.8342C80.9042 23.8342 80.2053 24.2284 79.7152 25.0167C79.2294 25.8051 78.9844 26.8875 78.9802 28.2639H79.0696C79.2785 27.8889 79.5491 27.5672 79.8814 27.2987C80.2138 27.0302 80.5888 26.8236 81.0064 26.6787C81.4283 26.5295 81.8736 26.4549 82.3424 26.4549C83.1094 26.4549 83.7976 26.6382 84.407 27.0047C85.0206 27.3711 85.5064 27.8761 85.8644 28.5196C86.2223 29.1588 86.3992 29.8917 86.3949 30.7184C86.3992 31.5792 86.2032 32.3527 85.8069 33.0388C85.4106 33.7206 84.8587 34.2575 84.1513 34.6495C83.4439 35.0416 82.6194 35.2355 81.6776 35.2312ZM81.6648 33.3136C82.1293 33.3136 82.5448 33.2007 82.9113 32.9748C83.2777 32.749 83.5675 32.4443 83.7806 32.0608C83.9937 31.6772 84.0981 31.2468 84.0938 30.7696C84.0981 30.3008 83.9958 29.8768 83.787 29.4976C83.5824 29.1183 83.2991 28.8179 82.9368 28.5963C82.5746 28.3747 82.1613 28.2639 81.6968 28.2639C81.3516 28.2639 81.0299 28.3299 80.7316 28.462C80.4333 28.5941 80.1733 28.7774 79.9517 29.0118C79.7302 29.2419 79.5554 29.5103 79.4276 29.8172C79.304 30.1197 79.2401 30.4436 79.2358 30.7888C79.2401 31.2447 79.3466 31.6645 79.5554 32.048C79.7642 32.4315 80.0519 32.7383 80.4184 32.9684C80.7848 33.1986 81.2003 33.3136 81.6648 33.3136ZM89.4439 35.1929C89.0562 35.1929 88.7238 35.0565 88.4468 34.7838C88.1698 34.5111 88.0334 34.1787 88.0377 33.7866C88.0334 33.4031 88.1698 33.075 88.4468 32.8022C88.7238 32.5295 89.0562 32.3932 89.4439 32.3932C89.8189 32.3932 90.1449 32.5295 90.4219 32.8022C90.7032 33.075 90.8459 33.4031 90.8502 33.7866C90.8459 34.0466 90.7777 34.2831 90.6456 34.4961C90.5178 34.7092 90.3473 34.8797 90.1343 35.0075C89.9255 35.1311 89.6954 35.1929 89.4439 35.1929ZM93.2136 35.0522V33.3392L97.7584 28.8839C98.193 28.445 98.5553 28.0551 98.845 27.7142C99.1348 27.3733 99.3521 27.043 99.497 26.7234C99.6419 26.4038 99.7144 26.0629 99.7144 25.7007C99.7144 25.2873 99.6206 24.9336 99.4331 24.6396C99.2456 24.3413 98.9878 24.1112 98.6597 23.9493C98.3315 23.7873 97.9587 23.7064 97.5411 23.7064C97.1107 23.7064 96.7335 23.7959 96.4097 23.9748C96.0858 24.1495 95.8344 24.3988 95.6554 24.7227C95.4807 25.0466 95.3933 25.4322 95.3933 25.8797H93.1369C93.1369 25.0487 93.3266 24.3264 93.7058 23.7128C94.0851 23.0991 94.6071 22.624 95.2719 22.2873C95.9409 21.9507 96.708 21.7824 97.573 21.7824C98.4509 21.7824 99.2222 21.9464 99.8869 22.2745C100.552 22.6027 101.067 23.0522 101.434 23.6233C101.805 24.1943 101.99 24.8463 101.99 25.5792C101.99 26.0693 101.896 26.5508 101.709 27.0238C101.521 27.4968 101.191 28.021 100.718 28.5963C100.249 29.1716 99.5908 29.8683 98.7428 30.6865L96.4864 32.9812V33.0707H102.188V35.0522H93.2136ZM109.232 35.3015C108.18 35.3015 107.276 35.0352 106.522 34.5025C105.772 33.9656 105.194 33.1922 104.79 32.1822C104.389 31.168 104.189 29.9471 104.189 28.5196C104.193 27.092 104.395 25.8775 104.796 24.8761C105.201 23.8704 105.778 23.1034 106.528 22.575C107.283 22.0466 108.184 21.7824 109.232 21.7824C110.28 21.7824 111.182 22.0466 111.936 22.575C112.69 23.1034 113.268 23.8704 113.668 24.8761C114.073 25.8818 114.275 27.0963 114.275 28.5196C114.275 29.9514 114.073 31.1744 113.668 32.1886C113.268 33.1986 112.69 33.9699 111.936 34.5025C111.186 35.0352 110.285 35.3015 109.232 35.3015ZM109.232 33.3008C110.05 33.3008 110.696 32.8981 111.169 32.0927C111.646 31.2831 111.885 30.092 111.885 28.5196C111.885 27.4798 111.776 26.6062 111.559 25.8988C111.341 25.1915 111.035 24.6588 110.638 24.3008C110.242 23.9386 109.773 23.7575 109.232 23.7575C108.418 23.7575 107.775 24.1623 107.302 24.972C106.829 25.7774 106.59 26.9599 106.586 28.5196C106.582 29.5636 106.686 30.4415 106.899 31.1531C107.116 31.8647 107.423 32.4017 107.819 32.7639C108.216 33.1218 108.687 33.3008 109.232 33.3008Z" fill="#181D27"/>
<g clip-path="url(#clip1_56_1561)">
<path d="M251.357 30.6001L246.841 35.116C246.613 35.3433 246.5 35.4569 246.369 35.4995C246.254 35.537 246.129 35.537 246.014 35.4995C245.883 35.4569 245.769 35.3433 245.542 35.116L243.971 33.5451C243.744 33.3178 243.63 33.2041 243.499 33.1616C243.384 33.1241 243.26 33.1241 243.145 33.1616C243.014 33.2041 242.9 33.3178 242.673 33.5451L239.878 36.3392M251.357 30.6001H247.339M251.357 30.6001V34.6175" stroke="#1FC16B" stroke-width="1.72174" stroke-linecap="round" stroke-linejoin="round"/>
</g>
<path d="M259.948 37.5896C259.36 37.5896 258.835 37.4883 258.373 37.2857C257.914 37.0831 257.55 36.8021 257.282 36.4426C257.016 36.0802 256.874 35.6608 256.854 35.1843H258.198C258.215 35.4439 258.302 35.6693 258.459 35.8605C258.618 36.0488 258.827 36.1943 259.084 36.297C259.34 36.3998 259.626 36.4511 259.94 36.4511C260.285 36.4511 260.59 36.3912 260.855 36.2714C261.124 36.1515 261.333 35.9846 261.485 35.7706C261.636 35.5538 261.711 35.3041 261.711 35.0216C261.711 34.7277 261.636 34.4695 261.485 34.247C261.336 34.0216 261.118 33.8447 260.83 33.7163C260.544 33.5879 260.199 33.5237 259.794 33.5237H259.054V32.4451H259.794C260.119 32.4451 260.405 32.3866 260.65 32.2697C260.898 32.1527 261.092 31.99 261.232 31.7818C261.372 31.5706 261.442 31.3238 261.442 31.0413C261.442 30.7703 261.38 30.5349 261.258 30.3351C261.138 30.1326 260.967 29.9742 260.744 29.8601C260.524 29.7459 260.265 29.6889 259.965 29.6889C259.68 29.6889 259.413 29.7417 259.165 29.8472C258.92 29.95 258.72 30.0983 258.566 30.2923C258.412 30.4835 258.329 30.7132 258.317 30.9814H257.038C257.052 30.5078 257.192 30.0912 257.457 29.7317C257.725 29.3722 258.079 29.0911 258.519 28.8885C258.958 28.686 259.446 28.5847 259.982 28.5847C260.544 28.5847 261.029 28.6945 261.438 28.9142C261.848 29.1311 262.165 29.4207 262.388 29.783C262.613 30.1454 262.724 30.542 262.721 30.9729C262.724 31.4636 262.587 31.8802 262.311 32.2226C262.037 32.565 261.671 32.7947 261.215 32.9116V32.9801C261.797 33.0686 262.248 33.2997 262.567 33.6735C262.89 34.0472 263.05 34.5109 263.047 35.0644C263.05 35.5466 262.916 35.9789 262.644 36.3612C262.376 36.7436 262.01 37.0446 261.545 37.2643C261.079 37.4811 260.547 37.5896 259.948 37.5896ZM265.266 37.551C265.032 37.551 264.831 37.4683 264.662 37.3028C264.494 37.1345 264.41 36.9319 264.41 36.6951C264.41 36.4611 264.494 36.2614 264.662 36.0959C264.831 35.9275 265.032 35.8434 265.266 35.8434C265.5 35.8434 265.701 35.9275 265.869 36.0959C266.038 36.2614 266.122 36.4611 266.122 36.6951C266.122 36.852 266.082 36.9961 266.002 37.1273C265.925 37.2557 265.822 37.3584 265.694 37.4355C265.565 37.5125 265.423 37.551 265.266 37.551ZM267.635 35.7578V34.6878L271.422 28.7045H272.266V30.2795H271.731L269.021 34.568V34.6364H274.213V35.7578H267.635ZM271.791 37.4697V35.4325L271.799 34.9446V28.7045H273.053V37.4697H271.791ZM280.28 35.8262V35.364C280.28 35.033 280.348 34.7306 280.485 34.4567C280.625 34.1799 280.828 33.9588 281.093 33.7933C281.361 33.625 281.685 33.5408 282.064 33.5408C282.452 33.5408 282.778 33.6235 283.04 33.789C283.303 33.9545 283.501 34.1756 283.635 34.4524C283.772 34.7292 283.841 35.033 283.841 35.364V35.8262C283.841 36.1572 283.772 36.4611 283.635 36.7379C283.498 37.0118 283.297 37.2329 283.032 37.4012C282.769 37.5667 282.447 37.6495 282.064 37.6495C281.679 37.6495 281.354 37.5667 281.089 37.4012C280.823 37.2329 280.622 37.0118 280.485 36.7379C280.348 36.4611 280.28 36.1572 280.28 35.8262ZM281.277 35.364V35.8262C281.277 36.0716 281.335 36.2942 281.452 36.4939C281.569 36.6936 281.773 36.7935 282.064 36.7935C282.353 36.7935 282.554 36.6936 282.668 36.4939C282.782 36.2942 282.839 36.0716 282.839 35.8262V35.364C282.839 35.1186 282.783 34.8961 282.672 34.6964C282.564 34.4966 282.361 34.3968 282.064 34.3968C281.779 34.3968 281.577 34.4966 281.457 34.6964C281.337 34.8961 281.277 35.1186 281.277 35.364ZM275.871 30.8102V30.348C275.871 30.017 275.94 29.7131 276.077 29.4364C276.217 29.1596 276.419 28.9385 276.685 28.773C276.953 28.6075 277.277 28.5248 277.656 28.5248C278.044 28.5248 278.369 28.6075 278.632 28.773C278.894 28.9385 279.093 29.1596 279.227 29.4364C279.361 29.7131 279.428 30.017 279.428 30.348V30.8102C279.428 31.1412 279.36 31.4451 279.223 31.7218C279.088 31.9957 278.889 32.2169 278.623 32.3852C278.361 32.5507 278.038 32.6334 277.656 32.6334C277.268 32.6334 276.941 32.5507 276.676 32.3852C276.414 32.2169 276.214 31.9957 276.077 31.7218C275.94 31.4451 275.871 31.1412 275.871 30.8102ZM276.873 30.348V30.8102C276.873 31.0556 276.93 31.2781 277.044 31.4779C277.161 31.6776 277.365 31.7775 277.656 31.7775C277.941 31.7775 278.141 31.6776 278.255 31.4779C278.372 31.2781 278.431 31.0556 278.431 30.8102V30.348C278.431 30.1026 278.375 29.8801 278.264 29.6803C278.153 29.4806 277.95 29.3807 277.656 29.3807C277.371 29.3807 277.168 29.4806 277.048 29.6803C276.931 29.8801 276.873 30.1026 276.873 30.348ZM276.278 37.4697L282.304 28.7045H283.327L277.301 37.4697H276.278Z" fill="#1FC16B"/>
<line x1="12.4827" y1="76.4739" x2="283.622" y2="76.4739" stroke="#F5F5F5" stroke-width="0.86087" stroke-linecap="round"/>
<line x1="12.4827" y1="103.038" x2="283.622" y2="103.038" stroke="#F5F5F5" stroke-width="0.86087" stroke-linecap="round"/>
<line x1="12.4827" y1="127.45" x2="283.622" y2="127.45" stroke="#F5F5F5" stroke-width="0.86087" stroke-linecap="round"/>
<line x1="12.4827" y1="151.863" x2="283.622" y2="151.863" stroke="#F5F5F5" stroke-width="0.86087" stroke-linecap="round"/>
<line x1="12.4827" y1="176.275" x2="283.622" y2="176.275" stroke="#F5F5F5" stroke-width="0.86087" stroke-linecap="round"/>
<line x1="12.4827" y1="200.687" x2="283.622" y2="200.687" stroke="#F5F5F5" stroke-width="0.86087" stroke-linecap="round"/>
<path d="M23.2519 212.922H24.1617V218.292C24.1617 218.772 24.0736 219.179 23.8975 219.514C23.7214 219.849 23.4732 220.103 23.1528 220.277C22.8324 220.45 22.4546 220.537 22.0193 220.537C21.6084 220.537 21.2428 220.463 20.9224 220.314C20.602 220.162 20.3501 219.947 20.1667 219.668C19.9833 219.389 19.8915 219.058 19.8915 218.674H20.7867C20.7867 218.886 20.8392 219.072 20.9444 219.231C21.052 219.388 21.1987 219.51 21.3846 219.598C21.5705 219.686 21.782 219.73 22.0193 219.73C22.2809 219.73 22.5035 219.675 22.6869 219.565C22.8703 219.455 23.0098 219.294 23.1051 219.081C23.203 218.866 23.2519 218.603 23.2519 218.292V212.922ZM27.5256 220.567C27.1686 220.567 26.8445 220.499 26.5535 220.365C26.2625 220.228 26.0314 220.031 25.8602 219.774C25.689 219.515 25.6034 219.202 25.6034 218.835C25.6034 218.512 25.667 218.251 25.7941 218.05C25.9213 217.847 26.0913 217.688 26.304 217.573C26.5168 217.458 26.7516 217.373 27.0084 217.316C27.2676 217.258 27.5281 217.211 27.7898 217.177C28.1322 217.133 28.4098 217.1 28.6225 217.078C28.8377 217.053 28.9943 217.013 29.0921 216.957C29.1924 216.901 29.2425 216.803 29.2425 216.663V216.634C29.2425 216.272 29.1434 215.991 28.9454 215.79C28.7497 215.59 28.4526 215.489 28.0539 215.489C27.6406 215.489 27.3165 215.58 27.0818 215.761C26.847 215.942 26.6819 216.135 26.5865 216.341L25.7648 216.047C25.9115 215.705 26.1072 215.438 26.3517 215.247C26.5987 215.054 26.8678 214.92 27.1588 214.844C27.4523 214.766 27.7409 214.726 28.0246 214.726C28.2055 214.726 28.4134 214.748 28.6482 214.792C28.8854 214.834 29.1141 214.921 29.3342 215.053C29.5568 215.185 29.7414 215.384 29.8881 215.651C30.0349 215.917 30.1083 216.275 30.1083 216.722V220.435H29.2425V219.672H29.1985C29.1398 219.794 29.042 219.925 28.905 220.064C28.768 220.203 28.5858 220.322 28.3584 220.42C28.1309 220.518 27.8534 220.567 27.5256 220.567ZM27.6577 219.789C28.0001 219.789 28.2887 219.722 28.5235 219.587C28.7607 219.453 28.9392 219.279 29.0591 219.066C29.1814 218.853 29.2425 218.63 29.2425 218.395V217.603C29.2058 217.647 29.1251 217.687 29.0004 217.724C28.8781 217.758 28.7362 217.788 28.5748 217.815C28.4159 217.84 28.2606 217.862 28.1089 217.881C27.9598 217.898 27.8387 217.913 27.7458 217.925C27.5208 217.955 27.3104 218.002 27.1148 218.068C26.9216 218.132 26.7651 218.229 26.6452 218.358C26.5278 218.485 26.4691 218.659 26.4691 218.879C26.4691 219.18 26.5804 219.407 26.803 219.561C27.028 219.713 27.3129 219.789 27.6577 219.789ZM32.5542 217.045V220.435H31.6885V214.8H32.5249V215.68H32.5982C32.7303 215.394 32.9308 215.164 33.1999 214.991C33.4689 214.814 33.8162 214.726 34.2417 214.726C34.6232 214.726 34.9571 214.805 35.2432 214.961C35.5294 215.115 35.7519 215.35 35.9109 215.666C36.0698 215.979 36.1493 216.375 36.1493 216.854V220.435H35.2836V216.913C35.2836 216.47 35.1686 216.125 34.9387 215.878C34.7088 215.629 34.3933 215.504 33.9923 215.504C33.7159 215.504 33.4689 215.564 33.2512 215.684C33.036 215.804 32.866 215.979 32.7413 216.208C32.6166 216.438 32.5542 216.717 32.5542 217.045Z" fill="#1966FF"/>
<path d="M59.0318 212.922H60.1176L62.6709 219.158H62.7589L65.3122 212.922H66.3981V220.435H65.547V214.726H65.4736L63.1258 220.435H62.3041L59.9562 214.726H59.8829V220.435H59.0318V212.922ZM69.763 220.567C69.4059 220.567 69.0819 220.499 68.7908 220.365C68.4998 220.228 68.2687 220.031 68.0975 219.774C67.9263 219.515 67.8407 219.202 67.8407 218.835C67.8407 218.512 67.9043 218.251 68.0315 218.05C68.1586 217.847 68.3286 217.688 68.5414 217.573C68.7542 217.458 68.9889 217.373 69.2457 217.316C69.505 217.258 69.7654 217.211 70.0271 217.177C70.3695 217.133 70.6471 217.1 70.8599 217.078C71.0751 217.053 71.2316 217.013 71.3294 216.957C71.4297 216.901 71.4798 216.803 71.4798 216.663V216.634C71.4798 216.272 71.3808 215.991 71.1827 215.79C70.987 215.59 70.6899 215.489 70.2912 215.489C69.8779 215.489 69.5539 215.58 69.3191 215.761C69.0843 215.942 68.9192 216.135 68.8239 216.341L68.0021 216.047C68.1489 215.705 68.3445 215.438 68.5891 215.247C68.8361 215.054 69.1051 214.92 69.3961 214.844C69.6896 214.766 69.9782 214.726 70.2619 214.726C70.4429 214.726 70.6508 214.748 70.8855 214.792C71.1228 214.834 71.3514 214.921 71.5715 215.053C71.7941 215.185 71.9787 215.384 72.1255 215.651C72.2722 215.917 72.3456 216.275 72.3456 216.722V220.435H71.4798V219.672H71.4358C71.3771 219.794 71.2793 219.925 71.1423 220.064C71.0054 220.203 70.8232 220.322 70.5957 220.42C70.3683 220.518 70.0907 220.567 69.763 220.567ZM69.8951 219.789C70.2374 219.789 70.526 219.722 70.7608 219.587C70.998 219.453 71.1766 219.279 71.2964 219.066C71.4187 218.853 71.4798 218.63 71.4798 218.395V217.603C71.4431 217.647 71.3624 217.687 71.2377 217.724C71.1154 217.758 70.9736 217.788 70.8122 217.815C70.6532 217.84 70.4979 217.862 70.3463 217.881C70.1971 217.898 70.076 217.913 69.9831 217.925C69.7581 217.955 69.5478 218.002 69.3521 218.068C69.1589 218.132 69.0024 218.229 68.8826 218.358C68.7652 218.485 68.7065 218.659 68.7065 218.879C68.7065 219.18 68.8177 219.407 69.0403 219.561C69.2653 219.713 69.5502 219.789 69.8951 219.789ZM73.9258 220.435V214.8H74.7622V215.651H74.8209C74.9236 215.372 75.1095 215.146 75.3785 214.972C75.6475 214.799 75.9508 214.712 76.2883 214.712C76.3519 214.712 76.4314 214.713 76.5267 214.715C76.6221 214.718 76.6943 214.722 76.7432 214.726V215.607C76.7138 215.6 76.6466 215.589 76.5414 215.574C76.4387 215.557 76.3299 215.548 76.2149 215.548C75.941 215.548 75.6964 215.606 75.4812 215.721C75.2685 215.833 75.0997 215.99 74.975 216.19C74.8527 216.388 74.7916 216.614 74.7916 216.869V220.435H73.9258Z" fill="#1966FF"/>
<path d="M99.3644 212.922H100.45L103.004 219.158H103.092L105.645 212.922H106.731V220.435H105.88V214.726H105.806L103.458 220.435H102.637L100.289 214.726H100.216V220.435H99.3644V212.922ZM110.096 220.567C109.739 220.567 109.415 220.499 109.124 220.365C108.832 220.228 108.601 220.031 108.43 219.774C108.259 219.515 108.173 219.202 108.173 218.835C108.173 218.512 108.237 218.251 108.364 218.05C108.491 217.847 108.661 217.688 108.874 217.573C109.087 217.458 109.322 217.373 109.578 217.316C109.838 217.258 110.098 217.211 110.36 217.177C110.702 217.133 110.98 217.1 111.193 217.078C111.408 217.053 111.564 217.013 111.662 216.957C111.762 216.901 111.813 216.803 111.813 216.663V216.634C111.813 216.272 111.713 215.991 111.515 215.79C111.32 215.59 111.023 215.489 110.624 215.489C110.211 215.489 109.887 215.58 109.652 215.761C109.417 215.942 109.252 216.135 109.157 216.341L108.335 216.047C108.482 215.705 108.677 215.438 108.922 215.247C109.169 215.054 109.438 214.92 109.729 214.844C110.022 214.766 110.311 214.726 110.595 214.726C110.776 214.726 110.983 214.748 111.218 214.792C111.455 214.834 111.684 214.921 111.904 215.053C112.127 215.185 112.311 215.384 112.458 215.651C112.605 215.917 112.678 216.275 112.678 216.722V220.435H111.813V219.672H111.768C111.71 219.794 111.612 219.925 111.475 220.064C111.338 220.203 111.156 220.322 110.928 220.42C110.701 220.518 110.423 220.567 110.096 220.567ZM110.228 219.789C110.57 219.789 110.859 219.722 111.093 219.587C111.331 219.453 111.509 219.279 111.629 219.066C111.751 218.853 111.813 218.63 111.813 218.395V217.603C111.776 217.647 111.695 217.687 111.57 217.724C111.448 217.758 111.306 217.788 111.145 217.815C110.986 217.84 110.831 217.862 110.679 217.881C110.53 217.898 110.409 217.913 110.316 217.925C110.091 217.955 109.88 218.002 109.685 218.068C109.492 218.132 109.335 218.229 109.215 218.358C109.098 218.485 109.039 218.659 109.039 218.879C109.039 219.18 109.15 219.407 109.373 219.561C109.598 219.713 109.883 219.789 110.228 219.789ZM114.614 222.548C114.468 222.548 114.337 222.535 114.222 222.511C114.107 222.489 114.027 222.467 113.983 222.445L114.203 221.682C114.414 221.736 114.6 221.755 114.761 221.741C114.922 221.726 115.066 221.654 115.19 221.524C115.317 221.397 115.434 221.19 115.539 220.904L115.7 220.464L113.616 214.8H114.556L116.111 219.29H116.17L117.725 214.8H118.664L116.272 221.256C116.165 221.547 116.032 221.788 115.873 221.979C115.714 222.172 115.529 222.315 115.319 222.408C115.111 222.501 114.876 222.548 114.614 222.548Z" fill="#1966FF"/>
<path d="M144.775 212.922H145.685V218.292C145.685 218.772 145.597 219.179 145.421 219.514C145.245 219.849 144.996 220.103 144.676 220.277C144.356 220.45 143.978 220.537 143.542 220.537C143.132 220.537 142.766 220.463 142.446 220.314C142.125 220.162 141.873 219.947 141.69 219.668C141.506 219.389 141.415 219.058 141.415 218.674H142.31C142.31 218.886 142.362 219.072 142.468 219.231C142.575 219.388 142.722 219.51 142.908 219.598C143.094 219.686 143.305 219.73 143.542 219.73C143.804 219.73 144.027 219.675 144.21 219.565C144.393 219.455 144.533 219.294 144.628 219.081C144.726 218.866 144.775 218.603 144.775 218.292V212.922ZM150.942 218.131V214.8H151.807V220.435H150.942V219.481H150.883C150.751 219.767 150.546 220.01 150.267 220.211C149.988 220.409 149.636 220.508 149.21 220.508C148.858 220.508 148.545 220.431 148.271 220.277C147.997 220.12 147.782 219.886 147.625 219.572C147.469 219.257 147.391 218.86 147.391 218.38V214.8H148.256V218.322C148.256 218.732 148.371 219.06 148.601 219.305C148.834 219.549 149.129 219.672 149.489 219.672C149.704 219.672 149.923 219.616 150.146 219.506C150.371 219.396 150.559 219.228 150.711 219C150.865 218.773 150.942 218.483 150.942 218.131ZM154.259 212.922V220.435H153.393V212.922H154.259Z" fill="#1966FF"/>
<path d="M181.213 214.8C181.169 214.428 180.99 214.139 180.677 213.934C180.364 213.729 179.98 213.626 179.525 213.626C179.193 213.626 178.902 213.68 178.652 213.787C178.405 213.895 178.212 214.043 178.073 214.231C177.936 214.419 177.867 214.633 177.867 214.873C177.867 215.074 177.915 215.246 178.01 215.39C178.108 215.532 178.233 215.651 178.385 215.746C178.536 215.839 178.695 215.916 178.861 215.977C179.028 216.036 179.181 216.084 179.32 216.12L180.083 216.326C180.279 216.377 180.496 216.448 180.736 216.539C180.978 216.629 181.209 216.753 181.429 216.909C181.652 217.063 181.835 217.261 181.98 217.503C182.124 217.746 182.196 218.043 182.196 218.395C182.196 218.801 182.09 219.168 181.877 219.495C181.667 219.823 181.358 220.084 180.952 220.277C180.549 220.47 180.059 220.567 179.481 220.567C178.943 220.567 178.477 220.48 178.084 220.306C177.692 220.133 177.384 219.89 177.159 219.58C176.937 219.269 176.811 218.908 176.781 218.498H177.721C177.745 218.781 177.84 219.016 178.007 219.202C178.175 219.385 178.388 219.522 178.645 219.613C178.904 219.701 179.183 219.745 179.481 219.745C179.829 219.745 180.14 219.689 180.417 219.576C180.693 219.461 180.912 219.302 181.074 219.099C181.235 218.894 181.316 218.654 181.316 218.38C181.316 218.131 181.246 217.928 181.107 217.771C180.967 217.615 180.784 217.488 180.556 217.39C180.329 217.292 180.083 217.206 179.819 217.133L178.894 216.869C178.307 216.7 177.843 216.459 177.5 216.146C177.158 215.833 176.987 215.423 176.987 214.917C176.987 214.497 177.101 214.13 177.328 213.817C177.558 213.501 177.866 213.257 178.252 213.083C178.641 212.907 179.075 212.819 179.555 212.819C180.039 212.819 180.469 212.906 180.846 213.079C181.223 213.25 181.521 213.485 181.741 213.784C181.964 214.082 182.081 214.421 182.093 214.8H181.213ZM185.937 220.552C185.394 220.552 184.926 220.432 184.532 220.192C184.141 219.95 183.839 219.613 183.626 219.18C183.416 218.745 183.31 218.238 183.31 217.661C183.31 217.084 183.416 216.575 183.626 216.135C183.839 215.692 184.135 215.348 184.514 215.101C184.895 214.851 185.34 214.726 185.849 214.726C186.142 214.726 186.432 214.775 186.718 214.873C187.005 214.971 187.265 215.13 187.5 215.35C187.735 215.568 187.922 215.856 188.061 216.216C188.2 216.575 188.27 217.018 188.27 217.544V217.911H183.927V217.162H187.39C187.39 216.844 187.326 216.561 187.199 216.311C187.074 216.062 186.896 215.865 186.663 215.721C186.433 215.576 186.162 215.504 185.849 215.504C185.504 215.504 185.206 215.59 184.954 215.761C184.704 215.93 184.512 216.15 184.378 216.421C184.243 216.693 184.176 216.984 184.176 217.294V217.793C184.176 218.219 184.249 218.58 184.396 218.875C184.545 219.169 184.752 219.393 185.016 219.547C185.28 219.698 185.587 219.774 185.937 219.774C186.164 219.774 186.37 219.742 186.553 219.679C186.739 219.613 186.899 219.515 187.034 219.385C187.168 219.253 187.272 219.089 187.346 218.894L188.182 219.129C188.094 219.412 187.946 219.662 187.738 219.877C187.53 220.09 187.274 220.256 186.968 220.376C186.662 220.493 186.319 220.552 185.937 220.552ZM189.587 222.548V214.8H190.424V215.695H190.526C190.59 215.597 190.678 215.472 190.79 215.321C190.905 215.167 191.069 215.03 191.282 214.91C191.497 214.788 191.788 214.726 192.155 214.726C192.63 214.726 193.048 214.845 193.41 215.082C193.772 215.319 194.054 215.656 194.257 216.091C194.46 216.526 194.562 217.04 194.562 217.632C194.562 218.229 194.46 218.746 194.257 219.184C194.054 219.619 193.773 219.956 193.413 220.196C193.054 220.433 192.639 220.552 192.17 220.552C191.808 220.552 191.518 220.492 191.3 220.372C191.083 220.25 190.915 220.112 190.798 219.958C190.68 219.801 190.59 219.672 190.526 219.569H190.453V222.548H189.587ZM190.438 217.617C190.438 218.043 190.501 218.418 190.625 218.743C190.75 219.066 190.932 219.319 191.172 219.503C191.412 219.684 191.705 219.774 192.052 219.774C192.414 219.774 192.716 219.679 192.958 219.488C193.203 219.295 193.386 219.036 193.509 218.71C193.633 218.383 193.696 218.018 193.696 217.617C193.696 217.221 193.635 216.864 193.512 216.546C193.393 216.226 193.21 215.972 192.966 215.787C192.724 215.598 192.419 215.504 192.052 215.504C191.7 215.504 191.404 215.593 191.165 215.772C190.925 215.948 190.744 216.195 190.622 216.513C190.499 216.828 190.438 217.197 190.438 217.617Z" fill="#1966FF"/>
<path d="M223.504 212.922V220.435H222.624L218.53 214.536H218.456V220.435H217.547V212.922H218.427L222.536 218.835H222.609V212.922H223.504ZM227.496 220.552C226.988 220.552 226.541 220.431 226.157 220.189C225.776 219.947 225.478 219.608 225.262 219.173C225.05 218.737 224.943 218.229 224.943 217.647C224.943 217.06 225.05 216.547 225.262 216.109C225.478 215.672 225.776 215.332 226.157 215.09C226.541 214.847 226.988 214.726 227.496 214.726C228.005 214.726 228.45 214.847 228.832 215.09C229.216 215.332 229.514 215.672 229.727 216.109C229.942 216.547 230.05 217.06 230.05 217.647C230.05 218.229 229.942 218.737 229.727 219.173C229.514 219.608 229.216 219.947 228.832 220.189C228.45 220.431 228.005 220.552 227.496 220.552ZM227.496 219.774C227.883 219.774 228.201 219.675 228.45 219.477C228.7 219.279 228.884 219.019 229.004 218.696C229.124 218.373 229.184 218.023 229.184 217.647C229.184 217.27 229.124 216.919 229.004 216.594C228.884 216.268 228.7 216.005 228.45 215.805C228.201 215.604 227.883 215.504 227.496 215.504C227.11 215.504 226.792 215.604 226.543 215.805C226.293 216.005 226.109 216.268 225.989 216.594C225.869 216.919 225.809 217.27 225.809 217.647C225.809 218.023 225.869 218.373 225.989 218.696C226.109 219.019 226.293 219.279 226.543 219.477C226.792 219.675 227.11 219.774 227.496 219.774ZM235.777 214.8L233.693 220.435H232.813L230.729 214.8H231.668L233.224 219.29H233.283L234.838 214.8H235.777Z" fill="#1966FF"/>
<path d="M261.186 220.435H258.867V212.922H261.288C262.017 212.922 262.641 213.072 263.159 213.373C263.678 213.671 264.075 214.1 264.352 214.66C264.628 215.218 264.766 215.886 264.766 216.663C264.766 217.446 264.627 218.12 264.348 218.685C264.069 219.247 263.663 219.68 263.13 219.983C262.597 220.284 261.949 220.435 261.186 220.435ZM259.777 219.628H261.127C261.748 219.628 262.263 219.508 262.671 219.268C263.08 219.028 263.384 218.687 263.585 218.244C263.785 217.802 263.886 217.275 263.886 216.663C263.886 216.057 263.787 215.535 263.588 215.097C263.39 214.657 263.094 214.319 262.701 214.084C262.307 213.847 261.817 213.729 261.23 213.729H259.777V219.628ZM268.537 220.552C267.994 220.552 267.526 220.432 267.132 220.192C266.741 219.95 266.439 219.613 266.226 219.18C266.016 218.745 265.911 218.238 265.911 217.661C265.911 217.084 266.016 216.575 266.226 216.135C266.439 215.692 266.735 215.348 267.114 215.101C267.495 214.851 267.941 214.726 268.449 214.726C268.743 214.726 269.033 214.775 269.319 214.873C269.605 214.971 269.865 215.13 270.1 215.35C270.335 215.568 270.522 215.856 270.661 216.216C270.801 216.575 270.87 217.018 270.87 217.544V217.911H266.527V217.162H269.99C269.99 216.844 269.926 216.561 269.799 216.311C269.674 216.062 269.496 215.865 269.264 215.721C269.034 215.576 268.762 215.504 268.449 215.504C268.104 215.504 267.806 215.59 267.554 215.761C267.305 215.93 267.113 216.15 266.978 216.421C266.844 216.693 266.776 216.984 266.776 217.294V217.793C266.776 218.219 266.85 218.58 266.997 218.875C267.146 219.169 267.352 219.393 267.616 219.547C267.881 219.698 268.188 219.774 268.537 219.774C268.765 219.774 268.97 219.742 269.154 219.679C269.339 219.613 269.5 219.515 269.634 219.385C269.769 219.253 269.873 219.089 269.946 218.894L270.782 219.129C270.694 219.412 270.546 219.662 270.338 219.877C270.131 220.09 269.874 220.256 269.568 220.376C269.262 220.493 268.919 220.552 268.537 220.552ZM274.477 220.552C273.948 220.552 273.493 220.427 273.112 220.178C272.73 219.928 272.437 219.585 272.231 219.147C272.026 218.709 271.923 218.209 271.923 217.647C271.923 217.074 272.028 216.569 272.239 216.131C272.452 215.691 272.747 215.348 273.127 215.101C273.508 214.851 273.953 214.726 274.462 214.726C274.858 214.726 275.215 214.8 275.533 214.947C275.851 215.093 276.111 215.299 276.314 215.563C276.517 215.827 276.643 216.135 276.692 216.487H275.827C275.76 216.23 275.614 216.003 275.386 215.805C275.161 215.604 274.858 215.504 274.477 215.504C274.139 215.504 273.843 215.592 273.589 215.768C273.337 215.942 273.14 216.188 272.998 216.506C272.859 216.821 272.789 217.192 272.789 217.617C272.789 218.053 272.858 218.432 272.994 218.754C273.134 219.077 273.33 219.328 273.581 219.506C273.836 219.685 274.134 219.774 274.477 219.774C274.702 219.774 274.906 219.735 275.089 219.657C275.273 219.579 275.428 219.466 275.555 219.319C275.682 219.173 275.773 218.997 275.827 218.791H276.692C276.643 219.124 276.522 219.423 276.329 219.69C276.138 219.954 275.885 220.164 275.57 220.321C275.257 220.475 274.892 220.552 274.477 220.552Z" fill="#1966FF"/>
<g clip-path="url(#clip2_56_1561)">
<mask id="mask0_56_1561" style="mask-type:alpha" maskUnits="userSpaceOnUse" x="12" y="79" width="273" height="122">
<rect width="272.278" height="121.313" transform="translate(12.0522 79.4868)" fill="url(#paint0_linear_56_1561)"/>
</mask>
<g mask="url(#mask0_56_1561)">
<path opacity="0.05" d="M284.331 200.8H12.0522V160.12C13.499 160.119 14.9376 159.515 15.9585 158.335L17.8491 156.15C18.8031 155.047 20.0539 153.607 21.4761 152.287C22.9721 150.897 24.2487 150.034 25.1499 149.708C25.8649 149.451 26.761 149.395 28.3511 149.619C29.1991 149.738 29.9457 149.885 31.0376 150.071C32.0333 150.241 33.2162 150.423 34.4673 150.49C39.7742 150.773 44.8875 148.939 49.5903 144.597C51.7306 142.621 53.9448 139.937 55.6196 138.053C57.5652 135.865 58.9045 134.603 59.8843 134.074C60.492 133.746 61.1679 133.624 62.3735 133.796C63.0189 133.889 63.7347 134.054 64.6323 134.289C65.4344 134.499 66.573 134.819 67.6079 135.059C69.7386 135.554 71.9427 135.844 73.645 136.112C75.4667 136.399 76.9881 136.695 78.4302 137.195C79.3039 137.498 79.8867 137.764 81.1147 138.233C82.1452 138.626 83.4797 139.095 84.9468 139.339C86.4643 139.592 88.2358 139.625 90.1138 139.062C92.0072 138.494 93.685 137.418 95.1499 135.928C97.7051 133.33 99.956 129.008 101.727 125.583C103.739 121.69 105.378 118.425 106.925 116.386C108.292 114.587 109.12 114.414 109.31 114.383C109.612 114.334 110.304 114.356 111.721 115.114C112.426 115.491 113.186 115.98 114.141 116.613C115.027 117.199 116.131 117.943 117.248 118.587C119.351 119.801 122.749 121.435 126.667 120.528C128.54 120.094 130.119 119.164 131.313 118.323C132.525 117.469 133.667 116.467 134.607 115.631C135.625 114.726 136.415 114.007 137.203 113.387C137.993 112.766 138.482 112.491 138.746 112.386C139.039 112.271 139.569 112.172 141.065 112.611C141.838 112.838 142.583 113.116 143.641 113.488C144.608 113.828 145.808 114.235 147.084 114.515C149.687 115.086 152.152 115.034 154.204 114.899C156.518 114.746 157.863 114.549 159.595 114.529C161.146 114.511 162.75 114.668 164.683 114.866C166.519 115.054 168.692 115.284 170.91 115.272C175.172 115.248 179.722 114.27 182.973 113.795C186.562 113.271 190.103 113.033 194.025 112.687C197.836 112.351 202.033 111.909 206.314 110.706C208.437 110.109 210.516 109.341 212.387 108.646C214.326 107.926 216.042 107.283 217.735 106.779C221.022 105.8 226.532 104.927 231.507 99.1919C233.662 96.7081 235.922 93.0094 237.549 90.6177C238.461 89.2775 239.247 88.212 239.95 87.4331C240.224 87.129 240.44 86.9212 240.596 86.7827C240.833 86.8993 241.203 87.1045 241.738 87.4644C242.126 87.726 242.533 88.0181 243.006 88.3618C243.457 88.6888 243.986 89.0765 244.518 89.4448C245.548 90.1583 246.934 91.0514 248.517 91.6323C251.935 92.886 255.115 92.3124 257.485 91.5845C258.664 91.2221 259.796 90.7721 260.733 90.395C261.735 89.9916 262.518 89.6715 263.288 89.4126C264.774 88.9124 266.327 88.6077 268.201 88.2808C269.976 87.9709 272.167 87.6229 274.357 87.02C278.389 85.9096 282.306 83.9764 284.331 82.9517V200.8Z" fill="#4E5AB3"/>
</g>
<path d="M12.0522 154.956L13.9431 152.77C15.8339 150.584 19.6155 146.213 23.3972 144.849C27.1788 143.485 30.9605 145.129 34.7421 145.331C38.5237 145.533 42.3054 144.293 46.087 140.802C49.8687 137.31 53.6503 131.568 57.432 129.528C61.2136 127.487 64.9952 129.149 68.7769 130.028C72.5585 130.907 76.3402 131.003 80.1218 132.314C83.9035 133.625 87.6851 136.151 91.4667 132.306C95.2484 128.46 99.03 118.244 102.812 113.263C106.593 108.282 110.375 108.536 114.157 110.558C117.938 112.58 121.72 116.371 125.502 115.495C129.283 114.619 133.065 109.078 136.846 107.583C140.628 106.088 144.41 108.64 148.191 109.47C151.973 110.299 155.755 109.407 159.536 109.364C163.318 109.321 167.1 110.127 170.881 110.106C174.663 110.085 178.445 109.236 182.226 108.684C186.008 108.132 189.789 107.875 193.571 107.542C197.353 107.208 201.134 106.797 204.916 105.733C208.698 104.67 212.479 102.954 216.261 101.828C220.043 100.702 223.824 100.166 227.606 95.8066C231.388 91.4474 235.169 83.265 238.951 81.7519C242.732 80.2388 246.514 85.395 250.296 86.7825C254.077 88.1699 257.859 85.7886 261.641 84.5165C265.422 83.2444 269.204 83.0814 272.986 82.04C276.767 80.9987 280.549 79.0789 282.44 78.119L284.331 77.1592" stroke="#4E5AB3" stroke-width="1.72174" stroke-linecap="round" stroke-linejoin="round"/>
</g>
<g filter="url(#filter0_d_56_1561)">
<g clip-path="url(#clip3_56_1561)">
<path d="M53 146C53 141.582 56.5817 138 61 138H240V305.616H53V146Z" fill="white"/>
<rect x="65" y="150" width="116" height="10" rx="5" fill="#E7E7E7"/>
<path d="M75.2621 194.802C71.0112 194.802 67.5654 191.356 67.5654 187.105C67.5654 182.854 71.0112 179.409 75.2621 179.409C79.5129 179.409 82.9587 182.854 82.9587 187.105C82.9587 191.356 79.5129 194.802 75.2621 194.802ZM74.4947 190.184L79.9362 184.742L78.8479 183.653L74.4947 188.007L72.3173 185.83L71.229 186.918L74.4947 190.184Z" fill="#4E5AB3"/>
<rect x="94.6465" y="178.554" width="116.305" height="5.70122" rx="2.85061" fill="#EAEAEA"/>
<rect x="94.6465" y="189.956" width="95.7805" height="5.70122" rx="2.85061" fill="#F5F5F5"/>
<path d="M75.2621 229.326C71.0112 229.326 67.5654 225.881 67.5654 221.63C67.5654 217.379 71.0112 213.933 75.2621 213.933C79.5129 213.933 82.9587 217.379 82.9587 221.63C82.9587 225.881 79.5129 229.326 75.2621 229.326ZM74.4947 224.708L79.9362 219.266L78.8479 218.178L74.4947 222.532L72.3173 220.354L71.229 221.443L74.4947 224.708Z" fill="#4E5AB3"/>
<rect x="94.6465" y="213.078" width="116.305" height="5.70122" rx="2.85061" fill="#EAEAEA"/>
<rect x="94.6465" y="224.48" width="95.7805" height="5.70122" rx="2.85061" fill="#F5F5F5"/>
</g>
<path d="M61 138.507H239.493V305.109H53.5068V146C53.5068 141.862 56.8616 138.507 61 138.507Z" stroke="#F4F4F4" stroke-width="1.01355"/>
</g>
</g>
<rect x="0.430435" y="0.430435" width="296.139" height="235.789" rx="11.5696" stroke="#EDE9FE" stroke-width="0.86087"/>
<defs>
<filter id="filter0_d_56_1561" x="48.9458" y="138" width="195.108" height="175.724" filterUnits="userSpaceOnUse" color-interpolation-filters="sRGB">
<feFlood flood-opacity="0" result="BackgroundImageFix"/>
<feColorMatrix in="SourceAlpha" type="matrix" values="0 0 0 0 0 0 0 0 0 0 0 0 0 0 0 0 0 0 127 0" result="hardAlpha"/>
<feOffset dy="4.0542"/>
<feGaussianBlur stdDeviation="2.0271"/>
<feComposite in2="hardAlpha" operator="out"/>
<feColorMatrix type="matrix" values="0 0 0 0 0.789626 0 0 0 0 0.789626 0 0 0 0 0.789626 0 0 0 0.25 0"/>
<feBlend mode="normal" in2="BackgroundImageFix" result="effect1_dropShadow_56_1561"/>
<feBlend mode="normal" in="SourceGraphic" in2="effect1_dropShadow_56_1561" result="shape"/>
</filter>
<linearGradient id="paint0_linear_56_1561" x1="136.139" y1="0" x2="136.139" y2="121.313" gradientUnits="userSpaceOnUse">
<stop/>
<stop offset="1" stop-opacity="0"/>
</linearGradient>
<clipPath id="clip0_56_1561">
<rect width="297" height="236.649" rx="12" fill="white"/>
</clipPath>
<clipPath id="clip1_56_1561">
<rect width="13.7739" height="13.7739" fill="white" transform="translate(238.73 26.583)"/>
</clipPath>
<clipPath id="clip2_56_1561">
<rect width="272.278" height="133.365" fill="white" transform="translate(12.0522 67.4346)"/>
</clipPath>
<clipPath id="clip3_56_1561">
<path d="M53 146C53 141.582 56.5817 138 61 138H240V305.616H53V146Z" fill="white"/>
</clipPath>
</defs>
</svg>
