<svg width="285" height="210" viewBox="0 0 285 210" fill="none" xmlns="http://www.w3.org/2000/svg">
<rect width="285" height="210" rx="13.9024" fill="white"/>
<line opacity="0.64" x1="12.5793" y1="80.9329" x2="272.421" y2="80.9329" stroke="#F7F7FB" stroke-width="1.15854" stroke-linecap="round" stroke-dasharray="4.63 4.63"/>
<path d="M12.4639 104.891L14.2694 102.952C16.075 101.014 19.6861 97.1366 23.2972 95.927C26.9083 94.7175 30.5194 96.1753 34.1305 96.3543C37.7416 96.5333 41.3528 95.4334 44.9639 92.337C48.575 89.2405 52.1861 84.1475 55.7972 82.3378C59.4083 80.5281 63.0194 82.0016 66.6305 82.7812C70.2416 83.5608 73.8528 83.6465 77.4639 84.8093C81.075 85.9722 84.6861 88.2123 88.2972 84.8017C91.9083 81.391 97.2738 80.3085 100.885 75.8906C104.496 71.4728 106.221 70.597 109.832 72.3906C113.443 74.1843 117.8 76.6673 121.411 75.8906C125.022 75.1139 128.019 64.2 131.631 62.8742C135.242 61.5483 138.853 63.8118 142.464 64.5477C146.075 65.2836 149.686 64.4921 153.297 64.4539C156.908 64.4156 160.519 65.1307 164.131 65.1121C167.742 65.0934 171.353 64.3409 174.964 63.851C178.575 63.3611 182.186 63.1338 185.797 62.8378C189.408 62.5417 193.019 62.177 196.631 61.2337C200.242 60.2905 203.853 58.7688 207.464 57.7702C211.075 56.7716 214.686 56.296 218.297 52.4296C221.908 48.5633 225.519 41.306 229.131 39.964C232.742 38.622 236.353 43.1952 239.964 44.4258C243.575 45.6564 247.186 43.5444 250.797 42.4161C254.408 41.2878 258.019 41.1432 261.631 40.2196C265.242 39.296 268.853 37.5933 270.658 36.742L272.464 35.8906" stroke="#4E5AB3" stroke-width="1.72174" stroke-linecap="round" stroke-linejoin="round"/>
<g filter="url(#filter0_dd_56_1707)">
<path d="M45 80C45 74.4772 49.4772 70 55 70H230C235.523 70 240 74.4772 240 80V125C240 130.523 235.523 135 230 135H55C49.4772 135 45 130.523 45 125V80Z" fill="white"/>
<path d="M230 69.4209C235.843 69.4209 240.579 74.1572 240.579 80V125C240.579 130.843 235.843 135.579 230 135.579H55C49.1572 135.579 44.4209 130.843 44.4209 125V80C44.4209 74.1572 49.1572 69.4209 55 69.4209H230Z" stroke="#F7F7F7" stroke-width="1.15854"/>
<path d="M54.6122 84.2024V82.8891H62.4372V84.2024H59.2825V93H57.762V84.2024H54.6122ZM65.5241 88.4975V93H64.0479V82.8891H65.5043V86.6511H65.5981C65.7758 86.243 66.0474 85.9188 66.4127 85.6785C66.778 85.4382 67.2553 85.3181 67.8444 85.3181C68.3645 85.3181 68.8187 85.4251 69.207 85.639C69.5987 85.8529 69.9015 86.1722 70.1154 86.5968C70.3327 87.0181 70.4413 87.5447 70.4413 88.1766V93H68.9651V88.3543C68.9651 87.7981 68.8219 87.3669 68.5356 87.0609C68.2493 86.7515 67.851 86.5968 67.3409 86.5968C66.992 86.5968 66.6793 86.6708 66.4028 86.8189C66.1297 86.9671 65.9141 87.1843 65.7561 87.4706C65.6014 87.7537 65.5241 88.096 65.5241 88.4975ZM77.2148 89.8552V85.4169H78.6958V93H77.2444V91.6868H77.1654C76.9909 92.0916 76.7112 92.429 76.3261 92.6988C75.9443 92.9654 75.4687 93.0987 74.8993 93.0987C74.4122 93.0987 73.9811 92.9918 73.6058 92.7778C73.2339 92.5606 72.941 92.2397 72.7271 91.8151C72.5164 91.3906 72.4111 90.8656 72.4111 90.2402V85.4169H73.8873V90.0625C73.8873 90.5793 74.0304 90.9907 74.3168 91.2968C74.6031 91.6028 74.975 91.7559 75.4325 91.7559C75.709 91.7559 75.9838 91.6868 76.257 91.5485C76.5335 91.4103 76.7622 91.2013 76.9432 90.9215C77.1275 90.6418 77.218 90.2863 77.2148 89.8552ZM82.5997 91.6177L82.5257 92.1558C82.4763 92.5507 82.3924 92.9622 82.2739 93.39C82.1587 93.8212 82.0386 94.2211 81.9135 94.5897C81.7917 94.9583 81.6913 95.2512 81.6123 95.4685H80.5657C80.6085 95.2644 80.6677 94.9879 80.7434 94.6391C80.8191 94.2935 80.8932 93.9068 80.9656 93.4789C81.038 93.051 81.0923 92.6149 81.1285 92.1706L81.1779 91.6177H82.5997ZM92.249 82.8891H93.7696V90.0576C93.7696 90.706 93.6412 91.2605 93.3845 91.7213C93.1311 92.1821 92.774 92.5343 92.3132 92.7778C91.8524 93.0181 91.3126 93.1382 90.6939 93.1382C90.1245 93.1382 89.6127 93.0346 89.1585 92.8272C88.7076 92.6199 88.3504 92.3187 88.0871 91.9237C87.8271 91.5255 87.6971 91.0417 87.6971 90.4723H89.2128C89.2128 90.752 89.2769 90.994 89.4053 91.198C89.537 91.4021 89.7163 91.5617 89.9434 91.6769C90.1738 91.7888 90.4371 91.8448 90.7333 91.8448C91.0559 91.8448 91.3291 91.7773 91.5529 91.6423C91.78 91.5041 91.9528 91.3017 92.0713 91.0351C92.1897 90.7685 92.249 90.4427 92.249 90.0576V82.8891ZM98.0783 93.1679C97.5978 93.1679 97.1633 93.079 96.7749 92.9013C96.3866 92.7202 96.0788 92.4586 95.8517 92.1163C95.6279 91.774 95.516 91.3544 95.516 90.8574C95.516 90.4295 95.5983 90.0773 95.7629 89.8009C95.9274 89.5244 96.1496 89.3055 96.4293 89.1442C96.7091 88.983 97.0218 88.8612 97.3674 88.7789C97.7129 88.6966 98.0651 88.6341 98.4239 88.5913C98.8781 88.5386 99.2467 88.4959 99.5297 88.4629C99.8128 88.4267 100.019 88.3691 100.147 88.2902C100.275 88.2112 100.339 88.0828 100.339 87.9051V87.8705C100.339 87.4394 100.218 87.1053 99.9741 86.8683C99.7338 86.6313 99.3751 86.5129 98.8978 86.5129C98.4008 86.5129 98.0092 86.6231 97.7228 86.8436C97.4398 87.0609 97.2439 87.3028 97.1353 87.5694L95.748 87.2534C95.9126 86.7926 96.1529 86.4207 96.4688 86.1376C96.7881 85.8513 97.1551 85.644 97.5698 85.5156C97.9845 85.3839 98.4206 85.3181 98.8781 85.3181C99.1809 85.3181 99.5018 85.3543 99.8408 85.4267C100.183 85.4958 100.502 85.6242 100.799 85.8118C101.098 85.9994 101.343 86.2677 101.534 86.6165C101.725 86.9621 101.82 87.4114 101.82 87.9643V93H100.379V91.9632H100.32C100.224 92.1541 100.081 92.3417 99.8901 92.5261C99.6992 92.7104 99.454 92.8634 99.1545 92.9852C98.855 93.107 98.4963 93.1679 98.0783 93.1679ZM98.3992 91.983C98.8073 91.983 99.1562 91.9024 99.4458 91.7411C99.7387 91.5798 99.9609 91.3692 100.112 91.1091C100.267 90.8458 100.344 90.5644 100.344 90.2649V89.2874C100.292 89.3401 100.19 89.3894 100.038 89.4355C99.8901 89.4783 99.7206 89.5162 99.5297 89.5491C99.3389 89.5787 99.1529 89.6067 98.9719 89.633C98.7908 89.656 98.6394 89.6758 98.5177 89.6922C98.2313 89.7285 97.9697 89.7893 97.7327 89.8749C97.499 89.9605 97.3114 90.0839 97.1699 90.2452C97.0317 90.4032 96.9625 90.6138 96.9625 90.8771C96.9625 91.2424 97.0975 91.5189 97.3674 91.7065C97.6372 91.8908 97.9812 91.983 98.3992 91.983ZM105.263 88.4975V93H103.787V85.4169H105.204V86.6511H105.297C105.472 86.2495 105.745 85.927 106.117 85.6834C106.492 85.4399 106.964 85.3181 107.534 85.3181C108.051 85.3181 108.503 85.4267 108.891 85.644C109.28 85.8579 109.581 86.1771 109.795 86.6017C110.009 87.0263 110.116 87.5513 110.116 88.1766V93H108.64V88.3543C108.64 87.8047 108.496 87.3752 108.21 87.0658C107.924 86.7531 107.53 86.5968 107.03 86.5968C106.688 86.5968 106.383 86.6708 106.117 86.8189C105.854 86.9671 105.645 87.1843 105.49 87.4706C105.338 87.7537 105.263 88.096 105.263 88.4975ZM119.171 93.1382C118.464 93.1382 117.838 93.0165 117.295 92.7729C116.756 92.5293 116.333 92.1936 116.027 91.7658C115.72 91.3379 115.569 90.8508 115.572 90.3044C115.569 89.8766 115.656 89.4832 115.834 89.1245C116.015 88.7625 116.26 88.4613 116.57 88.221C116.879 87.9775 117.225 87.8228 117.606 87.757V87.6977C117.103 87.5759 116.7 87.3061 116.397 86.8881C116.094 86.4701 115.944 85.9895 115.948 85.4465C115.944 84.9297 116.081 84.469 116.357 84.0641C116.637 83.656 117.021 83.3351 117.508 83.1014C117.995 82.8677 118.549 82.7509 119.171 82.7509C119.787 82.7509 120.337 82.8694 120.82 83.1064C121.307 83.34 121.691 83.6609 121.971 84.0691C122.25 84.4739 122.392 84.933 122.395 85.4465C122.392 85.9895 122.237 86.4701 121.931 86.8881C121.625 87.3061 121.227 87.5759 120.736 87.6977V87.757C121.115 87.8228 121.456 87.9775 121.758 88.221C122.064 88.4613 122.308 88.7625 122.489 89.1245C122.673 89.4832 122.767 89.8766 122.77 90.3044C122.767 90.8508 122.612 91.3379 122.306 91.7658C122 92.1936 121.576 92.5293 121.033 92.7729C120.493 93.0165 119.872 93.1382 119.171 93.1382ZM119.171 91.8892C119.589 91.8892 119.951 91.8201 120.258 91.6818C120.564 91.5403 120.801 91.3445 120.968 91.0943C121.136 90.8409 121.222 90.5447 121.225 90.2057C121.222 89.8535 121.13 89.5425 120.949 89.2726C120.771 89.0027 120.529 88.7904 120.223 88.6357C119.917 88.481 119.566 88.4037 119.171 88.4037C118.773 88.4037 118.419 88.481 118.11 88.6357C117.801 88.7904 117.557 89.0027 117.379 89.2726C117.202 89.5425 117.114 89.8535 117.118 90.2057C117.114 90.5447 117.195 90.8409 117.36 91.0943C117.527 91.3445 117.766 91.5403 118.075 91.6818C118.385 91.8201 118.75 91.8892 119.171 91.8892ZM119.171 87.1843C119.507 87.1843 119.805 87.1168 120.065 86.9819C120.325 86.8469 120.529 86.6593 120.677 86.4191C120.829 86.1788 120.906 85.8974 120.909 85.5748C120.906 85.2589 120.83 84.9824 120.682 84.7454C120.537 84.5085 120.335 84.3258 120.075 84.1974C119.815 84.0658 119.514 83.9999 119.171 83.9999C118.823 83.9999 118.516 84.0658 118.253 84.1974C117.993 84.3258 117.791 84.5085 117.646 84.7454C117.501 84.9824 117.43 85.2589 117.434 85.5748C117.43 85.8974 117.503 86.1788 117.651 86.4191C117.799 86.6593 118.003 86.8469 118.263 86.9819C118.526 87.1168 118.829 87.1843 119.171 87.1843Z" fill="#A4A4A4"/>
<path d="M55.1634 118V116.287L59.7081 111.832C60.1428 111.393 60.505 111.003 60.7947 110.662C61.0845 110.321 61.3018 109.991 61.4467 109.671C61.5916 109.352 61.6641 109.011 61.6641 108.648C61.6641 108.235 61.5703 107.881 61.3828 107.587C61.1953 107.289 60.9375 107.059 60.6094 106.897C60.2812 106.735 59.9084 106.654 59.4908 106.654C59.0604 106.654 58.6832 106.744 58.3594 106.923C58.0355 107.097 57.7841 107.347 57.6051 107.67C57.4304 107.994 57.343 108.38 57.343 108.827H55.0866C55.0866 107.996 55.2763 107.274 55.6555 106.661C56.0348 106.047 56.5568 105.572 57.2216 105.235C57.8906 104.898 58.6577 104.73 59.5227 104.73C60.4006 104.73 61.1719 104.894 61.8366 105.222C62.5014 105.55 63.017 106 63.3835 106.571C63.7543 107.142 63.9396 107.794 63.9396 108.527C63.9396 109.017 63.8459 109.499 63.6584 109.972C63.4709 110.445 63.1406 110.969 62.6676 111.544C62.1989 112.119 61.5405 112.816 60.6925 113.634L58.4361 115.929V116.018H64.1378V118H55.1634ZM68.8152 116.21L68.7321 116.913C68.6725 117.45 68.5659 117.996 68.4125 118.55C68.2634 119.108 68.1057 119.621 67.9395 120.09C67.7733 120.559 67.6391 120.928 67.5368 121.196H65.9772C66.0368 120.936 66.1178 120.582 66.2201 120.135C66.3266 119.688 66.4289 119.185 66.5269 118.626C66.6249 118.068 66.6909 117.501 66.725 116.926L66.7698 116.21H68.8152Z" fill="#6F6F6F"/>
<path d="M81.9155 115.858V109.183H83.2436V115.858H81.9155ZM79.2447 113.182V111.854H85.9194V113.182H79.2447ZM88.1842 116.5L92.5979 107.771V107.697H87.4931V106.389H94.1777V107.742L89.7789 116.5H88.1842ZM95.149 116.594C94.8791 116.594 94.6471 116.498 94.4529 116.307C94.2587 116.113 94.1616 115.88 94.1616 115.606C94.1616 115.337 94.2587 115.106 94.4529 114.915C94.6471 114.721 94.8791 114.624 95.149 114.624C95.4189 114.624 95.6509 114.721 95.8451 114.915C96.0393 115.106 96.1364 115.337 96.1364 115.606C96.1364 115.787 96.0903 115.954 95.9982 116.105C95.9093 116.253 95.7908 116.372 95.6427 116.461C95.4946 116.549 95.33 116.594 95.149 116.594ZM100.708 106.389V116.5H99.1776V107.92H99.1183L96.6992 109.499V108.038L99.222 106.389H100.708ZM108.721 114.604V114.071C108.721 113.689 108.8 113.34 108.958 113.024C109.119 112.705 109.353 112.45 109.659 112.259C109.968 112.065 110.342 111.968 110.779 111.968C111.227 111.968 111.602 112.063 111.905 112.254C112.208 112.445 112.437 112.7 112.591 113.019C112.749 113.339 112.828 113.689 112.828 114.071V114.604C112.828 114.986 112.749 115.337 112.591 115.656C112.433 115.972 112.201 116.227 111.895 116.421C111.592 116.612 111.22 116.707 110.779 116.707C110.335 116.707 109.96 116.612 109.654 116.421C109.348 116.227 109.116 115.972 108.958 115.656C108.8 115.337 108.721 114.986 108.721 114.604ZM109.871 114.071V114.604C109.871 114.887 109.938 115.144 110.073 115.374C110.208 115.605 110.444 115.72 110.779 115.72C111.112 115.72 111.344 115.605 111.476 115.374C111.607 115.144 111.673 114.887 111.673 114.604V114.071C111.673 113.788 111.609 113.531 111.48 113.301C111.355 113.07 111.122 112.955 110.779 112.955C110.45 112.955 110.217 113.07 110.078 113.301C109.94 113.531 109.871 113.788 109.871 114.071ZM103.636 108.818V108.285C103.636 107.903 103.715 107.553 103.873 107.233C104.034 106.914 104.268 106.659 104.574 106.468C104.883 106.277 105.257 106.182 105.694 106.182C106.142 106.182 106.517 106.277 106.82 106.468C107.123 106.659 107.352 106.914 107.506 107.233C107.661 107.553 107.738 107.903 107.738 108.285V108.818C107.738 109.2 107.659 109.55 107.501 109.87C107.347 110.186 107.116 110.441 106.81 110.635C106.507 110.826 106.135 110.921 105.694 110.921C105.247 110.921 104.87 110.826 104.564 110.635C104.261 110.441 104.031 110.186 103.873 109.87C103.715 109.55 103.636 109.2 103.636 108.818ZM104.791 108.285V108.818C104.791 109.101 104.857 109.358 104.988 109.588C105.123 109.819 105.359 109.934 105.694 109.934C106.023 109.934 106.254 109.819 106.386 109.588C106.52 109.358 106.588 109.101 106.588 108.818V108.285C106.588 108.002 106.524 107.745 106.395 107.515C106.267 107.284 106.033 107.169 105.694 107.169C105.365 107.169 105.132 107.284 104.993 107.515C104.858 107.745 104.791 108.002 104.791 108.285ZM104.105 116.5L111.056 106.389H112.236L105.285 116.5H104.105Z" fill="#1FC16B"/>
<path d="M125.142 108.917L122.392 116.5H120.812L118.058 108.917H119.642L121.563 114.752H121.642L123.557 108.917H125.142ZM132.212 110.768L130.874 111.005C130.818 110.834 130.729 110.671 130.607 110.516C130.489 110.362 130.328 110.235 130.124 110.136C129.92 110.038 129.664 109.988 129.358 109.988C128.94 109.988 128.591 110.082 128.312 110.27C128.032 110.454 127.892 110.693 127.892 110.985C127.892 111.239 127.986 111.443 128.173 111.598C128.361 111.752 128.664 111.879 129.082 111.978L130.287 112.254C130.984 112.416 131.504 112.664 131.847 113C132.189 113.335 132.36 113.772 132.36 114.308C132.36 114.762 132.228 115.167 131.965 115.522C131.705 115.875 131.341 116.151 130.874 116.352C130.41 116.553 129.872 116.653 129.26 116.653C128.41 116.653 127.718 116.472 127.181 116.11C126.645 115.745 126.316 115.226 126.194 114.555L127.621 114.338C127.709 114.71 127.892 114.991 128.169 115.182C128.445 115.369 128.805 115.463 129.25 115.463C129.734 115.463 130.12 115.363 130.41 115.162C130.7 114.958 130.844 114.71 130.844 114.417C130.844 114.18 130.756 113.981 130.578 113.819C130.403 113.658 130.135 113.536 129.773 113.454L128.489 113.172C127.782 113.011 127.259 112.755 126.92 112.402C126.584 112.05 126.416 111.604 126.416 111.064C126.416 110.617 126.541 110.225 126.791 109.889C127.041 109.554 127.387 109.292 127.828 109.104C128.269 108.914 128.774 108.818 129.344 108.818C130.163 108.818 130.808 108.996 131.279 109.351C131.749 109.703 132.061 110.176 132.212 110.768ZM137.662 119.344V108.917H139.104V110.146H139.227C139.313 109.988 139.436 109.806 139.598 109.598C139.759 109.391 139.983 109.21 140.269 109.055C140.555 108.897 140.934 108.818 141.405 108.818C142.017 108.818 142.563 108.973 143.044 109.282C143.524 109.592 143.901 110.038 144.174 110.62C144.451 111.203 144.589 111.904 144.589 112.723C144.589 113.543 144.452 114.245 144.179 114.831C143.906 115.414 143.531 115.863 143.053 116.179C142.576 116.492 142.031 116.648 141.419 116.648C140.959 116.648 140.582 116.571 140.289 116.416C139.999 116.261 139.772 116.08 139.607 115.873C139.443 115.666 139.316 115.481 139.227 115.32H139.138V119.344H137.662ZM139.109 112.708C139.109 113.242 139.186 113.709 139.341 114.111C139.496 114.512 139.719 114.826 140.012 115.053C140.305 115.277 140.664 115.389 141.089 115.389C141.53 115.389 141.898 115.272 142.194 115.039C142.491 114.802 142.714 114.481 142.866 114.076C143.021 113.671 143.098 113.215 143.098 112.708C143.098 112.208 143.022 111.759 142.871 111.361C142.723 110.962 142.499 110.648 142.199 110.418C141.903 110.187 141.533 110.072 141.089 110.072C140.661 110.072 140.299 110.182 140.002 110.403C139.709 110.623 139.487 110.931 139.336 111.326C139.185 111.721 139.109 112.182 139.109 112.708ZM146.243 116.5V108.917H147.669V110.121H147.748C147.887 109.713 148.13 109.392 148.479 109.159C148.831 108.922 149.23 108.803 149.674 108.803C149.766 108.803 149.875 108.807 150 108.813C150.128 108.82 150.228 108.828 150.301 108.838V110.25C150.242 110.233 150.136 110.215 149.985 110.196C149.834 110.172 149.682 110.161 149.531 110.161C149.182 110.161 148.871 110.235 148.598 110.383C148.328 110.528 148.114 110.73 147.956 110.99C147.798 111.247 147.719 111.54 147.719 111.869V116.5H146.243ZM154.575 116.653C153.828 116.653 153.184 116.493 152.645 116.174C152.108 115.852 151.694 115.399 151.401 114.817C151.111 114.231 150.966 113.544 150.966 112.758C150.966 111.981 151.111 111.296 151.401 110.704C151.694 110.112 152.102 109.649 152.625 109.317C153.152 108.984 153.767 108.818 154.471 108.818C154.899 108.818 155.314 108.889 155.715 109.03C156.117 109.172 156.477 109.394 156.797 109.697C157.116 110 157.368 110.393 157.552 110.877C157.736 111.357 157.828 111.942 157.828 112.629V113.153H151.8V112.047H156.382C156.382 111.659 156.303 111.315 156.145 111.015C155.987 110.712 155.765 110.474 155.478 110.299C155.195 110.125 154.863 110.038 154.481 110.038C154.067 110.038 153.704 110.14 153.395 110.344C153.089 110.544 152.852 110.808 152.684 111.134C152.52 111.456 152.437 111.807 152.437 112.185V113.049C152.437 113.556 152.526 113.987 152.704 114.343C152.885 114.698 153.137 114.97 153.459 115.157C153.782 115.341 154.159 115.434 154.59 115.434C154.87 115.434 155.125 115.394 155.355 115.315C155.585 115.233 155.785 115.111 155.952 114.95C156.12 114.789 156.249 114.589 156.338 114.352L157.735 114.604C157.623 115.016 157.422 115.376 157.132 115.685C156.846 115.991 156.486 116.23 156.051 116.401C155.62 116.569 155.128 116.653 154.575 116.653ZM165.736 108.917L162.986 116.5H161.407L158.652 108.917H160.236L162.157 114.752H162.236L164.151 108.917H165.736Z" fill="#5C5C5C"/>
</g>
<path d="M140.861 141.132C141.766 142.037 143.234 142.037 144.139 141.132L150.85 134.421H134.15L135.14 135.409L140.861 141.132Z" fill="white" stroke="#EAEAEA" stroke-width="1.15854"/>
<rect x="132.073" y="132.683" width="20.8537" height="2.31707" rx="1.15854" fill="white"/>
<g filter="url(#filter1_dd_56_1707)">
<circle cx="142.5" cy="153.536" r="4.63415" fill="#4E5AB3"/>
<circle cx="142.5" cy="153.536" r="6.37195" stroke="white" stroke-width="3.47561"/>
</g>
<defs>
<filter id="filter0_dd_56_1707" x="16.0364" y="54.9389" width="252.927" height="122.927" filterUnits="userSpaceOnUse" color-interpolation-filters="sRGB">
<feFlood flood-opacity="0" result="BackgroundImageFix"/>
<feColorMatrix in="SourceAlpha" type="matrix" values="0 0 0 0 0 0 0 0 0 0 0 0 0 0 0 0 0 0 127 0" result="hardAlpha"/>
<feOffset dy="1.15854"/>
<feGaussianBlur stdDeviation="1.15854"/>
<feComposite in2="hardAlpha" operator="out"/>
<feColorMatrix type="matrix" values="0 0 0 0 0.054902 0 0 0 0 0.0705882 0 0 0 0 0.105882 0 0 0 0.03 0"/>
<feBlend mode="normal" in2="BackgroundImageFix" result="effect1_dropShadow_56_1707"/>
<feColorMatrix in="SourceAlpha" type="matrix" values="0 0 0 0 0 0 0 0 0 0 0 0 0 0 0 0 0 0 127 0" result="hardAlpha"/>
<feOffset dy="13.9024"/>
<feGaussianBlur stdDeviation="13.9024"/>
<feComposite in2="hardAlpha" operator="out"/>
<feColorMatrix type="matrix" values="0 0 0 0 0.0533333 0 0 0 0 0.0693333 0 0 0 0 0.106667 0 0 0 0.06 0"/>
<feBlend mode="normal" in2="effect1_dropShadow_56_1707" result="effect2_dropShadow_56_1707"/>
<feBlend mode="normal" in="SourceGraphic" in2="effect2_dropShadow_56_1707" result="shape"/>
</filter>
<filter id="filter1_dd_56_1707" x="122.805" y="140.793" width="39.3905" height="39.3905" filterUnits="userSpaceOnUse" color-interpolation-filters="sRGB">
<feFlood flood-opacity="0" result="BackgroundImageFix"/>
<feColorMatrix in="SourceAlpha" type="matrix" values="0 0 0 0 0 0 0 0 0 0 0 0 0 0 0 0 0 0 127 0" result="hardAlpha"/>
<feOffset dy="2.31707"/>
<feGaussianBlur stdDeviation="2.31707"/>
<feColorMatrix type="matrix" values="0 0 0 0 0.054902 0 0 0 0 0.0705882 0 0 0 0 0.105882 0 0 0 0.03 0"/>
<feBlend mode="normal" in2="BackgroundImageFix" result="effect1_dropShadow_56_1707"/>
<feColorMatrix in="SourceAlpha" type="matrix" values="0 0 0 0 0 0 0 0 0 0 0 0 0 0 0 0 0 0 127 0" result="hardAlpha"/>
<feOffset dy="6.95122"/>
<feGaussianBlur stdDeviation="5.79268"/>
<feColorMatrix type="matrix" values="0 0 0 0 0.054902 0 0 0 0 0.0705882 0 0 0 0 0.105882 0 0 0 0.06 0"/>
<feBlend mode="normal" in2="effect1_dropShadow_56_1707" result="effect2_dropShadow_56_1707"/>
<feBlend mode="normal" in="SourceGraphic" in2="effect2_dropShadow_56_1707" result="shape"/>
</filter>
</defs>
</svg>
