<svg width="287" height="243" viewBox="0 0 287 243" fill="none" xmlns="http://www.w3.org/2000/svg">
<rect width="287" height="255" rx="12" fill="white"/>
<rect width="287" height="1" fill="#E4E7EC"/>
<mask id="path-3-inside-1_56_1755" fill="white">
<path d="M0 7H158V58H0V7Z"/>
</mask>
<path d="M158 58V57H0V58V59H158V58Z" fill="#E7EBF4" mask="url(#path-3-inside-1_56_1755)"/>
<path d="M16.3807 26.3636H18.375L21.4148 31.6534H21.5398L24.5795 26.3636H26.5739L22.3523 33.4318V38H20.6023V33.4318L16.3807 26.3636ZM30.3338 38.1761C29.5156 38.1761 28.8016 37.9886 28.1918 37.6136C27.5819 37.2386 27.1084 36.714 26.7713 36.0398C26.4342 35.3655 26.2656 34.5777 26.2656 33.6761C26.2656 32.7708 26.4342 31.9792 26.7713 31.3011C27.1084 30.6231 27.5819 30.0966 28.1918 29.7216C28.8016 29.3466 29.5156 29.1591 30.3338 29.1591C31.152 29.1591 31.866 29.3466 32.4759 29.7216C33.0857 30.0966 33.5592 30.6231 33.8963 31.3011C34.2334 31.9792 34.402 32.7708 34.402 33.6761C34.402 34.5777 34.2334 35.3655 33.8963 36.0398C33.5592 36.714 33.0857 37.2386 32.4759 37.6136C31.866 37.9886 31.152 38.1761 30.3338 38.1761ZM30.3395 36.75C30.8698 36.75 31.3092 36.6098 31.6577 36.3295C32.0062 36.0492 32.2637 35.6761 32.4304 35.2102C32.6009 34.7443 32.6861 34.2311 32.6861 33.6705C32.6861 33.1136 32.6009 32.6023 32.4304 32.1364C32.2637 31.6667 32.0062 31.2898 31.6577 31.0057C31.3092 30.7216 30.8698 30.5795 30.3395 30.5795C29.8054 30.5795 29.3622 30.7216 29.0099 31.0057C28.6615 31.2898 28.402 31.6667 28.2315 32.1364C28.0649 32.6023 27.9815 33.1136 27.9815 33.6705C27.9815 34.2311 28.0649 34.7443 28.2315 35.2102C28.402 35.6761 28.6615 36.0492 29.0099 36.3295C29.3622 36.6098 29.8054 36.75 30.3395 36.75ZM41.8267 34.3807V29.2727H43.5312V38H41.8608V36.4886H41.7699C41.5691 36.9545 41.2472 37.3428 40.804 37.6534C40.3646 37.9602 39.8172 38.1136 39.1619 38.1136C38.6013 38.1136 38.1051 37.9905 37.6733 37.7443C37.2453 37.4943 36.9081 37.125 36.6619 36.6364C36.4195 36.1477 36.2983 35.5436 36.2983 34.8239V29.2727H37.9972V34.6193C37.9972 35.214 38.1619 35.6875 38.4915 36.0398C38.821 36.392 39.2491 36.5682 39.7756 36.5682C40.0938 36.5682 40.41 36.4886 40.7244 36.3295C41.0426 36.1705 41.3059 35.9299 41.5142 35.608C41.7263 35.286 41.8305 34.8769 41.8267 34.3807ZM45.8139 38V29.2727H47.456V30.6591H47.5469C47.706 30.1894 47.9863 29.8201 48.3878 29.5511C48.7931 29.2784 49.2514 29.142 49.7628 29.142C49.8688 29.142 49.9938 29.1458 50.1378 29.1534C50.2855 29.161 50.401 29.1705 50.4844 29.1818V30.8068C50.4162 30.7879 50.295 30.767 50.1207 30.7443C49.9465 30.7178 49.7723 30.7045 49.598 30.7045C49.1965 30.7045 48.8385 30.7898 48.5241 30.9602C48.2135 31.1269 47.9673 31.3598 47.7855 31.6591C47.6037 31.9545 47.5128 32.2917 47.5128 32.6705V38H45.8139ZM62.6719 29.4205C62.6113 28.8826 62.3613 28.4659 61.9219 28.1705C61.4825 27.8712 60.9295 27.7216 60.2628 27.7216C59.7855 27.7216 59.3726 27.7973 59.0241 27.9489C58.6757 28.0966 58.4048 28.3011 58.2116 28.5625C58.0223 28.8201 57.9276 29.1136 57.9276 29.4432C57.9276 29.7197 57.992 29.9583 58.1207 30.1591C58.2533 30.3598 58.4257 30.5284 58.6378 30.6648C58.8537 30.7973 59.0848 30.9091 59.331 31C59.5772 31.0871 59.8139 31.1591 60.0412 31.2159L61.1776 31.5114C61.5488 31.6023 61.9295 31.7254 62.3196 31.8807C62.7098 32.036 63.0715 32.2405 63.4048 32.4943C63.7382 32.7481 64.0071 33.0625 64.2116 33.4375C64.42 33.8125 64.5241 34.2614 64.5241 34.7841C64.5241 35.4432 64.3537 36.0284 64.0128 36.5398C63.6757 37.0511 63.1851 37.4545 62.5412 37.75C61.901 38.0455 61.1264 38.1932 60.2173 38.1932C59.3461 38.1932 58.5923 38.0549 57.956 37.7784C57.3196 37.5019 56.8215 37.1098 56.4616 36.6023C56.1018 36.0909 55.9029 35.4848 55.8651 34.7841H57.6264C57.6605 35.2045 57.7969 35.5549 58.0355 35.8352C58.2779 36.1117 58.5866 36.3182 58.9616 36.4545C59.3404 36.5871 59.7552 36.6534 60.206 36.6534C60.7022 36.6534 61.1435 36.5758 61.5298 36.4205C61.92 36.2614 62.2268 36.0417 62.4503 35.7614C62.6738 35.4773 62.7855 35.1458 62.7855 34.767C62.7855 34.4223 62.687 34.1402 62.4901 33.9205C62.2969 33.7008 62.0336 33.5189 61.7003 33.375C61.3707 33.2311 60.9976 33.1042 60.581 32.9943L59.206 32.6193C58.2741 32.3655 57.5355 31.9924 56.9901 31.5C56.4484 31.0076 56.1776 30.3561 56.1776 29.5455C56.1776 28.875 56.3594 28.2898 56.723 27.7898C57.0866 27.2898 57.5791 26.9015 58.2003 26.625C58.8215 26.3447 59.5223 26.2045 60.3026 26.2045C61.0904 26.2045 61.7855 26.3428 62.3878 26.6193C62.9938 26.8958 63.4711 27.2765 63.8196 27.7614C64.1681 28.2424 64.3499 28.7955 64.3651 29.4205H62.6719ZM72.0142 34.3807V29.2727H73.7188V38H72.0483V36.4886H71.9574C71.7566 36.9545 71.4347 37.3428 70.9915 37.6534C70.5521 37.9602 70.0047 38.1136 69.3494 38.1136C68.7888 38.1136 68.2926 37.9905 67.8608 37.7443C67.4328 37.4943 67.0956 37.125 66.8494 36.6364C66.607 36.1477 66.4858 35.5436 66.4858 34.8239V29.2727H68.1847V34.6193C68.1847 35.214 68.3494 35.6875 68.679 36.0398C69.0085 36.392 69.4366 36.5682 69.9631 36.5682C70.2813 36.5682 70.5975 36.4886 70.9119 36.3295C71.2301 36.1705 71.4934 35.9299 71.7017 35.608C71.9138 35.286 72.018 34.8769 72.0142 34.3807ZM76.0014 38V29.2727H77.6321V30.6932H77.7401C77.9219 30.2121 78.2192 29.8371 78.6321 29.5682C79.045 29.2955 79.5393 29.1591 80.1151 29.1591C80.6984 29.1591 81.187 29.2955 81.581 29.5682C81.9787 29.8409 82.2723 30.2159 82.4616 30.6932H82.5526C82.7609 30.2273 83.0923 29.8561 83.5469 29.5795C84.0014 29.2992 84.5431 29.1591 85.1719 29.1591C85.9635 29.1591 86.6094 29.4072 87.1094 29.9034C87.6132 30.3996 87.8651 31.1477 87.8651 32.1477V38H86.1662V32.3068C86.1662 31.7159 86.0052 31.2879 85.6832 31.0227C85.3613 30.7576 84.9768 30.625 84.5298 30.625C83.9768 30.625 83.5469 30.7955 83.2401 31.1364C82.9332 31.4735 82.7798 31.9072 82.7798 32.4375V38H81.0866V32.1989C81.0866 31.7254 80.9389 31.3447 80.6435 31.0568C80.348 30.7689 79.9635 30.625 79.4901 30.625C79.1681 30.625 78.8707 30.7102 78.598 30.8807C78.3291 31.0473 78.1113 31.2803 77.9446 31.5795C77.7817 31.8788 77.7003 32.2254 77.7003 32.6193V38H76.0014ZM90.142 38V29.2727H91.7727V30.6932H91.8807C92.0625 30.2121 92.3598 29.8371 92.7727 29.5682C93.1856 29.2955 93.6799 29.1591 94.2557 29.1591C94.839 29.1591 95.3277 29.2955 95.7216 29.5682C96.1193 29.8409 96.4129 30.2159 96.6023 30.6932H96.6932C96.9015 30.2273 97.233 29.8561 97.6875 29.5795C98.142 29.2992 98.6837 29.1591 99.3125 29.1591C100.104 29.1591 100.75 29.4072 101.25 29.9034C101.754 30.3996 102.006 31.1477 102.006 32.1477V38H100.307V32.3068C100.307 31.7159 100.146 31.2879 99.8239 31.0227C99.5019 30.7576 99.1174 30.625 98.6705 30.625C98.1174 30.625 97.6875 30.7955 97.3807 31.1364C97.0739 31.4735 96.9205 31.9072 96.9205 32.4375V38H95.2273V32.1989C95.2273 31.7254 95.0795 31.3447 94.7841 31.0568C94.4886 30.7689 94.1042 30.625 93.6307 30.625C93.3087 30.625 93.0114 30.7102 92.7386 30.8807C92.4697 31.0473 92.2519 31.2803 92.0852 31.5795C91.9223 31.8788 91.8409 32.2254 91.8409 32.6193V38H90.142ZM106.822 38.1932C106.269 38.1932 105.769 38.0909 105.322 37.8864C104.875 37.678 104.521 37.3769 104.26 36.983C104.002 36.589 103.874 36.1061 103.874 35.5341C103.874 35.0417 103.968 34.6364 104.158 34.3182C104.347 34 104.603 33.7481 104.925 33.5625C105.247 33.3769 105.607 33.2367 106.004 33.142C106.402 33.0473 106.807 32.9754 107.22 32.9261C107.743 32.8655 108.167 32.8163 108.493 32.7784C108.819 32.7367 109.055 32.6705 109.203 32.5795C109.351 32.4886 109.425 32.3409 109.425 32.1364V32.0966C109.425 31.6004 109.285 31.2159 109.004 30.9432C108.728 30.6705 108.315 30.5341 107.766 30.5341C107.194 30.5341 106.743 30.661 106.413 30.9148C106.088 31.1648 105.862 31.4432 105.737 31.75L104.141 31.3864C104.33 30.8561 104.607 30.428 104.97 30.1023C105.338 29.7727 105.76 29.5341 106.237 29.3864C106.714 29.2348 107.216 29.1591 107.743 29.1591C108.091 29.1591 108.461 29.2008 108.851 29.2841C109.245 29.3636 109.612 29.5114 109.953 29.7273C110.298 29.9432 110.58 30.2519 110.8 30.6534C111.019 31.0511 111.129 31.5682 111.129 32.2045V38H109.47V36.8068H109.402C109.292 37.0265 109.127 37.2424 108.908 37.4545C108.688 37.6667 108.406 37.8428 108.061 37.983C107.716 38.1231 107.304 38.1932 106.822 38.1932ZM107.192 36.8295C107.661 36.8295 108.063 36.7367 108.396 36.5511C108.733 36.3655 108.989 36.1231 109.163 35.8239C109.341 35.5208 109.43 35.197 109.43 34.8523V33.7273C109.37 33.7879 109.252 33.8447 109.078 33.8977C108.908 33.947 108.713 33.9905 108.493 34.0284C108.273 34.0625 108.059 34.0947 107.851 34.125C107.643 34.1515 107.468 34.1742 107.328 34.1932C106.999 34.2348 106.697 34.3049 106.425 34.4034C106.156 34.5019 105.94 34.6439 105.777 34.8295C105.618 35.0114 105.538 35.2538 105.538 35.5568C105.538 35.9773 105.694 36.2955 106.004 36.5114C106.315 36.7235 106.711 36.8295 107.192 36.8295ZM113.392 38V29.2727H115.034V30.6591H115.125C115.284 30.1894 115.564 29.8201 115.966 29.5511C116.371 29.2784 116.83 29.142 117.341 29.142C117.447 29.142 117.572 29.1458 117.716 29.1534C117.864 29.161 117.979 29.1705 118.062 29.1818V30.8068C117.994 30.7879 117.873 30.767 117.699 30.7443C117.525 30.7178 117.35 30.7045 117.176 30.7045C116.775 30.7045 116.417 30.7898 116.102 30.9602C115.792 31.1269 115.545 31.3598 115.364 31.6591C115.182 31.9545 115.091 32.2917 115.091 32.6705V38H113.392ZM120.872 41.2727C120.618 41.2727 120.387 41.2519 120.179 41.2102C119.971 41.1723 119.815 41.1307 119.713 41.0852L120.122 39.6932C120.433 39.7765 120.709 39.8125 120.952 39.8011C121.194 39.7898 121.408 39.6989 121.594 39.5284C121.783 39.358 121.95 39.0795 122.094 38.6932L122.304 38.1136L119.111 29.2727H120.929L123.139 36.0455H123.23L125.44 29.2727H127.264L123.668 39.1648C123.501 39.6193 123.289 40.0038 123.031 40.3182C122.774 40.6364 122.467 40.875 122.111 41.0341C121.755 41.1932 121.342 41.2727 120.872 41.2727Z" fill="#111111"/>
<mask id="path-6-inside-2_56_1755" fill="white">
<path d="M0 58H158V110H0V58Z"/>
</mask>
<path d="M158 110V109H0V110V111H158V110Z" fill="#E7EBF4" mask="url(#path-6-inside-2_56_1755)"/>
<path d="M20.375 89H17.233V78.8182H20.5142C21.5019 78.8182 22.3471 79.022 23.0497 79.4297C23.7524 79.834 24.291 80.4157 24.6655 81.1747C25.04 81.9304 25.2273 82.8352 25.2273 83.8892C25.2273 84.9498 25.0384 85.8629 24.6605 86.6286C24.2827 87.3909 23.7325 87.9775 23.0099 88.3885C22.2874 88.7962 21.4091 89 20.375 89ZM18.4659 87.9062H20.2955C21.1373 87.9062 21.835 87.7438 22.3885 87.419C22.942 87.0942 23.3546 86.6319 23.6264 86.032C23.8982 85.4321 24.0341 84.7178 24.0341 83.8892C24.0341 83.0672 23.8999 82.3596 23.6314 81.7663C23.3629 81.1697 22.9619 80.7124 22.4283 80.3942C21.8946 80.0727 21.2301 79.9119 20.4347 79.9119H18.4659V87.9062ZM30.2386 89.1591C29.5492 89.1591 28.9444 88.995 28.424 88.6669C27.907 88.3388 27.5026 87.8797 27.2109 87.2898C26.9226 86.6998 26.7784 86.0104 26.7784 85.2216C26.7784 84.4261 26.9226 83.7318 27.2109 83.1385C27.5026 82.5452 27.907 82.0845 28.424 81.7564C28.9444 81.4283 29.5492 81.2642 30.2386 81.2642C30.928 81.2642 31.5313 81.4283 32.0483 81.7564C32.5687 82.0845 32.973 82.5452 33.2614 83.1385C33.553 83.7318 33.6989 84.4261 33.6989 85.2216C33.6989 86.0104 33.553 86.6998 33.2614 87.2898C32.973 87.8797 32.5687 88.3388 32.0483 88.6669C31.5313 88.995 30.928 89.1591 30.2386 89.1591ZM30.2386 88.1051C30.7623 88.1051 31.1932 87.9709 31.5312 87.7024C31.8693 87.4339 32.1196 87.081 32.282 86.6435C32.4444 86.206 32.5256 85.732 32.5256 85.2216C32.5256 84.7112 32.4444 84.2356 32.282 83.7947C32.1196 83.3539 31.8693 82.9976 31.5312 82.7259C31.1932 82.4541 30.7623 82.3182 30.2386 82.3182C29.715 82.3182 29.2841 82.4541 28.946 82.7259C28.608 82.9976 28.3577 83.3539 28.1953 83.7947C28.0329 84.2356 27.9517 84.7112 27.9517 85.2216C27.9517 85.732 28.0329 86.206 28.1953 86.6435C28.3577 87.081 28.608 87.4339 28.946 87.7024C29.2841 87.9709 29.715 88.1051 30.2386 88.1051ZM38.5922 89.1591C37.8762 89.1591 37.2598 88.9901 36.7427 88.652C36.2257 88.3139 35.8279 87.8482 35.5495 87.255C35.2711 86.6617 35.1319 85.9839 35.1319 85.2216C35.1319 84.446 35.2744 83.7616 35.5595 83.1683C35.8478 82.5717 36.2489 82.1061 36.7626 81.7713C37.2797 81.4332 37.8829 81.2642 38.5723 81.2642C39.1092 81.2642 39.5931 81.3636 40.024 81.5625C40.4548 81.7614 40.8078 82.0398 41.0829 82.3977C41.358 82.7557 41.5287 83.1733 41.595 83.6506H40.4217C40.3322 83.3026 40.1333 82.9943 39.8251 82.7259C39.5202 82.4541 39.1092 82.3182 38.5922 82.3182C38.1348 82.3182 37.7337 82.4375 37.389 82.6761C37.0476 82.9115 36.7808 83.2446 36.5886 83.6754C36.3997 84.103 36.3052 84.6051 36.3052 85.1818C36.3052 85.7718 36.398 86.2855 36.5836 86.723C36.7725 87.1605 37.0377 87.5002 37.3791 87.7422C37.7238 87.9841 38.1281 88.1051 38.5922 88.1051C38.8971 88.1051 39.1738 88.0521 39.4224 87.946C39.671 87.84 39.8815 87.6875 40.0538 87.4886C40.2261 87.2898 40.3488 87.0511 40.4217 86.7727H41.595C41.5287 87.2235 41.3646 87.6295 41.1028 87.9908C40.8443 88.3487 40.5012 88.6338 40.0737 88.8459C39.6494 89.0547 39.1556 89.1591 38.5922 89.1591ZM48.1227 85.8778V81.3636H49.296V89H48.1227V87.7074H48.0431C47.8642 88.0952 47.5858 88.425 47.2079 88.6967C46.8301 88.9652 46.3528 89.0994 45.7761 89.0994C45.2988 89.0994 44.8746 88.995 44.5034 88.7862C44.1322 88.5741 43.8405 88.2559 43.6284 87.8317C43.4163 87.4041 43.3102 86.8655 43.3102 86.2159V81.3636H44.4835V86.1364C44.4835 86.6932 44.6393 87.1373 44.9508 87.4688C45.2657 87.8002 45.6667 87.9659 46.1539 87.9659C46.4456 87.9659 46.7422 87.8913 47.0439 87.7422C47.3488 87.593 47.604 87.3643 47.8095 87.0561C48.0183 86.7479 48.1227 86.3551 48.1227 85.8778ZM51.445 89V81.3636H52.5785V82.5568H52.6779C52.837 82.1491 53.0939 81.8326 53.4485 81.6072C53.8031 81.3786 54.229 81.2642 54.7262 81.2642C55.23 81.2642 55.6493 81.3786 55.984 81.6072C56.3221 81.8326 56.5856 82.1491 56.7745 82.5568H56.854C57.0496 82.1624 57.3429 81.8492 57.734 81.6172C58.1251 81.3819 58.5941 81.2642 59.141 81.2642C59.8237 81.2642 60.3822 81.478 60.8164 81.9055C61.2506 82.3298 61.4677 82.991 61.4677 83.8892V89H60.2944V83.8892C60.2944 83.3258 60.1403 82.9231 59.832 82.6811C59.5238 82.4392 59.1609 82.3182 58.7433 82.3182C58.2063 82.3182 57.7904 82.4806 57.4954 82.8054C57.2004 83.1269 57.0529 83.5346 57.0529 84.0284V89H55.8597V83.7699C55.8597 83.3357 55.7189 82.986 55.4371 82.7209C55.1554 82.4524 54.7925 82.3182 54.3484 82.3182C54.0434 82.3182 53.7584 82.3994 53.4933 82.5618C53.2314 82.7242 53.0193 82.9496 52.8569 83.2379C52.6978 83.523 52.6183 83.8527 52.6183 84.2273V89H51.445ZM66.8146 89.1591C66.0788 89.1591 65.4441 88.9967 64.9105 88.6719C64.3802 88.3438 63.9709 87.8864 63.6825 87.2997C63.3975 86.7098 63.255 86.0237 63.255 85.2415C63.255 84.4593 63.3975 83.7699 63.6825 83.1733C63.9709 82.5734 64.3719 82.1061 64.8857 81.7713C65.4027 81.4332 66.0059 81.2642 66.6953 81.2642C67.093 81.2642 67.4858 81.3305 67.8736 81.4631C68.2614 81.5956 68.6143 81.8111 68.9325 82.1094C69.2507 82.4044 69.5043 82.7955 69.6932 83.2827C69.8821 83.7699 69.9766 84.3698 69.9766 85.0824V85.5795H64.0902V84.5653H68.7834C68.7834 84.1345 68.6972 83.75 68.5249 83.4119C68.3558 83.0739 68.1139 82.8071 67.799 82.6115C67.4875 82.416 67.1196 82.3182 66.6953 82.3182C66.228 82.3182 65.8236 82.4342 65.4822 82.6662C65.1442 82.8949 64.884 83.1932 64.7017 83.5611C64.5194 83.929 64.4283 84.3234 64.4283 84.7443V85.4205C64.4283 85.9972 64.5277 86.486 64.7266 86.8871C64.9287 87.2848 65.2088 87.5881 65.5668 87.7969C65.9247 88.0024 66.3407 88.1051 66.8146 88.1051C67.1229 88.1051 67.4013 88.062 67.6499 87.9759C67.9018 87.8864 68.1188 87.7538 68.3011 87.5781C68.4834 87.3991 68.6243 87.1771 68.7237 86.9119L69.8572 87.2301C69.7379 87.6146 69.5374 87.9527 69.2557 88.2443C68.974 88.5327 68.6259 88.758 68.2116 88.9205C67.7973 89.0795 67.3317 89.1591 66.8146 89.1591ZM72.9347 84.4062V89H71.7614V81.3636H72.8949V82.5568H72.9943C73.1733 82.169 73.4451 81.8575 73.8097 81.6222C74.1742 81.3835 74.6449 81.2642 75.2216 81.2642C75.7386 81.2642 76.1911 81.3703 76.5788 81.5824C76.9666 81.7912 77.2682 82.1094 77.4837 82.5369C77.6991 82.9612 77.8068 83.4981 77.8068 84.1477V89H76.6335V84.2273C76.6335 83.6274 76.4777 83.16 76.1662 82.8253C75.8546 82.4872 75.4271 82.3182 74.8835 82.3182C74.509 82.3182 74.1742 82.3994 73.8793 82.5618C73.5876 82.7242 73.3572 82.9612 73.1882 83.2727C73.0192 83.5843 72.9347 83.9621 72.9347 84.4062ZM83.2718 81.3636V82.358H79.3145V81.3636H83.2718ZM80.4679 79.5341H81.6412V86.8125C81.6412 87.1439 81.6892 87.3925 81.7853 87.5582C81.8848 87.7206 82.0107 87.83 82.1632 87.8864C82.319 87.9394 82.483 87.9659 82.6554 87.9659C82.7846 87.9659 82.8907 87.9593 82.9735 87.946C83.0564 87.9295 83.1227 87.9162 83.1724 87.9062L83.411 88.9602C83.3315 88.9901 83.2205 89.0199 83.0779 89.0497C82.9354 89.0829 82.7548 89.0994 82.536 89.0994C82.2046 89.0994 81.8798 89.0282 81.5616 88.8857C81.2467 88.7431 80.9849 88.526 80.7761 88.2344C80.5706 87.9427 80.4679 87.5748 80.4679 87.1307V79.5341ZM90.3091 83.0739L89.2551 83.3722C89.1889 83.1965 89.0911 83.0258 88.9618 82.8601C88.8359 82.6911 88.6635 82.5518 88.4448 82.4425C88.226 82.3331 87.946 82.2784 87.6046 82.2784C87.1373 82.2784 86.7478 82.3861 86.4363 82.6016C86.128 82.8137 85.9739 83.0838 85.9739 83.4119C85.9739 83.7036 86.08 83.9339 86.2921 84.103C86.5042 84.272 86.8356 84.4129 87.2864 84.5256L88.4199 84.804C89.1027 84.9697 89.6114 85.2232 89.9462 85.5646C90.281 85.9027 90.4483 86.3385 90.4483 86.8722C90.4483 87.3097 90.3224 87.7008 90.0705 88.0455C89.8219 88.3902 89.4739 88.6619 89.0265 88.8608C88.579 89.0597 88.0587 89.1591 87.4654 89.1591C86.6865 89.1591 86.0418 88.9901 85.5314 88.652C85.021 88.3139 84.6979 87.8201 84.562 87.1705L85.6756 86.892C85.7817 87.303 85.9822 87.6113 86.2772 87.8168C86.5755 88.0223 86.9649 88.125 87.4455 88.125C87.9924 88.125 88.4266 88.009 88.748 87.777C89.0729 87.5417 89.2353 87.2599 89.2353 86.9318C89.2353 86.6667 89.1425 86.4446 88.9569 86.2656C88.7712 86.0833 88.4862 85.9474 88.1017 85.858L86.829 85.5597C86.1297 85.3939 85.6159 85.1371 85.2878 84.7891C84.963 84.4377 84.8006 83.9986 84.8006 83.4716C84.8006 83.0407 84.9216 82.6596 85.1635 82.3281C85.4088 81.9967 85.7419 81.7365 86.1628 81.5476C86.5871 81.3587 87.0676 81.2642 87.6046 81.2642C88.3603 81.2642 88.9535 81.4299 89.3844 81.7614C89.8186 82.0928 90.1268 82.5303 90.3091 83.0739ZM99.2543 89.1591C98.5384 89.1591 97.9219 88.9901 97.4048 88.652C96.8878 88.3139 96.4901 87.8482 96.2116 87.255C95.9332 86.6617 95.794 85.9839 95.794 85.2216C95.794 84.446 95.9366 83.7616 96.2216 83.1683C96.5099 82.5717 96.911 82.1061 97.4247 81.7713C97.9418 81.4332 98.545 81.2642 99.2344 81.2642C99.7713 81.2642 100.255 81.3636 100.686 81.5625C101.117 81.7614 101.47 82.0398 101.745 82.3977C102.02 82.7557 102.191 83.1733 102.257 83.6506H101.084C100.994 83.3026 100.795 82.9943 100.487 82.7259C100.182 82.4541 99.7713 82.3182 99.2543 82.3182C98.7969 82.3182 98.3958 82.4375 98.0511 82.6761C97.7098 82.9115 97.4429 83.2446 97.2507 83.6754C97.0618 84.103 96.9673 84.6051 96.9673 85.1818C96.9673 85.7718 97.0601 86.2855 97.2457 86.723C97.4347 87.1605 97.6998 87.5002 98.0412 87.7422C98.3859 87.9841 98.7902 88.1051 99.2543 88.1051C99.5592 88.1051 99.8359 88.0521 100.085 87.946C100.333 87.84 100.544 87.6875 100.716 87.4886C100.888 87.2898 101.011 87.0511 101.084 86.7727H102.257C102.191 87.2235 102.027 87.6295 101.765 87.9908C101.506 88.3487 101.163 88.6338 100.736 88.8459C100.312 89.0547 99.8177 89.1591 99.2543 89.1591ZM103.972 89V81.3636H105.106V82.517H105.185C105.325 82.1392 105.576 81.8326 105.941 81.5973C106.306 81.362 106.717 81.2443 107.174 81.2443C107.26 81.2443 107.368 81.246 107.497 81.2493C107.626 81.2526 107.724 81.2576 107.79 81.2642V82.4574C107.751 82.4474 107.66 82.4325 107.517 82.4126C107.378 82.3894 107.23 82.3778 107.075 82.3778C106.703 82.3778 106.372 82.4557 106.08 82.6115C105.792 82.764 105.563 82.9761 105.394 83.2479C105.228 83.5163 105.146 83.8229 105.146 84.1676V89H103.972ZM112.151 89.1591C111.415 89.1591 110.78 88.9967 110.246 88.6719C109.716 88.3438 109.307 87.8864 109.018 87.2997C108.733 86.7098 108.591 86.0237 108.591 85.2415C108.591 84.4593 108.733 83.7699 109.018 83.1733C109.307 82.5734 109.708 82.1061 110.222 81.7713C110.739 81.4332 111.342 81.2642 112.031 81.2642C112.429 81.2642 112.822 81.3305 113.21 81.4631C113.597 81.5956 113.95 81.8111 114.268 82.1094C114.587 82.4044 114.84 82.7955 115.029 83.2827C115.218 83.7699 115.312 84.3698 115.312 85.0824V85.5795H109.426V84.5653H114.119C114.119 84.1345 114.033 83.75 113.861 83.4119C113.692 83.0739 113.45 82.8071 113.135 82.6115C112.823 82.416 112.455 82.3182 112.031 82.3182C111.564 82.3182 111.16 82.4342 110.818 82.6662C110.48 82.8949 110.22 83.1932 110.038 83.5611C109.855 83.929 109.764 84.3234 109.764 84.7443V85.4205C109.764 85.9972 109.864 86.486 110.062 86.8871C110.265 87.2848 110.545 87.5881 110.903 87.7969C111.261 88.0024 111.677 88.1051 112.151 88.1051C112.459 88.1051 112.737 88.062 112.986 87.9759C113.238 87.8864 113.455 87.7538 113.637 87.5781C113.819 87.3991 113.96 87.1771 114.06 86.9119L115.193 87.2301C115.074 87.6146 114.873 87.9527 114.592 88.2443C114.31 88.5327 113.962 88.758 113.548 88.9205C113.133 89.0795 112.668 89.1591 112.151 89.1591ZM119.344 89.179C118.861 89.179 118.421 89.0878 118.027 88.9055C117.633 88.7199 117.319 88.4531 117.087 88.1051C116.855 87.7538 116.739 87.3295 116.739 86.8324C116.739 86.3949 116.826 86.0402 116.998 85.7685C117.17 85.4934 117.401 85.2779 117.689 85.1222C117.977 84.9664 118.295 84.8504 118.643 84.7741C118.995 84.6946 119.348 84.6316 119.702 84.5852C120.166 84.5256 120.543 84.4808 120.831 84.451C121.123 84.4179 121.335 84.3632 121.467 84.2869C121.603 84.2107 121.671 84.0781 121.671 83.8892V83.8494C121.671 83.3589 121.537 82.9777 121.268 82.706C121.003 82.4342 120.601 82.2983 120.06 82.2983C119.5 82.2983 119.061 82.4209 118.743 82.6662C118.425 82.9115 118.201 83.1733 118.072 83.4517L116.958 83.054C117.157 82.59 117.422 82.2287 117.754 81.9702C118.088 81.7083 118.453 81.526 118.847 81.4233C119.245 81.3172 119.636 81.2642 120.021 81.2642C120.266 81.2642 120.548 81.294 120.866 81.3537C121.187 81.41 121.497 81.5277 121.795 81.7067C122.097 81.8857 122.347 82.1558 122.546 82.517C122.745 82.8783 122.844 83.3622 122.844 83.9688V89H121.671V87.9659H121.612C121.532 88.1316 121.399 88.3089 121.214 88.4979C121.028 88.6868 120.781 88.8475 120.473 88.9801C120.165 89.1127 119.789 89.179 119.344 89.179ZM119.523 88.125C119.987 88.125 120.379 88.0339 120.697 87.8516C121.018 87.6693 121.26 87.4339 121.423 87.1456C121.588 86.8572 121.671 86.554 121.671 86.2358V85.1619C121.621 85.2216 121.512 85.2763 121.343 85.326C121.177 85.3724 120.985 85.4138 120.766 85.4503C120.551 85.4834 120.34 85.5133 120.135 85.5398C119.933 85.563 119.769 85.5829 119.643 85.5994C119.338 85.6392 119.053 85.7038 118.788 85.7933C118.526 85.8795 118.314 86.0104 118.151 86.1861C117.992 86.3584 117.913 86.5937 117.913 86.892C117.913 87.2997 118.063 87.608 118.365 87.8168C118.67 88.0223 119.056 88.125 119.523 88.125ZM128.307 81.3636V82.358H124.35V81.3636H128.307ZM125.503 79.5341H126.676V86.8125C126.676 87.1439 126.724 87.3925 126.82 87.5582C126.92 87.7206 127.046 87.83 127.198 87.8864C127.354 87.9394 127.518 87.9659 127.691 87.9659C127.82 87.9659 127.926 87.9593 128.009 87.946C128.092 87.9295 128.158 87.9162 128.208 87.9062L128.446 88.9602C128.367 88.9901 128.256 89.0199 128.113 89.0497C127.971 89.0829 127.79 89.0994 127.571 89.0994C127.24 89.0994 126.915 89.0282 126.597 88.8857C126.282 88.7431 126.02 88.526 125.811 88.2344C125.606 87.9427 125.503 87.5748 125.503 87.1307V79.5341ZM133.192 89.1591C132.456 89.1591 131.821 88.9967 131.287 88.6719C130.757 88.3438 130.348 87.8864 130.059 87.2997C129.774 86.7098 129.632 86.0237 129.632 85.2415C129.632 84.4593 129.774 83.7699 130.059 83.1733C130.348 82.5734 130.749 82.1061 131.263 81.7713C131.78 81.4332 132.383 81.2642 133.072 81.2642C133.47 81.2642 133.863 81.3305 134.251 81.4631C134.638 81.5956 134.991 81.8111 135.309 82.1094C135.628 82.4044 135.881 82.7955 136.07 83.2827C136.259 83.7699 136.354 84.3698 136.354 85.0824V85.5795H130.467V84.5653H135.16C135.16 84.1345 135.074 83.75 134.902 83.4119C134.733 83.0739 134.491 82.8071 134.176 82.6115C133.864 82.416 133.497 82.3182 133.072 82.3182C132.605 82.3182 132.201 82.4342 131.859 82.6662C131.521 82.8949 131.261 83.1932 131.079 83.5611C130.896 83.929 130.805 84.3234 130.805 84.7443V85.4205C130.805 85.9972 130.905 86.486 131.104 86.8871C131.306 87.2848 131.586 87.5881 131.944 87.7969C132.302 88.0024 132.718 88.1051 133.192 88.1051C133.5 88.1051 133.778 88.062 134.027 87.9759C134.279 87.8864 134.496 87.7538 134.678 87.5781C134.86 87.3991 135.001 87.1771 135.101 86.9119L136.234 87.2301C136.115 87.6146 135.914 87.9527 135.633 88.2443C135.351 88.5327 135.003 88.758 134.589 88.9205C134.174 89.0795 133.709 89.1591 133.192 89.1591ZM141.022 89.1591C140.385 89.1591 139.824 88.9983 139.336 88.6768C138.849 88.352 138.468 87.8946 138.193 87.3047C137.918 86.7114 137.78 86.0104 137.78 85.2017C137.78 84.3996 137.918 83.7036 138.193 83.1136C138.468 82.5237 138.851 82.0679 139.341 81.7464C139.832 81.425 140.399 81.2642 141.042 81.2642C141.539 81.2642 141.932 81.3471 142.22 81.5128C142.512 81.6752 142.734 81.8608 142.886 82.0696C143.042 82.2751 143.163 82.4441 143.249 82.5767H143.349V78.8182H144.522V89H143.388V87.8267H143.249C143.163 87.9659 143.04 88.1416 142.881 88.3537C142.722 88.5625 142.495 88.7498 142.2 88.9155C141.905 89.0779 141.512 89.1591 141.022 89.1591ZM141.181 88.1051C141.652 88.1051 142.049 87.9825 142.374 87.7372C142.699 87.4886 142.946 87.1456 143.115 86.7081C143.284 86.2673 143.368 85.7585 143.368 85.1818C143.368 84.6117 143.286 84.1129 143.12 83.6854C142.954 83.2545 142.709 82.9197 142.384 82.6811C142.059 82.4392 141.658 82.3182 141.181 82.3182C140.684 82.3182 140.269 82.4458 139.938 82.701C139.61 82.9529 139.363 83.2959 139.197 83.7301C139.035 84.161 138.954 84.6449 138.954 85.1818C138.954 85.7254 139.037 86.2192 139.202 86.6634C139.371 87.1042 139.62 87.4555 139.948 87.7173C140.279 87.9759 140.69 88.1051 141.181 88.1051Z" fill="#A5A5A5"/>
<mask id="path-9-inside-3_56_1755" fill="white">
<path d="M0 110H158V162H0V110Z"/>
</mask>
<path d="M158 162V161H0V162V163H158V162Z" fill="#E7EBF4" mask="url(#path-9-inside-3_56_1755)"/>
<path d="M17.233 141V130.818H23.3778V131.912H18.4659V135.352H23.0597V136.446H18.4659V139.906H23.4574V141H17.233ZM25.4411 141V133.364H26.5746V134.557H26.674C26.8331 134.149 27.09 133.833 27.4446 133.607C27.7992 133.379 28.2251 133.264 28.7223 133.264C29.2261 133.264 29.6454 133.379 29.9801 133.607C30.3182 133.833 30.5817 134.149 30.7706 134.557H30.8501C31.0457 134.162 31.339 133.849 31.7301 133.617C32.1212 133.382 32.5902 133.264 33.1371 133.264C33.8198 133.264 34.3783 133.478 34.8125 133.906C35.2467 134.33 35.4638 134.991 35.4638 135.889V141H34.2905V135.889C34.2905 135.326 34.1364 134.923 33.8281 134.681C33.5199 134.439 33.157 134.318 32.7393 134.318C32.2024 134.318 31.7865 134.481 31.4915 134.805C31.1965 135.127 31.049 135.535 31.049 136.028V141H29.8558V135.77C29.8558 135.336 29.715 134.986 29.4332 134.721C29.1515 134.452 28.7886 134.318 28.3445 134.318C28.0395 134.318 27.7545 134.399 27.4893 134.562C27.2275 134.724 27.0154 134.95 26.853 135.238C26.6939 135.523 26.6143 135.853 26.6143 136.227V141H25.4411ZM39.8562 141.179C39.3723 141.179 38.9331 141.088 38.5387 140.906C38.1443 140.72 37.8311 140.453 37.5991 140.105C37.3671 139.754 37.2511 139.33 37.2511 138.832C37.2511 138.395 37.3372 138.04 37.5096 137.768C37.6819 137.493 37.9123 137.278 38.2006 137.122C38.489 136.966 38.8072 136.85 39.1552 136.774C39.5065 136.695 39.8595 136.632 40.2141 136.585C40.6781 136.526 41.0543 136.481 41.3427 136.451C41.6344 136.418 41.8465 136.363 41.979 136.287C42.1149 136.211 42.1829 136.078 42.1829 135.889V135.849C42.1829 135.359 42.0487 134.978 41.7802 134.706C41.515 134.434 41.1123 134.298 40.5721 134.298C40.012 134.298 39.5728 134.421 39.2546 134.666C38.9364 134.911 38.7127 135.173 38.5835 135.452L37.4698 135.054C37.6687 134.59 37.9338 134.229 38.2653 133.97C38.6 133.708 38.9646 133.526 39.359 133.423C39.7567 133.317 40.1478 133.264 40.5323 133.264C40.7776 133.264 41.0593 133.294 41.3775 133.354C41.699 133.41 42.0089 133.528 42.3072 133.707C42.6088 133.886 42.859 134.156 43.0579 134.517C43.2567 134.878 43.3562 135.362 43.3562 135.969V141H42.1829V139.966H42.1232C42.0437 140.132 41.9111 140.309 41.7255 140.498C41.5399 140.687 41.293 140.848 40.9847 140.98C40.6765 141.113 40.3003 141.179 39.8562 141.179ZM40.0352 140.125C40.4992 140.125 40.8903 140.034 41.2085 139.852C41.5299 139.669 41.7719 139.434 41.9343 139.146C42.1 138.857 42.1829 138.554 42.1829 138.236V137.162C42.1332 137.222 42.0238 137.276 41.8548 137.326C41.689 137.372 41.4968 137.414 41.2781 137.45C41.0626 137.483 40.8522 137.513 40.6467 137.54C40.4445 137.563 40.2804 137.583 40.1545 137.599C39.8496 137.639 39.5645 137.704 39.2994 137.793C39.0375 137.879 38.8254 138.01 38.663 138.186C38.5039 138.358 38.4244 138.594 38.4244 138.892C38.4244 139.3 38.5752 139.608 38.8768 139.817C39.1817 140.022 39.5678 140.125 40.0352 140.125ZM45.4977 141V133.364H46.671V141H45.4977ZM46.0943 132.091C45.8656 132.091 45.6684 132.013 45.5027 131.857C45.3403 131.701 45.2591 131.514 45.2591 131.295C45.2591 131.077 45.3403 130.889 45.5027 130.734C45.6684 130.578 45.8656 130.5 46.0943 130.5C46.323 130.5 46.5185 130.578 46.6809 130.734C46.8467 130.889 46.9295 131.077 46.9295 131.295C46.9295 131.514 46.8467 131.701 46.6809 131.857C46.5185 132.013 46.323 132.091 46.0943 132.091ZM49.9933 130.818V141H48.82V130.818H49.9933ZM57.5513 135.074L56.4973 135.372C56.431 135.196 56.3333 135.026 56.204 134.86C56.0781 134.691 55.9057 134.552 55.687 134.442C55.4682 134.333 55.1882 134.278 54.8468 134.278C54.3794 134.278 53.99 134.386 53.6784 134.602C53.3702 134.814 53.2161 135.084 53.2161 135.412C53.2161 135.704 53.3221 135.934 53.5343 136.103C53.7464 136.272 54.0778 136.413 54.5286 136.526L55.6621 136.804C56.3449 136.97 56.8536 137.223 57.1884 137.565C57.5231 137.903 57.6905 138.339 57.6905 138.872C57.6905 139.31 57.5646 139.701 57.3127 140.045C57.0641 140.39 56.7161 140.662 56.2686 140.861C55.8212 141.06 55.3008 141.159 54.7076 141.159C53.9287 141.159 53.284 140.99 52.7736 140.652C52.2632 140.314 51.94 139.82 51.8042 139.17L52.9178 138.892C53.0239 139.303 53.2244 139.611 53.5194 139.817C53.8176 140.022 54.2071 140.125 54.6877 140.125C55.2346 140.125 55.6687 140.009 55.9902 139.777C56.315 139.542 56.4775 139.26 56.4775 138.932C56.4775 138.667 56.3846 138.445 56.199 138.266C56.0134 138.083 55.7284 137.947 55.3439 137.858L54.0712 137.56C53.3719 137.394 52.8581 137.137 52.53 136.789C52.2052 136.438 52.0428 135.999 52.0428 135.472C52.0428 135.041 52.1638 134.66 52.4057 134.328C52.651 133.997 52.9841 133.737 53.405 133.548C53.8292 133.359 54.3098 133.264 54.8468 133.264C55.6025 133.264 56.1957 133.43 56.6266 133.761C57.0608 134.093 57.369 134.53 57.5513 135.074ZM63.3942 141V133.364H64.5277V134.517H64.6072C64.7464 134.139 64.9983 133.833 65.3629 133.597C65.7275 133.362 66.1385 133.244 66.5959 133.244C66.6821 133.244 66.7898 133.246 66.919 133.249C67.0483 133.253 67.1461 133.258 67.2124 133.264V134.457C67.1726 134.447 67.0814 134.433 66.9389 134.413C66.7997 134.389 66.6522 134.378 66.4964 134.378C66.1252 134.378 65.7938 134.456 65.5021 134.612C65.2138 134.764 64.9851 134.976 64.8161 135.248C64.6503 135.516 64.5675 135.823 64.5675 136.168V141H63.3942ZM71.5724 141.159C70.8366 141.159 70.2019 140.997 69.6683 140.672C69.138 140.344 68.7287 139.886 68.4403 139.3C68.1553 138.71 68.0128 138.024 68.0128 137.241C68.0128 136.459 68.1553 135.77 68.4403 135.173C68.7287 134.573 69.1297 134.106 69.6435 133.771C70.1605 133.433 70.7637 133.264 71.4531 133.264C71.8509 133.264 72.2436 133.33 72.6314 133.463C73.0192 133.596 73.3722 133.811 73.6903 134.109C74.0085 134.404 74.2621 134.795 74.451 135.283C74.6399 135.77 74.7344 136.37 74.7344 137.082V137.58H68.848V136.565H73.5412C73.5412 136.134 73.455 135.75 73.2827 135.412C73.1136 135.074 72.8717 134.807 72.5568 134.612C72.2453 134.416 71.8774 134.318 71.4531 134.318C70.9858 134.318 70.5814 134.434 70.2401 134.666C69.902 134.895 69.6418 135.193 69.4595 135.561C69.2772 135.929 69.1861 136.323 69.1861 136.744V137.42C69.1861 137.997 69.2855 138.486 69.4844 138.887C69.6866 139.285 69.9666 139.588 70.3246 139.797C70.6825 140.002 71.0985 140.105 71.5724 140.105C71.8807 140.105 72.1591 140.062 72.4077 139.976C72.6596 139.886 72.8767 139.754 73.0589 139.578C73.2412 139.399 73.3821 139.177 73.4815 138.912L74.6151 139.23C74.4957 139.615 74.2952 139.953 74.0135 140.244C73.7318 140.533 73.3838 140.758 72.9695 140.92C72.5552 141.08 72.0895 141.159 71.5724 141.159ZM81.9283 135.074L80.8743 135.372C80.808 135.196 80.7102 135.026 80.581 134.86C80.455 134.691 80.2827 134.552 80.0639 134.442C79.8452 134.333 79.5651 134.278 79.2237 134.278C78.7564 134.278 78.367 134.386 78.0554 134.602C77.7472 134.814 77.593 135.084 77.593 135.412C77.593 135.704 77.6991 135.934 77.9112 136.103C78.1233 136.272 78.4548 136.413 78.9055 136.526L80.0391 136.804C80.7218 136.97 81.2306 137.223 81.5653 137.565C81.9001 137.903 82.0675 138.339 82.0675 138.872C82.0675 139.31 81.9415 139.701 81.6896 140.045C81.4411 140.39 81.093 140.662 80.6456 140.861C80.1982 141.06 79.6778 141.159 79.0845 141.159C78.3056 141.159 77.661 140.99 77.1506 140.652C76.6402 140.314 76.317 139.82 76.1811 139.17L77.2947 138.892C77.4008 139.303 77.6013 139.611 77.8963 139.817C78.1946 140.022 78.584 140.125 79.0646 140.125C79.6115 140.125 80.0457 140.009 80.3672 139.777C80.692 139.542 80.8544 139.26 80.8544 138.932C80.8544 138.667 80.7616 138.445 80.576 138.266C80.3904 138.083 80.1054 137.947 79.7209 137.858L78.4482 137.56C77.7488 137.394 77.2351 137.137 76.907 136.789C76.5821 136.438 76.4197 135.999 76.4197 135.472C76.4197 135.041 76.5407 134.66 76.7827 134.328C77.0279 133.997 77.361 133.737 77.782 133.548C78.2062 133.359 78.6868 133.264 79.2237 133.264C79.9794 133.264 80.5727 133.43 81.0036 133.761C81.4377 134.093 81.746 134.53 81.9283 135.074ZM83.8336 143.864V133.364H84.9672V134.577H85.1064C85.1925 134.444 85.3118 134.275 85.4643 134.07C85.6201 133.861 85.8422 133.675 86.1305 133.513C86.4222 133.347 86.8166 133.264 87.3137 133.264C87.9567 133.264 88.5235 133.425 89.014 133.746C89.5046 134.068 89.8874 134.524 90.1625 135.114C90.4376 135.704 90.5751 136.4 90.5751 137.202C90.5751 138.01 90.4376 138.711 90.1625 139.305C89.8874 139.895 89.5062 140.352 89.019 140.677C88.5318 140.998 87.97 141.159 87.3336 141.159C86.8431 141.159 86.4503 141.078 86.1554 140.915C85.8604 140.75 85.6333 140.562 85.4743 140.354C85.3152 140.142 85.1925 139.966 85.1064 139.827H85.0069V143.864H83.8336ZM84.987 137.182C84.987 137.759 85.0716 138.267 85.2406 138.708C85.4096 139.146 85.6565 139.489 85.9814 139.737C86.3062 139.982 86.7039 140.105 87.1745 140.105C87.6651 140.105 88.0744 139.976 88.4025 139.717C88.734 139.455 88.9825 139.104 89.1483 138.663C89.3173 138.219 89.4018 137.725 89.4018 137.182C89.4018 136.645 89.319 136.161 89.1532 135.73C88.9908 135.296 88.7439 134.953 88.4125 134.701C88.0843 134.446 87.6717 134.318 87.1745 134.318C86.6973 134.318 86.2962 134.439 85.9714 134.681C85.6466 134.92 85.4013 135.254 85.2356 135.685C85.0699 136.113 84.987 136.612 84.987 137.182ZM95.4672 141.159C94.7778 141.159 94.1729 140.995 93.6525 140.667C93.1355 140.339 92.7311 139.88 92.4395 139.29C92.1511 138.7 92.0069 138.01 92.0069 137.222C92.0069 136.426 92.1511 135.732 92.4395 135.138C92.7311 134.545 93.1355 134.085 93.6525 133.756C94.1729 133.428 94.7778 133.264 95.4672 133.264C96.1565 133.264 96.7598 133.428 97.2768 133.756C97.7972 134.085 98.2015 134.545 98.4899 135.138C98.7815 135.732 98.9274 136.426 98.9274 137.222C98.9274 138.01 98.7815 138.7 98.4899 139.29C98.2015 139.88 97.7972 140.339 97.2768 140.667C96.7598 140.995 96.1565 141.159 95.4672 141.159ZM95.4672 140.105C95.9908 140.105 96.4217 139.971 96.7598 139.702C97.0978 139.434 97.3481 139.081 97.5105 138.643C97.6729 138.206 97.7541 137.732 97.7541 137.222C97.7541 136.711 97.6729 136.236 97.5105 135.795C97.3481 135.354 97.0978 134.998 96.7598 134.726C96.4217 134.454 95.9908 134.318 95.4672 134.318C94.9435 134.318 94.5126 134.454 94.1745 134.726C93.8365 134.998 93.5862 135.354 93.4238 135.795C93.2614 136.236 93.1802 136.711 93.1802 137.222C93.1802 137.732 93.2614 138.206 93.4238 138.643C93.5862 139.081 93.8365 139.434 94.1745 139.702C94.5126 139.971 94.9435 140.105 95.4672 140.105ZM101.892 136.406V141H100.718V133.364H101.852V134.557H101.951C102.13 134.169 102.402 133.857 102.767 133.622C103.131 133.384 103.602 133.264 104.179 133.264C104.696 133.264 105.148 133.37 105.536 133.582C105.924 133.791 106.225 134.109 106.441 134.537C106.656 134.961 106.764 135.498 106.764 136.148V141H105.591V136.227C105.591 135.627 105.435 135.16 105.123 134.825C104.812 134.487 104.384 134.318 103.841 134.318C103.466 134.318 103.131 134.399 102.836 134.562C102.545 134.724 102.314 134.961 102.145 135.273C101.976 135.584 101.892 135.962 101.892 136.406ZM111.791 141.159C111.155 141.159 110.593 140.998 110.106 140.677C109.619 140.352 109.238 139.895 108.963 139.305C108.687 138.711 108.55 138.01 108.55 137.202C108.55 136.4 108.687 135.704 108.963 135.114C109.238 134.524 109.62 134.068 110.111 133.746C110.602 133.425 111.168 133.264 111.811 133.264C112.308 133.264 112.701 133.347 112.99 133.513C113.281 133.675 113.503 133.861 113.656 134.07C113.811 134.275 113.932 134.444 114.019 134.577H114.118V130.818H115.291V141H114.158V139.827H114.019C113.932 139.966 113.81 140.142 113.651 140.354C113.492 140.562 113.265 140.75 112.97 140.915C112.675 141.078 112.282 141.159 111.791 141.159ZM111.95 140.105C112.421 140.105 112.819 139.982 113.144 139.737C113.468 139.489 113.715 139.146 113.884 138.708C114.053 138.267 114.138 137.759 114.138 137.182C114.138 136.612 114.055 136.113 113.889 135.685C113.724 135.254 113.478 134.92 113.154 134.681C112.829 134.439 112.428 134.318 111.95 134.318C111.453 134.318 111.039 134.446 110.708 134.701C110.379 134.953 110.133 135.296 109.967 135.73C109.804 136.161 109.723 136.645 109.723 137.182C109.723 137.725 109.806 138.219 109.972 138.663C110.141 139.104 110.389 139.455 110.718 139.717C111.049 139.976 111.46 140.105 111.95 140.105ZM120.805 141.159C120.069 141.159 119.434 140.997 118.901 140.672C118.37 140.344 117.961 139.886 117.673 139.3C117.388 138.71 117.245 138.024 117.245 137.241C117.245 136.459 117.388 135.77 117.673 135.173C117.961 134.573 118.362 134.106 118.876 133.771C119.393 133.433 119.996 133.264 120.686 133.264C121.083 133.264 121.476 133.33 121.864 133.463C122.252 133.596 122.605 133.811 122.923 134.109C123.241 134.404 123.494 134.795 123.683 135.283C123.872 135.77 123.967 136.37 123.967 137.082V137.58H118.08V136.565H122.774C122.774 136.134 122.687 135.75 122.515 135.412C122.346 135.074 122.104 134.807 121.789 134.612C121.478 134.416 121.11 134.318 120.686 134.318C120.218 134.318 119.814 134.434 119.472 134.666C119.134 134.895 118.874 135.193 118.692 135.561C118.51 135.929 118.419 136.323 118.419 136.744V137.42C118.419 137.997 118.518 138.486 118.717 138.887C118.919 139.285 119.199 139.588 119.557 139.797C119.915 140.002 120.331 140.105 120.805 140.105C121.113 140.105 121.392 140.062 121.64 139.976C121.892 139.886 122.109 139.754 122.291 139.578C122.474 139.399 122.615 139.177 122.714 138.912L123.847 139.23C123.728 139.615 123.528 139.953 123.246 140.244C122.964 140.533 122.616 140.758 122.202 140.92C121.788 141.08 121.322 141.159 120.805 141.159ZM128.635 141.159C127.999 141.159 127.437 140.998 126.95 140.677C126.463 140.352 126.081 139.895 125.806 139.305C125.531 138.711 125.394 138.01 125.394 137.202C125.394 136.4 125.531 135.704 125.806 135.114C126.081 134.524 126.464 134.068 126.955 133.746C127.445 133.425 128.012 133.264 128.655 133.264C129.152 133.264 129.545 133.347 129.833 133.513C130.125 133.675 130.347 133.861 130.499 134.07C130.655 134.275 130.776 134.444 130.862 134.577H130.962V130.818H132.135V141H131.002V139.827H130.862C130.776 139.966 130.654 140.142 130.494 140.354C130.335 140.562 130.108 140.75 129.813 140.915C129.518 141.078 129.126 141.159 128.635 141.159ZM128.794 140.105C129.265 140.105 129.663 139.982 129.987 139.737C130.312 139.489 130.559 139.146 130.728 138.708C130.897 138.267 130.982 137.759 130.982 137.182C130.982 136.612 130.899 136.113 130.733 135.685C130.567 135.254 130.322 134.92 129.997 134.681C129.673 134.439 129.271 134.318 128.794 134.318C128.297 134.318 127.883 134.446 127.551 134.701C127.223 134.953 126.976 135.296 126.811 135.73C126.648 136.161 126.567 136.645 126.567 137.182C126.567 137.725 126.65 138.219 126.816 138.663C126.985 139.104 127.233 139.455 127.561 139.717C127.893 139.976 128.304 140.105 128.794 140.105ZM141.705 133.364V134.358H137.748V133.364H141.705ZM138.901 131.534H140.075V138.812C140.075 139.144 140.123 139.393 140.219 139.558C140.318 139.721 140.444 139.83 140.597 139.886C140.753 139.939 140.917 139.966 141.089 139.966C141.218 139.966 141.324 139.959 141.407 139.946C141.49 139.929 141.556 139.916 141.606 139.906L141.845 140.96C141.765 140.99 141.654 141.02 141.512 141.05C141.369 141.083 141.188 141.099 140.97 141.099C140.638 141.099 140.313 141.028 139.995 140.886C139.68 140.743 139.419 140.526 139.21 140.234C139.004 139.943 138.901 139.575 138.901 139.131V131.534ZM146.491 141.159C145.801 141.159 145.196 140.995 144.676 140.667C144.159 140.339 143.755 139.88 143.463 139.29C143.175 138.7 143.03 138.01 143.03 137.222C143.03 136.426 143.175 135.732 143.463 135.138C143.755 134.545 144.159 134.085 144.676 133.756C145.196 133.428 145.801 133.264 146.491 133.264C147.18 133.264 147.783 133.428 148.3 133.756C148.821 134.085 149.225 134.545 149.513 135.138C149.805 135.732 149.951 136.426 149.951 137.222C149.951 138.01 149.805 138.7 149.513 139.29C149.225 139.88 148.821 140.339 148.3 140.667C147.783 140.995 147.18 141.159 146.491 141.159ZM146.491 140.105C147.014 140.105 147.445 139.971 147.783 139.702C148.121 139.434 148.372 139.081 148.534 138.643C148.696 138.206 148.778 137.732 148.778 137.222C148.778 136.711 148.696 136.236 148.534 135.795C148.372 135.354 148.121 134.998 147.783 134.726C147.445 134.454 147.014 134.318 146.491 134.318C145.967 134.318 145.536 134.454 145.198 134.726C144.86 134.998 144.61 135.354 144.447 135.795C144.285 136.236 144.204 136.711 144.204 137.222C144.204 137.732 144.285 138.206 144.447 138.643C144.61 139.081 144.86 139.434 145.198 139.702C145.536 139.971 145.967 140.105 146.491 140.105Z" fill="#A5A5A5"/>
<mask id="path-12-inside-4_56_1755" fill="white">
<path d="M0 162H158V214H0V162Z"/>
</mask>
<path d="M158 214V213H0V214V215H158V214Z" fill="#E7EBF4" mask="url(#path-12-inside-4_56_1755)"/>
<path d="M25.4261 186H24.1932C24.1203 185.645 23.9927 185.334 23.8104 185.065C23.6314 184.797 23.4126 184.571 23.1541 184.389C22.8989 184.204 22.6155 184.064 22.304 183.972C21.9924 183.879 21.6676 183.832 21.3295 183.832C20.7131 183.832 20.1546 183.988 19.6541 184.3C19.157 184.611 18.7609 185.07 18.4659 185.677C18.1742 186.283 18.0284 187.027 18.0284 187.909C18.0284 188.791 18.1742 189.535 18.4659 190.141C18.7609 190.748 19.157 191.207 19.6541 191.518C20.1546 191.83 20.7131 191.986 21.3295 191.986C21.6676 191.986 21.9924 191.939 22.304 191.847C22.6155 191.754 22.8989 191.616 23.1541 191.434C23.4126 191.248 23.6314 191.021 23.8104 190.753C23.9927 190.481 24.1203 190.17 24.1932 189.818H25.4261C25.3333 190.339 25.1643 190.804 24.919 191.215C24.6738 191.626 24.3688 191.976 24.0043 192.264C23.6397 192.549 23.2304 192.766 22.7763 192.915C22.3255 193.065 21.8433 193.139 21.3295 193.139C20.4612 193.139 19.6889 192.927 19.0128 192.503C18.3366 192.079 17.8047 191.475 17.4169 190.693C17.0291 189.911 16.8352 188.983 16.8352 187.909C16.8352 186.835 17.0291 185.907 17.4169 185.125C17.8047 184.343 18.3366 183.74 19.0128 183.315C19.6889 182.891 20.4612 182.679 21.3295 182.679C21.8433 182.679 22.3255 182.754 22.7763 182.903C23.2304 183.052 23.6397 183.271 24.0043 183.559C24.3688 183.844 24.6738 184.192 24.919 184.603C25.1643 185.011 25.3333 185.476 25.4261 186ZM30.3617 193.159C29.6723 193.159 29.0674 192.995 28.5471 192.667C28.03 192.339 27.6257 191.88 27.334 191.29C27.0456 190.7 26.9015 190.01 26.9015 189.222C26.9015 188.426 27.0456 187.732 27.334 187.138C27.6257 186.545 28.03 186.085 28.5471 185.756C29.0674 185.428 29.6723 185.264 30.3617 185.264C31.0511 185.264 31.6543 185.428 32.1713 185.756C32.6917 186.085 33.0961 186.545 33.3844 187.138C33.6761 187.732 33.8219 188.426 33.8219 189.222C33.8219 190.01 33.6761 190.7 33.3844 191.29C33.0961 191.88 32.6917 192.339 32.1713 192.667C31.6543 192.995 31.0511 193.159 30.3617 193.159ZM30.3617 192.105C30.8854 192.105 31.3162 191.971 31.6543 191.702C31.9924 191.434 32.2426 191.081 32.405 190.643C32.5674 190.206 32.6486 189.732 32.6486 189.222C32.6486 188.711 32.5674 188.236 32.405 187.795C32.2426 187.354 31.9924 186.998 31.6543 186.726C31.3162 186.454 30.8854 186.318 30.3617 186.318C29.838 186.318 29.4071 186.454 29.0691 186.726C28.731 186.998 28.4808 187.354 28.3184 187.795C28.156 188.236 28.0748 188.711 28.0748 189.222C28.0748 189.732 28.156 190.206 28.3184 190.643C28.4808 191.081 28.731 191.434 29.0691 191.702C29.4071 191.971 29.838 192.105 30.3617 192.105ZM36.7862 188.406V193H35.6129V185.364H36.7464V186.557H36.8459C37.0249 186.169 37.2966 185.857 37.6612 185.622C38.0258 185.384 38.4964 185.264 39.0732 185.264C39.5902 185.264 40.0426 185.37 40.4304 185.582C40.8182 185.791 41.1198 186.109 41.3352 186.537C41.5507 186.961 41.6584 187.498 41.6584 188.148V193H40.4851V188.227C40.4851 187.627 40.3293 187.16 40.0178 186.825C39.7062 186.487 39.2786 186.318 38.7351 186.318C38.3606 186.318 38.0258 186.399 37.7308 186.562C37.4392 186.724 37.2088 186.961 37.0398 187.273C36.8707 187.584 36.7862 187.962 36.7862 188.406ZM47.1234 185.364V186.358H43.166V185.364H47.1234ZM44.3194 183.534H45.4927V190.812C45.4927 191.144 45.5408 191.393 45.6369 191.558C45.7363 191.721 45.8623 191.83 46.0147 191.886C46.1705 191.939 46.3346 191.966 46.5069 191.966C46.6362 191.966 46.7422 191.959 46.8251 191.946C46.908 191.929 46.9743 191.916 47.024 191.906L47.2626 192.96C47.1831 192.99 47.072 193.02 46.9295 193.05C46.787 193.083 46.6064 193.099 46.3876 193.099C46.0562 193.099 45.7314 193.028 45.4132 192.886C45.0983 192.743 44.8365 192.526 44.6277 192.234C44.4222 191.943 44.3194 191.575 44.3194 191.131V183.534ZM48.8883 193V185.364H50.0218V186.517H50.1014C50.2406 186.139 50.4925 185.833 50.8571 185.597C51.2217 185.362 51.6326 185.244 52.09 185.244C52.1762 185.244 52.2839 185.246 52.4132 185.249C52.5424 185.253 52.6402 185.258 52.7065 185.264V186.457C52.6667 186.447 52.5756 186.433 52.4331 186.413C52.2939 186.389 52.1464 186.378 51.9906 186.378C51.6194 186.378 51.2879 186.456 50.9963 186.612C50.7079 186.764 50.4792 186.976 50.3102 187.248C50.1445 187.516 50.0616 187.823 50.0616 188.168V193H48.8883ZM56.3445 193.179C55.8606 193.179 55.4214 193.088 55.027 192.906C54.6326 192.72 54.3194 192.453 54.0874 192.105C53.8554 191.754 53.7393 191.33 53.7393 190.832C53.7393 190.395 53.8255 190.04 53.9979 189.768C54.1702 189.493 54.4006 189.278 54.6889 189.122C54.9773 188.966 55.2955 188.85 55.6435 188.774C55.9948 188.695 56.3478 188.632 56.7024 188.585C57.1664 188.526 57.5426 188.481 57.831 188.451C58.1226 188.418 58.3348 188.363 58.4673 188.287C58.6032 188.211 58.6712 188.078 58.6712 187.889V187.849C58.6712 187.359 58.5369 186.978 58.2685 186.706C58.0033 186.434 57.6006 186.298 57.0604 186.298C56.5002 186.298 56.0611 186.421 55.7429 186.666C55.4247 186.911 55.201 187.173 55.0717 187.452L53.9581 187.054C54.157 186.59 54.4221 186.229 54.7536 185.97C55.0883 185.708 55.4529 185.526 55.8473 185.423C56.245 185.317 56.6361 185.264 57.0206 185.264C57.2659 185.264 57.5476 185.294 57.8658 185.354C58.1873 185.41 58.4972 185.528 58.7955 185.707C59.0971 185.886 59.3473 186.156 59.5462 186.517C59.745 186.878 59.8445 187.362 59.8445 187.969V193H58.6712V191.966H58.6115C58.532 192.132 58.3994 192.309 58.2138 192.498C58.0282 192.687 57.7813 192.848 57.473 192.98C57.1648 193.113 56.7886 193.179 56.3445 193.179ZM56.5234 192.125C56.9875 192.125 57.3786 192.034 57.6967 191.852C58.0182 191.669 58.2602 191.434 58.4226 191.146C58.5883 190.857 58.6712 190.554 58.6712 190.236V189.162C58.6214 189.222 58.5121 189.276 58.343 189.326C58.1773 189.372 57.9851 189.414 57.7663 189.45C57.5509 189.483 57.3404 189.513 57.1349 189.54C56.9328 189.563 56.7687 189.583 56.6428 189.599C56.3378 189.639 56.0528 189.704 55.7876 189.793C55.5258 189.879 55.3137 190.01 55.1513 190.186C54.9922 190.358 54.9126 190.594 54.9126 190.892C54.9126 191.3 55.0634 191.608 55.3651 191.817C55.67 192.022 56.0561 192.125 56.5234 192.125ZM65.0882 193.159C64.3723 193.159 63.7559 192.99 63.2388 192.652C62.7218 192.314 62.324 191.848 62.0456 191.255C61.7672 190.662 61.628 189.984 61.628 189.222C61.628 188.446 61.7705 187.762 62.0556 187.168C62.3439 186.572 62.745 186.106 63.2587 185.771C63.7757 185.433 64.379 185.264 65.0684 185.264C65.6053 185.264 66.0892 185.364 66.5201 185.562C66.9509 185.761 67.3039 186.04 67.579 186.398C67.8541 186.756 68.0248 187.173 68.0911 187.651H66.9178C66.8283 187.303 66.6294 186.994 66.3212 186.726C66.0163 186.454 65.6053 186.318 65.0882 186.318C64.6309 186.318 64.2298 186.437 63.8851 186.676C63.5437 186.911 63.2769 187.245 63.0847 187.675C62.8958 188.103 62.8013 188.605 62.8013 189.182C62.8013 189.772 62.8941 190.286 63.0797 190.723C63.2686 191.161 63.5338 191.5 63.8752 191.742C64.2199 191.984 64.6242 192.105 65.0882 192.105C65.3932 192.105 65.6699 192.052 65.9185 191.946C66.1671 191.84 66.3775 191.688 66.5499 191.489C66.7222 191.29 66.8449 191.051 66.9178 190.773H68.0911C68.0248 191.223 67.8607 191.629 67.5989 191.991C67.3404 192.349 66.9973 192.634 66.5698 192.846C66.1455 193.055 65.6517 193.159 65.0882 193.159ZM73.1273 185.364V186.358H69.1699V185.364H73.1273ZM70.3233 183.534H71.4966V190.812C71.4966 191.144 71.5447 191.393 71.6408 191.558C71.7402 191.721 71.8662 191.83 72.0186 191.886C72.1744 191.939 72.3385 191.966 72.5108 191.966C72.6401 191.966 72.7462 191.959 72.829 191.946C72.9119 191.929 72.9782 191.916 73.0279 191.906L73.2665 192.96C73.187 192.99 73.0759 193.02 72.9334 193.05C72.7909 193.083 72.6103 193.099 72.3915 193.099C72.0601 193.099 71.7353 193.028 71.4171 192.886C71.1022 192.743 70.8404 192.526 70.6316 192.234C70.4261 191.943 70.3233 191.575 70.3233 191.131V183.534ZM80.1646 187.074L79.1106 187.372C79.0443 187.196 78.9466 187.026 78.8173 186.86C78.6913 186.691 78.519 186.552 78.3002 186.442C78.0815 186.333 77.8014 186.278 77.46 186.278C76.9927 186.278 76.6033 186.386 76.2917 186.602C75.9835 186.814 75.8294 187.084 75.8294 187.412C75.8294 187.704 75.9354 187.934 76.1475 188.103C76.3597 188.272 76.6911 188.413 77.1419 188.526L78.2754 188.804C78.9582 188.97 79.4669 189.223 79.8017 189.565C80.1364 189.903 80.3038 190.339 80.3038 190.872C80.3038 191.31 80.1779 191.701 79.926 192.045C79.6774 192.39 79.3294 192.662 78.8819 192.861C78.4345 193.06 77.9141 193.159 77.3208 193.159C76.542 193.159 75.8973 192.99 75.3869 192.652C74.8765 192.314 74.5533 191.82 74.4174 191.17L75.5311 190.892C75.6371 191.303 75.8377 191.611 76.1326 191.817C76.4309 192.022 76.8204 192.125 77.301 192.125C77.8478 192.125 78.282 192.009 78.6035 191.777C78.9283 191.542 79.0907 191.26 79.0907 190.932C79.0907 190.667 78.9979 190.445 78.8123 190.266C78.6267 190.083 78.3417 189.947 77.9572 189.858L76.6845 189.56C75.9851 189.394 75.4714 189.137 75.1433 188.789C74.8185 188.438 74.6561 187.999 74.6561 187.472C74.6561 187.041 74.777 186.66 75.019 186.328C75.2643 185.997 75.5974 185.737 76.0183 185.548C76.4425 185.359 76.9231 185.264 77.46 185.264C78.2157 185.264 78.809 185.43 79.2399 185.761C79.6741 186.093 79.9823 186.53 80.1646 187.074ZM91.7347 185.364C91.6751 184.86 91.4331 184.469 91.0089 184.19C90.5846 183.912 90.0643 183.773 89.4478 183.773C88.997 183.773 88.6026 183.846 88.2646 183.991C87.9298 184.137 87.668 184.338 87.479 184.593C87.2934 184.848 87.2006 185.138 87.2006 185.463C87.2006 185.735 87.2653 185.969 87.3945 186.164C87.5271 186.356 87.6961 186.517 87.9016 186.646C88.1071 186.772 88.3226 186.877 88.5479 186.96C88.7733 187.039 88.9805 187.104 89.1694 187.153L90.2035 187.432C90.4686 187.501 90.7636 187.598 91.0884 187.72C91.4165 187.843 91.7298 188.01 92.0281 188.222C92.3297 188.431 92.5782 188.7 92.7738 189.028C92.9693 189.356 93.0671 189.759 93.0671 190.236C93.0671 190.786 92.9229 191.283 92.6346 191.727C92.3496 192.171 91.9319 192.524 91.3817 192.786C90.8349 193.048 90.1703 193.179 89.3881 193.179C88.659 193.179 88.0276 193.061 87.494 192.826C86.9637 192.591 86.546 192.263 86.2411 191.842C85.9395 191.421 85.7688 190.932 85.729 190.375H87.0018C87.0349 190.759 87.1642 191.078 87.3896 191.33C87.6183 191.578 87.9066 191.764 88.2546 191.886C88.6059 192.006 88.9838 192.065 89.3881 192.065C89.8588 192.065 90.2814 191.989 90.6559 191.837C91.0304 191.681 91.3271 191.465 91.5458 191.19C91.7646 190.912 91.8739 190.587 91.8739 190.216C91.8739 189.878 91.7795 189.603 91.5906 189.391C91.4016 189.179 91.1531 189.006 90.8448 188.874C90.5366 188.741 90.2035 188.625 89.8455 188.526L88.5927 188.168C87.7972 187.939 87.1675 187.612 86.7035 187.188C86.2395 186.764 86.0075 186.209 86.0075 185.523C86.0075 184.953 86.1616 184.455 86.4698 184.031C86.7814 183.604 87.199 183.272 87.7227 183.037C88.2496 182.798 88.8379 182.679 89.4876 182.679C90.1438 182.679 90.7272 182.797 91.2376 183.032C91.748 183.264 92.1523 183.582 92.4506 183.987C92.7522 184.391 92.9113 184.85 92.9279 185.364H91.7347ZM94.9352 193V185.364H96.1085V193H94.9352ZM95.5318 184.091C95.3031 184.091 95.1059 184.013 94.9402 183.857C94.7778 183.701 94.6966 183.514 94.6966 183.295C94.6966 183.077 94.7778 182.889 94.9402 182.734C95.1059 182.578 95.3031 182.5 95.5318 182.5C95.7605 182.5 95.956 182.578 96.1184 182.734C96.2842 182.889 96.367 183.077 96.367 183.295C96.367 183.514 96.2842 183.701 96.1184 183.857C95.956 184.013 95.7605 184.091 95.5318 184.091ZM101.34 196.023C100.773 196.023 100.286 195.95 99.8782 195.804C99.4705 195.661 99.1308 195.473 98.859 195.237C98.5906 195.005 98.3768 194.757 98.2177 194.491L99.1523 193.835C99.2584 193.974 99.3926 194.134 99.555 194.312C99.7174 194.495 99.9395 194.652 100.221 194.785C100.506 194.921 100.879 194.989 101.34 194.989C101.956 194.989 102.465 194.839 102.866 194.541C103.267 194.243 103.468 193.776 103.468 193.139V191.588H103.368C103.282 191.727 103.159 191.9 103 192.105C102.845 192.307 102.619 192.488 102.324 192.647C102.033 192.803 101.638 192.881 101.141 192.881C100.525 192.881 99.971 192.735 99.4805 192.443C98.9933 192.152 98.6071 191.727 98.3221 191.17C98.0404 190.614 97.8995 189.937 97.8995 189.142C97.8995 188.36 98.0371 187.679 98.3121 187.099C98.5872 186.515 98.9701 186.065 99.4606 185.746C99.9511 185.425 100.518 185.264 101.161 185.264C101.658 185.264 102.052 185.347 102.344 185.513C102.639 185.675 102.864 185.861 103.02 186.07C103.179 186.275 103.302 186.444 103.388 186.577H103.507V185.364H104.641V193.219C104.641 193.875 104.492 194.409 104.194 194.82C103.899 195.234 103.501 195.537 103 195.729C102.503 195.925 101.95 196.023 101.34 196.023ZM101.3 191.827C101.771 191.827 102.168 191.719 102.493 191.504C102.818 191.288 103.065 190.978 103.234 190.574C103.403 190.17 103.488 189.686 103.488 189.122C103.488 188.572 103.405 188.086 103.239 187.665C103.073 187.245 102.828 186.915 102.503 186.676C102.178 186.437 101.777 186.318 101.3 186.318C100.803 186.318 100.389 186.444 100.057 186.696C99.729 186.948 99.4821 187.286 99.3164 187.71C99.154 188.134 99.0728 188.605 99.0728 189.122C99.0728 189.652 99.1557 190.121 99.3214 190.529C99.4904 190.933 99.739 191.252 100.067 191.484C100.399 191.712 100.81 191.827 101.3 191.827ZM107.962 188.406V193H106.789V185.364H107.922V186.557H108.022C108.201 186.169 108.472 185.857 108.837 185.622C109.202 185.384 109.672 185.264 110.249 185.264C110.766 185.264 111.218 185.37 111.606 185.582C111.994 185.791 112.296 186.109 112.511 186.537C112.726 186.961 112.834 187.498 112.834 188.148V193H111.661V188.227C111.661 187.627 111.505 187.16 111.194 186.825C110.882 186.487 110.454 186.318 109.911 186.318C109.536 186.318 109.202 186.399 108.907 186.562C108.615 186.724 108.385 186.961 108.216 187.273C108.047 187.584 107.962 187.962 107.962 188.406ZM118.18 193.159C117.444 193.159 116.809 192.997 116.276 192.672C115.745 192.344 115.336 191.886 115.048 191.3C114.763 190.71 114.62 190.024 114.62 189.241C114.62 188.459 114.763 187.77 115.048 187.173C115.336 186.573 115.737 186.106 116.251 185.771C116.768 185.433 117.371 185.264 118.061 185.264C118.458 185.264 118.851 185.33 119.239 185.463C119.627 185.596 119.98 185.811 120.298 186.109C120.616 186.404 120.869 186.795 121.058 187.283C121.247 187.77 121.342 188.37 121.342 189.082V189.58H115.455V188.565H120.149C120.149 188.134 120.062 187.75 119.89 187.412C119.721 187.074 119.479 186.807 119.164 186.612C118.853 186.416 118.485 186.318 118.061 186.318C117.593 186.318 117.189 186.434 116.847 186.666C116.509 186.895 116.249 187.193 116.067 187.561C115.885 187.929 115.794 188.323 115.794 188.744V189.42C115.794 189.997 115.893 190.486 116.092 190.887C116.294 191.285 116.574 191.588 116.932 191.797C117.29 192.002 117.706 192.105 118.18 192.105C118.488 192.105 118.767 192.062 119.015 191.976C119.267 191.886 119.484 191.754 119.666 191.578C119.849 191.399 119.99 191.177 120.089 190.912L121.222 191.23C121.103 191.615 120.903 191.953 120.621 192.244C120.339 192.533 119.991 192.758 119.577 192.92C119.163 193.08 118.697 193.159 118.18 193.159ZM126.01 193.159C125.374 193.159 124.812 192.998 124.325 192.677C123.838 192.352 123.456 191.895 123.181 191.305C122.906 190.711 122.769 190.01 122.769 189.202C122.769 188.4 122.906 187.704 123.181 187.114C123.456 186.524 123.839 186.068 124.33 185.746C124.82 185.425 125.387 185.264 126.03 185.264C126.527 185.264 126.92 185.347 127.208 185.513C127.5 185.675 127.722 185.861 127.874 186.07C128.03 186.275 128.151 186.444 128.237 186.577H128.337V182.818H129.51V193H128.377V191.827H128.237C128.151 191.966 128.029 192.142 127.869 192.354C127.71 192.562 127.483 192.75 127.188 192.915C126.893 193.078 126.501 193.159 126.01 193.159ZM126.169 192.105C126.64 192.105 127.038 191.982 127.362 191.737C127.687 191.489 127.934 191.146 128.103 190.708C128.272 190.267 128.357 189.759 128.357 189.182C128.357 188.612 128.274 188.113 128.108 187.685C127.942 187.254 127.697 186.92 127.372 186.681C127.048 186.439 126.646 186.318 126.169 186.318C125.672 186.318 125.258 186.446 124.926 186.701C124.598 186.953 124.351 187.296 124.186 187.73C124.023 188.161 123.942 188.645 123.942 189.182C123.942 189.725 124.025 190.219 124.191 190.663C124.36 191.104 124.608 191.455 124.936 191.717C125.268 191.976 125.679 192.105 126.169 192.105Z" fill="#A5A5A5"/>
<mask id="path-15-inside-5_56_1755" fill="white">
<path d="M158 7H287V56H158V7Z"/>
</mask>
<path d="M287 56V55H158V56V57H287V56Z" fill="#E7EBF4" mask="url(#path-15-inside-5_56_1755)"/>
<mask id="path-17-inside-6_56_1755" fill="white">
<path d="M158 56H287V108H158V56Z"/>
</mask>
<path d="M287 108V107H158V108V109H287V108Z" fill="#E7EBF4" mask="url(#path-17-inside-6_56_1755)"/>
<path d="M253.979 87V85.8864L257.425 82.3168C257.793 81.929 258.096 81.5893 258.335 81.2976C258.576 81.0026 258.757 80.7225 258.876 80.4574C258.996 80.1922 259.055 79.9105 259.055 79.6122C259.055 79.2741 258.976 78.9825 258.817 78.7372C258.658 78.4886 258.441 78.2981 258.165 78.1655C257.89 78.0296 257.58 77.9616 257.236 77.9616C256.871 77.9616 256.553 78.0362 256.281 78.1854C256.009 78.3345 255.801 78.545 255.655 78.8168C255.509 79.0885 255.436 79.4067 255.436 79.7713H253.969C253.969 79.1515 254.112 78.6096 254.397 78.1456C254.682 77.6816 255.073 77.322 255.57 77.0668C256.067 76.8082 256.633 76.679 257.266 76.679C257.905 76.679 258.469 76.8066 258.956 77.0618C259.446 77.3137 259.829 77.6584 260.104 78.0959C260.379 78.5301 260.517 79.0206 260.517 79.5675C260.517 79.9453 260.446 80.3149 260.303 80.6761C260.164 81.0374 259.92 81.4401 259.572 81.8842C259.224 82.325 258.741 82.8603 258.121 83.4901L256.097 85.608V85.6825H260.681V87H253.979ZM265.926 87.1392C265.303 87.1392 264.743 87.0199 264.246 86.7812C263.752 86.5393 263.357 86.2079 263.062 85.7869C262.768 85.366 262.61 84.8854 262.59 84.3452H264.082C264.118 84.7827 264.312 85.1423 264.663 85.424C265.015 85.7057 265.436 85.8466 265.926 85.8466C266.317 85.8466 266.664 85.7571 266.965 85.5781C267.27 85.3958 267.509 85.1456 267.681 84.8274C267.857 84.5092 267.945 84.1463 267.945 83.7386C267.945 83.3243 267.855 82.9548 267.676 82.63C267.497 82.3052 267.25 82.05 266.935 81.8643C266.624 81.6787 266.266 81.5843 265.862 81.581C265.553 81.581 265.243 81.634 264.932 81.7401C264.62 81.8461 264.368 81.9853 264.176 82.1577L262.769 81.9489L263.341 76.8182H268.939V78.1357H264.619L264.295 80.9844H264.355C264.554 80.7921 264.817 80.6314 265.146 80.5021C265.477 80.3729 265.832 80.3082 266.21 80.3082C266.829 80.3082 267.381 80.4557 267.865 80.7507C268.352 81.0457 268.735 81.4484 269.013 81.9588C269.295 82.4659 269.434 83.0492 269.431 83.7088C269.434 84.3684 269.285 84.9567 268.984 85.4737C268.685 85.9908 268.271 86.3984 267.741 86.6967C267.214 86.9917 266.609 87.1392 265.926 87.1392Z" fill="#FACD2D"/>
<mask id="path-20-inside-7_56_1755" fill="white">
<path d="M158 108H287V160H158V108Z"/>
</mask>
<path d="M287 160V159H158V160V161H287V160Z" fill="#E7EBF4" mask="url(#path-20-inside-7_56_1755)"/>
<path d="M266.34 139.139C265.717 139.139 265.157 139.02 264.66 138.781C264.166 138.539 263.772 138.208 263.477 137.787C263.182 137.366 263.024 136.885 263.004 136.345H264.496C264.532 136.783 264.726 137.142 265.077 137.424C265.429 137.706 265.85 137.847 266.34 137.847C266.731 137.847 267.078 137.757 267.379 137.578C267.684 137.396 267.923 137.146 268.095 136.827C268.271 136.509 268.359 136.146 268.359 135.739C268.359 135.324 268.269 134.955 268.09 134.63C267.911 134.305 267.664 134.05 267.349 133.864C267.038 133.679 266.68 133.584 266.276 133.581C265.967 133.581 265.657 133.634 265.346 133.74C265.034 133.846 264.782 133.985 264.59 134.158L263.183 133.949L263.755 128.818H269.353V130.136H265.033L264.71 132.984H264.769C264.968 132.792 265.232 132.631 265.56 132.502C265.891 132.373 266.246 132.308 266.624 132.308C267.243 132.308 267.795 132.456 268.279 132.751C268.766 133.046 269.149 133.448 269.428 133.959C269.709 134.466 269.848 135.049 269.845 135.709C269.848 136.368 269.699 136.957 269.398 137.474C269.099 137.991 268.685 138.398 268.155 138.697C267.628 138.992 267.023 139.139 266.34 139.139Z" fill="#FACD2D"/>
<mask id="path-23-inside-8_56_1755" fill="white">
<path d="M158 160H287V212H158V160Z"/>
</mask>
<path d="M287 212V211H158V212V213H287V212Z" fill="#E7EBF4" mask="url(#path-23-inside-8_56_1755)"/>
<path d="M263.322 191L267.767 182.21V182.136H262.626V180.818H269.358V182.18L264.928 191H263.322Z" fill="#FACD2D"/>
</svg>
