<svg width="272" height="133" viewBox="0 0 272 133" fill="none" xmlns="http://www.w3.org/2000/svg">
<rect width="271.812" height="132.755" rx="10.023" fill="#F9FAFB"/>
<rect x="13" y="11" width="245.812" height="52.5924" rx="9.1465" fill="white"/>
<rect x="22.1465" y="21.8613" width="30.8694" height="30.8694" rx="15.4347" fill="#FACD2D"/>
<path d="M34.799 41V33.7273H35.8963V36.8878H39.522V33.7273H40.6229V41H39.522V37.8288H35.8963V41H34.799Z" fill="white"/>
<path d="M68.0749 24.8738H69.1687V30.03C69.1687 30.4964 69.0763 30.8953 68.8917 31.2267C68.7094 31.5582 68.4525 31.8115 68.1211 31.9867C67.7897 32.1595 67.4014 32.2459 66.9563 32.2459C66.5468 32.2459 66.1786 32.1713 65.8519 32.0222C65.5276 31.873 65.2707 31.6564 65.0813 31.3723C64.8943 31.0859 64.8008 30.7379 64.8008 30.3283H65.891C65.891 30.5295 65.9371 30.7035 66.0295 30.8503C66.1242 30.9971 66.2532 31.1119 66.4165 31.1948C66.5823 31.2753 66.7717 31.3155 66.9847 31.3155C67.2167 31.3155 67.4132 31.267 67.5742 31.1699C67.7376 31.0705 67.8619 30.9249 67.9471 30.7331C68.0323 30.5414 68.0749 30.307 68.0749 30.03V24.8738ZM74.1358 29.8844V26.6919H75.2012V32.1465H74.1571V31.2019H74.1003C73.9748 31.4931 73.7736 31.7357 73.4966 31.9299C73.222 32.1216 72.8799 32.2175 72.4703 32.2175C72.12 32.2175 71.8098 32.1406 71.54 31.9867C71.2724 31.8304 71.0617 31.5996 70.9078 31.2942C70.7563 30.9888 70.6806 30.6112 70.6806 30.1614V26.6919H71.7424V30.0336C71.7424 30.4052 71.8453 30.7012 72.0513 30.9213C72.2573 31.1415 72.5248 31.2516 72.8539 31.2516C73.0527 31.2516 73.2504 31.2019 73.4469 31.1025C73.6458 31.003 73.8103 30.8527 73.9405 30.6515C74.0731 30.4502 74.1382 30.1945 74.1358 29.8844ZM80.7152 28.0236L79.7528 28.1941C79.7126 28.071 79.6487 27.9538 79.5611 27.8425C79.4759 27.7312 79.3598 27.6401 79.2131 27.5691C79.0663 27.498 78.8828 27.4625 78.6626 27.4625C78.362 27.4625 78.111 27.53 77.9098 27.665C77.7086 27.7975 77.608 27.9692 77.608 28.1799C77.608 28.3622 77.6754 28.5089 77.8104 28.6202C77.9453 28.7315 78.1631 28.8226 78.4638 28.8936L79.3303 29.0925C79.8321 29.2085 80.2062 29.3873 80.4524 29.6287C80.6986 29.8702 80.8217 30.1839 80.8217 30.5698C80.8217 30.8965 80.727 31.1877 80.5376 31.4434C80.3506 31.6967 80.089 31.8955 79.7528 32.04C79.419 32.1844 79.032 32.2566 78.5916 32.2566C77.9808 32.2566 77.4825 32.1264 77.0966 31.8659C76.7107 31.6032 76.474 31.2303 76.3864 30.7473L77.4126 30.5911C77.4766 30.8586 77.608 31.061 77.8068 31.1983C78.0057 31.3333 78.2649 31.4007 78.5845 31.4007C78.9325 31.4007 79.2107 31.3285 79.419 31.1841C79.6274 31.0373 79.7315 30.8586 79.7315 30.6479C79.7315 30.4775 79.6676 30.3342 79.5398 30.2182C79.4143 30.1022 79.2214 30.0146 78.9609 29.9554L78.0376 29.753C77.5286 29.637 77.1522 29.4524 76.9084 29.199C76.6669 28.9457 76.5462 28.6249 76.5462 28.2367C76.5462 27.9147 76.6361 27.633 76.8161 27.3915C76.996 27.15 77.2446 26.9618 77.5618 26.8269C77.879 26.6896 78.2424 26.6209 78.652 26.6209C79.2415 26.6209 79.7055 26.7488 80.044 27.0044C80.3826 27.2578 80.6063 27.5975 80.7152 28.0236ZM84.5353 26.6919V27.5442H81.5559V26.6919H84.5353ZM82.3549 25.3851H83.4167V30.5449C83.4167 30.7509 83.4475 30.906 83.5091 31.0101C83.5706 31.1119 83.6499 31.1818 83.747 31.2196C83.8464 31.2551 83.9541 31.2729 84.0701 31.2729C84.1554 31.2729 84.2299 31.267 84.2939 31.2551C84.3578 31.2433 84.4075 31.2338 84.443 31.2267L84.6348 32.1039C84.5732 32.1275 84.4856 32.1512 84.372 32.1749C84.2583 32.2009 84.1163 32.2151 83.9458 32.2175C83.6665 32.2222 83.4061 32.1725 83.1646 32.0684C82.9231 31.9642 82.7278 31.8032 82.5787 31.5854C82.4295 31.3676 82.3549 31.0942 82.3549 30.7651V25.3851ZM88.4416 32.1465V24.8738H91.0339C91.5997 24.8738 92.0685 24.9767 92.4402 25.1827C92.8118 25.3887 93.09 25.6704 93.2747 26.0279C93.4593 26.383 93.5517 26.7831 93.5517 27.2282C93.5517 27.6756 93.4582 28.0781 93.2711 28.4355C93.0865 28.7907 92.8071 29.0724 92.4331 29.2807C92.0614 29.4867 91.5938 29.5897 91.0304 29.5897H89.2477V28.6593H90.9309C91.2884 28.6593 91.5784 28.5977 91.801 28.4746C92.0235 28.3491 92.1868 28.1787 92.291 27.9632C92.3952 27.7478 92.4473 27.5028 92.4473 27.2282C92.4473 26.9535 92.3952 26.7097 92.291 26.4966C92.1868 26.2836 92.0223 26.1167 91.7974 25.9959C91.5749 25.8752 91.2813 25.8148 90.9167 25.8148H89.5389V32.1465H88.4416ZM96.2914 32.2672C95.9457 32.2672 95.6332 32.2033 95.3539 32.0755C95.0745 31.9453 94.8532 31.757 94.6898 31.5108C94.5288 31.2646 94.4483 30.9628 94.4483 30.6053C94.4483 30.2975 94.5075 30.0442 94.6259 29.8453C94.7443 29.6465 94.9041 29.4891 95.1053 29.373C95.3065 29.257 95.5314 29.1694 95.78 29.1103C96.0286 29.0511 96.2819 29.0061 96.54 28.9753C96.8667 28.9374 97.1318 28.9067 97.3354 28.883C97.539 28.8569 97.687 28.8155 97.7793 28.7587C97.8716 28.7019 97.9178 28.6096 97.9178 28.4817V28.4569C97.9178 28.1467 97.8302 27.9064 97.655 27.736C97.4822 27.5655 97.2241 27.4803 96.8809 27.4803C96.5234 27.4803 96.2417 27.5596 96.0357 27.7182C95.8321 27.8745 95.6912 28.0485 95.6131 28.2402L94.6152 28.013C94.7336 27.6815 94.9064 27.414 95.1337 27.2104C95.3633 27.0044 95.6273 26.8553 95.9256 26.763C96.2239 26.6683 96.5376 26.6209 96.8667 26.6209C97.0845 26.6209 97.3153 26.647 97.5591 26.699C97.8053 26.7488 98.035 26.8411 98.248 26.976C98.4635 27.111 98.6399 27.3039 98.7772 27.5549C98.9145 27.8034 98.9831 28.1266 98.9831 28.5243V32.1465H97.9462V31.4007H97.9036C97.8349 31.5381 97.7319 31.673 97.5946 31.8056C97.4573 31.9382 97.281 32.0482 97.0655 32.1358C96.8501 32.2234 96.592 32.2672 96.2914 32.2672ZM96.5222 31.415C96.8158 31.415 97.0667 31.3569 97.275 31.2409C97.4857 31.1249 97.6455 30.9734 97.7544 30.7864C97.8657 30.597 97.9213 30.3946 97.9213 30.1792V29.476C97.8835 29.5139 97.8101 29.5494 97.7012 29.5826C97.5946 29.6133 97.4727 29.6406 97.3354 29.6642C97.1981 29.6855 97.0643 29.7057 96.9341 29.7246C96.8039 29.7412 96.695 29.7554 96.6074 29.7672C96.4015 29.7933 96.2132 29.8371 96.0428 29.8986C95.8747 29.9602 95.7398 30.0489 95.638 30.165C95.5385 30.2786 95.4888 30.4301 95.4888 30.6195C95.4888 30.8823 95.5859 31.0811 95.78 31.2161C95.9741 31.3487 96.2215 31.415 96.5222 31.415ZM100.397 32.1465V26.6919H101.459V32.1465H100.397ZM100.934 25.8503C100.749 25.8503 100.59 25.7888 100.458 25.6657C100.328 25.5402 100.262 25.391 100.262 25.2182C100.262 25.043 100.328 24.8939 100.458 24.7708C100.59 24.6453 100.749 24.5826 100.934 24.5826C101.118 24.5826 101.276 24.6453 101.406 24.7708C101.538 24.8939 101.605 25.043 101.605 25.2182C101.605 25.391 101.538 25.5402 101.406 25.6657C101.276 25.7888 101.118 25.8503 100.934 25.8503ZM104.93 32.253C104.489 32.253 104.096 32.1406 103.751 31.9157C103.407 31.6884 103.137 31.3652 102.941 30.9462C102.747 30.5248 102.65 30.0194 102.65 29.4299C102.65 28.8404 102.748 28.3361 102.944 27.9171C103.143 27.498 103.416 27.1773 103.761 26.9547C104.107 26.7322 104.499 26.6209 104.937 26.6209C105.275 26.6209 105.547 26.6777 105.753 26.7914C105.962 26.9026 106.123 27.0328 106.236 27.182C106.352 27.3311 106.442 27.4625 106.506 27.5762H106.57V24.8738H107.632V32.1465H106.595V31.2978H106.506C106.442 31.4138 106.35 31.5463 106.229 31.6955C106.111 31.8446 105.948 31.9748 105.739 32.0861C105.531 32.1974 105.261 32.253 104.93 32.253ZM105.164 31.3475C105.469 31.3475 105.727 31.267 105.938 31.106C106.151 30.9426 106.312 30.7166 106.421 30.4277C106.532 30.1389 106.588 29.8027 106.588 29.4192C106.588 29.0404 106.533 28.709 106.425 28.4249C106.316 28.1408 106.156 27.9194 105.945 27.7608C105.734 27.6022 105.474 27.5229 105.164 27.5229C104.844 27.5229 104.578 27.6058 104.365 27.7715C104.152 27.9372 103.991 28.1633 103.882 28.4498C103.775 28.7362 103.722 29.0594 103.722 29.4192C103.722 29.7838 103.777 30.1117 103.885 30.4029C103.994 30.6941 104.155 30.9249 104.368 31.0953C104.584 31.2634 104.849 31.3475 105.164 31.3475Z" fill="#A5A5A5"/>
<path d="M67.9819 51.3873V40.4782H68.6808V51.3873H67.9819ZM70.168 43.8617C70.1225 43.4583 69.935 43.1458 69.6055 42.9242C69.2759 42.6998 68.8612 42.5876 68.3612 42.5876C68.0032 42.5876 67.6935 42.6444 67.4322 42.758C67.1708 42.8688 66.9677 43.0222 66.8228 43.2183C66.6808 43.4114 66.6097 43.6316 66.6097 43.8788C66.6097 44.0862 66.658 44.2651 66.7546 44.4157C66.854 44.5663 66.9833 44.6927 67.1424 44.795C67.3043 44.8944 67.4776 44.9782 67.6623 45.0464C67.8469 45.1117 68.0245 45.1657 68.195 45.2083L69.0472 45.4299C69.3256 45.4981 69.6112 45.5904 69.9038 45.7069C70.1964 45.8234 70.4677 45.9768 70.7177 46.1671C70.9677 46.3575 71.1694 46.5933 71.3228 46.8745C71.479 47.1558 71.5572 47.4924 71.5572 47.8845C71.5572 48.3788 71.4293 48.8177 71.1737 49.2012C70.9208 49.5847 70.5529 49.8873 70.07 50.1089C69.5898 50.3305 69.0089 50.4413 68.3271 50.4413C67.6737 50.4413 67.1083 50.3376 66.631 50.1302C66.1538 49.9228 65.7802 49.6288 65.5103 49.2481C65.2404 48.8646 65.0913 48.41 65.0629 47.8845H66.3839C66.4094 48.1998 66.5117 48.4626 66.6907 48.6728C66.8725 48.8802 67.104 49.035 67.3853 49.1373C67.6694 49.2367 67.9805 49.2864 68.3185 49.2864C68.6907 49.2864 69.0217 49.2282 69.3114 49.1117C69.604 48.9924 69.8342 48.8276 70.0018 48.6174C70.1694 48.4043 70.2532 48.1558 70.2532 47.8717C70.2532 47.6131 70.1793 47.4015 70.0316 47.2367C69.8867 47.072 69.6893 46.9356 69.4393 46.8276C69.1921 46.7197 68.9123 46.6245 68.5998 46.5421L67.5685 46.2609C66.8697 46.0705 66.3157 45.7907 65.9066 45.4214C65.5004 45.0521 65.2972 44.5634 65.2972 43.9555C65.2972 43.4526 65.4336 43.0137 65.7063 42.6387C65.979 42.2637 66.3484 41.9725 66.8143 41.7651C67.2802 41.5549 67.8058 41.4498 68.391 41.4498C68.9819 41.4498 69.5032 41.5535 69.9549 41.7609C70.4094 41.9683 70.7674 42.2538 71.0288 42.6174C71.2901 42.9782 71.4265 43.393 71.4379 43.8617H70.168ZM76.3224 41.5691V50.2964H75.0014V42.8901H74.9503L72.8622 44.2538V42.9924L75.0398 41.5691H76.3224ZM81.7216 50.4413C81.0483 50.4384 80.473 50.2609 79.9957 49.9086C79.5185 49.5563 79.1534 49.0435 78.9006 48.3703C78.6477 47.697 78.5213 46.8859 78.5213 45.937C78.5213 44.991 78.6477 44.1828 78.9006 43.5123C79.1563 42.8418 79.5227 42.3305 80 41.9782C80.4801 41.6259 81.054 41.4498 81.7216 41.4498C82.3892 41.4498 82.9616 41.6274 83.4389 41.9825C83.9162 42.3347 84.2813 42.8461 84.5341 43.5166C84.7898 44.1842 84.9176 44.991 84.9176 45.937C84.9176 46.8887 84.7912 47.7012 84.5384 48.3745C84.2855 49.045 83.9205 49.5578 83.4432 49.9129C82.9659 50.2651 82.392 50.4413 81.7216 50.4413ZM81.7216 49.3035C82.3125 49.3035 82.7741 49.0151 83.1065 48.4384C83.4418 47.8617 83.6094 47.0279 83.6094 45.937C83.6094 45.2126 83.5327 44.6004 83.3793 44.1004C83.2287 43.5975 83.0114 43.2168 82.7273 42.9583C82.446 42.697 82.1108 42.5663 81.7216 42.5663C81.1335 42.5663 80.6719 42.856 80.3366 43.4356C80.0014 44.0151 79.8324 44.8489 79.8295 45.937C79.8295 46.6643 79.9048 47.2793 80.0554 47.7822C80.2088 48.2822 80.4261 48.6614 80.7074 48.92C80.9886 49.1756 81.3267 49.3035 81.7216 49.3035ZM87.7876 49.1032L87.7237 49.5677C87.6811 49.9086 87.6087 50.2637 87.5064 50.633C87.407 51.0052 87.3033 51.3504 87.1953 51.6685C87.0902 51.9867 87.0036 52.2396 86.9354 52.4271H86.032C86.0689 52.2509 86.12 52.0123 86.1854 51.7112C86.2507 51.4129 86.3146 51.0791 86.3771 50.7097C86.4396 50.3404 86.4865 49.964 86.5178 49.5805L86.5604 49.1032H87.7876ZM92.2919 50.4413C91.6186 50.4384 91.0433 50.2609 90.5661 49.9086C90.0888 49.5563 89.7237 49.0435 89.4709 48.3703C89.218 47.697 89.0916 46.8859 89.0916 45.937C89.0916 44.991 89.218 44.1828 89.4709 43.5123C89.7266 42.8418 90.093 42.3305 90.5703 41.9782C91.0504 41.6259 91.6243 41.4498 92.2919 41.4498C92.9595 41.4498 93.532 41.6274 94.0092 41.9825C94.4865 42.3347 94.8516 42.8461 95.1044 43.5166C95.3601 44.1842 95.4879 44.991 95.4879 45.937C95.4879 46.8887 95.3615 47.7012 95.1087 48.3745C94.8558 49.045 94.4908 49.5578 94.0135 49.9129C93.5362 50.2651 92.9624 50.4413 92.2919 50.4413ZM92.2919 49.3035C92.8828 49.3035 93.3445 49.0151 93.6768 48.4384C94.0121 47.8617 94.1797 47.0279 94.1797 45.937C94.1797 45.2126 94.103 44.6004 93.9496 44.1004C93.799 43.5975 93.5817 43.2168 93.2976 42.9583C93.0163 42.697 92.6811 42.5663 92.2919 42.5663C91.7038 42.5663 91.2422 42.856 90.907 43.4356C90.5717 44.0151 90.4027 44.8489 90.3999 45.937C90.3999 46.6643 90.4751 47.2793 90.6257 47.7822C90.7791 48.2822 90.9964 48.6614 91.2777 48.92C91.5589 49.1756 91.897 49.3035 92.2919 49.3035ZM100.038 50.4413C99.3647 50.4384 98.7894 50.2609 98.3121 49.9086C97.8349 49.5563 97.4698 49.0435 97.217 48.3703C96.9641 47.697 96.8377 46.8859 96.8377 45.937C96.8377 44.991 96.9641 44.1828 97.217 43.5123C97.4727 42.8418 97.8391 42.3305 98.3164 41.9782C98.7965 41.6259 99.3704 41.4498 100.038 41.4498C100.706 41.4498 101.278 41.6274 101.755 41.9825C102.233 42.3347 102.598 42.8461 102.85 43.5166C103.106 44.1842 103.234 44.991 103.234 45.937C103.234 46.8887 103.108 47.7012 102.855 48.3745C102.602 49.045 102.237 49.5578 101.76 49.9129C101.282 50.2651 100.708 50.4413 100.038 50.4413ZM100.038 49.3035C100.629 49.3035 101.091 49.0151 101.423 48.4384C101.758 47.8617 101.926 47.0279 101.926 45.937C101.926 45.2126 101.849 44.6004 101.696 44.1004C101.545 43.5975 101.328 43.2168 101.044 42.9583C100.762 42.697 100.427 42.5663 100.038 42.5663C99.4499 42.5663 98.9883 42.856 98.6531 43.4356C98.3178 44.0151 98.1488 44.8489 98.146 45.937C98.146 46.6643 98.2212 47.2793 98.3718 47.7822C98.5252 48.2822 98.7425 48.6614 99.0238 48.92C99.305 49.1756 99.6431 49.3035 100.038 49.3035ZM107.784 50.4413C107.111 50.4384 106.536 50.2609 106.058 49.9086C105.581 49.5563 105.216 49.0435 104.963 48.3703C104.71 47.697 104.584 46.8859 104.584 45.937C104.584 44.991 104.71 44.1828 104.963 43.5123C105.219 42.8418 105.585 42.3305 106.062 41.9782C106.543 41.6259 107.116 41.4498 107.784 41.4498C108.452 41.4498 109.024 41.6274 109.501 41.9825C109.979 42.3347 110.344 42.8461 110.597 43.5166C110.852 44.1842 110.98 44.991 110.98 45.937C110.98 46.8887 110.854 47.7012 110.601 48.3745C110.348 49.045 109.983 49.5578 109.506 49.9129C109.028 50.2651 108.455 50.4413 107.784 50.4413ZM107.784 49.3035C108.375 49.3035 108.837 49.0151 109.169 48.4384C109.504 47.8617 109.672 47.0279 109.672 45.937C109.672 45.2126 109.595 44.6004 109.442 44.1004C109.291 43.5975 109.074 43.2168 108.79 42.9583C108.509 42.697 108.173 42.5663 107.784 42.5663C107.196 42.5663 106.734 42.856 106.399 43.4356C106.064 44.0151 105.895 44.8489 105.892 45.937C105.892 46.6643 105.967 47.2793 106.118 47.7822C106.271 48.2822 106.489 48.6614 106.77 48.92C107.051 49.1756 107.389 49.3035 107.784 49.3035ZM120.547 43.8617C120.501 43.4583 120.314 43.1458 119.984 42.9242C119.655 42.6998 119.24 42.5876 118.74 42.5876C118.382 42.5876 118.072 42.6444 117.811 42.758C117.55 42.8688 117.347 43.0222 117.202 43.2183C117.06 43.4114 116.989 43.6316 116.989 43.8788C116.989 44.0862 117.037 44.2651 117.134 44.4157C117.233 44.5663 117.362 44.6927 117.521 44.795C117.683 44.8944 117.857 44.9782 118.041 45.0464C118.226 45.1117 118.403 45.1657 118.574 45.2083L119.426 45.4299C119.705 45.4981 119.99 45.5904 120.283 45.7069C120.575 45.8234 120.847 45.9768 121.097 46.1671C121.347 46.3575 121.548 46.5933 121.702 46.8745C121.858 47.1558 121.936 47.4924 121.936 47.8845C121.936 48.3788 121.808 48.8177 121.553 49.2012C121.3 49.5847 120.932 49.8873 120.449 50.1089C119.969 50.3305 119.388 50.4413 118.706 50.4413C118.053 50.4413 117.487 50.3376 117.01 50.1302C116.533 49.9228 116.159 49.6288 115.889 49.2481C115.619 48.8646 115.47 48.41 115.442 47.8845H116.763C116.788 48.1998 116.891 48.4626 117.07 48.6728C117.251 48.8802 117.483 49.035 117.764 49.1373C118.048 49.2367 118.359 49.2864 118.697 49.2864C119.07 49.2864 119.401 49.2282 119.69 49.1117C119.983 48.9924 120.213 48.8276 120.381 48.6174C120.548 48.4043 120.632 48.1558 120.632 47.8717C120.632 47.6131 120.558 47.4015 120.411 47.2367C120.266 47.072 120.068 46.9356 119.818 46.8276C119.571 46.7197 119.291 46.6245 118.979 46.5421L117.947 46.2609C117.249 46.0705 116.695 45.7907 116.286 45.4214C115.879 45.0521 115.676 44.5634 115.676 43.9555C115.676 43.4526 115.813 43.0137 116.085 42.6387C116.358 42.2637 116.727 41.9725 117.193 41.7651C117.659 41.5549 118.185 41.4498 118.77 41.4498C119.361 41.4498 119.882 41.5535 120.334 41.7609C120.788 41.9683 121.146 42.2538 121.408 42.6174C121.669 42.9782 121.805 43.393 121.817 43.8617H120.547ZM127.554 47.5819V43.7509H128.832V50.2964H127.579V49.1629H127.511C127.36 49.5123 127.119 49.8035 126.787 50.0364C126.457 50.2666 126.047 50.3816 125.555 50.3816C125.135 50.3816 124.762 50.2893 124.439 50.1046C124.118 49.9171 123.865 49.6401 123.68 49.2737C123.498 48.9072 123.407 48.4541 123.407 47.9143V43.7509H124.681V47.7609C124.681 48.2069 124.805 48.562 125.052 48.8262C125.299 49.0904 125.62 49.2225 126.015 49.2225C126.254 49.2225 126.491 49.1629 126.727 49.0435C126.966 48.9242 127.163 48.7438 127.319 48.5024C127.478 48.2609 127.556 47.9541 127.554 47.5819ZM133.301 50.4285C132.668 50.4285 132.122 50.285 131.665 49.9981C131.21 49.7083 130.861 49.3092 130.616 48.8006C130.372 48.2921 130.25 47.7097 130.25 47.0535C130.25 46.3887 130.375 45.8021 130.625 45.2935C130.875 44.7822 131.227 44.383 131.682 44.0961C132.136 43.8092 132.672 43.6657 133.288 43.6657C133.786 43.6657 134.229 43.758 134.618 43.9427C135.007 44.1245 135.321 44.3802 135.56 44.7097C135.801 45.0393 135.945 45.4242 135.99 45.8646H134.75C134.682 45.5578 134.526 45.2935 134.281 45.072C134.04 44.8504 133.716 44.7396 133.31 44.7396C132.955 44.7396 132.643 44.8333 132.376 45.0208C132.112 45.2055 131.906 45.4697 131.759 45.8134C131.611 46.1543 131.537 46.5578 131.537 47.0237C131.537 47.5009 131.609 47.9129 131.754 48.2595C131.899 48.606 132.104 48.8745 132.368 49.0649C132.635 49.2552 132.949 49.3504 133.31 49.3504C133.551 49.3504 133.77 49.3063 133.966 49.2183C134.165 49.1274 134.331 48.9981 134.464 48.8305C134.601 48.6629 134.696 48.4612 134.75 48.2254H135.99C135.945 48.6487 135.807 49.0265 135.577 49.3589C135.347 49.6913 135.038 49.9526 134.652 50.143C134.268 50.3333 133.818 50.4285 133.301 50.4285ZM140.11 50.4285C139.476 50.4285 138.931 50.285 138.473 49.9981C138.019 49.7083 137.669 49.3092 137.425 48.8006C137.181 48.2921 137.059 47.7097 137.059 47.0535C137.059 46.3887 137.184 45.8021 137.434 45.2935C137.684 44.7822 138.036 44.383 138.49 44.0961C138.945 43.8092 139.48 43.6657 140.097 43.6657C140.594 43.6657 141.037 43.758 141.426 43.9427C141.816 44.1245 142.13 44.3802 142.368 44.7097C142.61 45.0393 142.753 45.4242 142.799 45.8646H141.559C141.49 45.5578 141.334 45.2935 141.09 45.072C140.848 44.8504 140.525 44.7396 140.118 44.7396C139.763 44.7396 139.452 44.8333 139.185 45.0208C138.921 45.2055 138.715 45.4697 138.567 45.8134C138.419 46.1543 138.346 46.5578 138.346 47.0237C138.346 47.5009 138.418 47.9129 138.563 48.2595C138.708 48.606 138.912 48.8745 139.176 49.0649C139.444 49.2552 139.757 49.3504 140.118 49.3504C140.36 49.3504 140.578 49.3063 140.775 49.2183C140.973 49.1274 141.14 48.9981 141.273 48.8305C141.409 48.6629 141.505 48.4612 141.559 48.2254H142.799C142.753 48.6487 142.615 49.0265 142.385 49.3589C142.155 49.6913 141.847 49.9526 141.461 50.143C141.077 50.3333 140.627 50.4285 140.11 50.4285ZM146.982 50.4285C146.337 50.4285 145.782 50.2907 145.316 50.0151C144.853 49.7367 144.495 49.3461 144.242 48.8433C143.992 48.3376 143.867 47.7453 143.867 47.0663C143.867 46.3958 143.992 45.8049 144.242 45.2935C144.495 44.7822 144.847 44.383 145.299 44.0961C145.754 43.8092 146.285 43.6657 146.893 43.6657C147.262 43.6657 147.62 43.7268 147.967 43.8489C148.313 43.9711 148.624 44.1629 148.9 44.4242C149.175 44.6856 149.393 45.0251 149.552 45.4427C149.711 45.8575 149.79 46.3617 149.79 46.9555V47.4072H144.587V46.4526H148.542C148.542 46.1174 148.474 45.8205 148.337 45.562C148.201 45.3006 148.009 45.0947 147.762 44.9441C147.518 44.7935 147.231 44.7183 146.901 44.7183C146.543 44.7183 146.231 44.8063 145.964 44.9825C145.7 45.1558 145.495 45.383 145.35 45.6643C145.208 45.9427 145.137 46.2453 145.137 46.572V47.3177C145.137 47.7552 145.214 48.1274 145.367 48.4342C145.523 48.741 145.741 48.9754 146.019 49.1373C146.298 49.2964 146.623 49.3759 146.995 49.3759C147.237 49.3759 147.457 49.3418 147.656 49.2737C147.854 49.2026 148.026 49.0975 148.171 48.9583C148.316 48.8191 148.427 48.6472 148.504 48.4427L149.71 48.66C149.613 49.0151 149.44 49.3262 149.19 49.5933C148.942 49.8575 148.631 50.0634 148.256 50.2112C147.884 50.356 147.46 50.4285 146.982 50.4285ZM156.109 45.3489L154.954 45.5535C154.906 45.4058 154.829 45.2651 154.724 45.1316C154.622 44.9981 154.483 44.8887 154.306 44.8035C154.13 44.7183 153.91 44.6756 153.646 44.6756C153.285 44.6756 152.984 44.7566 152.743 44.9185C152.501 45.0776 152.38 45.2836 152.38 45.5364C152.38 45.7552 152.461 45.9313 152.623 46.0649C152.785 46.1984 153.047 46.3078 153.407 46.393L154.447 46.6316C155.049 46.7708 155.498 46.9853 155.794 47.2751C156.089 47.5649 156.237 47.9413 156.237 48.4043C156.237 48.7964 156.123 49.1458 155.896 49.4526C155.672 49.7566 155.358 49.9953 154.954 50.1685C154.554 50.3418 154.089 50.4285 153.561 50.4285C152.828 50.4285 152.23 50.2722 151.767 49.9597C151.304 49.6444 151.02 49.197 150.914 48.6174L152.146 48.4299C152.223 48.7509 152.38 48.9938 152.619 49.1586C152.858 49.3205 153.169 49.4015 153.552 49.4015C153.97 49.4015 154.304 49.3149 154.554 49.1416C154.804 48.9654 154.929 48.7509 154.929 48.4981C154.929 48.2935 154.852 48.1217 154.699 47.9825C154.548 47.8433 154.316 47.7381 154.004 47.6671L152.896 47.4242C152.285 47.285 151.833 47.0634 151.541 46.7595C151.251 46.4555 151.106 46.0705 151.106 45.6046C151.106 45.2183 151.214 44.8802 151.43 44.5904C151.646 44.3006 151.944 44.0748 152.325 43.9129C152.706 43.7481 153.142 43.6657 153.633 43.6657C154.341 43.6657 154.897 43.8191 155.304 44.1259C155.71 44.4299 155.978 44.8376 156.109 45.3489ZM162.543 45.3489L161.388 45.5535C161.339 45.4058 161.263 45.2651 161.158 45.1316C161.055 44.9981 160.916 44.8887 160.74 44.8035C160.564 44.7183 160.344 44.6756 160.08 44.6756C159.719 44.6756 159.418 44.7566 159.176 44.9185C158.935 45.0776 158.814 45.2836 158.814 45.5364C158.814 45.7552 158.895 45.9313 159.057 46.0649C159.219 46.1984 159.48 46.3078 159.841 46.393L160.881 46.6316C161.483 46.7708 161.932 46.9853 162.227 47.2751C162.523 47.5649 162.67 47.9413 162.67 48.4043C162.67 48.7964 162.557 49.1458 162.33 49.4526C162.105 49.7566 161.791 49.9953 161.388 50.1685C160.987 50.3418 160.523 50.4285 159.994 50.4285C159.261 50.4285 158.663 50.2722 158.2 49.9597C157.737 49.6444 157.453 49.197 157.348 48.6174L158.58 48.4299C158.656 48.7509 158.814 48.9938 159.053 49.1586C159.291 49.3205 159.602 49.4015 159.986 49.4015C160.403 49.4015 160.737 49.3149 160.987 49.1416C161.237 48.9654 161.362 48.7509 161.362 48.4981C161.362 48.2935 161.286 48.1217 161.132 47.9825C160.982 47.8433 160.75 47.7381 160.438 47.6671L159.33 47.4242C158.719 47.285 158.267 47.0634 157.974 46.7595C157.685 46.4555 157.54 46.0705 157.54 45.6046C157.54 45.2183 157.648 44.8802 157.864 44.5904C158.08 44.3006 158.378 44.0748 158.759 43.9129C159.139 43.7481 159.575 43.6657 160.067 43.6657C160.774 43.6657 161.331 43.8191 161.737 44.1259C162.143 44.4299 162.412 44.8376 162.543 45.3489ZM167.186 43.7509V44.7737H163.488V43.7509H167.186ZM164.502 50.2964V42.9924C164.502 42.5833 164.591 42.2438 164.77 41.9739C164.949 41.7012 165.186 41.4981 165.482 41.3646C165.777 41.2282 166.098 41.16 166.445 41.16C166.701 41.16 166.919 41.1813 167.101 41.2239C167.283 41.2637 167.418 41.3006 167.506 41.3347L167.208 42.366C167.148 42.3489 167.071 42.3291 166.978 42.3063C166.884 42.2808 166.77 42.268 166.637 42.268C166.327 42.268 166.105 42.3447 165.972 42.4981C165.841 42.6515 165.776 42.8731 165.776 43.1629V50.2964H164.502ZM172.647 47.5819V43.7509H173.926V50.2964H172.673V49.1629H172.605C172.454 49.5123 172.213 49.8035 171.88 50.0364C171.551 50.2666 171.14 50.3816 170.649 50.3816C170.228 50.3816 169.856 50.2893 169.532 50.1046C169.211 49.9171 168.958 49.6401 168.774 49.2737C168.592 48.9072 168.501 48.4541 168.501 47.9143V43.7509H169.775V47.7609C169.775 48.2069 169.899 48.562 170.146 48.8262C170.393 49.0904 170.714 49.2225 171.109 49.2225C171.348 49.2225 171.585 49.1629 171.821 49.0435C172.059 48.9242 172.257 48.7438 172.413 48.5024C172.572 48.2609 172.65 47.9541 172.647 47.5819ZM176.912 41.5691V50.2964H175.638V41.5691H176.912ZM179.9 41.5691V50.2964H178.626V41.5691H179.9ZM182.42 52.7509C182.229 52.7509 182.056 52.7353 181.9 52.7041C181.744 52.6756 181.627 52.6444 181.55 52.6103L181.857 51.5663C182.09 51.6288 182.298 51.6558 182.479 51.6472C182.661 51.6387 182.822 51.5705 182.961 51.4427C183.103 51.3149 183.228 51.106 183.336 50.8163L183.494 50.3816L181.099 43.7509H182.462L184.12 48.8305H184.188L185.846 43.7509H187.214L184.516 51.17C184.391 51.5109 184.232 51.7992 184.039 52.035C183.846 52.2737 183.616 52.4526 183.349 52.572C183.082 52.6913 182.772 52.7509 182.42 52.7509ZM191.689 50.2964V41.5691H194.8C195.479 41.5691 196.042 41.6927 196.488 41.9399C196.934 42.187 197.267 42.5251 197.489 42.9541C197.711 43.3802 197.821 43.8603 197.821 44.3944C197.821 44.9313 197.709 45.4143 197.485 45.8433C197.263 46.2694 196.928 46.6075 196.479 46.8575C196.033 47.1046 195.472 47.2282 194.796 47.2282H192.657V46.1117H194.676C195.105 46.1117 195.453 46.0379 195.721 45.8901C195.988 45.7396 196.184 45.535 196.309 45.2765C196.434 45.018 196.496 44.7239 196.496 44.3944C196.496 44.0649 196.434 43.7722 196.309 43.5166C196.184 43.2609 195.986 43.0606 195.716 42.9157C195.449 42.7708 195.097 42.6984 194.659 42.6984H193.006V50.2964H191.689ZM201.109 50.4413C200.694 50.4413 200.319 50.3646 199.984 50.2112C199.649 50.0549 199.383 49.8291 199.187 49.5336C198.994 49.2381 198.897 48.8759 198.897 48.447C198.897 48.0776 198.968 47.7737 199.11 47.535C199.252 47.2964 199.444 47.1075 199.686 46.9683C199.927 46.8291 200.197 46.7239 200.495 46.6529C200.794 46.5819 201.098 46.5279 201.407 46.491C201.799 46.4455 202.118 46.4086 202.362 46.3802C202.606 46.3489 202.784 46.2992 202.895 46.231C203.005 46.1629 203.061 46.0521 203.061 45.8987V45.8688C203.061 45.4967 202.956 45.2083 202.745 45.0038C202.538 44.7992 202.228 44.697 201.816 44.697C201.387 44.697 201.049 44.7921 200.802 44.9825C200.558 45.17 200.389 45.3788 200.295 45.6089L199.098 45.3362C199.24 44.9384 199.447 44.6174 199.72 44.3731C199.995 44.1259 200.312 43.947 200.67 43.8362C201.028 43.7225 201.404 43.6657 201.799 43.6657C202.061 43.6657 202.338 43.697 202.63 43.7595C202.926 43.8191 203.201 43.9299 203.457 44.0918C203.716 44.2538 203.927 44.4853 204.092 44.7864C204.257 45.0847 204.339 45.4725 204.339 45.9498V50.2964H203.095V49.4015H203.044C202.961 49.5663 202.838 49.7282 202.673 49.8873C202.508 50.0464 202.297 50.1785 202.038 50.2836C201.779 50.3887 201.47 50.4413 201.109 50.4413ZM201.386 49.4185C201.738 49.4185 202.039 49.3489 202.289 49.2097C202.542 49.0705 202.734 48.8887 202.865 48.6643C202.998 48.437 203.065 48.1941 203.065 47.9356V47.0918C203.02 47.1373 202.931 47.1799 202.801 47.2197C202.673 47.2566 202.527 47.2893 202.362 47.3177C202.197 47.3433 202.037 47.3674 201.88 47.3901C201.724 47.41 201.593 47.4271 201.488 47.4413C201.241 47.4725 201.015 47.5251 200.811 47.5989C200.609 47.6728 200.447 47.7793 200.325 47.9185C200.206 48.0549 200.146 48.2367 200.146 48.464C200.146 48.7793 200.262 49.018 200.495 49.1799C200.728 49.339 201.025 49.4185 201.386 49.4185ZM206.036 50.2964V43.7509H207.31V50.2964H206.036ZM206.68 42.741C206.458 42.741 206.268 42.6671 206.109 42.5194C205.952 42.3688 205.874 42.1899 205.874 41.9825C205.874 41.7722 205.952 41.5933 206.109 41.4455C206.268 41.295 206.458 41.2197 206.68 41.2197C206.901 41.2197 207.09 41.295 207.246 41.4455C207.406 41.5933 207.485 41.7722 207.485 41.9825C207.485 42.1899 207.406 42.3688 207.246 42.5194C207.09 42.6671 206.901 42.741 206.68 42.741ZM211.475 50.4242C210.946 50.4242 210.475 50.2893 210.06 50.0194C209.648 49.7467 209.324 49.3589 209.088 48.856C208.855 48.3504 208.739 47.7438 208.739 47.0364C208.739 46.3291 208.857 45.7239 209.093 45.2211C209.331 44.7183 209.658 44.3333 210.073 44.0663C210.488 43.7992 210.958 43.6657 211.483 43.6657C211.89 43.6657 212.216 43.7339 212.463 43.8703C212.713 44.0038 212.907 44.16 213.043 44.339C213.182 44.518 213.29 44.6756 213.367 44.812H213.444V41.5691H214.718V50.2964H213.473V49.2779H213.367C213.29 49.4171 213.179 49.5762 213.034 49.7552C212.892 49.9342 212.696 50.0904 212.446 50.2239C212.196 50.3575 211.873 50.4242 211.475 50.4242ZM211.756 49.3376C212.123 49.3376 212.432 49.241 212.685 49.0478C212.941 48.8518 213.134 48.5805 213.265 48.2339C213.398 47.8873 213.465 47.4839 213.465 47.0237C213.465 46.5691 213.4 46.1714 213.269 45.8305C213.138 45.4896 212.946 45.2239 212.694 45.0336C212.441 44.8433 212.128 44.7481 211.756 44.7481C211.373 44.7481 211.053 44.8475 210.797 45.0464C210.542 45.2453 210.348 45.5166 210.218 45.8603C210.09 46.2041 210.026 46.5918 210.026 47.0237C210.026 47.4612 210.091 47.8546 210.222 48.2041C210.353 48.5535 210.546 48.8305 210.801 49.035C211.06 49.2367 211.378 49.3376 211.756 49.3376Z" fill="#181D27"/>
<rect x="13" y="72.5923" width="245.812" height="49.1624" rx="9.1465" fill="white"/>
<rect x="22.1465" y="81.7388" width="30.8694" height="30.8694" rx="15.4347" fill="#F0F0F0"/>
<rect x="64.4492" y="85.1733" width="55" height="9" rx="2" fill="#F0F0F0"/>
<rect x="64.4492" y="100.173" width="185.217" height="9" rx="2" fill="#F0F0F0"/>
</svg>
