<svg width="358" height="237" viewBox="0 0 358 237" fill="none" xmlns="http://www.w3.org/2000/svg">
<g filter="url(#filter0_d_56_1839)">
<path d="M2 17C2 8.16345 9.16344 1 18 1H402C410.837 1 418 8.16344 418 17V270C418 278.837 410.837 286 402 286H18C9.16346 286 2 278.837 2 270V17Z" fill="white"/>
<path d="M18 1.5H402C410.56 1.5 417.5 8.43959 417.5 17V270C417.5 278.56 410.56 285.5 402 285.5H18C9.43959 285.5 2.5 278.56 2.5 270V17C2.5 8.43959 9.43959 1.5 18 1.5Z" stroke="#EBEBEB"/>
<g filter="url(#filter1_d_56_1839)">
<path d="M22 29C22 24.5817 25.5817 21 30 21H131C135.418 21 139 24.5817 139 29V41C139 45.4183 135.418 49 131 49H30C25.5817 49 22 45.4183 22 41V29Z" fill="white"/>
<path d="M30 21.5H131C135.142 21.5 138.5 24.8579 138.5 29V41C138.5 45.1421 135.142 48.5 131 48.5H30C25.8579 48.5 22.5 45.1421 22.5 41V29C22.5 24.8579 25.8579 21.5 30 21.5Z" stroke="#EBEBEB"/>
<path d="M32.6165 31.1406V29.8182H40.4964V31.1406H37.3196V40H35.7884V31.1406H32.6165ZM44.1436 40.1541C43.4277 40.1541 42.803 39.9901 42.2693 39.6619C41.7357 39.3338 41.3214 38.8748 41.0264 38.2848C40.7315 37.6948 40.584 37.0054 40.584 36.2166C40.584 35.4245 40.7315 34.7318 41.0264 34.1385C41.3214 33.5452 41.7357 33.0845 42.2693 32.7564C42.803 32.4283 43.4277 32.2642 44.1436 32.2642C44.8595 32.2642 45.4843 32.4283 46.0179 32.7564C46.5515 33.0845 46.9658 33.5452 47.2608 34.1385C47.5558 34.7318 47.7033 35.4245 47.7033 36.2166C47.7033 37.0054 47.5558 37.6948 47.2608 38.2848C46.9658 38.8748 46.5515 39.3338 46.0179 39.6619C45.4843 39.9901 44.8595 40.1541 44.1436 40.1541ZM44.1486 38.9062C44.6126 38.9062 44.9971 38.7836 45.302 38.5384C45.6069 38.2931 45.8323 37.9666 45.9781 37.5589C46.1273 37.1513 46.2019 36.7022 46.2019 36.2116C46.2019 35.7244 46.1273 35.277 45.9781 34.8693C45.8323 34.4583 45.6069 34.1286 45.302 33.88C44.9971 33.6314 44.6126 33.5071 44.1486 33.5071C43.6813 33.5071 43.2935 33.6314 42.9852 33.88C42.6803 34.1286 42.4533 34.4583 42.3041 34.8693C42.1583 35.277 42.0854 35.7244 42.0854 36.2116C42.0854 36.7022 42.1583 37.1513 42.3041 37.5589C42.4533 37.9666 42.6803 38.2931 42.9852 38.5384C43.2935 38.7836 43.6813 38.9062 44.1486 38.9062ZM52.1372 40.1491C51.5207 40.1491 50.9706 39.9917 50.4867 39.6768C50.0061 39.3587 49.6282 38.9062 49.3531 38.3196C49.0813 37.7296 48.9455 37.022 48.9455 36.1967C48.9455 35.3714 49.083 34.6655 49.3581 34.0788C49.6365 33.4922 50.0177 33.0431 50.5016 32.7315C50.9855 32.42 51.534 32.2642 52.1472 32.2642C52.6211 32.2642 53.0023 32.3438 53.2906 32.5028C53.5823 32.6586 53.8077 32.8409 53.9668 33.0497C54.1292 33.2585 54.2551 33.4425 54.3446 33.6016H54.4341V29.8182H55.9206V40H54.4689V38.8118H54.3446C54.2551 38.9742 54.1259 39.1598 53.9568 39.3686C53.7911 39.5774 53.5624 39.7597 53.2707 39.9155C52.9791 40.0713 52.6012 40.1491 52.1372 40.1491ZM52.4653 38.8814C52.8929 38.8814 53.2542 38.7687 53.5492 38.5433C53.8474 38.3146 54.0728 37.9981 54.2253 37.5938C54.3811 37.1894 54.459 36.7187 54.459 36.1818C54.459 35.6515 54.3827 35.1875 54.2303 34.7898C54.0778 34.392 53.8541 34.0821 53.5591 33.8601C53.2641 33.638 52.8995 33.527 52.4653 33.527C52.0179 33.527 51.645 33.643 51.3467 33.875C51.0484 34.107 50.8231 34.4235 50.6706 34.8246C50.5215 35.2256 50.4469 35.678 50.4469 36.1818C50.4469 36.6922 50.5231 37.1513 50.6756 37.5589C50.828 37.9666 51.0534 38.2898 51.3517 38.5284C51.6533 38.7637 52.0245 38.8814 52.4653 38.8814ZM60.1805 40.169C59.6966 40.169 59.2591 40.0795 58.868 39.9006C58.4769 39.7183 58.167 39.4548 57.9383 39.1101C57.713 38.7654 57.6003 38.3428 57.6003 37.8423C57.6003 37.4115 57.6831 37.0568 57.8489 36.7784C58.0146 36.5 58.2383 36.2796 58.52 36.1172C58.8017 35.9548 59.1166 35.8321 59.4646 35.7493C59.8126 35.6664 60.1673 35.6035 60.5285 35.5604C60.9859 35.5073 61.3571 35.4643 61.6422 35.4311C61.9272 35.3946 62.1344 35.3366 62.2636 35.2571C62.3929 35.1776 62.4575 35.0483 62.4575 34.8693V34.8345C62.4575 34.4003 62.3349 34.0639 62.0896 33.8253C61.8477 33.5866 61.4864 33.4673 61.0058 33.4673C60.5053 33.4673 60.1109 33.5784 59.8226 33.8004C59.5375 34.0192 59.3403 34.2628 59.231 34.5312L57.8339 34.2131C57.9997 33.7491 58.2416 33.3745 58.5598 33.0895C58.8813 32.8011 59.2508 32.5923 59.6685 32.4631C60.0861 32.3305 60.5252 32.2642 60.9859 32.2642C61.2908 32.2642 61.614 32.3007 61.9554 32.3736C62.3001 32.4432 62.6216 32.5724 62.9199 32.7614C63.2215 32.9503 63.4684 33.2204 63.6606 33.5717C63.8529 33.9197 63.949 34.3722 63.949 34.929V40H62.4973V38.956H62.4376C62.3415 39.1482 62.1973 39.3371 62.0051 39.5227C61.8129 39.7083 61.5659 39.8625 61.2643 39.9851C60.9627 40.1077 60.6015 40.169 60.1805 40.169ZM60.5037 38.9759C60.9147 38.9759 61.266 38.8946 61.5577 38.7322C61.8526 38.5698 62.0764 38.3577 62.2288 38.0959C62.3846 37.8307 62.4625 37.5473 62.4625 37.2457V36.2614C62.4095 36.3144 62.3067 36.3641 62.1542 36.4105C62.0051 36.4536 61.8344 36.4917 61.6422 36.5249C61.4499 36.5547 61.2627 36.5829 61.0804 36.6094C60.8981 36.6326 60.7456 36.6525 60.623 36.669C60.3346 36.7055 60.0712 36.7668 59.8325 36.853C59.5972 36.9392 59.4083 37.0634 59.2658 37.2259C59.1266 37.3849 59.0569 37.5971 59.0569 37.8622C59.0569 38.2301 59.1928 38.5085 59.4646 38.6974C59.7364 38.883 60.0828 38.9759 60.5037 38.9759ZM66.5111 42.8636C66.2891 42.8636 66.0869 42.8454 65.9046 42.8089C65.7223 42.7758 65.5864 42.7393 65.4969 42.6996L65.8549 41.4815C66.1267 41.5545 66.3686 41.5859 66.5807 41.576C66.7928 41.5661 66.9801 41.4865 67.1425 41.3374C67.3082 41.1882 67.4541 40.9446 67.58 40.6065L67.764 40.0994L64.9699 32.3636H66.5608L68.4948 38.2898H68.5743L70.5083 32.3636H72.1042L68.9571 41.0192C68.8113 41.4169 68.6257 41.7533 68.4003 42.0284C68.175 42.3068 67.9065 42.5156 67.5949 42.6548C67.2834 42.794 66.9221 42.8636 66.5111 42.8636ZM79.1395 34.228L77.7922 34.4666C77.7358 34.2943 77.6463 34.1302 77.5237 33.9744C77.4044 33.8187 77.242 33.6911 77.0365 33.5916C76.831 33.4922 76.5741 33.4425 76.2659 33.4425C75.845 33.4425 75.4937 33.5369 75.2119 33.7259C74.9302 33.9115 74.7893 34.1518 74.7893 34.4467C74.7893 34.7019 74.8838 34.9074 75.0727 35.0632C75.2616 35.219 75.5666 35.3466 75.9875 35.446L77.2006 35.7244C77.9032 35.8868 78.4269 36.1371 78.7716 36.4751C79.1163 36.8132 79.2886 37.2524 79.2886 37.7926C79.2886 38.25 79.1561 38.6577 78.8909 39.0156C78.6291 39.3703 78.2628 39.6487 77.7922 39.8509C77.3249 40.053 76.7829 40.1541 76.1665 40.1541C75.3114 40.1541 74.6137 39.9718 74.0734 39.6072C73.5332 39.2393 73.2017 38.7173 73.0791 38.0412L74.5159 37.8224C74.6054 38.197 74.7893 38.4804 75.0678 38.6726C75.3462 38.8615 75.7091 38.956 76.1565 38.956C76.6437 38.956 77.0332 38.8549 77.3249 38.6527C77.6165 38.4472 77.7624 38.197 77.7624 37.902C77.7624 37.6634 77.6729 37.4628 77.4939 37.3004C77.3182 37.138 77.0481 37.0154 76.6835 36.9325L75.3909 36.6491C74.6783 36.4867 74.1513 36.2282 73.8099 35.8736C73.4719 35.5189 73.3028 35.0698 73.3028 34.5263C73.3028 34.0755 73.4288 33.6811 73.6807 33.343C73.9326 33.005 74.2806 32.7415 74.7247 32.5526C75.1688 32.3603 75.6776 32.2642 76.251 32.2642C77.0763 32.2642 77.7259 32.4432 78.1999 32.8011C78.6738 33.1558 78.987 33.6314 79.1395 34.228ZM84.5794 40V29.8182H88.2087C88.9975 29.8182 89.6521 29.9541 90.1725 30.2259C90.6961 30.4976 91.0872 30.8738 91.3458 31.3544C91.6043 31.8317 91.7336 32.3835 91.7336 33.0099C91.7336 33.633 91.6026 34.1816 91.3408 34.6555C91.0823 35.1262 90.6912 35.4924 90.1675 35.7543C89.6471 36.0161 88.9926 36.147 88.2037 36.147H85.4544V34.8246H88.0645C88.5617 34.8246 88.966 34.7533 89.2776 34.6108C89.5925 34.4683 89.8228 34.2611 89.9686 33.9893C90.1145 33.7176 90.1874 33.3911 90.1874 33.0099C90.1874 32.6255 90.1128 32.2924 89.9637 32.0107C89.8178 31.7289 89.5875 31.5135 89.2726 31.3643C88.9611 31.2119 88.5517 31.1357 88.0446 31.1357H86.1157V40H84.5794ZM89.6057 35.4062L92.1213 40H90.3713L87.9054 35.4062H89.6057ZM96.595 40.1541C95.8427 40.1541 95.1947 39.9934 94.6512 39.6719C94.1109 39.3471 93.6933 38.8913 93.3983 38.3047C93.1066 37.7147 92.9608 37.0237 92.9608 36.2315C92.9608 35.4493 93.1066 34.7599 93.3983 34.1634C93.6933 33.5668 94.1043 33.1011 94.6313 32.7663C95.1616 32.4316 95.7814 32.2642 96.4906 32.2642C96.9215 32.2642 97.3391 32.3355 97.7435 32.478C98.1478 32.6205 98.5108 32.8442 98.8323 33.1491C99.1538 33.4541 99.4073 33.8501 99.5929 34.3374C99.7785 34.8213 99.8713 35.4096 99.8713 36.1023V36.6293H93.801V35.5156H98.4146C98.4146 35.1245 98.3351 34.7782 98.176 34.4766C98.0169 34.1716 97.7932 33.9313 97.5048 33.7557C97.2198 33.58 96.8851 33.4922 96.5006 33.4922C96.083 33.4922 95.7184 33.5949 95.4068 33.8004C95.0986 34.0026 94.86 34.2678 94.6909 34.5959C94.5252 34.9207 94.4423 35.2737 94.4423 35.6548V36.5249C94.4423 37.0353 94.5318 37.4695 94.7108 37.8274C94.8931 38.1854 95.1467 38.4588 95.4715 38.6477C95.7963 38.8333 96.1758 38.9261 96.61 38.9261C96.8917 38.9261 97.1485 38.8864 97.3806 38.8068C97.6126 38.724 97.8131 38.6013 97.9821 38.4389C98.1512 38.2765 98.2804 38.076 98.3699 37.8374L99.7769 38.0909C99.6642 38.5052 99.462 38.8681 99.1703 39.1797C98.882 39.4879 98.5191 39.7282 98.0816 39.9006C97.6474 40.0696 97.1519 40.1541 96.595 40.1541ZM101.437 42.8636V32.3636H102.888V33.6016H103.013C103.099 33.4425 103.223 33.2585 103.386 33.0497C103.548 32.8409 103.773 32.6586 104.062 32.5028C104.35 32.3438 104.731 32.2642 105.205 32.2642C105.822 32.2642 106.372 32.42 106.856 32.7315C107.34 33.0431 107.719 33.4922 107.994 34.0788C108.273 34.6655 108.412 35.3714 108.412 36.1967C108.412 37.022 108.274 37.7296 107.999 38.3196C107.724 38.9062 107.346 39.3587 106.866 39.6768C106.385 39.9917 105.837 40.1491 105.22 40.1491C104.756 40.1491 104.377 40.0713 104.082 39.9155C103.79 39.7597 103.561 39.5774 103.395 39.3686C103.23 39.1598 103.102 38.9742 103.013 38.8118H102.923V42.8636H101.437ZM102.893 36.1818C102.893 36.7187 102.971 37.1894 103.127 37.5938C103.283 37.9981 103.508 38.3146 103.803 38.5433C104.098 38.7687 104.459 38.8814 104.887 38.8814C105.331 38.8814 105.702 38.7637 106.001 38.5284C106.299 38.2898 106.524 37.9666 106.677 37.5589C106.832 37.1513 106.91 36.6922 106.91 36.1818C106.91 35.678 106.834 35.2256 106.682 34.8246C106.533 34.4235 106.307 34.107 106.006 33.875C105.707 33.643 105.334 33.527 104.887 33.527C104.456 33.527 104.091 33.638 103.793 33.8601C103.498 34.0821 103.274 34.392 103.122 34.7898C102.97 35.1875 102.893 35.6515 102.893 36.1818ZM113.21 40.1541C112.494 40.1541 111.869 39.9901 111.336 39.6619C110.802 39.3338 110.388 38.8748 110.093 38.2848C109.798 37.6948 109.65 37.0054 109.65 36.2166C109.65 35.4245 109.798 34.7318 110.093 34.1385C110.388 33.5452 110.802 33.0845 111.336 32.7564C111.869 32.4283 112.494 32.2642 113.21 32.2642C113.926 32.2642 114.551 32.4283 115.084 32.7564C115.618 33.0845 116.032 33.5452 116.327 34.1385C116.622 34.7318 116.77 35.4245 116.77 36.2166C116.77 37.0054 116.622 37.6948 116.327 38.2848C116.032 38.8748 115.618 39.3338 115.084 39.6619C114.551 39.9901 113.926 40.1541 113.21 40.1541ZM113.215 38.9062C113.679 38.9062 114.063 38.7836 114.368 38.5384C114.673 38.2931 114.899 37.9666 115.044 37.5589C115.194 37.1513 115.268 36.7022 115.268 36.2116C115.268 35.7244 115.194 35.277 115.044 34.8693C114.899 34.4583 114.673 34.1286 114.368 33.88C114.063 33.6314 113.679 33.5071 113.215 33.5071C112.748 33.5071 112.36 33.6314 112.052 33.88C111.747 34.1286 111.52 34.4583 111.37 34.8693C111.225 35.277 111.152 35.7244 111.152 36.2116C111.152 36.7022 111.225 37.1513 111.37 37.5589C111.52 37.9666 111.747 38.2931 112.052 38.5384C112.36 38.7836 112.748 38.9062 113.215 38.9062ZM118.345 40V32.3636H119.782V33.5767H119.861C120 33.1657 120.246 32.8426 120.597 32.6072C120.952 32.3686 121.353 32.2493 121.8 32.2493C121.893 32.2493 122.002 32.2526 122.128 32.2592C122.257 32.2659 122.359 32.2741 122.431 32.2841V33.706C122.372 33.6894 122.266 33.6712 122.113 33.6513C121.961 33.6281 121.808 33.6165 121.656 33.6165C121.305 33.6165 120.991 33.6911 120.716 33.8402C120.444 33.986 120.229 34.1899 120.07 34.4517C119.911 34.7102 119.831 35.0052 119.831 35.3366V40H118.345ZM127.65 32.3636V33.5568H123.479V32.3636H127.65ZM124.597 30.5341H126.084V37.7578C126.084 38.0462 126.127 38.2633 126.213 38.4091C126.299 38.5516 126.41 38.6494 126.546 38.7024C126.685 38.7521 126.836 38.777 126.998 38.777C127.118 38.777 127.222 38.7687 127.312 38.7521C127.401 38.7356 127.471 38.7223 127.52 38.7124L127.789 39.9403C127.703 39.9735 127.58 40.0066 127.421 40.0398C127.262 40.0762 127.063 40.0961 126.824 40.0994C126.433 40.1061 126.069 40.0365 125.731 39.8906C125.393 39.7448 125.119 39.5194 124.91 39.2145C124.702 38.9096 124.597 38.5268 124.597 38.0661V30.5341Z" fill="#5C5C5C"/>
</g>
<line opacity="0.64" x1="22.5" y1="68.5" x2="397.5" y2="68.5" stroke="#EBEBEB" stroke-linecap="round"/>
<line opacity="0.64" x1="22.5" y1="104.5" x2="397.5" y2="104.5" stroke="#EBEBEB" stroke-linecap="round"/>
<line opacity="0.64" x1="22.5" y1="140.5" x2="397.5" y2="140.5" stroke="#EBEBEB" stroke-linecap="round"/>
<line opacity="0.64" x1="22.5" y1="176.5" x2="397.5" y2="176.5" stroke="#EBEBEB" stroke-linecap="round"/>
<line x1="54.5" y1="69.5" x2="54.5" y2="176.5" stroke="#EBEBEB" stroke-linecap="round" stroke-dasharray="4 4"/>
<line x1="158.5" y1="69.5" x2="158.5" y2="176.5" stroke="#EBEBEB" stroke-linecap="round" stroke-dasharray="4 4"/>
<line x1="262.5" y1="69.5" x2="262.5" y2="176.5" stroke="#EBEBEB" stroke-linecap="round" stroke-dasharray="4 4"/>
<path d="M22 128.594L36.6957 149.018C37.1361 149.63 38.0695 149.553 38.4038 148.877L52.3153 120.755C52.7027 119.972 53.8373 120.027 54.1468 120.844L67.7517 156.754C68.1087 157.696 69.4775 157.579 69.6687 156.589L83.8777 83.0814C84.0771 82.0499 85.5287 81.9843 85.8203 82.9937L99.3742 129.916C99.6523 130.878 101.016 130.879 101.295 129.916L114.807 83.293C115.102 82.2768 116.567 82.3542 116.752 83.3957L130.856 162.454C131.045 163.513 132.543 163.568 132.809 162.526L147.036 106.8C147.191 106.195 147.856 105.878 148.424 106.139L159.143 111.074C159.301 111.147 159.438 111.26 159.539 111.401L177.637 136.75C178.089 137.383 179.06 137.28 179.369 136.565L193.594 103.617C193.911 102.884 194.915 102.799 195.351 103.467L209.522 125.229C209.796 125.649 210.338 125.802 210.79 125.586L224.751 118.936C225.254 118.696 225.857 118.915 226.09 119.422L240.647 151.155C240.96 151.837 241.884 151.945 242.345 151.353L254.425 135.839C254.818 135.333 255.579 135.323 255.986 135.818L272.011 155.285C272.37 155.721 273.018 155.774 273.442 155.401L288.169 142.475C288.277 142.38 288.364 142.262 288.422 142.13L303.861 107.463C303.951 107.261 304.106 107.094 304.301 106.989L318.588 99.3006C319.145 99.0008 319.837 99.2871 320.02 99.8928L334.68 148.563C334.931 149.395 336.05 149.534 336.496 148.789L350.464 125.448C350.756 124.96 351.396 124.814 351.872 125.126L365.693 134.213C366.205 134.55 366.897 134.351 367.152 133.793L381.308 102.848C381.681 102.032 382.858 102.083 383.159 102.929L398 144.674" stroke="#FACD2D" stroke-width="1.4"/>
<rect x="22" y="200" width="74" height="14" rx="2" fill="#F0F0F0"/>
<rect x="222" y="200" width="129" height="14" rx="2" fill="#F0F0F0"/>
</g>
<defs>
<filter id="filter0_d_56_1839" x="0" y="0" width="420" height="289" filterUnits="userSpaceOnUse" color-interpolation-filters="sRGB">
<feFlood flood-opacity="0" result="BackgroundImageFix"/>
<feColorMatrix in="SourceAlpha" type="matrix" values="0 0 0 0 0 0 0 0 0 0 0 0 0 0 0 0 0 0 127 0" result="hardAlpha"/>
<feOffset dy="1"/>
<feGaussianBlur stdDeviation="1"/>
<feComposite in2="hardAlpha" operator="out"/>
<feColorMatrix type="matrix" values="0 0 0 0 0.0392157 0 0 0 0 0.0509804 0 0 0 0 0.0784314 0 0 0 0.03 0"/>
<feBlend mode="normal" in2="BackgroundImageFix" result="effect1_dropShadow_56_1839"/>
<feBlend mode="normal" in="SourceGraphic" in2="effect1_dropShadow_56_1839" result="shape"/>
</filter>
<filter id="filter1_d_56_1839" x="20" y="20" width="121" height="32" filterUnits="userSpaceOnUse" color-interpolation-filters="sRGB">
<feFlood flood-opacity="0" result="BackgroundImageFix"/>
<feColorMatrix in="SourceAlpha" type="matrix" values="0 0 0 0 0 0 0 0 0 0 0 0 0 0 0 0 0 0 127 0" result="hardAlpha"/>
<feOffset dy="1"/>
<feGaussianBlur stdDeviation="1"/>
<feComposite in2="hardAlpha" operator="out"/>
<feColorMatrix type="matrix" values="0 0 0 0 0.0392157 0 0 0 0 0.0509804 0 0 0 0 0.0784314 0 0 0 0.03 0"/>
<feBlend mode="normal" in2="BackgroundImageFix" result="effect1_dropShadow_56_1839"/>
<feBlend mode="normal" in="SourceGraphic" in2="effect1_dropShadow_56_1839" result="shape"/>
</filter>
</defs>
</svg>
