<svg width="296" height="145" viewBox="0 0 296 145" fill="none" xmlns="http://www.w3.org/2000/svg">
<rect x="0.479769" y="0.479769" width="295.04" height="143.896" rx="11.0347" fill="white"/>
<rect x="0.479769" y="0.479769" width="295.04" height="143.896" rx="11.0347" stroke="#EAECF0" stroke-width="0.959538"/>
<path d="M14.9275 26.5146L11.8309 15.3491H13.6027L15.778 23.9959H15.8816L18.1442 15.3491H19.8997L22.1622 24.0013H22.2658L24.4357 15.3491H26.213L23.1109 26.5146H21.4153L19.0656 18.1514H18.9783L16.6285 26.5146H14.9275ZM30.321 26.6837C29.536 26.6837 28.8508 26.5037 28.2657 26.1439C27.6805 25.7841 27.2262 25.2807 26.9027 24.6337C26.5792 23.9868 26.4175 23.2308 26.4175 22.3657C26.4175 21.4971 26.5792 20.7374 26.9027 20.0868C27.2262 19.4362 27.6805 18.931 28.2657 18.5712C28.8508 18.2114 29.536 18.0315 30.321 18.0315C31.1061 18.0315 31.7912 18.2114 32.3764 18.5712C32.9616 18.931 33.4159 19.4362 33.7394 20.0868C34.0629 20.7374 34.2246 21.4971 34.2246 22.3657C34.2246 23.2308 34.0629 23.9868 33.7394 24.6337C33.4159 25.2807 32.9616 25.7841 32.3764 26.1439C31.7912 26.5037 31.1061 26.6837 30.321 26.6837ZM30.3265 25.3152C30.8353 25.3152 31.257 25.1807 31.5913 24.9118C31.9257 24.6428 32.1729 24.2848 32.3328 23.8378C32.4964 23.3907 32.5781 22.8982 32.5781 22.3603C32.5781 21.826 32.4964 21.3353 32.3328 20.8883C32.1729 20.4376 31.9257 20.0759 31.5913 19.8033C31.257 19.5307 30.8353 19.3944 30.3265 19.3944C29.814 19.3944 29.3888 19.5307 29.0507 19.8033C28.7164 20.0759 28.4674 20.4376 28.3038 20.8883C28.1439 21.3353 28.0639 21.826 28.0639 22.3603C28.0639 22.8982 28.1439 23.3907 28.3038 23.8378C28.4674 24.2848 28.7164 24.6428 29.0507 24.9118C29.3888 25.1807 29.814 25.3152 30.3265 25.3152ZM36.0442 26.5146V18.1405H37.6198V19.4708H37.707C37.8597 19.0201 38.1286 18.6657 38.5139 18.4076C38.9028 18.146 39.3426 18.0151 39.8333 18.0151C39.935 18.0151 40.055 18.0187 40.1931 18.026C40.3348 18.0333 40.4457 18.0424 40.5257 18.0533V19.6125C40.4602 19.5943 40.3439 19.5744 40.1767 19.5525C40.0096 19.5271 39.8424 19.5144 39.6752 19.5144C39.2899 19.5144 38.9464 19.5962 38.6448 19.7597C38.3467 19.9196 38.1105 20.1432 37.936 20.4303C37.7615 20.7138 37.6743 21.0373 37.6743 21.4007V26.5146H36.0442ZM43.4356 23.6742L43.4247 21.6842H43.7082L47.0448 18.1405H48.9966L45.1911 22.1749H44.9349L43.4356 23.6742ZM41.9364 26.5146V15.3491H43.5665V26.5146H41.9364ZM47.2247 26.5146L44.2262 22.5347L45.3493 21.3953L49.2256 26.5146H47.2247ZM54.4676 18.1405V19.449H49.7353V18.1405H54.4676ZM51.0329 26.5146V17.1701C51.0329 16.6467 51.1474 16.2123 51.3763 15.8671C51.6053 15.5181 51.9088 15.2583 52.2868 15.0874C52.6648 14.913 53.0755 14.8257 53.519 14.8257C53.8461 14.8257 54.1259 14.853 54.3585 14.9075C54.5912 14.9584 54.7638 15.0056 54.8765 15.0493L54.4948 16.3686C54.4185 16.3468 54.3204 16.3214 54.2004 16.2923C54.0805 16.2596 53.9351 16.2432 53.7643 16.2432C53.3681 16.2432 53.0846 16.3414 52.9138 16.5376C52.7466 16.7339 52.663 17.0174 52.663 17.3881V26.5146H51.0329ZM57.7796 15.3491V26.5146H56.1495V15.3491H57.7796ZM63.5001 26.6837C62.715 26.6837 62.0298 26.5037 61.4447 26.1439C60.8595 25.7841 60.4052 25.2807 60.0817 24.6337C59.7582 23.9868 59.5965 23.2308 59.5965 22.3657C59.5965 21.4971 59.7582 20.7374 60.0817 20.0868C60.4052 19.4362 60.8595 18.931 61.4447 18.5712C62.0298 18.2114 62.715 18.0315 63.5001 18.0315C64.2851 18.0315 64.9703 18.2114 65.5554 18.5712C66.1406 18.931 66.5949 19.4362 66.9184 20.0868C67.2419 20.7374 67.4036 21.4971 67.4036 22.3657C67.4036 23.2308 67.2419 23.9868 66.9184 24.6337C66.5949 25.2807 66.1406 25.7841 65.5554 26.1439C64.9703 26.5037 64.2851 26.6837 63.5001 26.6837ZM63.5055 25.3152C64.0143 25.3152 64.436 25.1807 64.7703 24.9118C65.1047 24.6428 65.3519 24.2848 65.5118 23.8378C65.6754 23.3907 65.7571 22.8982 65.7571 22.3603C65.7571 21.826 65.6754 21.3353 65.5118 20.8883C65.3519 20.4376 65.1047 20.0759 64.7703 19.8033C64.436 19.5307 64.0143 19.3944 63.5055 19.3944C62.993 19.3944 62.5678 19.5307 62.2298 19.8033C61.8954 20.0759 61.6464 20.4376 61.4828 20.8883C61.3229 21.3353 61.243 21.826 61.243 22.3603C61.243 22.8982 61.3229 23.3907 61.4828 23.8378C61.6464 24.2848 61.8954 24.6428 62.2298 24.9118C62.5678 25.1807 62.993 25.3152 63.5055 25.3152ZM70.7838 26.5146L68.3195 18.1405H70.0042L71.6452 24.2903H71.727L73.3735 18.1405H75.0581L76.6937 24.263H76.7755L78.4056 18.1405H80.0902L77.6314 26.5146H75.9686L74.2676 20.4685H74.1422L72.4412 26.5146H70.7838ZM86.7743 26.5146H84.9861L89.0041 15.3491H90.9505L94.9685 26.5146H93.1803L90.0236 17.3772H89.9364L86.7743 26.5146ZM87.0741 22.1422H92.875V23.5597H87.0741V22.1422ZM101.755 23.0418V18.1405H103.39V26.5146H101.788V25.0644H101.7C101.508 25.5115 101.199 25.884 100.773 26.1821C100.352 26.4765 99.8266 26.6237 99.1978 26.6237C98.6599 26.6237 98.1838 26.5056 97.7694 26.2693C97.3587 26.0294 97.0352 25.6751 96.799 25.2062C96.5664 24.7373 96.4501 24.1576 96.4501 23.467V18.1405H98.0802V23.2708C98.0802 23.8414 98.2383 24.2957 98.5545 24.6337C98.8707 24.9718 99.2814 25.1408 99.7867 25.1408C100.092 25.1408 100.395 25.0644 100.697 24.9118C101.002 24.7591 101.255 24.5283 101.455 24.2194C101.658 23.9104 101.758 23.5179 101.755 23.0418ZM109.49 18.1405V19.449H104.916V18.1405H109.49ZM106.142 16.1342H107.772V24.0558C107.772 24.372 107.82 24.6101 107.914 24.77C108.009 24.9263 108.13 25.0335 108.279 25.0917C108.432 25.1462 108.597 25.1735 108.775 25.1735C108.906 25.1735 109.021 25.1644 109.119 25.1462C109.217 25.128 109.293 25.1135 109.348 25.1026L109.642 26.4492C109.548 26.4856 109.413 26.5219 109.239 26.5583C109.064 26.5982 108.846 26.6201 108.585 26.6237C108.156 26.631 107.756 26.5546 107.385 26.3947C107.015 26.2348 106.715 25.9876 106.486 25.6532C106.257 25.3189 106.142 24.8991 106.142 24.3939V16.1342ZM114.73 26.6837C113.945 26.6837 113.26 26.5037 112.675 26.1439C112.09 25.7841 111.635 25.2807 111.312 24.6337C110.989 23.9868 110.827 23.2308 110.827 22.3657C110.827 21.4971 110.989 20.7374 111.312 20.0868C111.635 19.4362 112.09 18.931 112.675 18.5712C113.26 18.2114 113.945 18.0315 114.73 18.0315C115.515 18.0315 116.201 18.2114 116.786 18.5712C117.371 18.931 117.825 19.4362 118.149 20.0868C118.472 20.7374 118.634 21.4971 118.634 22.3657C118.634 23.2308 118.472 23.9868 118.149 24.6337C117.825 25.2807 117.371 25.7841 116.786 26.1439C116.201 26.5037 115.515 26.6837 114.73 26.6837ZM114.736 25.3152C115.245 25.3152 115.666 25.1807 116.001 24.9118C116.335 24.6428 116.582 24.2848 116.742 23.8378C116.906 23.3907 116.987 22.8982 116.987 22.3603C116.987 21.826 116.906 21.3353 116.742 20.8883C116.582 20.4376 116.335 20.0759 116.001 19.8033C115.666 19.5307 115.245 19.3944 114.736 19.3944C114.223 19.3944 113.798 19.5307 113.46 19.8033C113.126 20.0759 112.877 20.4376 112.713 20.8883C112.553 21.3353 112.473 21.826 112.473 22.3603C112.473 22.8982 112.553 23.3907 112.713 23.8378C112.877 24.2848 113.126 24.6428 113.46 24.9118C113.798 25.1807 114.223 25.3152 114.736 25.3152ZM120.454 26.5146V18.1405H122.018V19.5035H122.122C122.296 19.0419 122.582 18.6821 122.978 18.424C123.374 18.1623 123.848 18.0315 124.401 18.0315C124.96 18.0315 125.429 18.1623 125.807 18.424C126.189 18.6857 126.471 19.0455 126.652 19.5035H126.74C126.939 19.0564 127.258 18.7002 127.694 18.4349C128.13 18.1659 128.65 18.0315 129.253 18.0315C130.013 18.0315 130.632 18.2695 131.112 18.7457C131.595 19.2218 131.837 19.9396 131.837 20.8992V26.5146H130.207V21.0518C130.207 20.4848 130.053 20.0741 129.744 19.8197C129.435 19.5653 129.066 19.4381 128.637 19.4381C128.106 19.4381 127.694 19.6016 127.399 19.9287C127.105 20.2522 126.958 20.6684 126.958 21.1772V26.5146H125.333V20.9482C125.333 20.4939 125.191 20.1286 124.908 19.8524C124.624 19.5762 124.255 19.4381 123.801 19.4381C123.492 19.4381 123.207 19.5198 122.945 19.6834C122.687 19.8433 122.478 20.0668 122.318 20.354C122.162 20.6411 122.084 20.9737 122.084 21.3517V26.5146H120.454ZM136.459 26.7C135.928 26.7 135.449 26.6019 135.02 26.4056C134.591 26.2057 134.251 25.9168 134 25.5388C133.753 25.1608 133.629 24.6973 133.629 24.1485C133.629 23.676 133.72 23.2871 133.902 22.9818C134.084 22.6765 134.329 22.4348 134.638 22.2567C134.947 22.0786 135.292 21.9441 135.674 21.8533C136.056 21.7624 136.444 21.6933 136.841 21.6461C137.342 21.5879 137.749 21.5407 138.062 21.5043C138.374 21.4644 138.602 21.4007 138.743 21.3135C138.885 21.2263 138.956 21.0845 138.956 20.8883V20.8501C138.956 20.374 138.821 20.0051 138.553 19.7434C138.287 19.4817 137.891 19.3508 137.364 19.3508C136.815 19.3508 136.383 19.4726 136.066 19.7161C135.754 19.956 135.538 20.2231 135.418 20.5175L133.886 20.1686C134.067 19.6598 134.333 19.2491 134.682 18.9365C135.034 18.6203 135.439 18.3913 135.897 18.2495C136.355 18.1042 136.837 18.0315 137.342 18.0315C137.677 18.0315 138.031 18.0714 138.405 18.1514C138.783 18.2277 139.136 18.3695 139.463 18.5767C139.794 18.7838 140.065 19.08 140.275 19.4653C140.486 19.847 140.592 20.3431 140.592 20.9537V26.5146H139V25.3697H138.934C138.829 25.5806 138.671 25.7877 138.46 25.9913C138.249 26.1948 137.978 26.3638 137.648 26.4983C137.317 26.6328 136.921 26.7 136.459 26.7ZM136.813 25.3916C137.264 25.3916 137.649 25.3025 137.969 25.1244C138.293 24.9463 138.538 24.7137 138.705 24.4266C138.876 24.1358 138.961 23.825 138.961 23.4943V22.4148C138.903 22.473 138.791 22.5275 138.623 22.5784C138.46 22.6256 138.273 22.6674 138.062 22.7038C137.851 22.7365 137.646 22.7674 137.446 22.7964C137.246 22.8219 137.079 22.8437 136.944 22.8619C136.628 22.9018 136.339 22.9691 136.077 23.0636C135.819 23.1581 135.612 23.2944 135.456 23.4725C135.303 23.6469 135.227 23.8796 135.227 24.1703C135.227 24.5738 135.376 24.8791 135.674 25.0862C135.972 25.2898 136.352 25.3916 136.813 25.3916ZM146.672 18.1405V19.449H142.098V18.1405H146.672ZM143.324 16.1342H144.954V24.0558C144.954 24.372 145.002 24.6101 145.096 24.77C145.191 24.9263 145.312 25.0335 145.461 25.0917C145.614 25.1462 145.779 25.1735 145.958 25.1735C146.088 25.1735 146.203 25.1644 146.301 25.1462C146.399 25.128 146.476 25.1135 146.53 25.1026L146.824 26.4492C146.73 26.4856 146.595 26.5219 146.421 26.5583C146.247 26.5982 146.028 26.6201 145.767 26.6237C145.338 26.631 144.938 26.5546 144.567 26.3947C144.197 26.2348 143.897 25.9876 143.668 25.6532C143.439 25.3189 143.324 24.8991 143.324 24.3939V16.1342ZM148.475 26.5146V18.1405H150.105V26.5146H148.475ZM149.298 16.8484C149.015 16.8484 148.771 16.7539 148.568 16.5649C148.368 16.3723 148.268 16.1433 148.268 15.878C148.268 15.609 148.368 15.38 148.568 15.191C148.771 14.9984 149.015 14.9021 149.298 14.9021C149.582 14.9021 149.823 14.9984 150.023 15.191C150.227 15.38 150.329 15.609 150.329 15.878C150.329 16.1433 150.227 16.3723 150.023 16.5649C149.823 16.7539 149.582 16.8484 149.298 16.8484ZM155.826 26.6837C155.04 26.6837 154.355 26.5037 153.77 26.1439C153.185 25.7841 152.731 25.2807 152.407 24.6337C152.084 23.9868 151.922 23.2308 151.922 22.3657C151.922 21.4971 152.084 20.7374 152.407 20.0868C152.731 19.4362 153.185 18.931 153.77 18.5712C154.355 18.2114 155.04 18.0315 155.826 18.0315C156.611 18.0315 157.296 18.2114 157.881 18.5712C158.466 18.931 158.92 19.4362 159.244 20.0868C159.567 20.7374 159.729 21.4971 159.729 22.3657C159.729 23.2308 159.567 23.9868 159.244 24.6337C158.92 25.2807 158.466 25.7841 157.881 26.1439C157.296 26.5037 156.611 26.6837 155.826 26.6837ZM155.831 25.3152C156.34 25.3152 156.761 25.1807 157.096 24.9118C157.43 24.6428 157.677 24.2848 157.837 23.8378C158.001 23.3907 158.083 22.8982 158.083 22.3603C158.083 21.826 158.001 21.3353 157.837 20.8883C157.677 20.4376 157.43 20.0759 157.096 19.8033C156.761 19.5307 156.34 19.3944 155.831 19.3944C155.319 19.3944 154.893 19.5307 154.555 19.8033C154.221 20.0759 153.972 20.4376 153.808 20.8883C153.648 21.3353 153.568 21.826 153.568 22.3603C153.568 22.8982 153.648 23.3907 153.808 23.8378C153.972 24.2848 154.221 24.6428 154.555 24.9118C154.893 25.1807 155.319 25.3152 155.831 25.3152ZM163.179 21.5425V26.5146H161.549V18.1405H163.113V19.5035H163.217C163.41 19.0601 163.711 18.7039 164.122 18.4349C164.536 18.1659 165.058 18.0315 165.687 18.0315C166.257 18.0315 166.757 18.1514 167.186 18.3913C167.615 18.6275 167.947 18.9801 168.184 19.449C168.42 19.9178 168.538 20.4975 168.538 21.1881V26.5146H166.908V21.3844C166.908 20.7774 166.75 20.3031 166.434 19.9614C166.117 19.6162 165.683 19.4435 165.131 19.4435C164.753 19.4435 164.416 19.5253 164.122 19.6888C163.831 19.8524 163.6 20.0923 163.43 20.4085C163.262 20.7211 163.179 21.0991 163.179 21.5425Z" fill="#0F172A"/>
<rect x="11.5146" y="43.0288" width="36" height="36" rx="18" fill="#FFF9E6"/>
<path d="M25.9164 61.0289L28.3153 63.4277L33.113 58.63M37.5108 61.0289C37.5108 65.445 33.9309 69.025 29.5147 69.025C25.0986 69.025 21.5186 65.445 21.5186 61.0289C21.5186 56.6127 25.0986 53.0327 29.5147 53.0327C33.9309 53.0327 37.5108 56.6127 37.5108 61.0289Z" stroke="#FACD2D" stroke-width="1.53526" stroke-linecap="round" stroke-linejoin="round"/>
<path d="M63.2334 50.5941C63.1879 50.1907 63.0004 49.8782 62.6709 49.6566C62.3414 49.4322 61.9266 49.32 61.4266 49.32C61.0686 49.32 60.759 49.3768 60.4976 49.4905C60.2362 49.6013 60.0331 49.7547 59.8882 49.9507C59.7462 50.1439 59.6752 50.364 59.6752 50.6112C59.6752 50.8186 59.7235 50.9976 59.82 51.1481C59.9195 51.2987 60.0487 51.4251 60.2078 51.5274C60.3698 51.6268 60.5431 51.7106 60.7277 51.7788C60.9124 51.8441 61.0899 51.8981 61.2604 51.9407L62.1127 52.1623C62.3911 52.2305 62.6766 52.3228 62.9692 52.4393C63.2618 52.5558 63.5331 52.7092 63.7831 52.8995C64.0331 53.0899 64.2348 53.3257 64.3882 53.6069C64.5445 53.8882 64.6226 54.2248 64.6226 54.6169C64.6226 55.1112 64.4948 55.5501 64.2391 55.9336C63.9862 56.3172 63.6183 56.6197 63.1354 56.8413C62.6553 57.0629 62.0743 57.1737 61.3925 57.1737C60.7391 57.1737 60.1737 57.07 59.6965 56.8626C59.2192 56.6552 58.8456 56.3612 58.5757 55.9805C58.3058 55.597 58.1567 55.1424 58.1283 54.6169H59.4493C59.4749 54.9322 59.5771 55.195 59.7561 55.4052C59.9379 55.6126 60.1695 55.7674 60.4507 55.8697C60.7348 55.9691 61.0459 56.0189 61.384 56.0189C61.7561 56.0189 62.0871 55.9606 62.3769 55.8441C62.6695 55.7248 62.8996 55.5601 63.0672 55.3498C63.2348 55.1368 63.3186 54.8882 63.3186 54.6041C63.3186 54.3456 63.2448 54.1339 63.097 53.9691C62.9521 53.8044 62.7547 53.668 62.5047 53.5601C62.2575 53.4521 61.9777 53.3569 61.6652 53.2745L60.634 52.9933C59.9351 52.803 59.3811 52.5231 58.972 52.1538C58.5658 51.7845 58.3627 51.2959 58.3627 50.6879C58.3627 50.1851 58.499 49.7461 58.7718 49.3711C59.0445 48.9961 59.4138 48.7049 59.8797 48.4976C60.3456 48.2873 60.8712 48.1822 61.4564 48.1822C62.0473 48.1822 62.5686 48.2859 63.0203 48.4933C63.4749 48.7007 63.8328 48.9862 64.0942 49.3498C64.3556 49.7106 64.4919 50.1254 64.5033 50.5941H63.2334ZM68.8509 57.1609C68.2174 57.1609 67.672 57.0174 67.2146 56.7305C66.76 56.4407 66.4106 56.0416 66.1663 55.5331C65.922 55.0245 65.7998 54.4422 65.7998 53.7859C65.7998 53.1211 65.9248 52.5345 66.1748 52.026C66.4248 51.5146 66.7771 51.1155 67.2316 50.8285C67.6862 50.5416 68.2217 50.3981 68.8382 50.3981C69.3353 50.3981 69.7785 50.4905 70.1677 50.6751C70.5569 50.8569 70.8708 51.1126 71.1095 51.4422C71.3509 51.7717 71.4944 52.1566 71.5399 52.597H70.2998C70.2316 52.2902 70.0754 52.026 69.8311 51.8044C69.5896 51.5828 69.2657 51.472 68.8595 51.472C68.5044 51.472 68.1933 51.5657 67.9262 51.7532C67.662 51.9379 67.4561 52.2021 67.3083 52.5459C67.1606 52.8868 67.0867 53.2902 67.0867 53.7561C67.0867 54.2334 67.1592 54.6453 67.3041 54.9919C67.449 55.3385 67.6535 55.6069 67.9177 55.7973C68.1847 55.9876 68.4987 56.0828 68.8595 56.0828C69.1009 56.0828 69.3197 56.0388 69.5157 55.9507C69.7146 55.8598 69.8808 55.7305 70.0143 55.5629C70.1507 55.3953 70.2458 55.1936 70.2998 54.9578H71.5399C71.4944 55.3811 71.3566 55.7589 71.1265 56.0913C70.8964 56.4237 70.5882 56.6851 70.2018 56.8754C69.8183 57.0657 69.368 57.1609 68.8509 57.1609ZM74.1766 53.1424V57.0288H72.9024V48.3015H74.1595V51.5487H74.2405C74.3939 51.1964 74.6283 50.9166 74.9436 50.7092C75.259 50.5018 75.6709 50.3981 76.1794 50.3981C76.6283 50.3981 77.0203 50.4905 77.3556 50.6751C77.6936 50.8598 77.955 51.1353 78.1396 51.5018C78.3271 51.8655 78.4209 52.32 78.4209 52.8655V57.0288H77.1468V53.0189C77.1468 52.5388 77.0232 52.1666 76.776 51.9024C76.5289 51.6353 76.1851 51.5018 75.7448 51.5018C75.4436 51.5018 75.1737 51.5657 74.9351 51.6936C74.6993 51.8214 74.5132 52.0089 74.3769 52.2561C74.2433 52.5004 74.1766 52.7959 74.1766 53.1424ZM82.9422 57.1609C82.2973 57.1609 81.7419 57.0231 81.276 56.7476C80.8129 56.4691 80.455 56.0785 80.2021 55.5757C79.9521 55.07 79.8271 54.4777 79.8271 53.7987C79.8271 53.1282 79.9521 52.5373 80.2021 52.026C80.455 51.5146 80.8073 51.1155 81.259 50.8285C81.7135 50.5416 82.2448 50.3981 82.8527 50.3981C83.222 50.3981 83.58 50.4592 83.9266 50.5814C84.2732 50.7035 84.5843 50.8953 84.8598 51.1566C85.1354 51.418 85.3527 51.7575 85.5118 52.1751C85.6709 52.5899 85.7504 53.0941 85.7504 53.6879V54.1396H80.5473V53.1851H84.5019C84.5019 52.8498 84.4337 52.553 84.2973 52.2944C84.161 52.0331 83.9692 51.8271 83.722 51.6765C83.4777 51.526 83.1908 51.4507 82.8612 51.4507C82.5033 51.4507 82.1908 51.5388 81.9237 51.7149C81.6595 51.8882 81.455 52.1155 81.3101 52.3967C81.1681 52.6751 81.097 52.9777 81.097 53.3044V54.0501C81.097 54.4876 81.1737 54.8598 81.3271 55.1666C81.4834 55.4734 81.7007 55.7078 81.9791 55.8697C82.2575 56.0288 82.5828 56.1084 82.955 56.1084C83.1965 56.1084 83.4166 56.0743 83.6155 56.0061C83.8144 55.9351 83.9862 55.8299 84.1311 55.6907C84.276 55.5515 84.3868 55.3797 84.4635 55.1751L85.6695 55.3924C85.5729 55.7476 85.3996 56.0586 85.1496 56.3257C84.9024 56.5899 84.5914 56.7959 84.2164 56.9436C83.8442 57.0885 83.4195 57.1609 82.9422 57.1609ZM89.6144 57.1566C89.086 57.1566 88.6144 57.0217 88.1997 56.7518C87.7877 56.4791 87.4639 56.0913 87.2281 55.5885C86.9951 55.0828 86.8786 54.4763 86.8786 53.7689C86.8786 53.0615 86.9965 52.4564 87.2323 51.9535C87.471 51.4507 87.7977 51.0657 88.2124 50.7987C88.6272 50.5316 89.0974 50.3981 89.623 50.3981C90.0292 50.3981 90.3559 50.4663 90.6031 50.6027C90.8531 50.7362 91.0463 50.8924 91.1826 51.0714C91.3218 51.2504 91.4298 51.4081 91.5065 51.5444H91.5832V48.3015H92.8573V57.0288H91.613V56.0103H91.5065C91.4298 56.1495 91.319 56.3086 91.1741 56.4876C91.032 56.6666 90.836 56.8228 90.586 56.9564C90.336 57.0899 90.0122 57.1566 89.6144 57.1566ZM89.8957 56.07C90.2622 56.07 90.5718 55.9734 90.8247 55.7802C91.0803 55.5842 91.2735 55.3129 91.4042 54.9663C91.5377 54.6197 91.6045 54.2163 91.6045 53.7561C91.6045 53.3015 91.5392 52.9038 91.4085 52.5629C91.2778 52.222 91.086 51.9564 90.8332 51.766C90.5803 51.5757 90.2678 51.4805 89.8957 51.4805C89.5122 51.4805 89.1926 51.5799 88.9369 51.7788C88.6812 51.9777 88.488 52.249 88.3573 52.5927C88.2295 52.9365 88.1656 53.3243 88.1656 53.7561C88.1656 54.1936 88.2309 54.587 88.3616 54.9365C88.4923 55.2859 88.6855 55.5629 88.9411 55.7674C89.1997 55.9691 89.5178 56.07 89.8957 56.07ZM98.8222 54.3143V50.4834H100.101V57.0288H98.8477V55.8953H98.7796C98.629 56.2447 98.3875 56.5359 98.0551 56.7689C97.7256 56.999 97.3151 57.114 96.8236 57.114C96.4031 57.114 96.031 57.0217 95.7071 56.837C95.3861 56.6495 95.1333 56.3726 94.9486 56.0061C94.7668 55.6396 94.6759 55.1865 94.6759 54.6467V50.4834H95.95V54.4933C95.95 54.9393 96.0736 55.2944 96.3208 55.5586C96.5679 55.8228 96.8889 55.9549 97.2838 55.9549C97.5225 55.9549 97.7597 55.8953 97.9955 55.776C98.2341 55.6566 98.4316 55.4763 98.5878 55.2348C98.7469 54.9933 98.825 54.6865 98.8222 54.3143ZM103.087 48.3015V57.0288H101.813V48.3015H103.087ZM107.622 57.1609C106.977 57.1609 106.422 57.0231 105.956 56.7476C105.493 56.4691 105.135 56.0785 104.882 55.5757C104.632 55.07 104.507 54.4777 104.507 53.7987C104.507 53.1282 104.632 52.5373 104.882 52.026C105.135 51.5146 105.487 51.1155 105.939 50.8285C106.393 50.5416 106.924 50.3981 107.532 50.3981C107.902 50.3981 108.26 50.4592 108.606 50.5814C108.953 50.7035 109.264 50.8953 109.54 51.1566C109.815 51.418 110.032 51.7575 110.191 52.1751C110.351 52.5899 110.43 53.0941 110.43 53.6879V54.1396H105.227V53.1851H109.182C109.182 52.8498 109.113 52.553 108.977 52.2944C108.841 52.0331 108.649 51.8271 108.402 51.6765C108.157 51.526 107.87 51.4507 107.541 51.4507C107.183 51.4507 106.87 51.5388 106.603 51.7149C106.339 51.8882 106.135 52.1155 105.99 52.3967C105.848 52.6751 105.777 52.9777 105.777 53.3044V54.0501C105.777 54.4876 105.853 54.8598 106.007 55.1666C106.163 55.4734 106.38 55.7078 106.659 55.8697C106.937 56.0288 107.263 56.1084 107.635 56.1084C107.876 56.1084 108.096 56.0743 108.295 56.0061C108.494 55.9351 108.666 55.8299 108.811 55.6907C108.956 55.5515 109.066 55.3797 109.143 55.1751L110.349 55.3924C110.253 55.7476 110.079 56.0586 109.829 56.3257C109.582 56.5899 109.271 56.7959 108.896 56.9436C108.524 57.0885 108.099 57.1609 107.622 57.1609ZM119.924 52.0814L118.77 52.2859C118.721 52.1382 118.645 51.9976 118.54 51.864C118.437 51.7305 118.298 51.6211 118.122 51.5359C117.946 51.4507 117.726 51.4081 117.461 51.4081C117.101 51.4081 116.799 51.489 116.558 51.651C116.316 51.8101 116.196 52.016 116.196 52.2689C116.196 52.4876 116.277 52.6638 116.439 52.7973C116.601 52.9308 116.862 53.0402 117.223 53.1254L118.263 53.364C118.865 53.5032 119.314 53.7177 119.609 54.0075C119.905 54.2973 120.052 54.6737 120.052 55.1368C120.052 55.5288 119.939 55.8782 119.711 56.1851C119.487 56.489 119.173 56.7277 118.77 56.901C118.369 57.0743 117.905 57.1609 117.376 57.1609C116.643 57.1609 116.045 57.0047 115.582 56.6922C115.119 56.3768 114.835 55.9294 114.73 55.3498L115.961 55.1623C116.038 55.4834 116.196 55.7263 116.434 55.891C116.673 56.053 116.984 56.1339 117.368 56.1339C117.785 56.1339 118.119 56.0473 118.369 55.874C118.619 55.6978 118.744 55.4834 118.744 55.2305C118.744 55.026 118.667 54.8541 118.514 54.7149C118.363 54.5757 118.132 54.4706 117.819 54.3995L116.711 54.1566C116.101 54.0174 115.649 53.7959 115.356 53.4919C115.066 53.1879 114.922 52.803 114.922 52.337C114.922 51.9507 115.03 51.6126 115.245 51.3228C115.461 51.0331 115.76 50.8072 116.14 50.6453C116.521 50.4805 116.957 50.3981 117.449 50.3981C118.156 50.3981 118.713 50.5515 119.119 50.8584C119.525 51.1623 119.794 51.57 119.924 52.0814ZM125.6 54.3143V50.4834H126.878V57.0288H125.625V55.8953H125.557C125.406 56.2447 125.165 56.5359 124.832 56.7689C124.503 56.999 124.092 57.114 123.601 57.114C123.18 57.114 122.808 57.0217 122.484 56.837C122.163 56.6495 121.911 56.3726 121.726 56.0061C121.544 55.6396 121.453 55.1865 121.453 54.6467V50.4834H122.727V54.4933C122.727 54.9393 122.851 55.2944 123.098 55.5586C123.345 55.8228 123.666 55.9549 124.061 55.9549C124.3 55.9549 124.537 55.8953 124.773 55.776C125.011 55.6566 125.209 55.4763 125.365 55.2348C125.524 54.9933 125.602 54.6865 125.6 54.3143ZM131.347 57.1609C130.714 57.1609 130.168 57.0174 129.711 56.7305C129.256 56.4407 128.907 56.0416 128.662 55.5331C128.418 55.0245 128.296 54.4422 128.296 53.7859C128.296 53.1211 128.421 52.5345 128.671 52.026C128.921 51.5146 129.273 51.1155 129.728 50.8285C130.182 50.5416 130.718 50.3981 131.334 50.3981C131.831 50.3981 132.275 50.4905 132.664 50.6751C133.053 50.8569 133.367 51.1126 133.606 51.4422C133.847 51.7717 133.991 52.1566 134.036 52.597H132.796C132.728 52.2902 132.571 52.026 132.327 51.8044C132.086 51.5828 131.762 51.472 131.356 51.472C131 51.472 130.689 51.5657 130.422 51.7532C130.158 51.9379 129.952 52.2021 129.804 52.5459C129.657 52.8868 129.583 53.2902 129.583 53.7561C129.583 54.2334 129.655 54.6453 129.8 54.9919C129.945 55.3385 130.15 55.6069 130.414 55.7973C130.681 55.9876 130.995 56.0828 131.356 56.0828C131.597 56.0828 131.816 56.0388 132.012 55.9507C132.211 55.8598 132.377 55.7305 132.51 55.5629C132.647 55.3953 132.742 55.1936 132.796 54.9578H134.036C133.991 55.3811 133.853 55.7589 133.623 56.0913C133.392 56.4237 133.084 56.6851 132.698 56.8754C132.314 57.0657 131.864 57.1609 131.347 57.1609ZM138.156 57.1609C137.522 57.1609 136.977 57.0174 136.519 56.7305C136.065 56.4407 135.715 56.0416 135.471 55.5331C135.227 55.0245 135.104 54.4422 135.104 53.7859C135.104 53.1211 135.229 52.5345 135.479 52.026C135.729 51.5146 136.082 51.1155 136.536 50.8285C136.991 50.5416 137.526 50.3981 138.143 50.3981C138.64 50.3981 139.083 50.4905 139.472 50.6751C139.862 50.8569 140.176 51.1126 140.414 51.4422C140.656 51.7717 140.799 52.1566 140.845 52.597H139.604C139.536 52.2902 139.38 52.026 139.136 51.8044C138.894 51.5828 138.57 51.472 138.164 51.472C137.809 51.472 137.498 51.5657 137.231 51.7532C136.967 51.9379 136.761 52.2021 136.613 52.5459C136.465 52.8868 136.391 53.2902 136.391 53.7561C136.391 54.2334 136.464 54.6453 136.609 54.9919C136.754 55.3385 136.958 55.6069 137.222 55.7973C137.489 55.9876 137.803 56.0828 138.164 56.0828C138.406 56.0828 138.624 56.0388 138.82 55.9507C139.019 55.8598 139.185 55.7305 139.319 55.5629C139.455 55.3953 139.551 55.1936 139.604 54.9578H140.845C140.799 55.3811 140.661 55.7589 140.431 56.0913C140.201 56.4237 139.893 56.6851 139.506 56.8754C139.123 57.0657 138.673 57.1609 138.156 57.1609ZM145.028 57.1609C144.383 57.1609 143.828 57.0231 143.362 56.7476C142.899 56.4691 142.541 56.0785 142.288 55.5757C142.038 55.07 141.913 54.4777 141.913 53.7987C141.913 53.1282 142.038 52.5373 142.288 52.026C142.541 51.5146 142.893 51.1155 143.345 50.8285C143.799 50.5416 144.331 50.3981 144.939 50.3981C145.308 50.3981 145.666 50.4592 146.013 50.5814C146.359 50.7035 146.67 50.8953 146.946 51.1566C147.221 51.418 147.439 51.7575 147.598 52.1751C147.757 52.5899 147.836 53.0941 147.836 53.6879V54.1396H142.633V53.1851H146.588C146.588 52.8498 146.52 52.553 146.383 52.2944C146.247 52.0331 146.055 51.8271 145.808 51.6765C145.564 51.526 145.277 51.4507 144.947 51.4507C144.589 51.4507 144.277 51.5388 144.01 51.7149C143.745 51.8882 143.541 52.1155 143.396 52.3967C143.254 52.6751 143.183 52.9777 143.183 53.3044V54.0501C143.183 54.4876 143.26 54.8598 143.413 55.1666C143.569 55.4734 143.787 55.7078 144.065 55.8697C144.343 56.0288 144.669 56.1084 145.041 56.1084C145.282 56.1084 145.503 56.0743 145.701 56.0061C145.9 55.9351 146.072 55.8299 146.217 55.6907C146.362 55.5515 146.473 55.3797 146.549 55.1751L147.755 55.3924C147.659 55.7476 147.486 56.0586 147.236 56.3257C146.988 56.5899 146.677 56.7959 146.302 56.9436C145.93 57.0885 145.505 57.1609 145.028 57.1609ZM154.155 52.0814L153 52.2859C152.952 52.1382 152.875 51.9976 152.77 51.864C152.668 51.7305 152.528 51.6211 152.352 51.5359C152.176 51.4507 151.956 51.4081 151.692 51.4081C151.331 51.4081 151.03 51.489 150.788 51.651C150.547 51.8101 150.426 52.016 150.426 52.2689C150.426 52.4876 150.507 52.6638 150.669 52.7973C150.831 52.9308 151.092 53.0402 151.453 53.1254L152.493 53.364C153.095 53.5032 153.544 53.7177 153.84 54.0075C154.135 54.2973 154.283 54.6737 154.283 55.1368C154.283 55.5288 154.169 55.8782 153.942 56.1851C153.717 56.489 153.403 56.7277 153 56.901C152.6 57.0743 152.135 57.1609 151.607 57.1609C150.874 57.1609 150.276 57.0047 149.813 56.6922C149.35 56.3768 149.065 55.9294 148.96 55.3498L150.192 55.1623C150.269 55.4834 150.426 55.7263 150.665 55.891C150.903 56.053 151.215 56.1339 151.598 56.1339C152.016 56.1339 152.35 56.0473 152.6 55.874C152.85 55.6978 152.975 55.4834 152.975 55.2305C152.975 55.026 152.898 54.8541 152.744 54.7149C152.594 54.5757 152.362 54.4706 152.05 54.3995L150.942 54.1566C150.331 54.0174 149.879 53.7959 149.587 53.4919C149.297 53.1879 149.152 52.803 149.152 52.337C149.152 51.9507 149.26 51.6126 149.476 51.3228C149.692 51.0331 149.99 50.8072 150.371 50.6453C150.752 50.4805 151.188 50.3981 151.679 50.3981C152.386 50.3981 152.943 50.5515 153.35 50.8584C153.756 51.1623 154.024 51.57 154.155 52.0814ZM160.589 52.0814L159.434 52.2859C159.385 52.1382 159.309 51.9976 159.204 51.864C159.101 51.7305 158.962 51.6211 158.786 51.5359C158.61 51.4507 158.39 51.4081 158.125 51.4081C157.765 51.4081 157.464 51.489 157.222 51.651C156.981 51.8101 156.86 52.016 156.86 52.2689C156.86 52.4876 156.941 52.6638 157.103 52.7973C157.265 52.9308 157.526 53.0402 157.887 53.1254L158.927 53.364C159.529 53.5032 159.978 53.7177 160.273 54.0075C160.569 54.2973 160.716 54.6737 160.716 55.1368C160.716 55.5288 160.603 55.8782 160.375 56.1851C160.151 56.489 159.837 56.7277 159.434 56.901C159.033 57.0743 158.569 57.1609 158.04 57.1609C157.307 57.1609 156.709 57.0047 156.246 56.6922C155.783 56.3768 155.499 55.9294 155.394 55.3498L156.625 55.1623C156.702 55.4834 156.86 55.7263 157.098 55.891C157.337 56.053 157.648 56.1339 158.032 56.1339C158.449 56.1339 158.783 56.0473 159.033 55.874C159.283 55.6978 159.408 55.4834 159.408 55.2305C159.408 55.026 159.331 54.8541 159.178 54.7149C159.027 54.5757 158.796 54.4706 158.483 54.3995L157.375 54.1566C156.765 54.0174 156.313 53.7959 156.02 53.4919C155.731 53.1879 155.586 52.803 155.586 52.337C155.586 51.9507 155.694 51.6126 155.91 51.3228C156.125 51.0331 156.424 50.8072 156.804 50.6453C157.185 50.4805 157.621 50.3981 158.113 50.3981C158.82 50.3981 159.377 50.5515 159.783 50.8584C160.189 51.1623 160.458 51.57 160.589 52.0814ZM165.232 50.4834V51.5061H161.533V50.4834H165.232ZM162.548 57.0288V49.7248C162.548 49.3157 162.637 48.9763 162.816 48.7064C162.995 48.4336 163.232 48.2305 163.528 48.097C163.823 47.9606 164.144 47.8924 164.491 47.8924C164.747 47.8924 164.965 47.9138 165.147 47.9564C165.329 47.9961 165.464 48.0331 165.552 48.0672L165.254 49.0984C165.194 49.0814 165.117 49.0615 165.024 49.0388C164.93 49.0132 164.816 49.0004 164.683 49.0004C164.373 49.0004 164.151 49.0771 164.018 49.2305C163.887 49.3839 163.822 49.6055 163.822 49.8953V57.0288H162.548ZM170.693 54.3143V50.4834H171.972V57.0288H170.719V55.8953H170.651C170.5 56.2447 170.259 56.5359 169.926 56.7689C169.597 56.999 169.186 57.114 168.695 57.114C168.274 57.114 167.902 57.0217 167.578 56.837C167.257 56.6495 167.004 56.3726 166.82 56.0061C166.638 55.6396 166.547 55.1865 166.547 54.6467V50.4834H167.821V54.4933C167.821 54.9393 167.945 55.2944 168.192 55.5586C168.439 55.8228 168.76 55.9549 169.155 55.9549C169.394 55.9549 169.631 55.8953 169.867 55.776C170.105 55.6566 170.303 55.4763 170.459 55.2348C170.618 54.9933 170.696 54.6865 170.693 54.3143ZM174.958 48.3015V57.0288H173.684V48.3015H174.958ZM177.946 48.3015V57.0288H176.672V48.3015H177.946ZM180.466 59.4834C180.275 59.4834 180.102 59.4677 179.946 59.4365C179.79 59.4081 179.673 59.3768 179.596 59.3427L179.903 58.2987C180.136 58.3612 180.343 58.3882 180.525 58.3797C180.707 58.3711 180.868 58.303 181.007 58.1751C181.149 58.0473 181.274 57.8385 181.382 57.5487L181.54 57.114L179.145 50.4834H180.508L182.166 55.5629H182.234L183.892 50.4834H185.26L182.562 57.9024C182.437 58.2433 182.278 58.5316 182.085 58.7674C181.892 59.0061 181.662 59.1851 181.395 59.3044C181.128 59.4237 180.818 59.4834 180.466 59.4834ZM192.39 57.1609C191.756 57.1609 191.211 57.0174 190.754 56.7305C190.299 56.4407 189.95 56.0416 189.705 55.5331C189.461 55.0245 189.339 54.4422 189.339 53.7859C189.339 53.1211 189.464 52.5345 189.714 52.026C189.964 51.5146 190.316 51.1155 190.771 50.8285C191.225 50.5416 191.761 50.3981 192.377 50.3981C192.874 50.3981 193.318 50.4905 193.707 50.6751C194.096 50.8569 194.41 51.1126 194.649 51.4422C194.89 51.7717 195.033 52.1566 195.079 52.597H193.839C193.771 52.2902 193.614 52.026 193.37 51.8044C193.129 51.5828 192.805 51.472 192.399 51.472C192.043 51.472 191.732 51.5657 191.465 51.7532C191.201 51.9379 190.995 52.2021 190.847 52.5459C190.7 52.8868 190.626 53.2902 190.626 53.7561C190.626 54.2334 190.698 54.6453 190.843 54.9919C190.988 55.3385 191.193 55.6069 191.457 55.7973C191.724 55.9876 192.038 56.0828 192.399 56.0828C192.64 56.0828 192.859 56.0388 193.055 55.9507C193.254 55.8598 193.42 55.7305 193.553 55.5629C193.69 55.3953 193.785 55.1936 193.839 54.9578H195.079C195.033 55.3811 194.896 55.7589 194.666 56.0913C194.435 56.4237 194.127 56.6851 193.741 56.8754C193.357 57.0657 192.907 57.1609 192.39 57.1609ZM196.441 57.0288V50.4834H197.673V51.5231H197.741C197.861 51.1709 198.071 50.8939 198.372 50.6922C198.676 50.4876 199.02 50.3853 199.403 50.3853C199.483 50.3853 199.576 50.3882 199.684 50.3939C199.795 50.3995 199.882 50.4066 199.944 50.4152V51.6339C199.893 51.6197 199.802 51.6041 199.672 51.587C199.541 51.5672 199.41 51.5572 199.28 51.5572C198.978 51.5572 198.71 51.6211 198.474 51.749C198.241 51.874 198.057 52.0487 197.92 52.2731C197.784 52.4947 197.716 52.7476 197.716 53.0316V57.0288H196.441ZM203.634 57.1609C202.989 57.1609 202.433 57.0231 201.967 56.7476C201.504 56.4691 201.146 56.0785 200.894 55.5757C200.644 55.07 200.519 54.4777 200.519 53.7987C200.519 53.1282 200.644 52.5373 200.894 52.026C201.146 51.5146 201.499 51.1155 201.95 50.8285C202.405 50.5416 202.936 50.3981 203.544 50.3981C203.913 50.3981 204.271 50.4592 204.618 50.5814C204.965 50.7035 205.276 50.8953 205.551 51.1566C205.827 51.418 206.044 51.7575 206.203 52.1751C206.362 52.5899 206.442 53.0941 206.442 53.6879V54.1396H201.239V53.1851H205.193C205.193 52.8498 205.125 52.553 204.989 52.2944C204.852 52.0331 204.661 51.8271 204.413 51.6765C204.169 51.526 203.882 51.4507 203.553 51.4507C203.195 51.4507 202.882 51.5388 202.615 51.7149C202.351 51.8882 202.146 52.1155 202.002 52.3967C201.859 52.6751 201.788 52.9777 201.788 53.3044V54.0501C201.788 54.4876 201.865 54.8598 202.019 55.1666C202.175 55.4734 202.392 55.7078 202.671 55.8697C202.949 56.0288 203.274 56.1084 203.646 56.1084C203.888 56.1084 204.108 56.0743 204.307 56.0061C204.506 55.9351 204.678 55.8299 204.823 55.6907C204.967 55.5515 205.078 55.3797 205.155 55.1751L206.361 55.3924C206.264 55.7476 206.091 56.0586 205.841 56.3257C205.594 56.5899 205.283 56.7959 204.908 56.9436C204.536 57.0885 204.111 57.1609 203.634 57.1609ZM209.76 57.1737C209.346 57.1737 208.971 57.097 208.635 56.9436C208.3 56.7873 208.035 56.5615 207.839 56.266C207.645 55.9706 207.549 55.6084 207.549 55.1794C207.549 54.8101 207.62 54.5061 207.762 54.2674C207.904 54.0288 208.096 53.8399 208.337 53.7007C208.579 53.5615 208.848 53.4564 209.147 53.3853C209.445 53.3143 209.749 53.2603 210.059 53.2234C210.451 53.178 210.769 53.141 211.013 53.1126C211.258 53.0814 211.435 53.0316 211.546 52.9635C211.657 52.8953 211.712 52.7845 211.712 52.6311V52.6013C211.712 52.2291 211.607 51.9407 211.397 51.7362C211.189 51.5316 210.88 51.4294 210.468 51.4294C210.039 51.4294 209.701 51.5245 209.454 51.7149C209.209 51.9024 209.04 52.1112 208.946 52.3413L207.749 52.0686C207.891 51.6709 208.098 51.3498 208.371 51.1055C208.647 50.8584 208.964 50.6794 209.321 50.5686C209.679 50.4549 210.056 50.3981 210.451 50.3981C210.712 50.3981 210.989 50.4294 211.282 50.4919C211.577 50.5515 211.853 50.6623 212.108 50.8243C212.367 50.9862 212.579 51.2177 212.743 51.5189C212.908 51.8172 212.991 52.2049 212.991 52.6822V57.0288H211.746V56.1339H211.695C211.613 56.2987 211.489 56.4606 211.324 56.6197C211.16 56.7788 210.948 56.9109 210.689 57.016C210.431 57.1211 210.121 57.1737 209.76 57.1737ZM210.037 56.151C210.39 56.151 210.691 56.0814 210.941 55.9422C211.194 55.803 211.385 55.6211 211.516 55.3967C211.65 55.1694 211.716 54.9265 211.716 54.668V53.8243C211.671 53.8697 211.583 53.9123 211.452 53.9521C211.324 53.989 211.178 54.0217 211.013 54.0501C210.848 54.0757 210.688 54.0998 210.532 54.1226C210.375 54.1424 210.245 54.1595 210.14 54.1737C209.892 54.2049 209.667 54.2575 209.462 54.3314C209.26 54.4052 209.098 54.5118 208.976 54.651C208.857 54.7873 208.797 54.9691 208.797 55.1964C208.797 55.5118 208.914 55.7504 209.147 55.9123C209.38 56.0714 209.677 56.151 210.037 56.151ZM217.743 50.4834V51.5061H214.168V50.4834H217.743ZM215.127 48.9152H216.401V55.1069C216.401 55.3541 216.438 55.5402 216.511 55.6652C216.585 55.7873 216.68 55.8711 216.797 55.9166C216.916 55.9592 217.046 55.9805 217.185 55.9805C217.287 55.9805 217.377 55.9734 217.453 55.9592C217.53 55.945 217.59 55.9336 217.632 55.9251L217.862 56.9777C217.788 57.0061 217.683 57.0345 217.547 57.0629C217.411 57.0941 217.24 57.1112 217.036 57.114C216.7 57.1197 216.388 57.0601 216.098 56.9351C215.808 56.8101 215.574 56.6169 215.395 56.3555C215.216 56.0941 215.127 55.766 215.127 55.3711V48.9152ZM221.903 57.1609C221.258 57.1609 220.703 57.0231 220.237 56.7476C219.774 56.4691 219.416 56.0785 219.163 55.5757C218.913 55.07 218.788 54.4777 218.788 53.7987C218.788 53.1282 218.913 52.5373 219.163 52.026C219.416 51.5146 219.768 51.1155 220.22 50.8285C220.674 50.5416 221.206 50.3981 221.814 50.3981C222.183 50.3981 222.541 50.4592 222.888 50.5814C223.234 50.7035 223.545 50.8953 223.821 51.1566C224.096 51.418 224.314 51.7575 224.473 52.1751C224.632 52.5899 224.711 53.0941 224.711 53.6879V54.1396H219.508V53.1851H223.463C223.463 52.8498 223.395 52.553 223.258 52.2944C223.122 52.0331 222.93 51.8271 222.683 51.6765C222.439 51.526 222.152 51.4507 221.822 51.4507C221.464 51.4507 221.152 51.5388 220.885 51.7149C220.62 51.8882 220.416 52.1155 220.271 52.3967C220.129 52.6751 220.058 52.9777 220.058 53.3044V54.0501C220.058 54.4876 220.135 54.8598 220.288 55.1666C220.444 55.4734 220.662 55.7078 220.94 55.8697C221.218 56.0288 221.544 56.1084 221.916 56.1084C222.157 56.1084 222.378 56.0743 222.576 56.0061C222.775 55.9351 222.947 55.8299 223.092 55.6907C223.237 55.5515 223.348 55.3797 223.424 55.1751L224.63 55.3924C224.534 55.7476 224.361 56.0586 224.111 56.3257C223.863 56.5899 223.552 56.7959 223.177 56.9436C222.805 57.0885 222.38 57.1609 221.903 57.1609ZM228.575 57.1566C228.047 57.1566 227.575 57.0217 227.161 56.7518C226.749 56.4791 226.425 56.0913 226.189 55.5885C225.956 55.0828 225.84 54.4763 225.84 53.7689C225.84 53.0615 225.957 52.4564 226.193 51.9535C226.432 51.4507 226.759 51.0657 227.173 50.7987C227.588 50.5316 228.058 50.3981 228.584 50.3981C228.99 50.3981 229.317 50.4663 229.564 50.6027C229.814 50.7362 230.007 50.8924 230.144 51.0714C230.283 51.2504 230.391 51.4081 230.467 51.5444H230.544V48.3015H231.818V57.0288H230.574V56.0103H230.467C230.391 56.1495 230.28 56.3086 230.135 56.4876C229.993 56.6666 229.797 56.8228 229.547 56.9564C229.297 57.0899 228.973 57.1566 228.575 57.1566ZM228.857 56.07C229.223 56.07 229.533 55.9734 229.786 55.7802C230.041 55.5842 230.234 55.3129 230.365 54.9663C230.499 54.6197 230.565 54.2163 230.565 53.7561C230.565 53.3015 230.5 52.9038 230.369 52.5629C230.239 52.222 230.047 51.9564 229.794 51.766C229.541 51.5757 229.229 51.4805 228.857 51.4805C228.473 51.4805 228.153 51.5799 227.898 51.7788C227.642 51.9777 227.449 52.249 227.318 52.5927C227.19 52.9365 227.127 53.3243 227.127 53.7561C227.127 54.1936 227.192 54.587 227.323 54.9365C227.453 55.2859 227.646 55.5629 227.902 55.7674C228.161 55.9691 228.479 56.07 228.857 56.07Z" fill="#101828"/>
<path d="M61.7344 68.6141H62.7485V74.6003C62.7485 75.1346 62.6504 75.5885 62.4541 75.962C62.2578 76.3354 61.9811 76.6189 61.624 76.8125C61.2669 77.006 60.8458 77.1028 60.3605 77.1028C59.9026 77.1028 59.4951 77.0196 59.138 76.8533C58.7809 76.6843 58.5001 76.4445 58.2956 76.1337C58.0912 75.8229 57.989 75.4536 57.989 75.0256H58.9867C58.9867 75.2627 59.0453 75.4699 59.1625 75.6471C59.2824 75.8216 59.446 75.9579 59.6532 76.056C59.8603 76.1541 60.0961 76.2032 60.3605 76.2032C60.6522 76.2032 60.9003 76.1419 61.1047 76.0192C61.3092 75.8965 61.4646 75.7166 61.5709 75.4795C61.6799 75.2396 61.7344 74.9465 61.7344 74.6003V68.6141ZM68.6079 74.4204V70.7077H69.5729V76.9883H68.6079V75.9252H68.5425C68.3953 76.2441 68.1663 76.5153 67.8556 76.7389C67.5448 76.9597 67.1523 77.0701 66.678 77.0701C66.2854 77.0701 65.9365 76.9842 65.6312 76.8125C65.3259 76.638 65.086 76.3763 64.9115 76.0274C64.7371 75.6757 64.6498 75.2328 64.6498 74.6985V70.7077H65.6148V74.6331C65.6148 75.091 65.743 75.4563 65.9992 75.7289C66.2582 76.0015 66.588 76.1378 66.9887 76.1378C67.2286 76.1378 67.4726 76.0764 67.7206 75.9538C67.9714 75.8311 68.1813 75.643 68.3503 75.3895C68.5221 75.136 68.6079 74.813 68.6079 74.4204ZM75.7891 72.1143L74.9223 72.3596C74.8678 72.2151 74.7873 72.0747 74.681 71.9384C74.5774 71.7994 74.4357 71.6849 74.2558 71.595C74.0759 71.505 73.8455 71.46 73.5648 71.46C73.1804 71.46 72.8601 71.5486 72.6039 71.7258C72.3503 71.9003 72.2236 72.1224 72.2236 72.3923C72.2236 72.6322 72.3108 72.8217 72.4853 72.9607C72.6597 73.0997 72.9323 73.2156 73.3031 73.3082L74.2353 73.5372C74.7969 73.6735 75.2153 73.8821 75.4906 74.1628C75.766 74.4409 75.9036 74.7993 75.9036 75.2382C75.9036 75.598 75.8 75.9197 75.5929 76.2032C75.3884 76.4867 75.1022 76.7102 74.7342 76.8738C74.3662 77.0373 73.9382 77.1191 73.4503 77.1191C72.8097 77.1191 72.2795 76.9801 71.8597 76.7021C71.4399 76.424 71.1741 76.0178 71.0623 75.4836L71.9782 75.2546C72.0655 75.5926 72.2304 75.8461 72.473 76.0151C72.7183 76.1841 73.0386 76.2686 73.4339 76.2686C73.8837 76.2686 74.2408 76.1732 74.5052 75.9824C74.7724 75.7889 74.9059 75.5572 74.9059 75.2873C74.9059 75.0692 74.8296 74.8866 74.6769 74.7394C74.5243 74.5894 74.2899 74.4777 73.9736 74.4041L72.9269 74.1587C72.3517 74.0224 71.9292 73.8112 71.6593 73.525C71.3922 73.236 71.2586 72.8748 71.2586 72.4414C71.2586 72.087 71.3581 71.7735 71.5571 71.5009C71.7588 71.2283 72.0328 71.0143 72.379 70.859C72.7279 70.7036 73.1231 70.6259 73.5648 70.6259C74.1863 70.6259 74.6742 70.7622 75.0286 71.0348C75.3857 71.3074 75.6392 71.6672 75.7891 72.1143ZM80.0876 70.7077V71.5255H76.8328V70.7077H80.0876ZM77.7815 69.2029H78.7465V75.1891C78.7465 75.4617 78.786 75.6662 78.865 75.8025C78.9468 75.9361 79.0504 76.026 79.1758 76.0724C79.3039 76.116 79.4389 76.1378 79.5806 76.1378C79.6869 76.1378 79.7741 76.1323 79.8423 76.1214C79.9104 76.1078 79.965 76.0969 80.0059 76.0887L80.2021 76.9556C80.1367 76.9801 80.0454 77.0046 79.9282 77.0292C79.8109 77.0564 79.6624 77.0701 79.4825 77.0701C79.2099 77.0701 78.9427 77.0115 78.681 76.8942C78.4221 76.777 78.2067 76.5985 78.035 76.3586C77.866 76.1187 77.7815 75.8161 77.7815 75.4508V69.2029ZM85.7426 73.2101V76.9883H84.7776V70.7077H85.7099V71.689H85.7917C85.9389 71.3701 86.1624 71.1138 86.4623 70.9203C86.7621 70.724 87.1492 70.6259 87.6235 70.6259C88.0488 70.6259 88.4209 70.7131 88.7398 70.8876C89.0588 71.0593 89.3068 71.321 89.484 71.6727C89.6612 72.0216 89.7498 72.4632 89.7498 72.9975V76.9883H88.7848V73.0629C88.7848 72.5695 88.6567 72.1851 88.4004 71.9098C88.1442 71.6318 87.7926 71.4927 87.3455 71.4927C87.0375 71.4927 86.7621 71.5595 86.5195 71.6931C86.2797 71.8267 86.0902 72.0216 85.9512 72.2778C85.8121 72.5341 85.7426 72.8448 85.7426 73.2101ZM94.0646 77.1191C93.4976 77.1191 93.0002 76.9842 92.5722 76.7143C92.1469 76.4445 91.8144 76.0669 91.5745 75.5817C91.3373 75.0965 91.2187 74.5295 91.2187 73.8807C91.2187 73.2265 91.3373 72.6554 91.5745 72.1674C91.8144 71.6795 92.1469 71.3006 92.5722 71.0307C93.0002 70.7608 93.4976 70.6259 94.0646 70.6259C94.6316 70.6259 95.1278 70.7608 95.553 71.0307C95.981 71.3006 96.3136 71.6795 96.5507 72.1674C96.7906 72.6554 96.9105 73.2265 96.9105 73.8807C96.9105 74.5295 96.7906 75.0965 96.5507 75.5817C96.3136 76.0669 95.981 76.4445 95.553 76.7143C95.1278 76.9842 94.6316 77.1191 94.0646 77.1191ZM94.0646 76.2523C94.4953 76.2523 94.8497 76.1419 95.1278 75.9211C95.4058 75.7003 95.6116 75.41 95.7452 75.0501C95.8788 74.6903 95.9456 74.3005 95.9456 73.8807C95.9456 73.4609 95.8788 73.0697 95.7452 72.7072C95.6116 72.3446 95.4058 72.0516 95.1278 71.828C94.8497 71.6045 94.4953 71.4927 94.0646 71.4927C93.6339 71.4927 93.2796 71.6045 93.0015 71.828C92.7235 72.0516 92.5177 72.3446 92.3841 72.7072C92.2505 73.0697 92.1837 73.4609 92.1837 73.8807C92.1837 74.3005 92.2505 74.6903 92.3841 75.0501C92.5177 75.41 92.7235 75.7003 93.0015 75.9211C93.2796 76.1419 93.6339 76.2523 94.0646 76.2523ZM99.5929 76.9883L97.6793 70.7077H98.6933L100.051 75.5163H100.116L101.457 70.7077H102.488L103.813 75.4999H103.878L105.236 70.7077H106.25L104.336 76.9883H103.387L102.014 72.1633H101.915L100.542 76.9883H99.5929Z" fill="#667085"/>
<rect x="11.5146" y="97.3408" width="272.971" height="36" rx="9.1465" fill="white"/>
<rect x="11.5146" y="97.3408" width="36" height="36" rx="18" fill="#F0F0F0"/>
<rect x="57.5146" y="103.341" width="55" height="9" rx="2" fill="#F0F0F0"/>
<rect x="57.5146" y="118.341" width="185.217" height="9" rx="2" fill="#F0F0F0"/>
</svg>
