<svg width="343" height="224" viewBox="0 0 343 224" fill="none" xmlns="http://www.w3.org/2000/svg">
<g filter="url(#filter0_d_56_1820)">
<path d="M3 18.6818C3 9.46871 10.4687 2 19.6818 2H353.318C362.531 2 370 9.4687 370 18.6818V203.318C370 212.531 362.531 220 353.318 220H19.6818C10.4687 220 3 212.531 3 203.318V18.6818Z" fill="white"/>
<path d="M19.6816 2.52148H353.318C362.243 2.52158 369.478 9.75658 369.479 18.6816V203.318C369.478 212.243 362.243 219.478 353.318 219.479H19.6816C10.7566 219.478 3.52158 212.243 3.52148 203.318V18.6816C3.52158 9.75658 10.7566 2.52158 19.6816 2.52148Z" stroke="#EBEBEB" stroke-width="1.04261"/>
<g clip-path="url(#clip0_56_1820)">
<path d="M26.1449 40.5592C26.5355 40.9497 27.1685 40.9497 27.559 40.5592L32.852 35.2662L36.1449 38.5592C36.5355 38.9497 37.1685 38.9497 37.559 38.5592L42.852 33.2662L44.1449 34.5592C44.4309 34.8452 44.8611 34.9307 45.2348 34.776C45.6084 34.6211 45.852 34.2565 45.852 33.8521V29.8521C45.852 29.7958 45.8453 29.7409 45.8363 29.6871C45.8292 29.6444 45.8207 29.6018 45.808 29.5601C45.7932 29.5115 45.7741 29.4647 45.7524 29.4195C45.7456 29.4054 45.7384 29.3914 45.7309 29.3775C45.6521 29.232 45.5393 29.1079 45.4018 29.0172C45.364 28.9923 45.3247 28.971 45.2846 28.9517C45.2394 28.93 45.1927 28.9109 45.144 28.8961C45.1237 28.8899 45.103 28.8853 45.0824 28.8804C45.0711 28.8778 45.0598 28.8749 45.0483 28.8726C45.0379 28.8706 45.0274 28.8695 45.017 28.8678C44.9632 28.8588 44.9083 28.8521 44.852 28.8521H40.852C40.4476 28.8521 40.083 29.0957 39.9281 29.4693C39.7734 29.843 39.8589 30.2732 40.1449 30.5592L41.4379 31.8521L36.852 36.4381L33.559 33.1451C33.1929 32.779 32.6139 32.7564 32.2211 33.0767L32.1449 33.1451L26.1449 39.1451C25.7544 39.5356 25.7544 40.1686 26.1449 40.5592Z" fill="#292929"/>
</g>
<path d="M26.1134 77.8521H24.2498L28.4373 66.2157H30.4657L34.6532 77.8521H32.7896L29.4998 68.3293H29.4089L26.1134 77.8521ZM26.4259 73.2952H32.4714V74.7725H26.4259V73.2952ZM39.7327 78.0282C38.888 78.0282 38.1608 77.8369 37.5509 77.4543C36.9449 77.068 36.4789 76.5358 36.1532 75.8577C35.8274 75.1797 35.6646 74.4032 35.6646 73.5282C35.6646 72.6418 35.8312 71.8596 36.1646 71.1816C36.4979 70.4998 36.9676 69.9676 37.5736 69.585C38.1797 69.2024 38.8937 69.0111 39.7157 69.0111C40.3786 69.0111 40.9695 69.1342 41.4884 69.3805C42.0074 69.6229 42.4259 69.9638 42.7441 70.4032C43.0661 70.8426 43.2574 71.3558 43.318 71.943H41.6646C41.5736 71.5339 41.3653 71.1816 41.0396 70.8861C40.7176 70.5907 40.2858 70.443 39.7441 70.443C39.2706 70.443 38.8558 70.568 38.4998 70.818C38.1475 71.0642 37.8729 71.4164 37.6759 71.8748C37.4789 72.3293 37.3805 72.8672 37.3805 73.4884C37.3805 74.1248 37.4771 74.674 37.6702 75.1361C37.8634 75.5983 38.1361 75.9562 38.4884 76.21C38.8445 76.4638 39.263 76.5907 39.7441 76.5907C40.0661 76.5907 40.3577 76.532 40.6191 76.4146C40.8842 76.2933 41.1058 76.121 41.2839 75.8975C41.4657 75.674 41.5926 75.4051 41.6646 75.0907H43.318C43.2574 75.6551 43.0736 76.1589 42.7668 76.6021C42.46 77.0452 42.049 77.3937 41.5339 77.6475C41.0225 77.9013 40.4221 78.0282 39.7327 78.0282ZM48.8109 78.0282C47.9662 78.0282 47.2389 77.8369 46.629 77.4543C46.023 77.068 45.5571 76.5358 45.2313 75.8577C44.9056 75.1797 44.7427 74.4032 44.7427 73.5282C44.7427 72.6418 44.9093 71.8596 45.2427 71.1816C45.576 70.4998 46.0457 69.9676 46.6518 69.585C47.2578 69.2024 47.9718 69.0111 48.7938 69.0111C49.4567 69.0111 50.0476 69.1342 50.5665 69.3805C51.0855 69.6229 51.504 69.9638 51.8222 70.4032C52.1442 70.8426 52.3355 71.3558 52.3961 71.943H50.7427C50.6518 71.5339 50.4434 71.1816 50.1177 70.8861C49.7957 70.5907 49.3639 70.443 48.8222 70.443C48.3487 70.443 47.934 70.568 47.5779 70.818C47.2256 71.0642 46.951 71.4164 46.754 71.8748C46.5571 72.3293 46.4586 72.8672 46.4586 73.4884C46.4586 74.1248 46.5552 74.674 46.7484 75.1361C46.9415 75.5983 47.2143 75.9562 47.5665 76.21C47.9226 76.4638 48.3412 76.5907 48.8222 76.5907C49.1442 76.5907 49.4359 76.532 49.6972 76.4146C49.9624 76.2933 50.184 76.121 50.362 75.8975C50.5438 75.674 50.6707 75.4051 50.7427 75.0907H52.3961C52.3355 75.6551 52.1518 76.1589 51.8449 76.6021C51.5381 77.0452 51.1271 77.3937 50.612 77.6475C50.1006 77.9013 49.5003 78.0282 48.8109 78.0282ZM57.889 78.0282C57.0708 78.0282 56.3568 77.8407 55.7469 77.4657C55.1371 77.0907 54.6636 76.5661 54.3265 75.8918C53.9894 75.2176 53.8208 74.4297 53.8208 73.5282C53.8208 72.6229 53.9894 71.8312 54.3265 71.1532C54.6636 70.4752 55.1371 69.9486 55.7469 69.5736C56.3568 69.1986 57.0708 69.0111 57.889 69.0111C58.7072 69.0111 59.4212 69.1986 60.031 69.5736C60.6409 69.9486 61.1144 70.4752 61.4515 71.1532C61.7886 71.8312 61.9572 72.6229 61.9572 73.5282C61.9572 74.4297 61.7886 75.2176 61.4515 75.8918C61.1144 76.5661 60.6409 77.0907 60.031 77.4657C59.4212 77.8407 58.7072 78.0282 57.889 78.0282ZM57.8947 76.6021C58.425 76.6021 58.8644 76.4619 59.2128 76.1816C59.5613 75.9013 59.8189 75.5282 59.9856 75.0623C60.156 74.5964 60.2413 74.0831 60.2413 73.5225C60.2413 72.9657 60.156 72.4543 59.9856 71.9884C59.8189 71.5187 59.5613 71.1418 59.2128 70.8577C58.8644 70.5736 58.425 70.4316 57.8947 70.4316C57.3606 70.4316 56.9174 70.5736 56.5651 70.8577C56.2166 71.1418 55.9572 71.5187 55.7867 71.9884C55.62 72.4543 55.5367 72.9657 55.5367 73.5225C55.5367 74.0831 55.62 74.5964 55.7867 75.0623C55.9572 75.5282 56.2166 75.9013 56.5651 76.1816C56.9174 76.4619 57.3606 76.6021 57.8947 76.6021ZM69.3819 74.2327V69.1248H71.0864V77.8521H69.416V76.3407H69.3251C69.1243 76.8066 68.8023 77.1949 68.3592 77.5055C67.9198 77.8123 67.3724 77.9657 66.7171 77.9657C66.1565 77.9657 65.6603 77.8426 65.2285 77.5964C64.8004 77.3464 64.4633 76.9771 64.2171 76.4884C63.9747 75.9998 63.8535 75.3956 63.8535 74.6759V69.1248H65.5523V74.4714C65.5523 75.0661 65.7171 75.5396 66.0467 75.8918C66.3762 76.2441 66.8042 76.4202 67.3307 76.4202C67.6489 76.4202 67.9652 76.3407 68.2796 76.1816C68.5978 76.0225 68.861 75.782 69.0694 75.46C69.2815 75.138 69.3857 74.7289 69.3819 74.2327ZM75.068 72.6702V77.8521H73.3691V69.1248H74.9998V70.5452H75.1077C75.3085 70.0831 75.6229 69.7119 76.0509 69.4316C76.4827 69.1513 77.0263 69.0111 77.6816 69.0111C78.2763 69.0111 78.7971 69.1361 79.2441 69.3861C79.6911 69.6324 80.0377 69.9998 80.2839 70.4884C80.5301 70.9771 80.6532 71.5812 80.6532 72.3009V77.8521H78.9543V72.5055C78.9543 71.8729 78.7896 71.3786 78.46 71.0225C78.1305 70.6627 77.6778 70.4827 77.1021 70.4827C76.7081 70.4827 76.3577 70.568 76.0509 70.7384C75.7479 70.9089 75.5074 71.1589 75.3293 71.4884C75.1551 71.8142 75.068 72.2081 75.068 72.6702ZM87.0055 69.1248V70.4884H82.2384V69.1248H87.0055ZM83.5168 67.0339H85.2157V75.2896C85.2157 75.6191 85.2649 75.8672 85.3634 76.0339C85.4619 76.1967 85.5888 76.3085 85.7441 76.3691C85.9032 76.4259 86.0755 76.4543 86.2611 76.4543C86.3975 76.4543 86.5168 76.4449 86.6191 76.4259C86.7214 76.407 86.8009 76.3918 86.8577 76.3805L87.1646 77.7839C87.0661 77.8217 86.9259 77.8596 86.7441 77.8975C86.5623 77.9392 86.335 77.9619 86.0623 77.9657C85.6153 77.9733 85.1986 77.8937 84.8123 77.7271C84.4259 77.5604 84.1134 77.3028 83.8748 76.9543C83.6361 76.6058 83.5168 76.1683 83.5168 75.6418V67.0339ZM101.13 69.8918C101.021 69.5471 100.873 69.2384 100.687 68.9657C100.505 68.6892 100.288 68.4543 100.034 68.2611C99.7801 68.0642 99.4903 67.9146 99.1646 67.8123C98.8426 67.71 98.4884 67.6589 98.1021 67.6589C97.4467 67.6589 96.8558 67.8274 96.3293 68.1646C95.8028 68.5017 95.3861 68.996 95.0793 69.6475C94.7763 70.2952 94.6248 71.0888 94.6248 72.0282C94.6248 72.9714 94.7782 73.7687 95.085 74.4202C95.3918 75.0717 95.8123 75.5661 96.3464 75.9032C96.8805 76.2403 97.4884 76.4089 98.1702 76.4089C98.8028 76.4089 99.3539 76.2801 99.8236 76.0225C100.297 75.7649 100.663 75.4013 100.92 74.9316C101.182 74.4581 101.312 73.9013 101.312 73.2611L101.767 73.3464H98.4373V71.8975H103.011V73.2214C103.011 74.1986 102.803 75.0471 102.386 75.7668C101.973 76.4827 101.401 77.0358 100.67 77.4259C99.943 77.8161 99.1096 78.0111 98.1702 78.0111C97.1172 78.0111 96.193 77.7687 95.3975 77.2839C94.6058 76.799 93.9884 76.1115 93.5452 75.2214C93.1021 74.3274 92.8805 73.2668 92.8805 72.0396C92.8805 71.1115 93.0092 70.2782 93.2668 69.5396C93.5244 68.8009 93.8861 68.174 94.3521 67.6589C94.8217 67.1399 95.3729 66.7441 96.0055 66.4714C96.6418 66.1949 97.3369 66.0566 98.0907 66.0566C98.7195 66.0566 99.3047 66.1494 99.8464 66.335C100.392 66.5206 100.877 66.7839 101.301 67.1248C101.729 67.4657 102.083 67.871 102.363 68.3407C102.644 68.8066 102.833 69.3236 102.932 69.8918H101.13ZM105.103 77.8521V69.1248H106.746V70.5111H106.836C106.996 70.0414 107.276 69.6721 107.677 69.4032C108.083 69.1305 108.541 68.9941 109.052 68.9941C109.158 68.9941 109.283 68.9979 109.427 69.0055C109.575 69.013 109.691 69.0225 109.774 69.0339V70.6589C109.706 70.6399 109.585 70.6191 109.41 70.5964C109.236 70.5699 109.062 70.5566 108.888 70.5566C108.486 70.5566 108.128 70.6418 107.814 70.8123C107.503 70.9789 107.257 71.2119 107.075 71.5111C106.893 71.8066 106.802 72.1437 106.802 72.5225V77.8521H105.103ZM114.608 78.0282C113.79 78.0282 113.076 77.8407 112.466 77.4657C111.856 77.0907 111.382 76.5661 111.045 75.8918C110.708 75.2176 110.54 74.4297 110.54 73.5282C110.54 72.6229 110.708 71.8312 111.045 71.1532C111.382 70.4752 111.856 69.9486 112.466 69.5736C113.076 69.1986 113.79 69.0111 114.608 69.0111C115.426 69.0111 116.14 69.1986 116.75 69.5736C117.36 69.9486 117.833 70.4752 118.17 71.1532C118.507 71.8312 118.676 72.6229 118.676 73.5282C118.676 74.4297 118.507 75.2176 118.17 75.8918C117.833 76.5661 117.36 77.0907 116.75 77.4657C116.14 77.8407 115.426 78.0282 114.608 78.0282ZM114.613 76.6021C115.144 76.6021 115.583 76.4619 115.932 76.1816C116.28 75.9013 116.538 75.5282 116.704 75.0623C116.875 74.5964 116.96 74.0831 116.96 73.5225C116.96 72.9657 116.875 72.4543 116.704 71.9884C116.538 71.5187 116.28 71.1418 115.932 70.8577C115.583 70.5736 115.144 70.4316 114.613 70.4316C114.079 70.4316 113.636 70.5736 113.284 70.8577C112.935 71.1418 112.676 71.5187 112.505 71.9884C112.339 72.4543 112.255 72.9657 112.255 73.5225C112.255 74.0831 112.339 74.5964 112.505 75.0623C112.676 75.5282 112.935 75.9013 113.284 76.1816C113.636 76.4619 114.079 76.6021 114.613 76.6021ZM122.199 77.8521L119.63 69.1248H121.386L123.096 75.5339H123.182L124.898 69.1248H126.653L128.358 75.5055H128.443L130.142 69.1248H131.898L129.335 77.8521H127.602L125.829 71.5509H125.699L123.926 77.8521H122.199ZM137.584 69.1248V70.4884H132.817V69.1248H137.584ZM134.095 67.0339H135.794V75.2896C135.794 75.6191 135.843 75.8672 135.942 76.0339C136.04 76.1967 136.167 76.3085 136.322 76.3691C136.481 76.4259 136.654 76.4543 136.839 76.4543C136.976 76.4543 137.095 76.4449 137.197 76.4259C137.299 76.407 137.379 76.3918 137.436 76.3805L137.743 77.7839C137.644 77.8217 137.504 77.8596 137.322 77.8975C137.14 77.9392 136.913 77.9619 136.64 77.9657C136.193 77.9733 135.777 77.8937 135.39 77.7271C135.004 77.5604 134.692 77.3028 134.453 76.9543C134.214 76.6058 134.095 76.1683 134.095 75.6418V67.0339ZM141.349 72.6702V77.8521H139.65V66.2157H141.326V70.5452H141.434C141.639 70.0755 141.951 69.7024 142.372 69.4259C142.792 69.1494 143.342 69.0111 144.02 69.0111C144.618 69.0111 145.141 69.1342 145.588 69.3805C146.039 69.6267 146.387 69.9941 146.633 70.4827C146.883 70.9676 147.008 71.5736 147.008 72.3009V77.8521H145.309V72.5055C145.309 71.8653 145.145 71.3691 144.815 71.0168C144.486 70.6608 144.027 70.4827 143.44 70.4827C143.039 70.4827 142.679 70.568 142.361 70.7384C142.046 70.9089 141.798 71.1589 141.616 71.4884C141.438 71.8142 141.349 72.2081 141.349 72.6702Z" fill="#111111"/>
<path d="M28.3883 133.918H29.7567V140.369C29.7567 140.953 29.6412 141.452 29.4102 141.866C29.1821 142.281 28.8607 142.598 28.4461 142.817C28.0314 143.033 27.5456 143.141 26.9888 143.141C26.4764 143.141 26.0158 143.048 25.607 142.862C25.2012 142.675 24.8799 142.404 24.6429 142.049C24.4089 141.69 24.2919 141.255 24.2919 140.742H25.6559C25.6559 140.994 25.7136 141.212 25.8292 141.395C25.9476 141.579 26.1091 141.723 26.3134 141.826C26.5208 141.927 26.7577 141.977 27.0243 141.977C27.3146 141.977 27.5604 141.917 27.7619 141.795C27.9662 141.671 28.1217 141.489 28.2284 141.249C28.335 141.009 28.3883 140.716 28.3883 140.369V133.918ZM35.9713 140.187V136.193H37.3042V143.017H35.998V141.835H35.9269C35.7699 142.2 35.5181 142.503 35.1716 142.746C34.828 142.986 34.4 143.106 33.8876 143.106C33.4492 143.106 33.0612 143.01 32.7235 142.817C32.3888 142.622 32.1252 142.333 31.9327 141.951C31.7431 141.569 31.6483 141.096 31.6483 140.533V136.193H32.9768V140.374C32.9768 140.839 33.1056 141.209 33.3633 141.484C33.621 141.76 33.9557 141.897 34.3674 141.897C34.6162 141.897 34.8635 141.835 35.1094 141.711C35.3582 141.586 35.5641 141.398 35.727 141.147C35.8928 140.895 35.9743 140.575 35.9713 140.187ZM40.4176 138.965V143.017H39.0892V136.193H40.3643V137.303H40.4487C40.6057 136.942 40.8515 136.652 41.1862 136.433C41.5239 136.213 41.949 136.104 42.4614 136.104C42.9264 136.104 43.3337 136.202 43.6832 136.397C44.0327 136.59 44.3037 136.877 44.4962 137.259C44.6888 137.641 44.785 138.114 44.785 138.676V143.017H43.4566V138.836C43.4566 138.342 43.3277 137.955 43.0701 137.677C42.8124 137.395 42.4584 137.255 42.0082 137.255C41.7001 137.255 41.4262 137.321 41.1862 137.455C40.9493 137.588 40.7612 137.783 40.622 138.041C40.4857 138.296 40.4176 138.604 40.4176 138.965ZM53.0367 143.141C52.6309 143.136 52.2311 143.062 51.8371 142.919C51.4461 142.777 51.0907 142.54 50.7708 142.208C50.4509 141.877 50.1947 141.431 50.0022 140.871C49.8126 140.311 49.7178 139.612 49.7178 138.774C49.7178 137.98 49.7963 137.275 49.9533 136.659C50.1133 136.043 50.3428 135.523 50.642 135.1C50.9411 134.673 51.3025 134.349 51.726 134.127C52.1496 133.905 52.625 133.794 53.1522 133.794C53.6943 133.794 54.1756 133.9 54.5962 134.113C55.0168 134.327 55.3574 134.621 55.6181 134.998C55.8817 135.374 56.049 135.802 56.1201 136.282H54.765C54.6732 135.902 54.491 135.593 54.2185 135.353C53.946 135.113 53.5906 134.993 53.1522 134.993C52.4858 134.993 51.966 135.283 51.5928 135.864C51.2225 136.444 51.0359 137.252 51.0329 138.285H51.0996C51.2566 138.028 51.4491 137.808 51.6772 137.628C51.9082 137.444 52.1659 137.303 52.4502 137.206C52.7376 137.105 53.0397 137.055 53.3566 137.055C53.8838 137.055 54.3607 137.183 54.7872 137.441C55.2167 137.696 55.5588 138.048 55.8136 138.499C56.0683 138.949 56.1957 139.464 56.1957 140.045C56.1957 140.625 56.0639 141.151 55.8002 141.622C55.5396 142.093 55.1723 142.466 54.6984 142.742C54.2245 143.014 53.6706 143.147 53.0367 143.141ZM53.0323 141.986C53.3818 141.986 53.6943 141.9 53.9697 141.729C54.2452 141.557 54.4629 141.326 54.6229 141.036C54.7828 140.745 54.8628 140.421 54.8628 140.063C54.8628 139.713 54.7843 139.395 54.6273 139.107C54.4733 138.82 54.26 138.592 53.9875 138.423C53.718 138.254 53.4099 138.17 53.0634 138.17C52.7998 138.17 52.5554 138.22 52.3303 138.321C52.1081 138.422 51.9126 138.561 51.7438 138.739C51.575 138.916 51.4417 139.121 51.344 139.352C51.2492 139.58 51.2018 139.821 51.2018 140.076C51.2018 140.416 51.2803 140.732 51.4373 141.022C51.5972 141.312 51.8149 141.546 52.0904 141.724C52.3688 141.899 52.6828 141.986 53.0323 141.986ZM59.1447 141.773L59.078 142.257C59.0336 142.613 58.9581 142.983 58.8514 143.368C58.7478 143.756 58.6397 144.116 58.5271 144.448C58.4175 144.779 58.3272 145.043 58.2561 145.239H57.3142C57.3527 145.055 57.406 144.806 57.4741 144.492C57.5422 144.181 57.6089 143.833 57.6741 143.448C57.7392 143.063 57.7881 142.671 57.8207 142.271L57.8651 141.773H59.1447ZM64.1674 143.017V142.022L67.2464 138.832C67.5752 138.485 67.8462 138.182 68.0595 137.921C68.2757 137.657 68.4371 137.407 68.5437 137.17C68.6504 136.933 68.7037 136.681 68.7037 136.415C68.7037 136.113 68.6326 135.852 68.4904 135.633C68.3483 135.411 68.1542 135.24 67.9084 135.122C67.6626 135.001 67.3856 134.94 67.0776 134.94C66.7518 134.94 66.4674 135.006 66.2245 135.14C65.9816 135.273 65.795 135.461 65.6647 135.704C65.5344 135.947 65.4692 136.231 65.4692 136.557H64.1585C64.1585 136.003 64.2859 135.519 64.5406 135.104C64.7954 134.69 65.1449 134.368 65.5892 134.14C66.0335 133.909 66.5385 133.794 67.1042 133.794C67.6759 133.794 68.1794 133.908 68.6148 134.136C69.0532 134.361 69.3953 134.669 69.6412 135.06C69.887 135.448 70.0099 135.886 70.0099 136.375C70.0099 136.713 69.9462 137.043 69.8189 137.366C69.6945 137.689 69.4768 138.048 69.1658 138.445C68.8548 138.839 68.4223 139.318 67.8684 139.88L66.0601 141.773V141.84H70.1565V143.017H64.1674ZM75.0082 143.168C74.3063 143.165 73.7065 142.98 73.2088 142.613C72.7112 142.245 72.3306 141.711 72.067 141.009C71.8034 140.307 71.6716 139.461 71.6716 138.472C71.6716 137.486 71.8034 136.643 72.067 135.944C72.3336 135.245 72.7157 134.712 73.2133 134.344C73.7139 133.977 74.3122 133.794 75.0082 133.794C75.7043 133.794 76.3011 133.979 76.7988 134.349C77.2964 134.716 77.677 135.249 77.9406 135.948C78.2072 136.644 78.3405 137.486 78.3405 138.472C78.3405 139.464 78.2087 140.311 77.945 141.013C77.6814 141.712 77.3008 142.247 76.8032 142.617C76.3056 142.985 75.7073 143.168 75.0082 143.168ZM75.0082 141.982C75.6243 141.982 76.1057 141.681 76.4522 141.08C76.8017 140.479 76.9765 139.609 76.9765 138.472C76.9765 137.717 76.8965 137.078 76.7366 136.557C76.5796 136.033 76.353 135.636 76.0568 135.366C75.7635 135.094 75.414 134.958 75.0082 134.958C74.3951 134.958 73.9138 135.26 73.5643 135.864C73.2148 136.468 73.0385 137.338 73.0356 138.472C73.0356 139.23 73.1141 139.871 73.2711 140.396C73.431 140.917 73.6576 141.312 73.9508 141.582C74.2441 141.849 74.5965 141.982 75.0082 141.982ZM79.9166 143.017V142.022L82.9956 138.832C83.3243 138.485 83.5954 138.182 83.8086 137.921C84.0249 137.657 84.1863 137.407 84.2929 137.17C84.3995 136.933 84.4529 136.681 84.4529 136.415C84.4529 136.113 84.3818 135.852 84.2396 135.633C84.0974 135.411 83.9034 135.24 83.6576 135.122C83.4117 135.001 83.1348 134.94 82.8267 134.94C82.5009 134.94 82.2166 135.006 81.9737 135.14C81.7308 135.273 81.5442 135.461 81.4139 135.704C81.2836 135.947 81.2184 136.231 81.2184 136.557H79.9077C79.9077 136.003 80.0351 135.519 80.2898 135.104C80.5445 134.69 80.8941 134.368 81.3383 134.14C81.7826 133.909 82.2877 133.794 82.8534 133.794C83.4251 133.794 83.9286 133.908 84.364 134.136C84.8024 134.361 85.1445 134.669 85.3903 135.06C85.6362 135.448 85.7591 135.886 85.7591 136.375C85.7591 136.713 85.6954 137.043 85.568 137.366C85.4436 137.689 85.2259 138.048 84.9149 138.445C84.6039 138.839 84.1715 139.318 83.6176 139.88L81.8093 141.773V141.84H85.9057V143.017H79.9166ZM90.593 143.141C90.0362 143.141 89.5356 143.035 89.0913 142.822C88.65 142.605 88.2975 142.309 88.0339 141.933C87.7703 141.557 87.6296 141.127 87.6118 140.645H88.9447C88.9773 141.036 89.1505 141.357 89.4645 141.609C89.7785 141.86 90.1547 141.986 90.593 141.986C90.9425 141.986 91.2521 141.906 91.5216 141.746C91.7941 141.583 92.0074 141.36 92.1614 141.076C92.3184 140.791 92.3969 140.467 92.3969 140.103C92.3969 139.732 92.3169 139.402 92.1569 139.112C91.997 138.821 91.7763 138.593 91.4949 138.428C91.2165 138.262 90.8966 138.177 90.5353 138.174C90.2598 138.174 89.9829 138.222 89.7044 138.316C89.426 138.411 89.2009 138.536 89.0291 138.69L87.7717 138.503L88.2827 133.918H93.2855V135.095H89.4245L89.1357 137.641H89.1891C89.3668 137.469 89.6022 137.326 89.8955 137.21C90.1917 137.095 90.5086 137.037 90.8463 137.037C91.4002 137.037 91.8933 137.169 92.3258 137.432C92.7612 137.696 93.1033 138.056 93.3521 138.512C93.6039 138.965 93.7283 139.486 93.7253 140.076C93.7283 140.665 93.595 141.191 93.3254 141.653C93.0589 142.115 92.6886 142.479 92.2147 142.746C91.7438 143.01 91.2032 143.141 90.593 143.141Z" fill="#A4A4A4"/>
<path d="M271.572 143.017V133.918H277.215V135.1H272.945V137.872H276.811V139.05H272.945V143.017H271.572ZM281.237 143.155C280.565 143.155 279.985 143.011 279.5 142.724C279.017 142.434 278.644 142.026 278.38 141.502C278.119 140.975 277.989 140.357 277.989 139.649C277.989 138.95 278.119 138.334 278.38 137.801C278.644 137.268 279.011 136.852 279.482 136.553C279.956 136.253 280.51 136.104 281.144 136.104C281.529 136.104 281.902 136.168 282.263 136.295C282.625 136.422 282.949 136.622 283.236 136.895C283.524 137.167 283.75 137.521 283.916 137.957C284.082 138.389 284.165 138.915 284.165 139.534V140.005H278.74V139.01H282.863C282.863 138.66 282.792 138.351 282.65 138.081C282.508 137.808 282.308 137.594 282.05 137.437C281.795 137.28 281.496 137.201 281.152 137.201C280.779 137.201 280.453 137.293 280.175 137.477C279.9 137.657 279.686 137.894 279.535 138.188C279.387 138.478 279.313 138.793 279.313 139.134V139.911C279.313 140.368 279.393 140.756 279.553 141.076C279.716 141.395 279.942 141.64 280.233 141.809C280.523 141.974 280.862 142.057 281.25 142.057C281.502 142.057 281.732 142.022 281.939 141.951C282.146 141.877 282.325 141.767 282.476 141.622C282.628 141.477 282.743 141.298 282.823 141.084L284.08 141.311C283.98 141.681 283.799 142.006 283.538 142.284C283.281 142.559 282.956 142.774 282.565 142.928C282.177 143.079 281.734 143.155 281.237 143.155ZM285.745 143.017V133.918H287.074V137.299H287.154C287.231 137.157 287.342 136.992 287.487 136.806C287.632 136.619 287.834 136.456 288.091 136.317C288.349 136.175 288.69 136.104 289.113 136.104C289.664 136.104 290.156 136.243 290.588 136.521C291.021 136.8 291.36 137.201 291.606 137.726C291.854 138.25 291.979 138.881 291.979 139.618C291.979 140.356 291.856 140.988 291.61 141.515C291.364 142.04 291.027 142.444 290.597 142.728C290.168 143.01 289.677 143.15 289.126 143.15C288.712 143.15 288.373 143.081 288.109 142.942C287.848 142.802 287.644 142.639 287.496 142.453C287.348 142.266 287.234 142.1 287.154 141.955H287.043V143.017H285.745ZM287.047 139.605C287.047 140.085 287.117 140.505 287.256 140.867C287.395 141.228 287.597 141.511 287.86 141.715C288.124 141.917 288.447 142.017 288.829 142.017C289.226 142.017 289.557 141.912 289.824 141.702C290.091 141.489 290.292 141.2 290.428 140.836C290.567 140.471 290.637 140.061 290.637 139.605C290.637 139.155 290.569 138.75 290.433 138.392C290.299 138.034 290.098 137.751 289.828 137.543C289.562 137.336 289.229 137.232 288.829 137.232C288.444 137.232 288.118 137.332 287.851 137.53C287.588 137.728 287.388 138.005 287.252 138.361C287.115 138.716 287.047 139.131 287.047 139.605ZM296.764 143.017V142.022L299.843 138.832C300.172 138.485 300.443 138.182 300.656 137.921C300.872 137.657 301.034 137.407 301.14 137.17C301.247 136.933 301.3 136.681 301.3 136.415C301.3 136.113 301.229 135.852 301.087 135.633C300.945 135.411 300.751 135.24 300.505 135.122C300.259 135.001 299.982 134.94 299.674 134.94C299.348 134.94 299.064 135.006 298.821 135.14C298.578 135.273 298.391 135.461 298.261 135.704C298.131 135.947 298.066 136.231 298.066 136.557H296.755C296.755 136.003 296.882 135.519 297.137 135.104C297.392 134.69 297.741 134.368 298.186 134.14C298.63 133.909 299.135 133.794 299.701 133.794C300.272 133.794 300.776 133.908 301.211 134.136C301.65 134.361 301.992 134.669 302.238 135.06C302.483 135.448 302.606 135.886 302.606 136.375C302.606 136.713 302.543 137.043 302.415 137.366C302.291 137.689 302.073 138.048 301.762 138.445C301.451 138.839 301.019 139.318 300.465 139.88L298.657 141.773V141.84H302.753V143.017H296.764ZM307.511 143.141C306.875 143.141 306.312 143.032 305.823 142.813C305.337 142.594 304.957 142.291 304.681 141.906C304.406 141.521 304.27 141.083 304.272 140.591C304.27 140.206 304.348 139.852 304.508 139.529C304.671 139.204 304.892 138.933 305.17 138.716C305.448 138.497 305.759 138.358 306.103 138.299V138.245C305.65 138.136 305.287 137.893 305.014 137.517C304.742 137.141 304.607 136.708 304.61 136.219C304.607 135.754 304.73 135.34 304.979 134.975C305.231 134.608 305.576 134.319 306.014 134.109C306.453 133.899 306.952 133.794 307.511 133.794C308.065 133.794 308.56 133.9 308.995 134.113C309.434 134.324 309.779 134.612 310.031 134.98C310.282 135.344 310.41 135.757 310.413 136.219C310.41 136.708 310.27 137.141 309.995 137.517C309.72 137.893 309.361 138.136 308.92 138.245V138.299C309.26 138.358 309.567 138.497 309.84 138.716C310.115 138.933 310.334 139.204 310.497 139.529C310.663 139.852 310.747 140.206 310.75 140.591C310.747 141.083 310.608 141.521 310.333 141.906C310.057 142.291 309.675 142.594 309.186 142.813C308.701 143.032 308.142 143.141 307.511 143.141ZM307.511 142.017C307.888 142.017 308.213 141.955 308.489 141.831C308.764 141.703 308.978 141.527 309.129 141.302C309.28 141.074 309.357 140.807 309.36 140.502C309.357 140.185 309.274 139.906 309.111 139.663C308.951 139.42 308.733 139.229 308.458 139.09C308.182 138.95 307.867 138.881 307.511 138.881C307.153 138.881 306.835 138.95 306.556 139.09C306.278 139.229 306.059 139.42 305.899 139.663C305.739 139.906 305.66 140.185 305.663 140.502C305.66 140.807 305.733 141.074 305.881 141.302C306.032 141.527 306.247 141.703 306.525 141.831C306.803 141.955 307.132 142.017 307.511 142.017ZM307.511 137.783C307.814 137.783 308.082 137.723 308.316 137.601C308.55 137.48 308.733 137.311 308.867 137.095C309.003 136.878 309.072 136.625 309.075 136.335C309.072 136.051 309.004 135.802 308.871 135.588C308.741 135.375 308.558 135.211 308.324 135.095C308.09 134.977 307.819 134.918 307.511 134.918C307.197 134.918 306.922 134.977 306.685 135.095C306.451 135.211 306.269 135.375 306.139 135.588C306.008 135.802 305.945 136.051 305.947 136.335C305.945 136.625 306.01 136.878 306.143 137.095C306.276 137.311 306.46 137.48 306.694 137.601C306.931 137.723 307.203 137.783 307.511 137.783ZM313.819 141.773L313.753 142.257C313.708 142.613 313.633 142.983 313.526 143.368C313.422 143.756 313.314 144.116 313.202 144.448C313.092 144.779 313.002 145.043 312.931 145.239H311.989C312.027 145.055 312.081 144.806 312.149 144.492C312.217 144.181 312.284 143.833 312.349 143.448C312.414 143.063 312.463 142.671 312.495 142.271L312.54 141.773H313.819ZM318.842 143.017V142.022L321.921 138.832C322.25 138.485 322.521 138.182 322.734 137.921C322.95 137.657 323.112 137.407 323.218 137.17C323.325 136.933 323.378 136.681 323.378 136.415C323.378 136.113 323.307 135.852 323.165 135.633C323.023 135.411 322.829 135.24 322.583 135.122C322.337 135.001 322.06 134.94 321.752 134.94C321.426 134.94 321.142 135.006 320.899 135.14C320.656 135.273 320.47 135.461 320.339 135.704C320.209 135.947 320.144 136.231 320.144 136.557H318.833C318.833 136.003 318.961 135.519 319.215 135.104C319.47 134.69 319.82 134.368 320.264 134.14C320.708 133.909 321.213 133.794 321.779 133.794C322.351 133.794 322.854 133.908 323.289 134.136C323.728 134.361 324.07 134.669 324.316 135.06C324.562 135.448 324.685 135.886 324.685 136.375C324.685 136.713 324.621 137.043 324.493 137.366C324.369 137.689 324.151 138.048 323.84 138.445C323.529 138.839 323.097 139.318 322.543 139.88L320.735 141.773V141.84H324.831V143.017H318.842ZM329.683 143.168C328.981 143.165 328.381 142.98 327.883 142.613C327.386 142.245 327.005 141.711 326.742 141.009C326.478 140.307 326.346 139.461 326.346 138.472C326.346 137.486 326.478 136.643 326.742 135.944C327.008 135.245 327.39 134.712 327.888 134.344C328.388 133.977 328.987 133.794 329.683 133.794C330.379 133.794 330.976 133.979 331.473 134.349C331.971 134.716 332.352 135.249 332.615 135.948C332.882 136.644 333.015 137.486 333.015 138.472C333.015 139.464 332.883 140.311 332.62 141.013C332.356 141.712 331.975 142.247 331.478 142.617C330.98 142.985 330.382 143.168 329.683 143.168ZM329.683 141.982C330.299 141.982 330.78 141.681 331.127 141.08C331.476 140.479 331.651 139.609 331.651 138.472C331.651 137.717 331.571 137.078 331.411 136.557C331.254 136.033 331.028 135.636 330.731 135.366C330.438 135.094 330.089 134.958 329.683 134.958C329.07 134.958 328.588 135.26 328.239 135.864C327.889 136.468 327.713 137.338 327.71 138.472C327.71 139.23 327.789 139.871 327.946 140.396C328.106 140.917 328.332 141.312 328.625 141.582C328.919 141.849 329.271 141.982 329.683 141.982ZM334.591 143.017V142.022L337.67 138.832C337.999 138.485 338.27 138.182 338.483 137.921C338.699 137.657 338.861 137.407 338.968 137.17C339.074 136.933 339.127 136.681 339.127 136.415C339.127 136.113 339.056 135.852 338.914 135.633C338.772 135.411 338.578 135.24 338.332 135.122C338.086 135.001 337.809 134.94 337.501 134.94C337.176 134.94 336.891 135.006 336.648 135.14C336.405 135.273 336.219 135.461 336.089 135.704C335.958 135.947 335.893 136.231 335.893 136.557H334.582C334.582 136.003 334.71 135.519 334.964 135.104C335.219 134.69 335.569 134.368 336.013 134.14C336.457 133.909 336.962 133.794 337.528 133.794C338.1 133.794 338.603 133.908 339.039 134.136C339.477 134.361 339.819 134.669 340.065 135.06C340.311 135.448 340.434 135.886 340.434 136.375C340.434 136.713 340.37 137.043 340.243 137.366C340.118 137.689 339.901 138.048 339.59 138.445C339.279 138.839 338.846 139.318 338.292 139.88L336.484 141.773V141.84H340.58V143.017H334.591ZM345.268 143.141C344.711 143.141 344.21 143.035 343.766 142.822C343.325 142.605 342.972 142.309 342.709 141.933C342.445 141.557 342.304 141.127 342.286 140.645H343.619C343.652 141.036 343.825 141.357 344.139 141.609C344.453 141.86 344.829 141.986 345.268 141.986C345.617 141.986 345.927 141.906 346.196 141.746C346.469 141.583 346.682 141.36 346.836 141.076C346.993 140.791 347.071 140.467 347.071 140.103C347.071 139.732 346.992 139.402 346.832 139.112C346.672 138.821 346.451 138.593 346.17 138.428C345.891 138.262 345.571 138.177 345.21 138.174C344.934 138.174 344.657 138.222 344.379 138.316C344.101 138.411 343.876 138.536 343.704 138.69L342.446 138.503L342.957 133.918H347.96V135.095H344.099L343.81 137.641H343.864C344.041 137.469 344.277 137.326 344.57 137.21C344.866 137.095 345.183 137.037 345.521 137.037C346.075 137.037 346.568 137.169 347 137.432C347.436 137.696 347.778 138.056 348.027 138.512C348.278 138.965 348.403 139.486 348.4 140.076C348.403 140.665 348.27 141.191 348 141.653C347.733 142.115 347.363 142.479 346.889 142.746C346.418 143.01 345.878 143.141 345.268 143.141Z" fill="#A4A4A4"/>
<rect x="23.8521" y="155.358" width="83.4091" height="43.7898" rx="2.08523" fill="#FCCC20"/>
<rect x="111.432" y="155.358" width="66.7273" height="43.7898" rx="2.08523" fill="#FCD440"/>
<rect x="182.329" y="155.358" width="50.0455" height="43.7898" rx="2.08523" fill="#FDDA5E"/>
<rect x="236.545" y="155.358" width="41.7045" height="43.7898" rx="2.08523" fill="#FDE17C"/>
<rect x="282.42" y="155.358" width="33.3636" height="43.7898" rx="2.08523" fill="#FEE89A"/>
<rect x="319.954" y="155.358" width="16.6818" height="43.7898" rx="2.08523" fill="#FEEEB3"/>
<rect x="340.807" y="155.358" width="8.34091" height="43.7898" rx="2.08523" fill="#FEF6D7"/>
</g>
<defs>
<filter id="filter0_d_56_1820" x="0.914773" y="0.957386" width="371.17" height="222.17" filterUnits="userSpaceOnUse" color-interpolation-filters="sRGB">
<feFlood flood-opacity="0" result="BackgroundImageFix"/>
<feColorMatrix in="SourceAlpha" type="matrix" values="0 0 0 0 0 0 0 0 0 0 0 0 0 0 0 0 0 0 127 0" result="hardAlpha"/>
<feOffset dy="1.04261"/>
<feGaussianBlur stdDeviation="1.04261"/>
<feComposite in2="hardAlpha" operator="out"/>
<feColorMatrix type="matrix" values="0 0 0 0 0.0392157 0 0 0 0 0.0509804 0 0 0 0 0.0784314 0 0 0 0.03 0"/>
<feBlend mode="normal" in2="BackgroundImageFix" result="effect1_dropShadow_56_1820"/>
<feBlend mode="normal" in="SourceGraphic" in2="effect1_dropShadow_56_1820" result="shape"/>
</filter>
<clipPath id="clip0_56_1820">
<rect width="24" height="24" fill="white" transform="translate(23.8521 22.8521)"/>
</clipPath>
</defs>
</svg>
