<svg width="297" height="239" viewBox="0 0 297 239" fill="none" xmlns="http://www.w3.org/2000/svg">
<rect x="0.753189" y="0.430435" width="295.494" height="255.139" rx="11.5696" fill="white"/>
<rect x="0.753189" y="0.430435" width="295.494" height="255.139" rx="11.5696" stroke="#EDE9FE" stroke-width="0.86087"/>
<rect x="12.375" y="12.0522" width="55" height="9" rx="2" fill="#F0F0F0"/>
<rect x="229.625" y="12.0522" width="55" height="9" rx="2" fill="#F0F0F0"/>
<line x1="12.8054" y1="52.4739" x2="283.945" y2="52.4739" stroke="#F5F5F5" stroke-width="0.86087" stroke-linecap="round"/>
<line x1="12.8054" y1="79.0378" x2="283.945" y2="79.0378" stroke="#F5F5F5" stroke-width="0.86087" stroke-linecap="round"/>
<line x1="12.8054" y1="103.45" x2="283.945" y2="103.45" stroke="#F5F5F5" stroke-width="0.86087" stroke-linecap="round"/>
<line x1="12.8054" y1="127.863" x2="283.945" y2="127.863" stroke="#F5F5F5" stroke-width="0.86087" stroke-linecap="round"/>
<line x1="12.8054" y1="152.275" x2="283.945" y2="152.275" stroke="#F5F5F5" stroke-width="0.86087" stroke-linecap="round"/>
<line x1="12.8054" y1="176.687" x2="283.945" y2="176.687" stroke="#F5F5F5" stroke-width="0.86087" stroke-linecap="round"/>
<path d="M23.5746 188.922H24.4844V194.292C24.4844 194.772 24.3964 195.179 24.2203 195.514C24.0442 195.849 23.796 196.103 23.4756 196.277C23.1552 196.45 22.7773 196.537 22.342 196.537C21.9311 196.537 21.5655 196.463 21.2451 196.314C20.9248 196.162 20.6729 195.947 20.4894 195.668C20.306 195.389 20.2143 195.058 20.2143 194.674H21.1094C21.1094 194.886 21.162 195.072 21.2672 195.231C21.3748 195.388 21.5215 195.51 21.7074 195.598C21.8932 195.686 22.1048 195.73 22.342 195.73C22.6037 195.73 22.8263 195.675 23.0097 195.565C23.1931 195.455 23.3325 195.294 23.4279 195.081C23.5257 194.866 23.5746 194.603 23.5746 194.292V188.922ZM27.8484 196.567C27.4913 196.567 27.1673 196.499 26.8763 196.365C26.5852 196.228 26.3541 196.031 26.1829 195.774C26.0117 195.515 25.9261 195.202 25.9261 194.835C25.9261 194.512 25.9897 194.251 26.1169 194.05C26.2441 193.847 26.414 193.688 26.6268 193.573C26.8396 193.458 27.0744 193.373 27.3311 193.316C27.5904 193.258 27.8508 193.211 28.1125 193.177C28.4549 193.133 28.7325 193.1 28.9453 193.078C29.1605 193.053 29.317 193.013 29.4148 192.957C29.5151 192.901 29.5653 192.803 29.5653 192.663V192.634C29.5653 192.272 29.4662 191.991 29.2681 191.79C29.0725 191.59 28.7753 191.489 28.3767 191.489C27.9633 191.489 27.6393 191.58 27.4045 191.761C27.1697 191.942 27.0047 192.135 26.9093 192.341L26.0875 192.047C26.2343 191.705 26.4299 191.438 26.6745 191.247C26.9215 191.054 27.1905 190.92 27.4816 190.844C27.775 190.766 28.0636 190.726 28.3473 190.726C28.5283 190.726 28.7362 190.748 28.971 190.792C29.2082 190.834 29.4369 190.921 29.657 191.053C29.8795 191.185 30.0642 191.384 30.2109 191.651C30.3576 191.917 30.431 192.275 30.431 192.722V196.435H29.5653V195.672H29.5212C29.4625 195.794 29.3647 195.925 29.2278 196.064C29.0908 196.203 28.9086 196.322 28.6811 196.42C28.4537 196.518 28.1761 196.567 27.8484 196.567ZM27.9805 195.789C28.3229 195.789 28.6114 195.722 28.8462 195.587C29.0835 195.453 29.262 195.279 29.3818 195.066C29.5041 194.853 29.5653 194.63 29.5653 194.395V193.603C29.5286 193.647 29.4479 193.687 29.3231 193.724C29.2008 193.758 29.059 193.788 28.8976 193.815C28.7386 193.84 28.5833 193.862 28.4317 193.881C28.2825 193.898 28.1614 193.913 28.0685 193.925C27.8435 193.955 27.6332 194.002 27.4375 194.068C27.2443 194.132 27.0878 194.229 26.968 194.358C26.8506 194.485 26.7919 194.659 26.7919 194.879C26.7919 195.18 26.9032 195.407 27.1257 195.561C27.3507 195.713 27.6356 195.789 27.9805 195.789ZM32.877 193.045V196.435H32.0112V190.8H32.8476V191.68H32.921C33.0531 191.394 33.2536 191.164 33.5226 190.991C33.7916 190.814 34.1389 190.726 34.5645 190.726C34.946 190.726 35.2798 190.805 35.566 190.961C35.8521 191.115 36.0747 191.35 36.2336 191.666C36.3926 191.979 36.4721 192.375 36.4721 192.854V196.435H35.6063V192.913C35.6063 192.47 35.4914 192.125 35.2615 191.878C35.0316 191.629 34.7161 191.504 34.315 191.504C34.0387 191.504 33.7916 191.564 33.574 191.684C33.3588 191.804 33.1888 191.979 33.0641 192.208C32.9393 192.438 32.877 192.717 32.877 193.045Z" fill="#535862"/>
<path d="M59.3545 188.922H60.4404L62.9937 195.158H63.0817L65.635 188.922H66.7208V196.435H65.8697V190.726H65.7964L63.4485 196.435H62.6268L60.279 190.726H60.2056V196.435H59.3545V188.922ZM70.0857 196.567C69.7287 196.567 69.4046 196.499 69.1136 196.365C68.8226 196.228 68.5914 196.031 68.4203 195.774C68.2491 195.515 68.1635 195.202 68.1635 194.835C68.1635 194.512 68.227 194.251 68.3542 194.05C68.4814 193.847 68.6514 193.688 68.8641 193.573C69.0769 193.458 69.3117 193.373 69.5685 193.316C69.8277 193.258 70.0882 193.211 70.3499 193.177C70.6923 193.133 70.9698 193.1 71.1826 193.078C71.3978 193.053 71.5544 193.013 71.6522 192.957C71.7525 192.901 71.8026 192.803 71.8026 192.663V192.634C71.8026 192.272 71.7035 191.991 71.5054 191.79C71.3098 191.59 71.0126 191.489 70.614 191.489C70.2007 191.489 69.8766 191.58 69.6419 191.761C69.4071 191.942 69.242 192.135 69.1466 192.341L68.3249 192.047C68.4716 191.705 68.6673 191.438 68.9118 191.247C69.1588 191.054 69.4279 190.92 69.7189 190.844C70.0124 190.766 70.301 190.726 70.5847 190.726C70.7656 190.726 70.9735 190.748 71.2083 190.792C71.4455 190.834 71.6742 190.921 71.8943 191.053C72.1169 191.185 72.3015 191.384 72.4482 191.651C72.595 191.917 72.6683 192.275 72.6683 192.722V196.435H71.8026V195.672H71.7586C71.6999 195.794 71.602 195.925 71.4651 196.064C71.3281 196.203 71.1459 196.322 70.9185 196.42C70.691 196.518 70.4135 196.567 70.0857 196.567ZM70.2178 195.789C70.5602 195.789 70.8488 195.722 71.0836 195.587C71.3208 195.453 71.4993 195.279 71.6192 195.066C71.7414 194.853 71.8026 194.63 71.8026 194.395V193.603C71.7659 193.647 71.6852 193.687 71.5605 193.724C71.4382 193.758 71.2963 193.788 71.1349 193.815C70.976 193.84 70.8207 193.862 70.669 193.881C70.5198 193.898 70.3988 193.913 70.3058 193.925C70.0808 193.955 69.8705 194.002 69.6749 194.068C69.4817 194.132 69.3251 194.229 69.2053 194.358C69.0879 194.485 69.0292 194.659 69.0292 194.879C69.0292 195.18 69.1405 195.407 69.3631 195.561C69.5881 195.713 69.873 195.789 70.2178 195.789ZM74.2485 196.435V190.8H75.085V191.651H75.1437C75.2464 191.372 75.4322 191.146 75.7013 190.972C75.9703 190.799 76.2735 190.712 76.611 190.712C76.6746 190.712 76.7541 190.713 76.8495 190.715C76.9449 190.718 77.017 190.722 77.0659 190.726V191.607C77.0366 191.6 76.9693 191.589 76.8642 191.574C76.7615 191.557 76.6526 191.548 76.5377 191.548C76.2638 191.548 76.0192 191.606 75.804 191.721C75.5912 191.833 75.4225 191.99 75.2977 192.19C75.1754 192.388 75.1143 192.614 75.1143 192.869V196.435H74.2485Z" fill="#535862"/>
<path d="M99.6872 188.922H100.773L103.326 195.158H103.414L105.968 188.922H107.054V196.435H106.202V190.726H106.129L103.781 196.435H102.959L100.612 190.726H100.538V196.435H99.6872V188.922ZM110.418 196.567C110.061 196.567 109.737 196.499 109.446 196.365C109.155 196.228 108.924 196.031 108.753 195.774C108.582 195.515 108.496 195.202 108.496 194.835C108.496 194.512 108.56 194.251 108.687 194.05C108.814 193.847 108.984 193.688 109.197 193.573C109.41 193.458 109.644 193.373 109.901 193.316C110.16 193.258 110.421 193.211 110.683 193.177C111.025 193.133 111.303 193.1 111.515 193.078C111.731 193.053 111.887 193.013 111.985 192.957C112.085 192.901 112.135 192.803 112.135 192.663V192.634C112.135 192.272 112.036 191.991 111.838 191.79C111.642 191.59 111.345 191.489 110.947 191.489C110.533 191.489 110.209 191.58 109.975 191.761C109.74 191.942 109.575 192.135 109.479 192.341L108.658 192.047C108.804 191.705 109 191.438 109.245 191.247C109.492 191.054 109.761 190.92 110.052 190.844C110.345 190.766 110.634 190.726 110.917 190.726C111.098 190.726 111.306 190.748 111.541 190.792C111.778 190.834 112.007 190.921 112.227 191.053C112.45 191.185 112.634 191.384 112.781 191.651C112.928 191.917 113.001 192.275 113.001 192.722V196.435H112.135V195.672H112.091C112.033 195.794 111.935 195.925 111.798 196.064C111.661 196.203 111.479 196.322 111.251 196.42C111.024 196.518 110.746 196.567 110.418 196.567ZM110.55 195.789C110.893 195.789 111.181 195.722 111.416 195.587C111.653 195.453 111.832 195.279 111.952 195.066C112.074 194.853 112.135 194.63 112.135 194.395V193.603C112.099 193.647 112.018 193.687 111.893 193.724C111.771 193.758 111.629 193.788 111.468 193.815C111.309 193.84 111.153 193.862 111.002 193.881C110.853 193.898 110.731 193.913 110.639 193.925C110.414 193.955 110.203 194.002 110.008 194.068C109.814 194.132 109.658 194.229 109.538 194.358C109.421 194.485 109.362 194.659 109.362 194.879C109.362 195.18 109.473 195.407 109.696 195.561C109.921 195.713 110.206 195.789 110.55 195.789ZM114.937 198.548C114.79 198.548 114.659 198.535 114.545 198.511C114.43 198.489 114.35 198.467 114.306 198.445L114.526 197.682C114.737 197.736 114.922 197.755 115.084 197.741C115.245 197.726 115.388 197.654 115.513 197.524C115.64 197.397 115.756 197.19 115.862 196.904L116.023 196.464L113.939 190.8H114.878L116.434 195.29H116.492L118.048 190.8H118.987L116.595 197.256C116.488 197.547 116.354 197.788 116.195 197.979C116.036 198.172 115.852 198.315 115.641 198.408C115.434 198.501 115.199 198.548 114.937 198.548Z" fill="#535862"/>
<path d="M145.098 188.922H146.008V194.292C146.008 194.772 145.919 195.179 145.743 195.514C145.567 195.849 145.319 196.103 144.999 196.277C144.678 196.45 144.3 196.537 143.865 196.537C143.454 196.537 143.089 196.463 142.768 196.314C142.448 196.162 142.196 195.947 142.013 195.668C141.829 195.389 141.737 195.058 141.737 194.674H142.633C142.633 194.886 142.685 195.072 142.79 195.231C142.898 195.388 143.045 195.51 143.231 195.598C143.416 195.686 143.628 195.73 143.865 195.73C144.127 195.73 144.349 195.675 144.533 195.565C144.716 195.455 144.856 195.294 144.951 195.081C145.049 194.866 145.098 194.603 145.098 194.292V188.922ZM151.264 194.131V190.8H152.13V196.435H151.264V195.481H151.206C151.074 195.767 150.868 196.01 150.589 196.211C150.311 196.409 149.958 196.508 149.533 196.508C149.181 196.508 148.868 196.431 148.594 196.277C148.32 196.12 148.105 195.886 147.948 195.572C147.792 195.257 147.713 194.86 147.713 194.38V190.8H148.579V194.322C148.579 194.732 148.694 195.06 148.924 195.305C149.156 195.549 149.452 195.672 149.812 195.672C150.027 195.672 150.246 195.616 150.468 195.506C150.693 195.396 150.882 195.228 151.033 195C151.187 194.773 151.264 194.483 151.264 194.131ZM154.582 188.922V196.435H153.716V188.922H154.582Z" fill="#535862"/>
<path d="M181.536 190.8C181.492 190.428 181.313 190.139 181 189.934C180.687 189.729 180.303 189.626 179.848 189.626C179.516 189.626 179.225 189.68 178.975 189.787C178.728 189.895 178.535 190.043 178.395 190.231C178.258 190.419 178.19 190.633 178.19 190.873C178.19 191.074 178.238 191.246 178.333 191.39C178.431 191.532 178.556 191.651 178.707 191.746C178.859 191.839 179.018 191.916 179.184 191.977C179.35 192.036 179.503 192.084 179.643 192.12L180.406 192.326C180.601 192.377 180.819 192.448 181.059 192.539C181.301 192.629 181.532 192.753 181.752 192.909C181.975 193.063 182.158 193.261 182.302 193.503C182.447 193.746 182.519 194.043 182.519 194.395C182.519 194.801 182.412 195.168 182.2 195.495C181.989 195.823 181.681 196.084 181.275 196.277C180.872 196.47 180.381 196.567 179.804 196.567C179.266 196.567 178.8 196.48 178.406 196.306C178.015 196.133 177.707 195.89 177.482 195.58C177.259 195.269 177.133 194.908 177.104 194.498H178.043C178.068 194.781 178.163 195.016 178.329 195.202C178.498 195.385 178.711 195.522 178.968 195.613C179.227 195.701 179.506 195.745 179.804 195.745C180.151 195.745 180.463 195.689 180.74 195.576C181.016 195.461 181.235 195.302 181.396 195.099C181.558 194.894 181.638 194.654 181.638 194.38C181.638 194.131 181.569 193.928 181.429 193.771C181.29 193.615 181.106 193.488 180.879 193.39C180.652 193.292 180.406 193.206 180.142 193.133L179.217 192.869C178.63 192.7 178.166 192.459 177.823 192.146C177.481 191.833 177.31 191.423 177.31 190.917C177.31 190.497 177.423 190.13 177.651 189.817C177.881 189.501 178.189 189.257 178.575 189.083C178.964 188.907 179.398 188.819 179.878 188.819C180.362 188.819 180.792 188.906 181.169 189.079C181.545 189.25 181.844 189.485 182.064 189.784C182.286 190.082 182.404 190.421 182.416 190.8H181.536ZM186.26 196.552C185.717 196.552 185.248 196.432 184.855 196.192C184.463 195.95 184.161 195.613 183.949 195.18C183.738 194.745 183.633 194.238 183.633 193.661C183.633 193.084 183.738 192.575 183.949 192.135C184.161 191.692 184.457 191.348 184.836 191.101C185.218 190.851 185.663 190.726 186.172 190.726C186.465 190.726 186.755 190.775 187.041 190.873C187.327 190.971 187.588 191.13 187.823 191.35C188.057 191.568 188.244 191.856 188.384 192.216C188.523 192.575 188.593 193.018 188.593 193.544V193.911H184.249V193.162H187.712C187.712 192.844 187.649 192.561 187.522 192.311C187.397 192.062 187.218 191.865 186.986 191.721C186.756 191.576 186.485 191.504 186.172 191.504C185.827 191.504 185.528 191.59 185.277 191.761C185.027 191.93 184.835 192.15 184.701 192.421C184.566 192.693 184.499 192.984 184.499 193.294V193.793C184.499 194.219 184.572 194.58 184.719 194.875C184.868 195.169 185.075 195.393 185.339 195.547C185.603 195.698 185.91 195.774 186.26 195.774C186.487 195.774 186.693 195.742 186.876 195.679C187.062 195.613 187.222 195.515 187.357 195.385C187.491 195.253 187.595 195.089 187.668 194.894L188.505 195.129C188.417 195.412 188.269 195.662 188.061 195.877C187.853 196.09 187.596 196.256 187.291 196.376C186.985 196.493 186.641 196.552 186.26 196.552ZM189.91 198.548V190.8H190.746V191.695H190.849C190.913 191.597 191.001 191.472 191.113 191.321C191.228 191.167 191.392 191.03 191.605 190.91C191.82 190.788 192.111 190.726 192.478 190.726C192.952 190.726 193.37 190.845 193.732 191.082C194.094 191.319 194.377 191.656 194.58 192.091C194.783 192.526 194.884 193.04 194.884 193.632C194.884 194.229 194.783 194.746 194.58 195.184C194.377 195.619 194.096 195.956 193.736 196.196C193.377 196.433 192.962 196.552 192.492 196.552C192.131 196.552 191.841 196.492 191.623 196.372C191.405 196.25 191.238 196.112 191.12 195.958C191.003 195.801 190.913 195.672 190.849 195.569H190.776V198.548H189.91ZM190.761 193.617C190.761 194.043 190.823 194.418 190.948 194.743C191.073 195.066 191.255 195.319 191.495 195.503C191.734 195.684 192.028 195.774 192.375 195.774C192.737 195.774 193.039 195.679 193.281 195.488C193.526 195.295 193.709 195.036 193.831 194.71C193.956 194.383 194.019 194.018 194.019 193.617C194.019 193.221 193.957 192.864 193.835 192.546C193.715 192.226 193.533 191.972 193.289 191.787C193.046 191.598 192.742 191.504 192.375 191.504C192.023 191.504 191.727 191.593 191.487 191.772C191.248 191.948 191.067 192.195 190.944 192.513C190.822 192.828 190.761 193.197 190.761 193.617Z" fill="#535862"/>
<path d="M223.827 188.922V196.435H222.947L218.853 190.536H218.779V196.435H217.869V188.922H218.75L222.858 194.835H222.932V188.922H223.827ZM227.819 196.552C227.31 196.552 226.864 196.431 226.48 196.189C226.099 195.947 225.8 195.608 225.585 195.173C225.372 194.737 225.266 194.229 225.266 193.647C225.266 193.06 225.372 192.547 225.585 192.109C225.8 191.672 226.099 191.332 226.48 191.09C226.864 190.847 227.31 190.726 227.819 190.726C228.328 190.726 228.773 190.847 229.155 191.09C229.538 191.332 229.837 191.672 230.05 192.109C230.265 192.547 230.372 193.06 230.372 193.647C230.372 194.229 230.265 194.737 230.05 195.173C229.837 195.608 229.538 195.947 229.155 196.189C228.773 196.431 228.328 196.552 227.819 196.552ZM227.819 195.774C228.206 195.774 228.524 195.675 228.773 195.477C229.022 195.279 229.207 195.019 229.327 194.696C229.447 194.373 229.507 194.023 229.507 193.647C229.507 193.27 229.447 192.919 229.327 192.594C229.207 192.268 229.022 192.005 228.773 191.805C228.524 191.604 228.206 191.504 227.819 191.504C227.433 191.504 227.115 191.604 226.865 191.805C226.616 192.005 226.431 192.268 226.311 192.594C226.192 192.919 226.132 193.27 226.132 193.647C226.132 194.023 226.192 194.373 226.311 194.696C226.431 195.019 226.616 195.279 226.865 195.477C227.115 195.675 227.433 195.774 227.819 195.774ZM236.1 190.8L234.016 196.435H233.136L231.052 190.8H231.991L233.547 195.29H233.605L235.161 190.8H236.1Z" fill="#535862"/>
<path d="M261.508 196.435H259.19V188.922H261.611C262.34 188.922 262.964 189.072 263.482 189.373C264.001 189.671 264.398 190.1 264.674 190.66C264.951 191.218 265.089 191.886 265.089 192.663C265.089 193.446 264.949 194.12 264.671 194.685C264.392 195.247 263.986 195.68 263.453 195.983C262.92 196.284 262.271 196.435 261.508 196.435ZM260.1 195.628H261.45C262.071 195.628 262.586 195.508 262.994 195.268C263.403 195.028 263.707 194.687 263.908 194.244C264.108 193.802 264.208 193.275 264.208 192.663C264.208 192.057 264.109 191.535 263.911 191.097C263.713 190.657 263.417 190.319 263.023 190.084C262.63 189.847 262.139 189.729 261.552 189.729H260.1V195.628ZM268.86 196.552C268.317 196.552 267.849 196.432 267.455 196.192C267.064 195.95 266.762 195.613 266.549 195.18C266.339 194.745 266.233 194.238 266.233 193.661C266.233 193.084 266.339 192.575 266.549 192.135C266.762 191.692 267.058 191.348 267.437 191.101C267.818 190.851 268.263 190.726 268.772 190.726C269.065 190.726 269.355 190.775 269.641 190.873C269.928 190.971 270.188 191.13 270.423 191.35C270.658 191.568 270.845 191.856 270.984 192.216C271.123 192.575 271.193 193.018 271.193 193.544V193.911H266.85V193.162H270.313C270.313 192.844 270.249 192.561 270.122 192.311C269.997 192.062 269.819 191.865 269.586 191.721C269.356 191.576 269.085 191.504 268.772 191.504C268.427 191.504 268.129 191.59 267.877 191.761C267.627 191.93 267.435 192.15 267.301 192.421C267.166 192.693 267.099 192.984 267.099 193.294V193.793C267.099 194.219 267.173 194.58 267.319 194.875C267.468 195.169 267.675 195.393 267.939 195.547C268.203 195.698 268.51 195.774 268.86 195.774C269.087 195.774 269.293 195.742 269.476 195.679C269.662 195.613 269.822 195.515 269.957 195.385C270.091 195.253 270.195 195.089 270.269 194.894L271.105 195.129C271.017 195.412 270.869 195.662 270.661 195.877C270.453 196.09 270.197 196.256 269.891 196.376C269.585 196.493 269.242 196.552 268.86 196.552ZM274.799 196.552C274.271 196.552 273.816 196.427 273.435 196.178C273.053 195.928 272.76 195.585 272.554 195.147C272.349 194.709 272.246 194.209 272.246 193.647C272.246 193.074 272.351 192.569 272.562 192.131C272.774 191.691 273.07 191.348 273.449 191.101C273.831 190.851 274.276 190.726 274.785 190.726C275.181 190.726 275.538 190.8 275.856 190.947C276.174 191.093 276.434 191.299 276.637 191.563C276.84 191.827 276.966 192.135 277.015 192.487H276.149C276.083 192.23 275.937 192.003 275.709 191.805C275.484 191.604 275.181 191.504 274.799 191.504C274.462 191.504 274.166 191.592 273.912 191.768C273.66 191.942 273.463 192.188 273.321 192.506C273.181 192.821 273.112 193.192 273.112 193.617C273.112 194.053 273.18 194.432 273.317 194.754C273.457 195.077 273.652 195.328 273.904 195.506C274.159 195.685 274.457 195.774 274.799 195.774C275.024 195.774 275.228 195.735 275.412 195.657C275.595 195.579 275.751 195.466 275.878 195.319C276.005 195.173 276.095 194.997 276.149 194.791H277.015C276.966 195.124 276.845 195.423 276.652 195.69C276.461 195.954 276.208 196.164 275.892 196.321C275.579 196.475 275.215 196.552 274.799 196.552Z" fill="#535862"/>
<g clip-path="url(#clip0_56_1791)">
<mask id="mask0_56_1791" style="mask-type:alpha" maskUnits="userSpaceOnUse" x="12" y="55" width="273" height="122">
<rect width="272.278" height="121.313" transform="translate(12.375 55.4868)" fill="url(#paint0_linear_56_1791)"/>
</mask>
<g mask="url(#mask0_56_1791)">
<path opacity="0.05" d="M284.653 176.8H12.375V136.12C13.8218 136.119 15.2604 135.515 16.2812 134.335L18.1719 132.15C19.1259 131.047 20.3766 129.607 21.7988 128.287C23.2948 126.897 24.5715 126.034 25.4727 125.708C26.1877 125.451 27.0838 125.395 28.6738 125.619C29.5219 125.738 30.2685 125.885 31.3604 126.071C32.3561 126.241 33.539 126.423 34.79 126.49C40.0969 126.773 45.2102 124.939 49.9131 120.597C52.0534 118.621 54.2675 115.937 55.9424 114.053C57.888 111.865 59.2273 110.603 60.207 110.074C60.8148 109.746 61.4906 109.624 62.6963 109.796C63.3417 109.889 64.0575 110.054 64.9551 110.289C65.7572 110.499 66.8957 110.819 67.9307 111.059C70.0614 111.554 72.2654 111.844 73.9678 112.112C75.7895 112.399 77.3108 112.695 78.7529 113.195C79.6267 113.498 80.2095 113.764 81.4375 114.233C82.4679 114.626 83.8024 115.095 85.2695 115.339C86.7871 115.592 88.5586 115.625 90.4365 115.062C92.3299 114.494 94.0078 113.418 95.4727 111.928C98.0279 109.33 100.279 105.008 102.05 101.583C104.062 97.6899 105.701 94.4247 107.248 92.3862C108.614 90.5867 109.443 90.4141 109.633 90.3833C109.935 90.3344 110.627 90.3561 112.044 91.1138C112.749 91.4907 113.509 91.9802 114.464 92.6128C115.349 93.1992 116.454 93.9431 117.57 94.5874C119.674 95.8012 123.072 97.4348 126.989 96.5278C128.863 96.094 130.441 95.1641 131.636 94.3228C132.848 93.469 133.99 92.4672 134.93 91.6313C135.947 90.7262 136.737 90.007 137.525 89.3872C138.316 88.7655 138.804 88.4907 139.068 88.3862C139.361 88.2705 139.892 88.1718 141.388 88.6108C142.161 88.8378 142.906 89.1156 143.964 89.4878C144.93 89.8278 146.131 90.235 147.407 90.5151C150.01 91.0863 152.475 91.0343 154.526 90.8989C156.841 90.7462 158.186 90.5485 159.918 90.5288C161.469 90.5111 163.072 90.6678 165.006 90.8657C166.841 91.0536 169.015 91.2843 171.232 91.272C175.494 91.2482 180.045 90.2703 183.296 89.7954C186.885 89.2712 190.426 89.0331 194.348 88.687C198.159 88.3507 202.356 87.9094 206.637 86.7056C208.759 86.1086 210.839 85.3414 212.71 84.646C214.648 83.9257 216.365 83.2827 218.058 82.7788C221.344 81.8002 226.854 80.9274 231.83 75.1919C233.985 72.7081 236.245 69.0094 237.872 66.6177C238.784 65.2775 239.57 64.212 240.272 63.4331C240.547 63.129 240.763 62.9212 240.919 62.7827C241.156 62.8993 241.526 63.1045 242.061 63.4644C242.449 63.726 242.856 64.0181 243.329 64.3618C243.779 64.6888 244.309 65.0765 244.841 65.4448C245.871 66.1583 247.257 67.0514 248.84 67.6323C252.257 68.886 255.438 68.3124 257.808 67.5845C258.987 67.2221 260.119 66.7721 261.056 66.395C262.058 65.9916 262.841 65.6715 263.61 65.4126C265.097 64.9124 266.65 64.6077 268.523 64.2808C270.299 63.9709 272.49 63.6229 274.68 63.02C278.712 61.9096 282.629 59.9764 284.653 58.9517V176.8Z" fill="#7F56D9"/>
</g>
<path d="M12.375 130.956L14.2658 128.77C16.1566 126.584 19.9383 122.213 23.7199 120.849C27.5016 119.485 31.2832 121.129 35.0649 121.331C38.8465 121.533 42.6281 120.293 46.4098 116.802C50.1914 113.31 53.9731 107.568 57.7547 105.528C61.5364 103.487 65.318 105.149 69.0996 106.028C72.8813 106.907 76.6629 107.003 80.4446 108.314C84.2262 109.625 88.0079 112.151 91.7895 108.306C95.5711 104.46 99.3528 94.2437 103.134 89.2626C106.916 84.2815 110.698 84.5358 114.479 86.5581C118.261 88.5805 122.043 92.3708 125.824 91.4951C129.606 90.6193 133.388 85.0776 137.169 83.5827C140.951 82.0878 144.733 84.6398 148.514 85.4696C152.296 86.2993 156.077 85.4069 159.859 85.3638C163.641 85.3207 167.422 86.1269 171.204 86.1059C174.986 86.0848 178.767 85.2364 182.549 84.684C186.331 84.1317 190.112 83.8754 193.894 83.5416C197.676 83.2079 201.457 82.7966 205.239 81.7331C209.02 80.6697 212.802 78.954 216.584 77.828C220.365 76.7021 224.147 76.1659 227.929 71.8066C231.71 67.4474 235.492 59.265 239.274 57.7519C243.055 56.2388 246.837 61.395 250.619 62.7825C254.4 64.1699 258.182 61.7886 261.963 60.5165C265.745 59.2444 269.527 59.0814 273.308 58.04C277.09 56.9987 280.872 55.0789 282.762 54.119L284.653 53.1592" stroke="#FACD2D" stroke-width="1.72174" stroke-linecap="round" stroke-linejoin="round"/>
</g>
<defs>
<linearGradient id="paint0_linear_56_1791" x1="136.139" y1="0" x2="136.139" y2="121.313" gradientUnits="userSpaceOnUse">
<stop/>
<stop offset="1" stop-opacity="0"/>
</linearGradient>
<clipPath id="clip0_56_1791">
<rect width="272.278" height="133.365" fill="white" transform="translate(12.375 43.4346)"/>
</clipPath>
</defs>
</svg>
