<svg width="384" height="273" viewBox="0 0 384 273" fill="none" xmlns="http://www.w3.org/2000/svg">
<rect width="384" height="273" rx="4" fill="#F0EEE9"/>
<rect x="44.4798" y="64.4798" width="295.04" height="143.896" rx="11.0347" fill="white"/>
<rect x="44.4798" y="64.4798" width="295.04" height="143.896" rx="11.0347" stroke="#EAECF0" stroke-width="0.959538"/>
<path d="M58.9275 90.5146L55.8309 79.3491H57.6027L59.778 87.9959H59.8816L62.1442 79.3491H63.8997L66.1622 88.0013H66.2658L68.4357 79.3491H70.213L67.1109 90.5146H65.4153L63.0656 82.1514H62.9783L60.6285 90.5146H58.9275ZM74.321 90.6837C73.536 90.6837 72.8508 90.5037 72.2657 90.1439C71.6805 89.7841 71.2262 89.2807 70.9027 88.6337C70.5792 87.9868 70.4175 87.2308 70.4175 86.3657C70.4175 85.4971 70.5792 84.7374 70.9027 84.0868C71.2262 83.4362 71.6805 82.931 72.2657 82.5712C72.8508 82.2114 73.536 82.0315 74.321 82.0315C75.1061 82.0315 75.7912 82.2114 76.3764 82.5712C76.9616 82.931 77.4159 83.4362 77.7394 84.0868C78.0629 84.7374 78.2246 85.4971 78.2246 86.3657C78.2246 87.2308 78.0629 87.9868 77.7394 88.6337C77.4159 89.2807 76.9616 89.7841 76.3764 90.1439C75.7912 90.5037 75.1061 90.6837 74.321 90.6837ZM74.3265 89.3152C74.8353 89.3152 75.257 89.1807 75.5913 88.9118C75.9257 88.6428 76.1729 88.2848 76.3328 87.8378C76.4964 87.3907 76.5781 86.8982 76.5781 86.3603C76.5781 85.826 76.4964 85.3353 76.3328 84.8883C76.1729 84.4376 75.9257 84.0759 75.5913 83.8033C75.257 83.5307 74.8353 83.3944 74.3265 83.3944C73.814 83.3944 73.3888 83.5307 73.0507 83.8033C72.7164 84.0759 72.4674 84.4376 72.3038 84.8883C72.1439 85.3353 72.0639 85.826 72.0639 86.3603C72.0639 86.8982 72.1439 87.3907 72.3038 87.8378C72.4674 88.2848 72.7164 88.6428 73.0507 88.9118C73.3888 89.1807 73.814 89.3152 74.3265 89.3152ZM80.0442 90.5146V82.1405H81.6198V83.4708H81.707C81.8597 83.0201 82.1286 82.6657 82.5139 82.4076C82.9028 82.146 83.3426 82.0151 83.8333 82.0151C83.935 82.0151 84.055 82.0187 84.1931 82.026C84.3348 82.0333 84.4457 82.0424 84.5257 82.0533V83.6125C84.4602 83.5943 84.3439 83.5744 84.1767 83.5525C84.0096 83.5271 83.8424 83.5144 83.6752 83.5144C83.2899 83.5144 82.9464 83.5962 82.6448 83.7597C82.3467 83.9196 82.1105 84.1432 81.936 84.4303C81.7615 84.7138 81.6743 85.0373 81.6743 85.4007V90.5146H80.0442ZM87.4356 87.6742L87.4247 85.6842H87.7082L91.0448 82.1405H92.9966L89.1911 86.1749H88.9349L87.4356 87.6742ZM85.9364 90.5146V79.3491H87.5665V90.5146H85.9364ZM91.2247 90.5146L88.2262 86.5347L89.3493 85.3953L93.2256 90.5146H91.2247ZM98.4676 82.1405V83.449H93.7353V82.1405H98.4676ZM95.0329 90.5146V81.1701C95.0329 80.6467 95.1474 80.2123 95.3763 79.8671C95.6053 79.5181 95.9088 79.2583 96.2868 79.0874C96.6648 78.913 97.0755 78.8257 97.519 78.8257C97.8461 78.8257 98.1259 78.853 98.3585 78.9075C98.5912 78.9584 98.7638 79.0056 98.8765 79.0493L98.4948 80.3686C98.4185 80.3468 98.3204 80.3214 98.2004 80.2923C98.0805 80.2596 97.9351 80.2432 97.7643 80.2432C97.3681 80.2432 97.0846 80.3414 96.9138 80.5376C96.7466 80.7339 96.663 81.0174 96.663 81.3881V90.5146H95.0329ZM101.78 79.3491V90.5146H100.15V79.3491H101.78ZM107.5 90.6837C106.715 90.6837 106.03 90.5037 105.445 90.1439C104.86 89.7841 104.405 89.2807 104.082 88.6337C103.758 87.9868 103.596 87.2308 103.596 86.3657C103.596 85.4971 103.758 84.7374 104.082 84.0868C104.405 83.4362 104.86 82.931 105.445 82.5712C106.03 82.2114 106.715 82.0315 107.5 82.0315C108.285 82.0315 108.97 82.2114 109.555 82.5712C110.141 82.931 110.595 83.4362 110.918 84.0868C111.242 84.7374 111.404 85.4971 111.404 86.3657C111.404 87.2308 111.242 87.9868 110.918 88.6337C110.595 89.2807 110.141 89.7841 109.555 90.1439C108.97 90.5037 108.285 90.6837 107.5 90.6837ZM107.506 89.3152C108.014 89.3152 108.436 89.1807 108.77 88.9118C109.105 88.6428 109.352 88.2848 109.512 87.8378C109.675 87.3907 109.757 86.8982 109.757 86.3603C109.757 85.826 109.675 85.3353 109.512 84.8883C109.352 84.4376 109.105 84.0759 108.77 83.8033C108.436 83.5307 108.014 83.3944 107.506 83.3944C106.993 83.3944 106.568 83.5307 106.23 83.8033C105.895 84.0759 105.646 84.4376 105.483 84.8883C105.323 85.3353 105.243 85.826 105.243 86.3603C105.243 86.8982 105.323 87.3907 105.483 87.8378C105.646 88.2848 105.895 88.6428 106.23 88.9118C106.568 89.1807 106.993 89.3152 107.506 89.3152ZM114.784 90.5146L112.32 82.1405H114.004L115.645 88.2903H115.727L117.373 82.1405H119.058L120.694 88.263H120.775L122.406 82.1405H124.09L121.631 90.5146H119.969L118.268 84.4685H118.142L116.441 90.5146H114.784ZM130.774 90.5146H128.986L133.004 79.3491H134.95L138.969 90.5146H137.18L134.024 81.3772H133.936L130.774 90.5146ZM131.074 86.1422H136.875V87.5597H131.074V86.1422ZM145.755 87.0418V82.1405H147.39V90.5146H145.788V89.0644H145.7C145.508 89.5115 145.199 89.884 144.773 90.1821C144.352 90.4765 143.827 90.6237 143.198 90.6237C142.66 90.6237 142.184 90.5056 141.769 90.2693C141.359 90.0294 141.035 89.6751 140.799 89.2062C140.566 88.7373 140.45 88.1576 140.45 87.467V82.1405H142.08V87.2708C142.08 87.8414 142.238 88.2957 142.555 88.6337C142.871 88.9718 143.281 89.1408 143.787 89.1408C144.092 89.1408 144.395 89.0644 144.697 88.9118C145.002 88.7591 145.255 88.5283 145.455 88.2194C145.658 87.9104 145.758 87.5179 145.755 87.0418ZM153.49 82.1405V83.449H148.916V82.1405H153.49ZM150.142 80.1342H151.772V88.0558C151.772 88.372 151.82 88.6101 151.914 88.77C152.009 88.9263 152.13 89.0335 152.279 89.0917C152.432 89.1462 152.597 89.1735 152.775 89.1735C152.906 89.1735 153.021 89.1644 153.119 89.1462C153.217 89.128 153.293 89.1135 153.348 89.1026L153.642 90.4492C153.548 90.4856 153.413 90.5219 153.239 90.5583C153.064 90.5982 152.846 90.6201 152.585 90.6237C152.156 90.631 151.756 90.5546 151.385 90.3947C151.015 90.2348 150.715 89.9876 150.486 89.6532C150.257 89.3189 150.142 88.8991 150.142 88.3939V80.1342ZM158.73 90.6837C157.945 90.6837 157.26 90.5037 156.675 90.1439C156.09 89.7841 155.635 89.2807 155.312 88.6337C154.989 87.9868 154.827 87.2308 154.827 86.3657C154.827 85.4971 154.989 84.7374 155.312 84.0868C155.635 83.4362 156.09 82.931 156.675 82.5712C157.26 82.2114 157.945 82.0315 158.73 82.0315C159.515 82.0315 160.201 82.2114 160.786 82.5712C161.371 82.931 161.825 83.4362 162.149 84.0868C162.472 84.7374 162.634 85.4971 162.634 86.3657C162.634 87.2308 162.472 87.9868 162.149 88.6337C161.825 89.2807 161.371 89.7841 160.786 90.1439C160.201 90.5037 159.515 90.6837 158.73 90.6837ZM158.736 89.3152C159.245 89.3152 159.666 89.1807 160.001 88.9118C160.335 88.6428 160.582 88.2848 160.742 87.8378C160.906 87.3907 160.987 86.8982 160.987 86.3603C160.987 85.826 160.906 85.3353 160.742 84.8883C160.582 84.4376 160.335 84.0759 160.001 83.8033C159.666 83.5307 159.245 83.3944 158.736 83.3944C158.223 83.3944 157.798 83.5307 157.46 83.8033C157.126 84.0759 156.877 84.4376 156.713 84.8883C156.553 85.3353 156.473 85.826 156.473 86.3603C156.473 86.8982 156.553 87.3907 156.713 87.8378C156.877 88.2848 157.126 88.6428 157.46 88.9118C157.798 89.1807 158.223 89.3152 158.736 89.3152ZM164.454 90.5146V82.1405H166.018V83.5035H166.122C166.296 83.0419 166.582 82.6821 166.978 82.424C167.374 82.1623 167.848 82.0315 168.401 82.0315C168.96 82.0315 169.429 82.1623 169.807 82.424C170.189 82.6857 170.471 83.0455 170.652 83.5035H170.74C170.939 83.0564 171.258 82.7002 171.694 82.4349C172.13 82.1659 172.65 82.0315 173.253 82.0315C174.013 82.0315 174.632 82.2695 175.112 82.7457C175.595 83.2218 175.837 83.9396 175.837 84.8992V90.5146H174.207V85.0518C174.207 84.4848 174.053 84.0741 173.744 83.8197C173.435 83.5653 173.066 83.4381 172.637 83.4381C172.106 83.4381 171.694 83.6016 171.399 83.9287C171.105 84.2522 170.958 84.6684 170.958 85.1772V90.5146H169.333V84.9482C169.333 84.4939 169.191 84.1286 168.908 83.8524C168.624 83.5762 168.255 83.4381 167.801 83.4381C167.492 83.4381 167.207 83.5198 166.945 83.6834C166.687 83.8433 166.478 84.0668 166.318 84.354C166.162 84.6411 166.084 84.9737 166.084 85.3517V90.5146H164.454ZM180.459 90.7C179.928 90.7 179.449 90.6019 179.02 90.4056C178.591 90.2057 178.251 89.9168 178 89.5388C177.753 89.1608 177.629 88.6973 177.629 88.1485C177.629 87.676 177.72 87.2871 177.902 86.9818C178.084 86.6765 178.329 86.4348 178.638 86.2567C178.947 86.0786 179.292 85.9441 179.674 85.8533C180.056 85.7624 180.444 85.6933 180.841 85.6461C181.342 85.5879 181.749 85.5407 182.062 85.5043C182.374 85.4644 182.602 85.4007 182.743 85.3135C182.885 85.2263 182.956 85.0845 182.956 84.8883V84.8501C182.956 84.374 182.821 84.0051 182.553 83.7434C182.287 83.4817 181.891 83.3508 181.364 83.3508C180.815 83.3508 180.383 83.4726 180.066 83.7161C179.754 83.956 179.538 84.2231 179.418 84.5175L177.886 84.1686C178.067 83.6598 178.333 83.2491 178.682 82.9365C179.034 82.6203 179.439 82.3913 179.897 82.2495C180.355 82.1042 180.837 82.0315 181.342 82.0315C181.677 82.0315 182.031 82.0714 182.405 82.1514C182.783 82.2277 183.136 82.3695 183.463 82.5767C183.794 82.7838 184.065 83.08 184.275 83.4653C184.486 83.847 184.592 84.3431 184.592 84.9537V90.5146H183V89.3697H182.934C182.829 89.5806 182.671 89.7877 182.46 89.9913C182.249 90.1948 181.978 90.3638 181.648 90.4983C181.317 90.6328 180.921 90.7 180.459 90.7ZM180.813 89.3916C181.264 89.3916 181.649 89.3025 181.969 89.1244C182.293 88.9463 182.538 88.7137 182.705 88.4266C182.876 88.1358 182.961 87.825 182.961 87.4943V86.4148C182.903 86.473 182.791 86.5275 182.623 86.5784C182.46 86.6256 182.273 86.6674 182.062 86.7038C181.851 86.7365 181.646 86.7674 181.446 86.7964C181.246 86.8219 181.079 86.8437 180.944 86.8619C180.628 86.9018 180.339 86.9691 180.077 87.0636C179.819 87.1581 179.612 87.2944 179.456 87.4725C179.303 87.6469 179.227 87.8796 179.227 88.1703C179.227 88.5738 179.376 88.8791 179.674 89.0862C179.972 89.2898 180.352 89.3916 180.813 89.3916ZM190.672 82.1405V83.449H186.098V82.1405H190.672ZM187.324 80.1342H188.954V88.0558C188.954 88.372 189.002 88.6101 189.096 88.77C189.191 88.9263 189.312 89.0335 189.461 89.0917C189.614 89.1462 189.779 89.1735 189.958 89.1735C190.088 89.1735 190.203 89.1644 190.301 89.1462C190.399 89.128 190.476 89.1135 190.53 89.1026L190.824 90.4492C190.73 90.4856 190.595 90.5219 190.421 90.5583C190.247 90.5982 190.028 90.6201 189.767 90.6237C189.338 90.631 188.938 90.5546 188.567 90.3947C188.197 90.2348 187.897 89.9876 187.668 89.6532C187.439 89.3189 187.324 88.8991 187.324 88.3939V80.1342ZM192.475 90.5146V82.1405H194.105V90.5146H192.475ZM193.298 80.8484C193.015 80.8484 192.771 80.7539 192.568 80.5649C192.368 80.3723 192.268 80.1433 192.268 79.878C192.268 79.609 192.368 79.38 192.568 79.191C192.771 78.9984 193.015 78.9021 193.298 78.9021C193.582 78.9021 193.823 78.9984 194.023 79.191C194.227 79.38 194.329 79.609 194.329 79.878C194.329 80.1433 194.227 80.3723 194.023 80.5649C193.823 80.7539 193.582 80.8484 193.298 80.8484ZM199.826 90.6837C199.04 90.6837 198.355 90.5037 197.77 90.1439C197.185 89.7841 196.731 89.2807 196.407 88.6337C196.084 87.9868 195.922 87.2308 195.922 86.3657C195.922 85.4971 196.084 84.7374 196.407 84.0868C196.731 83.4362 197.185 82.931 197.77 82.5712C198.355 82.2114 199.04 82.0315 199.826 82.0315C200.611 82.0315 201.296 82.2114 201.881 82.5712C202.466 82.931 202.92 83.4362 203.244 84.0868C203.567 84.7374 203.729 85.4971 203.729 86.3657C203.729 87.2308 203.567 87.9868 203.244 88.6337C202.92 89.2807 202.466 89.7841 201.881 90.1439C201.296 90.5037 200.611 90.6837 199.826 90.6837ZM199.831 89.3152C200.34 89.3152 200.761 89.1807 201.096 88.9118C201.43 88.6428 201.677 88.2848 201.837 87.8378C202.001 87.3907 202.083 86.8982 202.083 86.3603C202.083 85.826 202.001 85.3353 201.837 84.8883C201.677 84.4376 201.43 84.0759 201.096 83.8033C200.761 83.5307 200.34 83.3944 199.831 83.3944C199.319 83.3944 198.893 83.5307 198.555 83.8033C198.221 84.0759 197.972 84.4376 197.808 84.8883C197.648 85.3353 197.568 85.826 197.568 86.3603C197.568 86.8982 197.648 87.3907 197.808 87.8378C197.972 88.2848 198.221 88.6428 198.555 88.9118C198.893 89.1807 199.319 89.3152 199.831 89.3152ZM207.179 85.5425V90.5146H205.549V82.1405H207.113V83.5035H207.217C207.41 83.0601 207.711 82.7039 208.122 82.4349C208.536 82.1659 209.058 82.0315 209.687 82.0315C210.257 82.0315 210.757 82.1514 211.186 82.3913C211.615 82.6275 211.947 82.9801 212.184 83.449C212.42 83.9178 212.538 84.4975 212.538 85.1881V90.5146H210.908V85.3844C210.908 84.7774 210.75 84.3031 210.434 83.9614C210.117 83.6162 209.683 83.4435 209.131 83.4435C208.753 83.4435 208.416 83.5253 208.122 83.6888C207.831 83.8524 207.6 84.0923 207.43 84.4085C207.262 84.7211 207.179 85.0991 207.179 85.5425Z" fill="#0F172A"/>
<rect x="55.5146" y="107.029" width="36" height="36" rx="18" fill="#FFF9E6"/>
<path d="M69.9164 125.029L72.3153 127.428L77.113 122.63M81.5108 125.029C81.5108 129.445 77.9309 133.025 73.5147 133.025C69.0986 133.025 65.5186 129.445 65.5186 125.029C65.5186 120.613 69.0986 117.033 73.5147 117.033C77.9309 117.033 81.5108 120.613 81.5108 125.029Z" stroke="#FACD2D" stroke-width="1.53526" stroke-linecap="round" stroke-linejoin="round"/>
<path d="M107.233 114.594C107.188 114.191 107 113.878 106.671 113.657C106.341 113.432 105.927 113.32 105.427 113.32C105.069 113.32 104.759 113.377 104.498 113.49C104.236 113.601 104.033 113.755 103.888 113.951C103.746 114.144 103.675 114.364 103.675 114.611C103.675 114.819 103.723 114.998 103.82 115.148C103.919 115.299 104.049 115.425 104.208 115.527C104.37 115.627 104.543 115.711 104.728 115.779C104.912 115.844 105.09 115.898 105.26 115.941L106.113 116.162C106.391 116.231 106.677 116.323 106.969 116.439C107.262 116.556 107.533 116.709 107.783 116.9C108.033 117.09 108.235 117.326 108.388 117.607C108.544 117.888 108.623 118.225 108.623 118.617C108.623 119.111 108.495 119.55 108.239 119.934C107.986 120.317 107.618 120.62 107.135 120.841C106.655 121.063 106.074 121.174 105.392 121.174C104.739 121.174 104.174 121.07 103.696 120.863C103.219 120.655 102.846 120.361 102.576 119.981C102.306 119.597 102.157 119.142 102.128 118.617H103.449C103.475 118.932 103.577 119.195 103.756 119.405C103.938 119.613 104.169 119.767 104.451 119.87C104.735 119.969 105.046 120.019 105.384 120.019C105.756 120.019 106.087 119.961 106.377 119.844C106.669 119.725 106.9 119.56 107.067 119.35C107.235 119.137 107.319 118.888 107.319 118.604C107.319 118.346 107.245 118.134 107.097 117.969C106.952 117.804 106.755 117.668 106.505 117.56C106.258 117.452 105.978 117.357 105.665 117.275L104.634 116.993C103.935 116.803 103.381 116.523 102.972 116.154C102.566 115.784 102.363 115.296 102.363 114.688C102.363 114.185 102.499 113.746 102.772 113.371C103.044 112.996 103.414 112.705 103.88 112.498C104.346 112.287 104.871 112.182 105.456 112.182C106.047 112.182 106.569 112.286 107.02 112.493C107.475 112.701 107.833 112.986 108.094 113.35C108.356 113.711 108.492 114.125 108.503 114.594H107.233ZM112.851 121.161C112.217 121.161 111.672 121.017 111.215 120.731C110.76 120.441 110.411 120.042 110.166 119.533C109.922 119.025 109.8 118.442 109.8 117.786C109.8 117.121 109.925 116.534 110.175 116.026C110.425 115.515 110.777 115.115 111.232 114.829C111.686 114.542 112.222 114.398 112.838 114.398C113.335 114.398 113.778 114.49 114.168 114.675C114.557 114.857 114.871 115.113 115.109 115.442C115.351 115.772 115.494 116.157 115.54 116.597H114.3C114.232 116.29 114.075 116.026 113.831 115.804C113.59 115.583 113.266 115.472 112.859 115.472C112.504 115.472 112.193 115.566 111.926 115.753C111.662 115.938 111.456 116.202 111.308 116.546C111.161 116.887 111.087 117.29 111.087 117.756C111.087 118.233 111.159 118.645 111.304 118.992C111.449 119.338 111.653 119.607 111.918 119.797C112.185 119.988 112.499 120.083 112.859 120.083C113.101 120.083 113.32 120.039 113.516 119.951C113.715 119.86 113.881 119.731 114.014 119.563C114.151 119.395 114.246 119.194 114.3 118.958H115.54C115.494 119.381 115.357 119.759 115.127 120.091C114.896 120.424 114.588 120.685 114.202 120.875C113.818 121.066 113.368 121.161 112.851 121.161ZM118.177 117.142V121.029H116.902V112.302H118.16V115.549H118.241C118.394 115.196 118.628 114.917 118.944 114.709C119.259 114.502 119.671 114.398 120.179 114.398C120.628 114.398 121.02 114.49 121.356 114.675C121.694 114.86 121.955 115.135 122.14 115.502C122.327 115.865 122.421 116.32 122.421 116.865V121.029H121.147V117.019C121.147 116.539 121.023 116.167 120.776 115.902C120.529 115.635 120.185 115.502 119.745 115.502C119.444 115.502 119.174 115.566 118.935 115.694C118.699 115.821 118.513 116.009 118.377 116.256C118.243 116.5 118.177 116.796 118.177 117.142ZM126.942 121.161C126.297 121.161 125.742 121.023 125.276 120.748C124.813 120.469 124.455 120.079 124.202 119.576C123.952 119.07 123.827 118.478 123.827 117.799C123.827 117.128 123.952 116.537 124.202 116.026C124.455 115.515 124.807 115.115 125.259 114.829C125.714 114.542 126.245 114.398 126.853 114.398C127.222 114.398 127.58 114.459 127.927 114.581C128.273 114.704 128.584 114.895 128.86 115.157C129.135 115.418 129.353 115.758 129.512 116.175C129.671 116.59 129.75 117.094 129.75 117.688V118.14H124.547V117.185H128.502C128.502 116.85 128.434 116.553 128.297 116.294C128.161 116.033 127.969 115.827 127.722 115.677C127.478 115.526 127.191 115.451 126.861 115.451C126.503 115.451 126.191 115.539 125.924 115.715C125.66 115.888 125.455 116.115 125.31 116.397C125.168 116.675 125.097 116.978 125.097 117.304V118.05C125.097 118.488 125.174 118.86 125.327 119.167C125.483 119.473 125.701 119.708 125.979 119.87C126.258 120.029 126.583 120.108 126.955 120.108C127.196 120.108 127.417 120.074 127.616 120.006C127.814 119.935 127.986 119.83 128.131 119.691C128.276 119.552 128.387 119.38 128.464 119.175L129.669 119.392C129.573 119.748 129.4 120.059 129.15 120.326C128.902 120.59 128.591 120.796 128.216 120.944C127.844 121.088 127.419 121.161 126.942 121.161ZM133.614 121.157C133.086 121.157 132.614 121.022 132.2 120.752C131.788 120.479 131.464 120.091 131.228 119.588C130.995 119.083 130.879 118.476 130.879 117.769C130.879 117.061 130.997 116.456 131.232 115.954C131.471 115.451 131.798 115.066 132.212 114.799C132.627 114.532 133.097 114.398 133.623 114.398C134.029 114.398 134.356 114.466 134.603 114.603C134.853 114.736 135.046 114.892 135.183 115.071C135.322 115.25 135.43 115.408 135.506 115.544H135.583V112.302H136.857V121.029H135.613V120.01H135.506C135.43 120.15 135.319 120.309 135.174 120.488C135.032 120.667 134.836 120.823 134.586 120.956C134.336 121.09 134.012 121.157 133.614 121.157ZM133.896 120.07C134.262 120.07 134.572 119.973 134.825 119.78C135.08 119.584 135.274 119.313 135.404 118.966C135.538 118.62 135.604 118.216 135.604 117.756C135.604 117.302 135.539 116.904 135.408 116.563C135.278 116.222 135.086 115.956 134.833 115.766C134.58 115.576 134.268 115.481 133.896 115.481C133.512 115.481 133.193 115.58 132.937 115.779C132.681 115.978 132.488 116.249 132.357 116.593C132.229 116.936 132.166 117.324 132.166 117.756C132.166 118.194 132.231 118.587 132.362 118.936C132.492 119.286 132.685 119.563 132.941 119.767C133.2 119.969 133.518 120.07 133.896 120.07ZM142.822 118.314V114.483H144.101V121.029H142.848V119.895H142.78C142.629 120.245 142.388 120.536 142.055 120.769C141.726 120.999 141.315 121.114 140.824 121.114C140.403 121.114 140.031 121.022 139.707 120.837C139.386 120.65 139.133 120.373 138.949 120.006C138.767 119.64 138.676 119.186 138.676 118.647V114.483H139.95V118.493C139.95 118.939 140.074 119.294 140.321 119.559C140.568 119.823 140.889 119.955 141.284 119.955C141.522 119.955 141.76 119.895 141.995 119.776C142.234 119.657 142.432 119.476 142.588 119.235C142.747 118.993 142.825 118.686 142.822 118.314ZM147.087 112.302V121.029H145.813V112.302H147.087ZM151.622 121.161C150.977 121.161 150.422 121.023 149.956 120.748C149.493 120.469 149.135 120.079 148.882 119.576C148.632 119.07 148.507 118.478 148.507 117.799C148.507 117.128 148.632 116.537 148.882 116.026C149.135 115.515 149.487 115.115 149.939 114.829C150.393 114.542 150.924 114.398 151.532 114.398C151.902 114.398 152.26 114.459 152.606 114.581C152.953 114.704 153.264 114.895 153.54 115.157C153.815 115.418 154.032 115.758 154.191 116.175C154.351 116.59 154.43 117.094 154.43 117.688V118.14H149.227V117.185H153.182C153.182 116.85 153.113 116.553 152.977 116.294C152.841 116.033 152.649 115.827 152.402 115.677C152.157 115.526 151.87 115.451 151.541 115.451C151.183 115.451 150.87 115.539 150.603 115.715C150.339 115.888 150.135 116.115 149.99 116.397C149.848 116.675 149.777 116.978 149.777 117.304V118.05C149.777 118.488 149.853 118.86 150.007 119.167C150.163 119.473 150.38 119.708 150.659 119.87C150.937 120.029 151.263 120.108 151.635 120.108C151.876 120.108 152.096 120.074 152.295 120.006C152.494 119.935 152.666 119.83 152.811 119.691C152.956 119.552 153.066 119.38 153.143 119.175L154.349 119.392C154.253 119.748 154.079 120.059 153.829 120.326C153.582 120.59 153.271 120.796 152.896 120.944C152.524 121.088 152.099 121.161 151.622 121.161ZM163.924 116.081L162.77 116.286C162.721 116.138 162.645 115.998 162.54 115.864C162.437 115.731 162.298 115.621 162.122 115.536C161.946 115.451 161.726 115.408 161.461 115.408C161.101 115.408 160.799 115.489 160.558 115.651C160.316 115.81 160.196 116.016 160.196 116.269C160.196 116.488 160.277 116.664 160.439 116.797C160.601 116.931 160.862 117.04 161.223 117.125L162.263 117.364C162.865 117.503 163.314 117.718 163.609 118.008C163.905 118.297 164.052 118.674 164.052 119.137C164.052 119.529 163.939 119.878 163.711 120.185C163.487 120.489 163.173 120.728 162.77 120.901C162.369 121.074 161.905 121.161 161.376 121.161C160.643 121.161 160.045 121.005 159.582 120.692C159.119 120.377 158.835 119.929 158.73 119.35L159.961 119.162C160.038 119.483 160.196 119.726 160.434 119.891C160.673 120.053 160.984 120.134 161.368 120.134C161.785 120.134 162.119 120.047 162.369 119.874C162.619 119.698 162.744 119.483 162.744 119.231C162.744 119.026 162.667 118.854 162.514 118.715C162.363 118.576 162.132 118.471 161.819 118.4L160.711 118.157C160.101 118.017 159.649 117.796 159.356 117.492C159.066 117.188 158.922 116.803 158.922 116.337C158.922 115.951 159.03 115.613 159.245 115.323C159.461 115.033 159.76 114.807 160.14 114.645C160.521 114.481 160.957 114.398 161.449 114.398C162.156 114.398 162.713 114.552 163.119 114.858C163.525 115.162 163.794 115.57 163.924 116.081ZM169.6 118.314V114.483H170.878V121.029H169.625V119.895H169.557C169.406 120.245 169.165 120.536 168.832 120.769C168.503 120.999 168.092 121.114 167.601 121.114C167.18 121.114 166.808 121.022 166.484 120.837C166.163 120.65 165.911 120.373 165.726 120.006C165.544 119.64 165.453 119.186 165.453 118.647V114.483H166.727V118.493C166.727 118.939 166.851 119.294 167.098 119.559C167.345 119.823 167.666 119.955 168.061 119.955C168.3 119.955 168.537 119.895 168.773 119.776C169.011 119.657 169.209 119.476 169.365 119.235C169.524 118.993 169.602 118.686 169.6 118.314ZM175.347 121.161C174.714 121.161 174.168 121.017 173.711 120.731C173.256 120.441 172.907 120.042 172.662 119.533C172.418 119.025 172.296 118.442 172.296 117.786C172.296 117.121 172.421 116.534 172.671 116.026C172.921 115.515 173.273 115.115 173.728 114.829C174.182 114.542 174.718 114.398 175.334 114.398C175.831 114.398 176.275 114.49 176.664 114.675C177.053 114.857 177.367 115.113 177.606 115.442C177.847 115.772 177.991 116.157 178.036 116.597H176.796C176.728 116.29 176.571 116.026 176.327 115.804C176.086 115.583 175.762 115.472 175.356 115.472C175 115.472 174.689 115.566 174.422 115.753C174.158 115.938 173.952 116.202 173.804 116.546C173.657 116.887 173.583 117.29 173.583 117.756C173.583 118.233 173.655 118.645 173.8 118.992C173.945 119.338 174.15 119.607 174.414 119.797C174.681 119.988 174.995 120.083 175.356 120.083C175.597 120.083 175.816 120.039 176.012 119.951C176.211 119.86 176.377 119.731 176.51 119.563C176.647 119.395 176.742 119.194 176.796 118.958H178.036C177.991 119.381 177.853 119.759 177.623 120.091C177.392 120.424 177.084 120.685 176.698 120.875C176.314 121.066 175.864 121.161 175.347 121.161ZM182.156 121.161C181.522 121.161 180.977 121.017 180.519 120.731C180.065 120.441 179.715 120.042 179.471 119.533C179.227 119.025 179.104 118.442 179.104 117.786C179.104 117.121 179.229 116.534 179.479 116.026C179.729 115.515 180.082 115.115 180.536 114.829C180.991 114.542 181.526 114.398 182.143 114.398C182.64 114.398 183.083 114.49 183.472 114.675C183.862 114.857 184.176 115.113 184.414 115.442C184.656 115.772 184.799 116.157 184.845 116.597H183.604C183.536 116.29 183.38 116.026 183.136 115.804C182.894 115.583 182.57 115.472 182.164 115.472C181.809 115.472 181.498 115.566 181.231 115.753C180.967 115.938 180.761 116.202 180.613 116.546C180.465 116.887 180.391 117.29 180.391 117.756C180.391 118.233 180.464 118.645 180.609 118.992C180.754 119.338 180.958 119.607 181.222 119.797C181.489 119.988 181.803 120.083 182.164 120.083C182.406 120.083 182.624 120.039 182.82 119.951C183.019 119.86 183.185 119.731 183.319 119.563C183.455 119.395 183.551 119.194 183.604 118.958H184.845C184.799 119.381 184.661 119.759 184.431 120.091C184.201 120.424 183.893 120.685 183.506 120.875C183.123 121.066 182.673 121.161 182.156 121.161ZM189.028 121.161C188.383 121.161 187.828 121.023 187.362 120.748C186.899 120.469 186.541 120.079 186.288 119.576C186.038 119.07 185.913 118.478 185.913 117.799C185.913 117.128 186.038 116.537 186.288 116.026C186.541 115.515 186.893 115.115 187.345 114.829C187.799 114.542 188.331 114.398 188.939 114.398C189.308 114.398 189.666 114.459 190.013 114.581C190.359 114.704 190.67 114.895 190.946 115.157C191.221 115.418 191.439 115.758 191.598 116.175C191.757 116.59 191.836 117.094 191.836 117.688V118.14H186.633V117.185H190.588C190.588 116.85 190.52 116.553 190.383 116.294C190.247 116.033 190.055 115.827 189.808 115.677C189.564 115.526 189.277 115.451 188.947 115.451C188.589 115.451 188.277 115.539 188.01 115.715C187.745 115.888 187.541 116.115 187.396 116.397C187.254 116.675 187.183 116.978 187.183 117.304V118.05C187.183 118.488 187.26 118.86 187.413 119.167C187.569 119.473 187.787 119.708 188.065 119.87C188.343 120.029 188.669 120.108 189.041 120.108C189.282 120.108 189.503 120.074 189.701 120.006C189.9 119.935 190.072 119.83 190.217 119.691C190.362 119.552 190.473 119.38 190.549 119.175L191.755 119.392C191.659 119.748 191.486 120.059 191.236 120.326C190.988 120.59 190.677 120.796 190.302 120.944C189.93 121.088 189.505 121.161 189.028 121.161ZM198.155 116.081L197 116.286C196.952 116.138 196.875 115.998 196.77 115.864C196.668 115.731 196.528 115.621 196.352 115.536C196.176 115.451 195.956 115.408 195.692 115.408C195.331 115.408 195.03 115.489 194.788 115.651C194.547 115.81 194.426 116.016 194.426 116.269C194.426 116.488 194.507 116.664 194.669 116.797C194.831 116.931 195.092 117.04 195.453 117.125L196.493 117.364C197.095 117.503 197.544 117.718 197.84 118.008C198.135 118.297 198.283 118.674 198.283 119.137C198.283 119.529 198.169 119.878 197.942 120.185C197.717 120.489 197.403 120.728 197 120.901C196.6 121.074 196.135 121.161 195.607 121.161C194.874 121.161 194.276 121.005 193.813 120.692C193.35 120.377 193.065 119.929 192.96 119.35L194.192 119.162C194.269 119.483 194.426 119.726 194.665 119.891C194.903 120.053 195.215 120.134 195.598 120.134C196.016 120.134 196.35 120.047 196.6 119.874C196.85 119.698 196.975 119.483 196.975 119.231C196.975 119.026 196.898 118.854 196.744 118.715C196.594 118.576 196.362 118.471 196.05 118.4L194.942 118.157C194.331 118.017 193.879 117.796 193.587 117.492C193.297 117.188 193.152 116.803 193.152 116.337C193.152 115.951 193.26 115.613 193.476 115.323C193.692 115.033 193.99 114.807 194.371 114.645C194.752 114.481 195.188 114.398 195.679 114.398C196.386 114.398 196.943 114.552 197.35 114.858C197.756 115.162 198.024 115.57 198.155 116.081ZM204.589 116.081L203.434 116.286C203.385 116.138 203.309 115.998 203.204 115.864C203.101 115.731 202.962 115.621 202.786 115.536C202.61 115.451 202.39 115.408 202.125 115.408C201.765 115.408 201.464 115.489 201.222 115.651C200.981 115.81 200.86 116.016 200.86 116.269C200.86 116.488 200.941 116.664 201.103 116.797C201.265 116.931 201.526 117.04 201.887 117.125L202.927 117.364C203.529 117.503 203.978 117.718 204.273 118.008C204.569 118.297 204.716 118.674 204.716 119.137C204.716 119.529 204.603 119.878 204.375 120.185C204.151 120.489 203.837 120.728 203.434 120.901C203.033 121.074 202.569 121.161 202.04 121.161C201.307 121.161 200.709 121.005 200.246 120.692C199.783 120.377 199.499 119.929 199.394 119.35L200.625 119.162C200.702 119.483 200.86 119.726 201.098 119.891C201.337 120.053 201.648 120.134 202.032 120.134C202.449 120.134 202.783 120.047 203.033 119.874C203.283 119.698 203.408 119.483 203.408 119.231C203.408 119.026 203.331 118.854 203.178 118.715C203.027 118.576 202.796 118.471 202.483 118.4L201.375 118.157C200.765 118.017 200.313 117.796 200.02 117.492C199.731 117.188 199.586 116.803 199.586 116.337C199.586 115.951 199.694 115.613 199.91 115.323C200.125 115.033 200.424 114.807 200.804 114.645C201.185 114.481 201.621 114.398 202.113 114.398C202.82 114.398 203.377 114.552 203.783 114.858C204.189 115.162 204.458 115.57 204.589 116.081ZM209.232 114.483V115.506H205.533V114.483H209.232ZM206.548 121.029V113.725C206.548 113.316 206.637 112.976 206.816 112.706C206.995 112.434 207.232 112.231 207.528 112.097C207.823 111.961 208.144 111.892 208.491 111.892C208.747 111.892 208.965 111.914 209.147 111.956C209.329 111.996 209.464 112.033 209.552 112.067L209.254 113.098C209.194 113.081 209.117 113.061 209.024 113.039C208.93 113.013 208.816 113 208.683 113C208.373 113 208.151 113.077 208.018 113.231C207.887 113.384 207.822 113.606 207.822 113.895V121.029H206.548ZM214.693 118.314V114.483H215.972V121.029H214.719V119.895H214.651C214.5 120.245 214.259 120.536 213.926 120.769C213.597 120.999 213.186 121.114 212.695 121.114C212.274 121.114 211.902 121.022 211.578 120.837C211.257 120.65 211.004 120.373 210.82 120.006C210.638 119.64 210.547 119.186 210.547 118.647V114.483H211.821V118.493C211.821 118.939 211.945 119.294 212.192 119.559C212.439 119.823 212.76 119.955 213.155 119.955C213.394 119.955 213.631 119.895 213.867 119.776C214.105 119.657 214.303 119.476 214.459 119.235C214.618 118.993 214.696 118.686 214.693 118.314ZM218.958 112.302V121.029H217.684V112.302H218.958ZM221.946 112.302V121.029H220.672V112.302H221.946ZM224.466 123.483C224.275 123.483 224.102 123.468 223.946 123.436C223.79 123.408 223.673 123.377 223.596 123.343L223.903 122.299C224.136 122.361 224.343 122.388 224.525 122.38C224.707 122.371 224.868 122.303 225.007 122.175C225.149 122.047 225.274 121.838 225.382 121.549L225.54 121.114L223.145 114.483H224.508L226.166 119.563H226.234L227.892 114.483H229.26L226.562 121.902C226.437 122.243 226.278 122.532 226.085 122.767C225.892 123.006 225.662 123.185 225.395 123.304C225.128 123.424 224.818 123.483 224.466 123.483ZM236.39 121.161C235.756 121.161 235.211 121.017 234.754 120.731C234.299 120.441 233.95 120.042 233.705 119.533C233.461 119.025 233.339 118.442 233.339 117.786C233.339 117.121 233.464 116.534 233.714 116.026C233.964 115.515 234.316 115.115 234.771 114.829C235.225 114.542 235.761 114.398 236.377 114.398C236.874 114.398 237.318 114.49 237.707 114.675C238.096 114.857 238.41 115.113 238.649 115.442C238.89 115.772 239.033 116.157 239.079 116.597H237.839C237.771 116.29 237.614 116.026 237.37 115.804C237.129 115.583 236.805 115.472 236.399 115.472C236.043 115.472 235.732 115.566 235.465 115.753C235.201 115.938 234.995 116.202 234.847 116.546C234.7 116.887 234.626 117.29 234.626 117.756C234.626 118.233 234.698 118.645 234.843 118.992C234.988 119.338 235.193 119.607 235.457 119.797C235.724 119.988 236.038 120.083 236.399 120.083C236.64 120.083 236.859 120.039 237.055 119.951C237.254 119.86 237.42 119.731 237.553 119.563C237.69 119.395 237.785 119.194 237.839 118.958H239.079C239.033 119.381 238.896 119.759 238.666 120.091C238.435 120.424 238.127 120.685 237.741 120.875C237.357 121.066 236.907 121.161 236.39 121.161ZM240.441 121.029V114.483H241.673V115.523H241.741C241.861 115.171 242.071 114.894 242.372 114.692C242.676 114.488 243.02 114.385 243.403 114.385C243.483 114.385 243.576 114.388 243.684 114.394C243.795 114.4 243.882 114.407 243.944 114.415V115.634C243.893 115.62 243.802 115.604 243.672 115.587C243.541 115.567 243.41 115.557 243.28 115.557C242.978 115.557 242.71 115.621 242.474 115.749C242.241 115.874 242.057 116.049 241.92 116.273C241.784 116.495 241.716 116.748 241.716 117.032V121.029H240.441ZM247.634 121.161C246.989 121.161 246.433 121.023 245.967 120.748C245.504 120.469 245.146 120.079 244.894 119.576C244.644 119.07 244.519 118.478 244.519 117.799C244.519 117.128 244.644 116.537 244.894 116.026C245.146 115.515 245.499 115.115 245.95 114.829C246.405 114.542 246.936 114.398 247.544 114.398C247.913 114.398 248.271 114.459 248.618 114.581C248.965 114.704 249.276 114.895 249.551 115.157C249.827 115.418 250.044 115.758 250.203 116.175C250.362 116.59 250.442 117.094 250.442 117.688V118.14H245.239V117.185H249.193C249.193 116.85 249.125 116.553 248.989 116.294C248.852 116.033 248.661 115.827 248.413 115.677C248.169 115.526 247.882 115.451 247.553 115.451C247.195 115.451 246.882 115.539 246.615 115.715C246.351 115.888 246.146 116.115 246.002 116.397C245.859 116.675 245.788 116.978 245.788 117.304V118.05C245.788 118.488 245.865 118.86 246.019 119.167C246.175 119.473 246.392 119.708 246.671 119.87C246.949 120.029 247.274 120.108 247.646 120.108C247.888 120.108 248.108 120.074 248.307 120.006C248.506 119.935 248.678 119.83 248.823 119.691C248.967 119.552 249.078 119.38 249.155 119.175L250.361 119.392C250.264 119.748 250.091 120.059 249.841 120.326C249.594 120.59 249.283 120.796 248.908 120.944C248.536 121.088 248.111 121.161 247.634 121.161ZM253.76 121.174C253.346 121.174 252.971 121.097 252.635 120.944C252.3 120.787 252.035 120.561 251.839 120.266C251.645 119.971 251.549 119.608 251.549 119.179C251.549 118.81 251.62 118.506 251.762 118.267C251.904 118.029 252.096 117.84 252.337 117.701C252.579 117.561 252.848 117.456 253.147 117.385C253.445 117.314 253.749 117.26 254.059 117.223C254.451 117.178 254.769 117.141 255.013 117.113C255.258 117.081 255.435 117.032 255.546 116.963C255.657 116.895 255.712 116.784 255.712 116.631V116.601C255.712 116.229 255.607 115.941 255.397 115.736C255.189 115.532 254.88 115.429 254.468 115.429C254.039 115.429 253.701 115.525 253.454 115.715C253.209 115.902 253.04 116.111 252.946 116.341L251.749 116.069C251.891 115.671 252.098 115.35 252.371 115.106C252.647 114.858 252.964 114.679 253.321 114.569C253.679 114.455 254.056 114.398 254.451 114.398C254.712 114.398 254.989 114.429 255.282 114.492C255.577 114.552 255.853 114.662 256.108 114.824C256.367 114.986 256.579 115.218 256.743 115.519C256.908 115.817 256.991 116.205 256.991 116.682V121.029H255.746V120.134H255.695C255.613 120.299 255.489 120.461 255.324 120.62C255.16 120.779 254.948 120.911 254.689 121.016C254.431 121.121 254.121 121.174 253.76 121.174ZM254.037 120.151C254.39 120.151 254.691 120.081 254.941 119.942C255.194 119.803 255.385 119.621 255.516 119.397C255.65 119.169 255.716 118.927 255.716 118.668V117.824C255.671 117.87 255.583 117.912 255.452 117.952C255.324 117.989 255.178 118.022 255.013 118.05C254.848 118.076 254.688 118.1 254.532 118.123C254.375 118.142 254.245 118.159 254.14 118.174C253.892 118.205 253.667 118.258 253.462 118.331C253.26 118.405 253.098 118.512 252.976 118.651C252.857 118.787 252.797 118.969 252.797 119.196C252.797 119.512 252.914 119.75 253.147 119.912C253.38 120.071 253.677 120.151 254.037 120.151ZM261.743 114.483V115.506H258.168V114.483H261.743ZM259.127 112.915H260.401V119.107C260.401 119.354 260.438 119.54 260.511 119.665C260.585 119.787 260.68 119.871 260.797 119.917C260.916 119.959 261.046 119.981 261.185 119.981C261.287 119.981 261.377 119.973 261.453 119.959C261.53 119.945 261.59 119.934 261.632 119.925L261.862 120.978C261.788 121.006 261.683 121.034 261.547 121.063C261.411 121.094 261.24 121.111 261.036 121.114C260.7 121.12 260.388 121.06 260.098 120.935C259.808 120.81 259.574 120.617 259.395 120.356C259.216 120.094 259.127 119.766 259.127 119.371V112.915ZM265.903 121.161C265.258 121.161 264.703 121.023 264.237 120.748C263.774 120.469 263.416 120.079 263.163 119.576C262.913 119.07 262.788 118.478 262.788 117.799C262.788 117.128 262.913 116.537 263.163 116.026C263.416 115.515 263.768 115.115 264.22 114.829C264.674 114.542 265.206 114.398 265.814 114.398C266.183 114.398 266.541 114.459 266.888 114.581C267.234 114.704 267.545 114.895 267.821 115.157C268.096 115.418 268.314 115.758 268.473 116.175C268.632 116.59 268.711 117.094 268.711 117.688V118.14H263.508V117.185H267.463C267.463 116.85 267.395 116.553 267.258 116.294C267.122 116.033 266.93 115.827 266.683 115.677C266.439 115.526 266.152 115.451 265.822 115.451C265.464 115.451 265.152 115.539 264.885 115.715C264.62 115.888 264.416 116.115 264.271 116.397C264.129 116.675 264.058 116.978 264.058 117.304V118.05C264.058 118.488 264.135 118.86 264.288 119.167C264.444 119.473 264.662 119.708 264.94 119.87C265.218 120.029 265.544 120.108 265.916 120.108C266.157 120.108 266.378 120.074 266.576 120.006C266.775 119.935 266.947 119.83 267.092 119.691C267.237 119.552 267.348 119.38 267.424 119.175L268.63 119.392C268.534 119.748 268.361 120.059 268.111 120.326C267.863 120.59 267.552 120.796 267.177 120.944C266.805 121.088 266.38 121.161 265.903 121.161ZM272.575 121.157C272.047 121.157 271.575 121.022 271.161 120.752C270.749 120.479 270.425 120.091 270.189 119.588C269.956 119.083 269.84 118.476 269.84 117.769C269.84 117.061 269.957 116.456 270.193 115.954C270.432 115.451 270.759 115.066 271.173 114.799C271.588 114.532 272.058 114.398 272.584 114.398C272.99 114.398 273.317 114.466 273.564 114.603C273.814 114.736 274.007 114.892 274.144 115.071C274.283 115.25 274.391 115.408 274.467 115.544H274.544V112.302H275.818V121.029H274.574V120.01H274.467C274.391 120.15 274.28 120.309 274.135 120.488C273.993 120.667 273.797 120.823 273.547 120.956C273.297 121.09 272.973 121.157 272.575 121.157ZM272.857 120.07C273.223 120.07 273.533 119.973 273.786 119.78C274.041 119.584 274.234 119.313 274.365 118.966C274.499 118.62 274.565 118.216 274.565 117.756C274.565 117.302 274.5 116.904 274.369 116.563C274.239 116.222 274.047 115.956 273.794 115.766C273.541 115.576 273.229 115.481 272.857 115.481C272.473 115.481 272.153 115.58 271.898 115.779C271.642 115.978 271.449 116.249 271.318 116.593C271.19 116.936 271.127 117.324 271.127 117.756C271.127 118.194 271.192 118.587 271.323 118.936C271.453 119.286 271.646 119.563 271.902 119.767C272.161 119.969 272.479 120.07 272.857 120.07Z" fill="#101828"/>
<path d="M105.734 132.614H106.748V138.6C106.748 139.135 106.65 139.589 106.454 139.962C106.258 140.335 105.981 140.619 105.624 140.812C105.267 141.006 104.846 141.103 104.361 141.103C103.903 141.103 103.495 141.02 103.138 140.853C102.781 140.684 102.5 140.444 102.296 140.134C102.091 139.823 101.989 139.454 101.989 139.026H102.987C102.987 139.263 103.045 139.47 103.162 139.647C103.282 139.822 103.446 139.958 103.653 140.056C103.86 140.154 104.096 140.203 104.361 140.203C104.652 140.203 104.9 140.142 105.105 140.019C105.309 139.897 105.465 139.717 105.571 139.479C105.68 139.24 105.734 138.947 105.734 138.6V132.614ZM112.608 138.42V134.708H113.573V140.988H112.608V139.925H112.543C112.395 140.244 112.166 140.515 111.856 140.739C111.545 140.96 111.152 141.07 110.678 141.07C110.285 141.07 109.936 140.984 109.631 140.812C109.326 140.638 109.086 140.376 108.912 140.027C108.737 139.676 108.65 139.233 108.65 138.698V134.708H109.615V138.633C109.615 139.091 109.743 139.456 109.999 139.729C110.258 140.001 110.588 140.138 110.989 140.138C111.229 140.138 111.473 140.076 111.721 139.954C111.971 139.831 112.181 139.643 112.35 139.39C112.522 139.136 112.608 138.813 112.608 138.42ZM119.789 136.114L118.922 136.36C118.868 136.215 118.787 136.075 118.681 135.938C118.577 135.799 118.436 135.685 118.256 135.595C118.076 135.505 117.846 135.46 117.565 135.46C117.18 135.46 116.86 135.549 116.604 135.726C116.35 135.9 116.224 136.122 116.224 136.392C116.224 136.632 116.311 136.822 116.485 136.961C116.66 137.1 116.932 137.216 117.303 137.308L118.235 137.537C118.797 137.674 119.215 137.882 119.491 138.163C119.766 138.441 119.904 138.799 119.904 139.238C119.904 139.598 119.8 139.92 119.593 140.203C119.388 140.487 119.102 140.71 118.734 140.874C118.366 141.037 117.938 141.119 117.45 141.119C116.81 141.119 116.279 140.98 115.86 140.702C115.44 140.424 115.174 140.018 115.062 139.484L115.978 139.255C116.065 139.593 116.23 139.846 116.473 140.015C116.718 140.184 117.039 140.269 117.434 140.269C117.884 140.269 118.241 140.173 118.505 139.982C118.772 139.789 118.906 139.557 118.906 139.287C118.906 139.069 118.83 138.887 118.677 138.739C118.524 138.589 118.29 138.478 117.974 138.404L116.927 138.159C116.352 138.022 115.929 137.811 115.659 137.525C115.392 137.236 115.259 136.875 115.259 136.441C115.259 136.087 115.358 135.774 115.557 135.501C115.759 135.228 116.033 135.014 116.379 134.859C116.728 134.704 117.123 134.626 117.565 134.626C118.186 134.626 118.674 134.762 119.029 135.035C119.386 135.307 119.639 135.667 119.789 136.114ZM124.088 134.708V135.525H120.833V134.708H124.088ZM121.781 133.203H122.746V139.189C122.746 139.462 122.786 139.666 122.865 139.802C122.947 139.936 123.05 140.026 123.176 140.072C123.304 140.116 123.439 140.138 123.581 140.138C123.687 140.138 123.774 140.132 123.842 140.121C123.91 140.108 123.965 140.097 124.006 140.089L124.202 140.956C124.137 140.98 124.045 141.005 123.928 141.029C123.811 141.056 123.662 141.07 123.482 141.07C123.21 141.07 122.943 141.011 122.681 140.894C122.422 140.777 122.207 140.598 122.035 140.359C121.866 140.119 121.781 139.816 121.781 139.451V133.203ZM129.743 137.21V140.988H128.778V134.708H129.71V135.689H129.792C129.939 135.37 130.162 135.114 130.462 134.92C130.762 134.724 131.149 134.626 131.624 134.626C132.049 134.626 132.421 134.713 132.74 134.888C133.059 135.059 133.307 135.321 133.484 135.673C133.661 136.022 133.75 136.463 133.75 136.997V140.988H132.785V137.063C132.785 136.57 132.657 136.185 132.4 135.91C132.144 135.632 131.793 135.493 131.346 135.493C131.037 135.493 130.762 135.56 130.52 135.693C130.28 135.827 130.09 136.022 129.951 136.278C129.812 136.534 129.743 136.845 129.743 137.21ZM138.065 141.119C137.498 141.119 137 140.984 136.572 140.714C136.147 140.444 135.814 140.067 135.574 139.582C135.337 139.096 135.219 138.529 135.219 137.881C135.219 137.226 135.337 136.655 135.574 136.167C135.814 135.679 136.147 135.301 136.572 135.031C137 134.761 137.498 134.626 138.065 134.626C138.632 134.626 139.128 134.761 139.553 135.031C139.981 135.301 140.314 135.679 140.551 136.167C140.791 136.655 140.911 137.226 140.911 137.881C140.911 138.529 140.791 139.096 140.551 139.582C140.314 140.067 139.981 140.444 139.553 140.714C139.128 140.984 138.632 141.119 138.065 141.119ZM138.065 140.252C138.495 140.252 138.85 140.142 139.128 139.921C139.406 139.7 139.612 139.41 139.745 139.05C139.879 138.69 139.946 138.3 139.946 137.881C139.946 137.461 139.879 137.07 139.745 136.707C139.612 136.345 139.406 136.052 139.128 135.828C138.85 135.605 138.495 135.493 138.065 135.493C137.634 135.493 137.28 135.605 137.002 135.828C136.723 136.052 136.518 136.345 136.384 136.707C136.251 137.07 136.184 137.461 136.184 137.881C136.184 138.3 136.251 138.69 136.384 139.05C136.518 139.41 136.723 139.7 137.002 139.921C137.28 140.142 137.634 140.252 138.065 140.252ZM143.593 140.988L141.679 134.708H142.693L144.051 139.516H144.116L145.457 134.708H146.488L147.813 139.5H147.878L149.236 134.708H150.25L148.336 140.988H147.387L146.014 136.163H145.915L144.542 140.988H143.593Z" fill="#667085"/>
<rect x="55.5146" y="161.341" width="272.971" height="36" rx="9.1465" fill="white"/>
<rect x="55.5146" y="161.341" width="36" height="36" rx="18" fill="#F0F0F0"/>
<rect x="101.515" y="167.341" width="55" height="9" rx="2" fill="#F0F0F0"/>
<rect x="101.515" y="182.341" width="185.217" height="9" rx="2" fill="#F0F0F0"/>
</svg>
