<svg width="356" height="182" viewBox="0 0 356 182" fill="none" xmlns="http://www.w3.org/2000/svg">
<g filter="url(#filter0_d_56_1686)">
<g clip-path="url(#clip0_56_1686)">
<rect x="2" y="1" width="352" height="178" rx="12" fill="white"/>
<path d="M32.0005 21.8335C32.6271 21.8335 33.2399 21.8968 33.8325 22.0171C34.2836 22.1087 34.5754 22.5485 34.4839 22.9995C34.3923 23.4504 33.9523 23.7412 33.5015 23.6499C33.0173 23.5516 32.5151 23.5005 32.0005 23.5005C27.8584 23.5005 24.5005 26.8584 24.5005 31.0005C24.5007 35.1424 27.8585 38.5005 32.0005 38.5005C36.1423 38.5003 39.5003 35.1423 39.5005 31.0005C39.5005 30.4859 39.4483 29.9837 39.3501 29.4995C39.2586 29.0485 39.5504 28.6086 40.0015 28.5171C40.4523 28.4258 40.8923 28.7167 40.9839 29.1675C41.1041 29.7601 41.1665 30.3737 41.1665 31.0005C41.1663 36.0628 37.0628 40.1663 32.0005 40.1665C26.938 40.1665 22.8337 36.0629 22.8335 31.0005C22.8335 25.9379 26.9379 21.8335 32.0005 21.8335ZM31.9995 26.0005C32.4597 26.0005 32.8335 26.3733 32.8335 26.8335C32.8334 27.2937 32.4597 27.6665 31.9995 27.6665C30.159 27.6668 28.6668 29.159 28.6665 30.9995C28.6665 32.8403 30.1588 34.3332 31.9995 34.3335C33.8404 34.3335 35.3335 32.8404 35.3335 30.9995C35.3338 30.5396 35.7065 30.1666 36.1665 30.1665C36.6266 30.1665 36.9992 30.5395 36.9995 30.9995C36.9995 33.7609 34.7609 35.9995 31.9995 35.9995C29.2383 35.9992 27.0005 33.7608 27.0005 30.9995C27.0008 28.2385 29.2385 26.0008 31.9995 26.0005ZM37.2329 22.0874C37.7082 21.6121 38.522 21.8579 38.6538 22.5171L38.9585 24.0405L40.4819 24.3452C41.1407 24.4773 41.3865 25.2899 40.9116 25.7651L38.4253 28.2524C38.2675 28.4103 38.0528 28.4985 37.8296 28.4985H35.6782L32.5894 31.5884C32.264 31.9136 31.736 31.9136 31.4106 31.5884C31.0853 31.263 31.0854 30.7351 31.4106 30.4097L34.4995 27.3198V25.1655C34.4995 24.9445 34.5874 24.732 34.7437 24.5757L37.2329 22.0874Z" fill="#363947"/>
<path d="M51.1186 36V25.8182H54.7479C55.54 25.8182 56.1963 25.9624 56.7166 26.2507C57.237 26.5391 57.6264 26.9335 57.8849 27.4339C58.1435 27.9311 58.2727 28.4912 58.2727 29.1143C58.2727 29.7408 58.1418 30.3042 57.88 30.8047C57.6214 31.3018 57.2304 31.6963 56.7067 31.9879C56.1863 32.2763 55.5317 32.4205 54.7429 32.4205H52.2472V31.1179H54.6037C55.1042 31.1179 55.5102 31.0317 55.8217 30.8594C56.1333 30.6837 56.362 30.4451 56.5078 30.1435C56.6536 29.8419 56.7266 29.4988 56.7266 29.1143C56.7266 28.7299 56.6536 28.3885 56.5078 28.0902C56.362 27.7919 56.1316 27.5582 55.8168 27.3892C55.5052 27.2202 55.0942 27.1357 54.5838 27.1357H52.6548V36H51.1186ZM59.9544 36V28.3636H61.3912V29.5767H61.4707C61.6099 29.1657 61.8552 28.8426 62.2065 28.6072C62.5611 28.3686 62.9622 28.2493 63.4096 28.2493C63.5024 28.2493 63.6118 28.2526 63.7377 28.2592C63.867 28.2659 63.9681 28.2741 64.041 28.2841V29.706C63.9814 29.6894 63.8753 29.6712 63.7228 29.6513C63.5704 29.6281 63.4179 29.6165 63.2654 29.6165C62.9141 29.6165 62.6009 29.6911 62.3258 29.8402C62.054 29.986 61.8386 30.1899 61.6795 30.4517C61.5204 30.7102 61.4409 31.0052 61.4409 31.3366V36H59.9544ZM68.3452 36.1541C67.5928 36.1541 66.9448 35.9934 66.4013 35.6719C65.861 35.3471 65.4434 34.8913 65.1484 34.3047C64.8568 33.7147 64.7109 33.0237 64.7109 32.2315C64.7109 31.4493 64.8568 30.7599 65.1484 30.1634C65.4434 29.5668 65.8544 29.1011 66.3814 28.7663C66.9117 28.4316 67.5315 28.2642 68.2408 28.2642C68.6716 28.2642 69.0893 28.3355 69.4936 28.478C69.898 28.6205 70.2609 28.8442 70.5824 29.1491C70.9039 29.4541 71.1574 29.8501 71.343 30.3374C71.5286 30.8213 71.6214 31.4096 71.6214 32.1023V32.6293H65.5511V31.5156H70.1648C70.1648 31.1245 70.0852 30.7782 69.9261 30.4766C69.767 30.1716 69.5433 29.9313 69.255 29.7557C68.9699 29.58 68.6352 29.4922 68.2507 29.4922C67.8331 29.4922 67.4685 29.5949 67.157 29.8004C66.8487 30.0026 66.6101 30.2678 66.4411 30.5959C66.2753 30.9207 66.1925 31.2737 66.1925 31.6548V32.5249C66.1925 33.0353 66.282 33.4695 66.4609 33.8274C66.6432 34.1854 66.8968 34.4588 67.2216 34.6477C67.5464 34.8333 67.9259 34.9261 68.3601 34.9261C68.6418 34.9261 68.8987 34.8864 69.1307 34.8068C69.3627 34.724 69.5632 34.6013 69.7322 34.4389C69.9013 34.2765 70.0305 34.076 70.12 33.8374L71.527 34.0909C71.4143 34.5052 71.2121 34.8681 70.9205 35.1797C70.6321 35.4879 70.2692 35.7282 69.8317 35.9006C69.3975 36.0696 68.902 36.1541 68.3452 36.1541ZM76.4874 36.1541C75.7483 36.1541 75.1119 35.9867 74.5783 35.652C74.048 35.3139 73.6403 34.8482 73.3553 34.255C73.0703 33.6617 72.9277 32.9822 72.9277 32.2166C72.9277 31.4411 73.0736 30.7566 73.3652 30.1634C73.6569 29.5668 74.0679 29.1011 74.5982 28.7663C75.1285 28.4316 75.7533 28.2642 76.4725 28.2642C77.0525 28.2642 77.5695 28.3719 78.0236 28.5874C78.4777 28.7995 78.8439 29.0978 79.1223 29.4822C79.4041 29.8667 79.5714 30.3158 79.6245 30.8295H78.1777C78.0982 30.4716 77.9159 30.1634 77.6309 29.9048C77.3491 29.6463 76.9713 29.517 76.4973 29.517C76.083 29.517 75.7201 29.6264 75.4086 29.8452C75.1003 30.0606 74.86 30.3688 74.6877 30.7699C74.5153 31.1676 74.4292 31.6383 74.4292 32.1818C74.4292 32.7386 74.5137 33.2192 74.6827 33.6236C74.8517 34.0279 75.0904 34.3411 75.3986 34.5632C75.7102 34.7853 76.0764 34.8963 76.4973 34.8963C76.7791 34.8963 77.0343 34.8449 77.263 34.7422C77.495 34.6361 77.6889 34.4853 77.8446 34.2898C78.0037 34.0942 78.1148 33.8589 78.1777 33.5838H79.6245C79.5714 34.0777 79.4107 34.5185 79.1422 34.9062C78.8738 35.294 78.5141 35.599 78.0634 35.821C77.6159 36.0431 77.0906 36.1541 76.4874 36.1541ZM81.2141 36V28.3636H82.7006V36H81.2141ZM81.9648 27.1854C81.7063 27.1854 81.4843 27.0992 81.2987 26.9268C81.1164 26.7512 81.0252 26.5424 81.0252 26.3004C81.0252 26.0552 81.1164 25.8464 81.2987 25.674C81.4843 25.4983 81.7063 25.4105 81.9648 25.4105C82.2234 25.4105 82.4438 25.4983 82.6261 25.674C82.8117 25.8464 82.9045 26.0552 82.9045 26.3004C82.9045 26.5424 82.8117 26.7512 82.6261 26.9268C82.4438 27.0992 82.2234 27.1854 81.9648 27.1854ZM90.4228 30.228L89.0755 30.4666C89.0191 30.2943 88.9296 30.1302 88.807 29.9744C88.6877 29.8187 88.5253 29.6911 88.3198 29.5916C88.1143 29.4922 87.8574 29.4425 87.5492 29.4425C87.1283 29.4425 86.7769 29.5369 86.4952 29.7259C86.2135 29.9115 86.0726 30.1518 86.0726 30.4467C86.0726 30.7019 86.1671 30.9074 86.356 31.0632C86.5449 31.219 86.8498 31.3466 87.2708 31.446L88.4838 31.7244C89.1865 31.8868 89.7102 32.1371 90.0549 32.4751C90.3996 32.8132 90.5719 33.2524 90.5719 33.7926C90.5719 34.25 90.4393 34.6577 90.1742 35.0156C89.9123 35.3703 89.5461 35.6487 89.0755 35.8509C88.6081 36.053 88.0662 36.1541 87.4498 36.1541C86.5946 36.1541 85.897 35.9718 85.3567 35.6072C84.8165 35.2393 84.485 34.7173 84.3624 34.0412L85.7992 33.8224C85.8887 34.197 86.0726 34.4804 86.351 34.6726C86.6294 34.8615 86.9924 34.956 87.4398 34.956C87.927 34.956 88.3165 34.8549 88.6081 34.6527C88.8998 34.4472 89.0456 34.197 89.0456 33.902C89.0456 33.6634 88.9561 33.4628 88.7772 33.3004C88.6015 33.138 88.3314 33.0154 87.9668 32.9325L86.6742 32.6491C85.9616 32.4867 85.4346 32.2282 85.0932 31.8736C84.7551 31.5189 84.5861 31.0698 84.5861 30.5263C84.5861 30.0755 84.7121 29.6811 84.964 29.343C85.2158 29.005 85.5639 28.7415 86.008 28.5526C86.4521 28.3603 86.9609 28.2642 87.5343 28.2642C88.3596 28.2642 89.0092 28.4432 89.4831 28.8011C89.9571 29.1558 90.2703 29.6314 90.4228 30.228ZM92.2063 36V28.3636H93.6928V36H92.2063ZM92.957 27.1854C92.6985 27.1854 92.4764 27.0992 92.2908 26.9268C92.1085 26.7512 92.0174 26.5424 92.0174 26.3004C92.0174 26.0552 92.1085 25.8464 92.2908 25.674C92.4764 25.4983 92.6985 25.4105 92.957 25.4105C93.2156 25.4105 93.436 25.4983 93.6183 25.674C93.8039 25.8464 93.8967 26.0552 93.8967 26.3004C93.8967 26.5424 93.8039 26.7512 93.6183 26.9268C93.436 27.0992 93.2156 27.1854 92.957 27.1854ZM98.9093 36.1541C98.1934 36.1541 97.5686 35.9901 97.035 35.6619C96.5014 35.3338 96.0871 34.8748 95.7921 34.2848C95.4971 33.6948 95.3496 33.0054 95.3496 32.2166C95.3496 31.4245 95.4971 30.7318 95.7921 30.1385C96.0871 29.5452 96.5014 29.0845 97.035 28.7564C97.5686 28.4283 98.1934 28.2642 98.9093 28.2642C99.6252 28.2642 100.25 28.4283 100.784 28.7564C101.317 29.0845 101.731 29.5452 102.026 30.1385C102.321 30.7318 102.469 31.4245 102.469 32.2166C102.469 33.0054 102.321 33.6948 102.026 34.2848C101.731 34.8748 101.317 35.3338 100.784 35.6619C100.25 35.9901 99.6252 36.1541 98.9093 36.1541ZM98.9142 34.9062C99.3783 34.9062 99.7627 34.7836 100.068 34.5384C100.373 34.2931 100.598 33.9666 100.744 33.5589C100.893 33.1513 100.968 32.7022 100.968 32.2116C100.968 31.7244 100.893 31.277 100.744 30.8693C100.598 30.4583 100.373 30.1286 100.068 29.88C99.7627 29.6314 99.3783 29.5071 98.9142 29.5071C98.4469 29.5071 98.0591 29.6314 97.7509 29.88C97.446 30.1286 97.2189 30.4583 97.0698 30.8693C96.9239 31.277 96.851 31.7244 96.851 32.2116C96.851 32.7022 96.9239 33.1513 97.0698 33.5589C97.2189 33.9666 97.446 34.2931 97.7509 34.5384C98.0591 34.7836 98.4469 34.9062 98.9142 34.9062ZM105.615 31.4659V36H104.128V28.3636H105.555V29.6065H105.65C105.825 29.2022 106.1 28.8774 106.475 28.6321C106.853 28.3868 107.328 28.2642 107.902 28.2642C108.422 28.2642 108.878 28.3736 109.269 28.5923C109.66 28.8078 109.963 29.1293 110.179 29.5568C110.394 29.9844 110.502 30.513 110.502 31.1428V36H109.015V31.3217C109.015 30.7682 108.871 30.3357 108.583 30.0241C108.294 29.7093 107.898 29.5518 107.395 29.5518C107.05 29.5518 106.743 29.6264 106.475 29.7756C106.21 29.9247 105.999 30.1435 105.843 30.4318C105.691 30.7169 105.615 31.0616 105.615 31.4659Z" fill="#5C5C5C"/>
<path d="M23.5511 82V79.7159L29.6108 73.7756C30.1903 73.1903 30.6733 72.6705 31.0597 72.2159C31.446 71.7614 31.7358 71.321 31.929 70.8949C32.1222 70.4687 32.2188 70.0142 32.2188 69.5312C32.2188 68.9801 32.0938 68.5085 31.8438 68.1165C31.5938 67.7188 31.25 67.4119 30.8125 67.196C30.375 66.9801 29.8778 66.8722 29.321 66.8722C28.7472 66.8722 28.2443 66.9915 27.8125 67.2301C27.3807 67.4631 27.0455 67.7955 26.8068 68.2273C26.5739 68.6591 26.4574 69.1733 26.4574 69.7699H23.4489C23.4489 68.6619 23.7017 67.6989 24.2074 66.8807C24.7131 66.0625 25.4091 65.429 26.2955 64.9801C27.1875 64.5312 28.2102 64.3068 29.3636 64.3068C30.5341 64.3068 31.5625 64.5256 32.4489 64.9631C33.3352 65.4006 34.0227 66 34.5114 66.7614C35.0057 67.5227 35.2528 68.392 35.2528 69.3693C35.2528 70.0227 35.1278 70.6648 34.8778 71.2955C34.6278 71.9261 34.1875 72.625 33.5568 73.392C32.9318 74.1591 32.054 75.0881 30.9233 76.179L27.9148 79.2386V79.358H35.517V82H23.5511ZM38.4574 82V79.7159L44.517 73.7756C45.0966 73.1903 45.5795 72.6705 45.9659 72.2159C46.3523 71.7614 46.642 71.321 46.8352 70.8949C47.0284 70.4687 47.125 70.0142 47.125 69.5312C47.125 68.9801 47 68.5085 46.75 68.1165C46.5 67.7188 46.1562 67.4119 45.7188 67.196C45.2812 66.9801 44.7841 66.8722 44.2273 66.8722C43.6534 66.8722 43.1506 66.9915 42.7188 67.2301C42.2869 67.4631 41.9517 67.7955 41.7131 68.2273C41.4801 68.6591 41.3636 69.1733 41.3636 69.7699H38.3551C38.3551 68.6619 38.608 67.6989 39.1136 66.8807C39.6193 66.0625 40.3153 65.429 41.2017 64.9801C42.0938 64.5312 43.1165 64.3068 44.2699 64.3068C45.4403 64.3068 46.4688 64.5256 47.3551 64.9631C48.2415 65.4006 48.929 66 49.4176 66.7614C49.9119 67.5227 50.1591 68.392 50.1591 69.3693C50.1591 70.0227 50.0341 70.6648 49.7841 71.2955C49.5341 71.9261 49.0938 72.625 48.4631 73.392C47.8381 74.1591 46.9602 75.0881 45.8295 76.179L42.821 79.2386V79.358H50.4233V82H38.4574ZM55.2983 82.1875C54.7813 82.1875 54.3381 82.0057 53.9688 81.642C53.5994 81.2784 53.4176 80.8352 53.4233 80.3125C53.4176 79.8011 53.5994 79.3636 53.9688 79C54.3381 78.6364 54.7813 78.4545 55.2983 78.4545C55.7983 78.4545 56.233 78.6364 56.6023 79C56.9773 79.3636 57.1676 79.8011 57.1733 80.3125C57.1676 80.6591 57.0767 80.9744 56.9006 81.2585C56.7301 81.5426 56.5028 81.7699 56.2188 81.9403C55.9403 82.1051 55.6335 82.1875 55.2983 82.1875ZM65.8729 82.2386C64.6058 82.2386 63.4808 82.0256 62.4979 81.5994C61.5206 81.1733 60.7536 80.5909 60.1967 79.8523C59.6456 79.108 59.3729 78.2642 59.3786 77.321C59.3729 76.5881 59.532 75.9148 59.8558 75.3011C60.1797 74.6875 60.6172 74.1761 61.1683 73.767C61.7251 73.3523 62.3445 73.0881 63.0263 72.9744V72.8551C62.1286 72.6562 61.4013 72.1989 60.8445 71.483C60.2933 70.7614 60.0206 69.929 60.0263 68.9858C60.0206 68.0881 60.2706 67.2869 60.7763 66.5824C61.282 65.8778 61.9751 65.3239 62.8558 64.9205C63.7365 64.5114 64.7422 64.3068 65.8729 64.3068C66.9922 64.3068 67.9893 64.5114 68.8643 64.9205C69.745 65.3239 70.4382 65.8778 70.9439 66.5824C71.4553 67.2869 71.7109 68.0881 71.7109 68.9858C71.7109 69.929 71.4297 70.7614 70.8672 71.483C70.3104 72.1989 69.5916 72.6562 68.7109 72.8551V72.9744C69.3928 73.0881 70.0064 73.3523 70.5518 73.767C71.103 74.1761 71.5405 74.6875 71.8643 75.3011C72.1939 75.9148 72.3587 76.5881 72.3587 77.321C72.3587 78.2642 72.0803 79.108 71.5234 79.8523C70.9666 80.5909 70.1996 81.1733 69.2223 81.5994C68.2507 82.0256 67.1342 82.2386 65.8729 82.2386ZM65.8729 79.8011C66.5263 79.8011 67.0945 79.6903 67.5774 79.4688C68.0604 79.2415 68.4354 78.9233 68.7024 78.5142C68.9695 78.1051 69.1058 77.6335 69.1115 77.0994C69.1058 76.5426 68.9609 76.0511 68.6768 75.625C68.3984 75.1932 68.0149 74.8551 67.5263 74.6108C67.0433 74.3665 66.4922 74.2443 65.8729 74.2443C65.2479 74.2443 64.6911 74.3665 64.2024 74.6108C63.7138 74.8551 63.3274 75.1932 63.0433 75.625C62.7649 76.0511 62.6286 76.5426 62.6342 77.0994C62.6286 77.6335 62.7592 78.1051 63.0263 78.5142C63.2933 78.9176 63.6683 79.233 64.1513 79.4602C64.6399 79.6875 65.2138 79.8011 65.8729 79.8011ZM65.8729 71.8494C66.407 71.8494 66.8786 71.7415 67.2876 71.5256C67.7024 71.3097 68.0291 71.0085 68.2678 70.6222C68.5064 70.2358 68.6286 69.7898 68.6342 69.2841C68.6286 68.7841 68.5092 68.3466 68.2763 67.9716C68.0433 67.5909 67.7195 67.2983 67.3047 67.0938C66.8899 66.8835 66.4126 66.7784 65.8729 66.7784C65.3217 66.7784 64.8359 66.8835 64.4155 67.0938C64.0007 67.2983 63.6768 67.5909 63.4439 67.9716C63.2166 68.3466 63.1058 68.7841 63.1115 69.2841C63.1058 69.7898 63.2195 70.2358 63.4524 70.6222C63.6911 71.0028 64.0178 71.304 64.4325 71.5256C64.853 71.7415 65.3331 71.8494 65.8729 71.8494ZM84.4929 78.7273V77.8068C84.4929 77.1307 84.6349 76.5085 84.919 75.9403C85.2088 75.3722 85.6293 74.9148 86.1804 74.5682C86.7315 74.2216 87.3991 74.0483 88.1832 74.0483C88.9901 74.0483 89.6662 74.2216 90.2116 74.5682C90.7571 74.9091 91.169 75.3636 91.4474 75.9318C91.7315 76.5 91.8736 77.125 91.8736 77.8068V78.7273C91.8736 79.4034 91.7315 80.0256 91.4474 80.5938C91.1634 81.1619 90.7457 81.6193 90.1946 81.9659C89.6491 82.3125 88.9787 82.4858 88.1832 82.4858C87.3878 82.4858 86.7145 82.3125 86.1634 81.9659C85.6122 81.6193 85.1946 81.1619 84.9105 80.5938C84.6321 80.0256 84.4929 79.4034 84.4929 78.7273ZM86.7173 77.8068V78.7273C86.7173 79.1761 86.8253 79.5881 87.0412 79.9631C87.2571 80.3381 87.6378 80.5256 88.1832 80.5256C88.7344 80.5256 89.1122 80.3409 89.3168 79.9716C89.527 79.5966 89.6321 79.1818 89.6321 78.7273V77.8068C89.6321 77.3523 89.5327 76.9375 89.3338 76.5625C89.1349 76.1818 88.7514 75.9915 88.1832 75.9915C87.6491 75.9915 87.2713 76.1818 87.0497 76.5625C86.8281 76.9375 86.7173 77.3523 86.7173 77.8068ZM75.6207 68.7386V67.8182C75.6207 67.1364 75.7656 66.5114 76.0554 65.9432C76.3452 65.375 76.7656 64.9205 77.3168 64.5795C77.8679 64.233 78.5355 64.0597 79.3196 64.0597C80.1207 64.0597 80.794 64.233 81.3395 64.5795C81.8906 64.9205 82.3054 65.375 82.5838 65.9432C82.8622 66.5114 83.0014 67.1364 83.0014 67.8182V68.7386C83.0014 69.4205 82.8594 70.0455 82.5753 70.6136C82.2969 71.1761 81.8821 71.6278 81.331 71.9688C80.7798 72.3097 80.1094 72.4801 79.3196 72.4801C78.5185 72.4801 77.8423 72.3097 77.2912 71.9688C76.7457 71.6278 76.331 71.1733 76.0469 70.6051C75.7628 70.0369 75.6207 69.4148 75.6207 68.7386ZM77.8622 67.8182V68.7386C77.8622 69.1932 77.9673 69.608 78.1776 69.983C78.3935 70.3523 78.7741 70.5369 79.3196 70.5369C79.8651 70.5369 80.2401 70.3523 80.4446 69.983C80.6548 69.608 80.7599 69.1932 80.7599 68.7386V67.8182C80.7599 67.3636 80.6605 66.9489 80.4616 66.5739C80.2628 66.1932 79.8821 66.0028 79.3196 66.0028C78.7798 66.0028 78.402 66.1932 78.1861 66.5739C77.9702 66.9545 77.8622 67.3693 77.8622 67.8182ZM76.5923 82L88.5923 64.5455H90.723L78.723 82H76.5923Z" fill="#171717"/>
<path d="M100 73C100 67.4772 104.477 63 110 63H178C183.523 63 188 67.4772 188 73C188 78.5228 183.523 83 178 83H110C104.477 83 100 78.5228 100 73Z" fill="#E0FAEC"/>
<path d="M108.959 77V68.2727H110.276V75.8665H114.23V77H108.959ZM117.535 77.1449C117.12 77.1449 116.745 77.0682 116.41 76.9148C116.075 76.7585 115.809 76.5327 115.613 76.2372C115.42 75.9418 115.323 75.5795 115.323 75.1506C115.323 74.7812 115.394 74.4773 115.536 74.2386C115.678 74 115.87 73.8111 116.112 73.6719C116.353 73.5327 116.623 73.4276 116.921 73.3565C117.219 73.2855 117.523 73.2315 117.833 73.1946C118.225 73.1491 118.543 73.1122 118.788 73.0838C119.032 73.0526 119.21 73.0028 119.32 72.9347C119.431 72.8665 119.487 72.7557 119.487 72.6023V72.5724C119.487 72.2003 119.381 71.9119 119.171 71.7074C118.964 71.5028 118.654 71.4006 118.242 71.4006C117.813 71.4006 117.475 71.4957 117.228 71.6861C116.984 71.8736 116.815 72.0824 116.721 72.3125L115.523 72.0398C115.665 71.642 115.873 71.321 116.146 71.0767C116.421 70.8295 116.738 70.6506 117.096 70.5398C117.454 70.4261 117.83 70.3693 118.225 70.3693C118.487 70.3693 118.763 70.4006 119.056 70.4631C119.352 70.5227 119.627 70.6335 119.883 70.7955C120.141 70.9574 120.353 71.1889 120.518 71.4901C120.683 71.7884 120.765 72.1761 120.765 72.6534V77H119.521V76.1051H119.469C119.387 76.2699 119.263 76.4318 119.099 76.5909C118.934 76.75 118.722 76.8821 118.464 76.9872C118.205 77.0923 117.896 77.1449 117.535 77.1449ZM117.812 76.1222C118.164 76.1222 118.465 76.0526 118.715 75.9134C118.968 75.7741 119.16 75.5923 119.29 75.3679C119.424 75.1406 119.491 74.8977 119.491 74.6392V73.7955C119.445 73.8409 119.357 73.8835 119.227 73.9233C119.099 73.9602 118.952 73.9929 118.788 74.0213C118.623 74.0469 118.462 74.071 118.306 74.0938C118.15 74.1136 118.019 74.1307 117.914 74.1449C117.667 74.1761 117.441 74.2287 117.237 74.3026C117.035 74.3764 116.873 74.483 116.751 74.6222C116.631 74.7585 116.572 74.9403 116.572 75.1676C116.572 75.483 116.688 75.7216 116.921 75.8835C117.154 76.0426 117.451 76.1222 117.812 76.1222ZM127.367 72.0526L126.212 72.2571C126.164 72.1094 126.087 71.9687 125.982 71.8352C125.88 71.7017 125.74 71.5923 125.564 71.5071C125.388 71.4219 125.168 71.3793 124.904 71.3793C124.543 71.3793 124.242 71.4602 124 71.6222C123.759 71.7812 123.638 71.9872 123.638 72.2401C123.638 72.4588 123.719 72.6349 123.881 72.7685C124.043 72.902 124.304 73.0114 124.665 73.0966L125.705 73.3352C126.307 73.4744 126.756 73.6889 127.051 73.9787C127.347 74.2685 127.495 74.6449 127.495 75.108C127.495 75.5 127.381 75.8494 127.154 76.1562C126.929 76.4602 126.615 76.6989 126.212 76.8722C125.811 77.0455 125.347 77.1321 124.819 77.1321C124.086 77.1321 123.488 76.9759 123.025 76.6634C122.561 76.348 122.277 75.9006 122.172 75.321L123.404 75.1335C123.48 75.4545 123.638 75.6974 123.877 75.8622C124.115 76.0241 124.426 76.1051 124.81 76.1051C125.228 76.1051 125.561 76.0185 125.811 75.8452C126.061 75.669 126.186 75.4545 126.186 75.2017C126.186 74.9972 126.11 74.8253 125.956 74.6861C125.806 74.5469 125.574 74.4418 125.262 74.3707L124.154 74.1278C123.543 73.9886 123.091 73.767 122.799 73.4631C122.509 73.1591 122.364 72.7741 122.364 72.3082C122.364 71.9219 122.472 71.5838 122.688 71.294C122.904 71.0043 123.202 70.7784 123.583 70.6165C123.963 70.4517 124.4 70.3693 124.891 70.3693C125.598 70.3693 126.155 70.5227 126.561 70.8295C126.968 71.1335 127.236 71.5412 127.367 72.0526ZM131.951 70.4545V71.4773H128.376V70.4545H131.951ZM129.335 68.8864H130.609V75.0781C130.609 75.3253 130.646 75.5114 130.719 75.6364C130.793 75.7585 130.888 75.8423 131.005 75.8878C131.124 75.9304 131.254 75.9517 131.393 75.9517C131.495 75.9517 131.585 75.9446 131.661 75.9304C131.738 75.9162 131.798 75.9048 131.84 75.8963L132.07 76.9489C131.996 76.9773 131.891 77.0057 131.755 77.0341C131.619 77.0653 131.448 77.0824 131.244 77.0852C130.908 77.0909 130.596 77.0312 130.306 76.9062C130.016 76.7812 129.782 76.5881 129.603 76.3267C129.424 76.0653 129.335 75.7372 129.335 75.3423V68.8864ZM139.83 68.2727V77H138.509V69.5938H138.458L136.37 70.9574V69.696L138.548 68.2727H139.83ZM145.072 77.1193C144.538 77.1193 144.058 77.017 143.631 76.8125C143.208 76.6051 142.87 76.321 142.617 75.9602C142.364 75.5994 142.229 75.1875 142.212 74.7244H143.491C143.522 75.0994 143.688 75.4077 143.989 75.6491C144.29 75.8906 144.651 76.0114 145.072 76.0114C145.407 76.0114 145.704 75.9347 145.962 75.7812C146.224 75.625 146.428 75.4105 146.576 75.1378C146.727 74.8651 146.802 74.554 146.802 74.2045C146.802 73.8494 146.725 73.5327 146.572 73.2543C146.418 72.9759 146.207 72.7571 145.937 72.598C145.67 72.4389 145.363 72.358 145.016 72.3551C144.752 72.3551 144.487 72.4006 144.219 72.4915C143.952 72.5824 143.737 72.7017 143.572 72.8494L142.366 72.6705L142.856 68.2727H147.654V69.402H143.951L143.674 71.8438H143.725C143.896 71.679 144.121 71.5412 144.403 71.4304C144.687 71.3196 144.991 71.2642 145.315 71.2642C145.846 71.2642 146.319 71.3906 146.734 71.6435C147.151 71.8963 147.479 72.2415 147.718 72.679C147.96 73.1136 148.079 73.6136 148.076 74.179C148.079 74.7443 147.951 75.2486 147.692 75.6918C147.437 76.1349 147.082 76.4844 146.627 76.7401C146.175 76.9929 145.657 77.1193 145.072 77.1193ZM155.276 77.1278C154.747 77.1278 154.276 76.9929 153.861 76.723C153.449 76.4503 153.125 76.0625 152.889 75.5597C152.656 75.054 152.54 74.4474 152.54 73.7401C152.54 73.0327 152.658 72.4276 152.893 71.9247C153.132 71.4219 153.459 71.0369 153.874 70.7699C154.288 70.5028 154.759 70.3693 155.284 70.3693C155.69 70.3693 156.017 70.4375 156.264 70.5739C156.514 70.7074 156.707 70.8636 156.844 71.0426C156.983 71.2216 157.091 71.3793 157.168 71.5156H157.244V68.2727H158.518V77H157.274V75.9815H157.168C157.091 76.1207 156.98 76.2798 156.835 76.4588C156.693 76.6378 156.497 76.794 156.247 76.9276C155.997 77.0611 155.673 77.1278 155.276 77.1278ZM155.557 76.0412C155.923 76.0412 156.233 75.9446 156.486 75.7514C156.741 75.5554 156.935 75.2841 157.065 74.9375C157.199 74.5909 157.266 74.1875 157.266 73.7273C157.266 73.2727 157.2 72.875 157.07 72.5341C156.939 72.1932 156.747 71.9276 156.494 71.7372C156.241 71.5469 155.929 71.4517 155.557 71.4517C155.173 71.4517 154.854 71.5511 154.598 71.75C154.342 71.9489 154.149 72.2202 154.018 72.5639C153.891 72.9077 153.827 73.2955 153.827 73.7273C153.827 74.1648 153.892 74.5582 154.023 74.9077C154.153 75.2571 154.347 75.5341 154.602 75.7386C154.861 75.9403 155.179 76.0412 155.557 76.0412ZM162.242 77.1449C161.827 77.1449 161.452 77.0682 161.117 76.9148C160.782 76.7585 160.516 76.5327 160.32 76.2372C160.127 75.9418 160.03 75.5795 160.03 75.1506C160.03 74.7812 160.101 74.4773 160.243 74.2386C160.385 74 160.577 73.8111 160.819 73.6719C161.06 73.5327 161.33 73.4276 161.628 73.3565C161.926 73.2855 162.23 73.2315 162.54 73.1946C162.932 73.1491 163.25 73.1122 163.495 73.0838C163.739 73.0526 163.917 73.0028 164.027 72.9347C164.138 72.8665 164.194 72.7557 164.194 72.6023V72.5724C164.194 72.2003 164.088 71.9119 163.878 71.7074C163.671 71.5028 163.361 71.4006 162.949 71.4006C162.52 71.4006 162.182 71.4957 161.935 71.6861C161.691 71.8736 161.522 72.0824 161.428 72.3125L160.23 72.0398C160.373 71.642 160.58 71.321 160.853 71.0767C161.128 70.8295 161.445 70.6506 161.803 70.5398C162.161 70.4261 162.537 70.3693 162.932 70.3693C163.194 70.3693 163.471 70.4006 163.763 70.4631C164.059 70.5227 164.334 70.6335 164.59 70.7955C164.848 70.9574 165.06 71.1889 165.225 71.4901C165.39 71.7884 165.472 72.1761 165.472 72.6534V77H164.228V76.1051H164.176C164.094 76.2699 163.971 76.4318 163.806 76.5909C163.641 76.75 163.429 76.8821 163.171 76.9872C162.912 77.0923 162.603 77.1449 162.242 77.1449ZM162.519 76.1222C162.871 76.1222 163.172 76.0526 163.422 75.9134C163.675 75.7741 163.867 75.5923 163.998 75.3679C164.131 75.1406 164.198 74.8977 164.198 74.6392V73.7955C164.152 73.8409 164.064 73.8835 163.934 73.9233C163.806 73.9602 163.659 73.9929 163.495 74.0213C163.33 74.0469 163.169 74.071 163.013 74.0938C162.857 74.1136 162.726 74.1307 162.621 74.1449C162.374 74.1761 162.148 74.2287 161.944 74.3026C161.742 74.3764 161.58 74.483 161.458 74.6222C161.338 74.7585 161.279 74.9403 161.279 75.1676C161.279 75.483 161.395 75.7216 161.628 75.8835C161.861 76.0426 162.158 76.1222 162.519 76.1222ZM167.74 79.4545C167.55 79.4545 167.376 79.4389 167.22 79.4077C167.064 79.3793 166.947 79.348 166.871 79.3139L167.178 78.2699C167.411 78.3324 167.618 78.3594 167.8 78.3509C167.982 78.3423 168.142 78.2741 168.281 78.1463C168.423 78.0185 168.548 77.8097 168.656 77.5199L168.814 77.0852L166.419 70.4545H167.783L169.44 75.5341H169.509L171.166 70.4545H172.534L169.837 77.8736C169.712 78.2145 169.553 78.5028 169.359 78.7386C169.166 78.9773 168.936 79.1563 168.669 79.2756C168.402 79.3949 168.092 79.4545 167.74 79.4545ZM178.636 72.0526L177.482 72.2571C177.433 72.1094 177.357 71.9687 177.251 71.8352C177.149 71.7017 177.01 71.5923 176.834 71.5071C176.658 71.4219 176.438 71.3793 176.173 71.3793C175.813 71.3793 175.511 71.4602 175.27 71.6222C175.028 71.7812 174.908 71.9872 174.908 72.2401C174.908 72.4588 174.989 72.6349 175.151 72.7685C175.313 72.902 175.574 73.0114 175.935 73.0966L176.974 73.3352C177.577 73.4744 178.026 73.6889 178.321 73.9787C178.616 74.2685 178.764 74.6449 178.764 75.108C178.764 75.5 178.651 75.8494 178.423 76.1562C178.199 76.4602 177.885 76.6989 177.482 76.8722C177.081 77.0455 176.616 77.1321 176.088 77.1321C175.355 77.1321 174.757 76.9759 174.294 76.6634C173.831 76.348 173.547 75.9006 173.442 75.321L174.673 75.1335C174.75 75.4545 174.908 75.6974 175.146 75.8622C175.385 76.0241 175.696 76.1051 176.08 76.1051C176.497 76.1051 176.831 76.0185 177.081 75.8452C177.331 75.669 177.456 75.4545 177.456 75.2017C177.456 74.9972 177.379 74.8253 177.226 74.6861C177.075 74.5469 176.844 74.4418 176.531 74.3707L175.423 74.1278C174.813 73.9886 174.361 73.767 174.068 73.4631C173.778 73.1591 173.634 72.7741 173.634 72.3082C173.634 71.9219 173.741 71.5838 173.957 71.294C174.173 71.0043 174.472 70.7784 174.852 70.6165C175.233 70.4517 175.669 70.3693 176.161 70.3693C176.868 70.3693 177.425 70.5227 177.831 70.8295C178.237 71.1335 178.506 71.5412 178.636 72.0526Z" fill="#1FC16B"/>
<mask id="path-8-inside-1_56_1686" fill="white">
<path d="M2 105H354V191H2V105Z"/>
</mask>
<path d="M2 105H354V191H2V105Z" fill="white"/>
<path d="M2 105V106H354V105V104H2V105Z" fill="#F5F5F5" mask="url(#path-8-inside-1_56_1686)"/>
<path d="M2 155L6.82254 152.395C7.10341 152.244 7.43983 152.235 7.72799 152.372L12.399 154.598C12.8734 154.825 13.4419 154.645 13.7002 154.187L24.0491 135.846C24.297 135.407 24.8333 135.221 25.2999 135.412L34.8777 139.346C35.1873 139.473 35.5399 139.437 35.8172 139.25L39.321 136.884C39.4951 136.767 39.6278 136.597 39.7002 136.4L45.1509 121.556C45.3649 120.973 46.053 120.724 46.5904 121.035L52.9355 124.707C53.1623 124.839 53.4316 124.876 53.6855 124.81L62.2228 122.614C62.5648 122.526 62.9278 122.625 63.1779 122.875L74.878 134.536C75.1984 134.855 75.6933 134.919 76.0848 134.693L80.8625 131.928C80.9809 131.86 81.0839 131.767 81.1653 131.658L86.3602 124.643C86.8125 124.032 87.754 124.129 88.072 124.819L89.6181 128.175C89.8969 128.78 90.6786 128.948 91.1818 128.511L92.4124 127.443C92.7515 127.149 93.2451 127.116 93.6196 127.364L99.5956 131.316C100.029 131.603 100.611 131.51 100.933 131.101L110.238 119.289C110.701 118.701 111.623 118.812 111.934 119.494L124.472 147.03C124.726 147.587 125.415 147.788 125.928 147.454L129.843 144.905C130.262 144.632 130.819 144.711 131.146 145.089L133.097 147.348C133.452 147.759 134.072 147.811 134.491 147.464L150.505 134.225C150.781 133.997 151.156 133.934 151.491 134.058L160.655 137.468C160.742 137.5 160.824 137.544 160.899 137.599L173 146.5L177.5 149.5" stroke="#4E5AB3" stroke-width="1.5" stroke-linecap="round"/>
<path d="M6.79801 155.309L2.52404 157.622C2.20117 157.797 2 158.134 2 158.501V193C2 193.552 2.44771 194 3 194H176.222C176.767 194 177.212 193.563 177.222 193.018L177.986 151.258C177.994 150.81 177.703 150.411 177.274 150.282L173.141 149.042C173.047 149.014 172.959 148.973 172.877 148.919L160.163 140.529C160.1 140.488 160.032 140.453 159.961 140.427L150.818 137.019C150.483 136.894 150.106 136.957 149.831 137.186L133.895 150.386C133.476 150.733 132.856 150.681 132.5 150.269L130.564 148.023C130.237 147.644 129.68 147.565 129.261 147.839L125.373 150.375C124.86 150.71 124.169 150.509 123.916 149.951L111.439 122.497C111.129 121.814 110.206 121.703 109.743 122.293L100.488 134.064C100.166 134.474 99.5838 134.567 99.1496 134.28L93.2087 130.343C92.8339 130.094 92.3394 130.127 92.0001 130.422L90.7838 131.48C90.2804 131.917 89.4977 131.749 89.219 131.143L87.686 127.81C87.3681 127.118 86.4255 127.021 85.9733 127.633L80.8075 134.622C80.7262 134.732 80.6232 134.824 80.5049 134.893L75.7536 137.648C75.3616 137.875 74.8659 137.811 74.5453 137.49L62.9032 125.864C62.653 125.614 62.2894 125.515 61.947 125.603L53.4541 127.792C53.1998 127.858 52.93 127.821 52.7029 127.689L46.3944 124.031C45.8566 123.719 45.1677 123.968 44.9538 124.552L39.5299 139.352C39.4576 139.549 39.3251 139.719 39.1512 139.837L35.6668 142.194C35.3892 142.382 35.0359 142.418 34.7259 142.29L25.1992 138.37C24.7322 138.178 24.1951 138.364 23.9473 138.804L13.6493 157.091C13.3912 157.549 12.8219 157.729 12.3471 157.503L7.70489 155.286C7.41632 155.148 7.07925 155.157 6.79801 155.309Z" fill="#F7F7FB"/>
<line x1="177.75" y1="105" x2="177.75" y2="191" stroke="#4E5AB3" stroke-width="1.5"/>
<path d="M196.645 127.545V137H194.933V127.545H196.645ZM198.283 137V129.909H199.88V131.114H199.963C200.111 130.708 200.356 130.391 200.697 130.163C201.039 129.932 201.447 129.817 201.921 129.817C202.401 129.817 202.806 129.934 203.135 130.168C203.467 130.398 203.701 130.714 203.837 131.114H203.911C204.067 130.72 204.332 130.406 204.705 130.172C205.08 129.935 205.525 129.817 206.039 129.817C206.691 129.817 207.224 130.023 207.636 130.435C208.048 130.848 208.255 131.449 208.255 132.24V137H206.579V132.499C206.579 132.059 206.462 131.737 206.228 131.534C205.994 131.328 205.708 131.225 205.369 131.225C204.966 131.225 204.651 131.351 204.423 131.603C204.198 131.853 204.086 132.177 204.086 132.577V137H202.447V132.43C202.447 132.063 202.336 131.771 202.115 131.553C201.896 131.334 201.61 131.225 201.256 131.225C201.016 131.225 200.797 131.286 200.601 131.409C200.404 131.529 200.247 131.7 200.13 131.922C200.013 132.14 199.954 132.396 199.954 132.688V137H198.283ZM209.807 139.659V129.909H211.451V131.082H211.547C211.634 130.909 211.755 130.726 211.912 130.532C212.069 130.335 212.281 130.168 212.549 130.029C212.817 129.888 213.159 129.817 213.574 129.817C214.122 129.817 214.616 129.957 215.056 130.237C215.499 130.514 215.85 130.925 216.109 131.469C216.37 132.011 216.501 132.676 216.501 133.464C216.501 134.242 216.373 134.904 216.118 135.449C215.862 135.994 215.515 136.409 215.074 136.695C214.634 136.982 214.136 137.125 213.579 137.125C213.172 137.125 212.835 137.057 212.568 136.922C212.3 136.786 212.085 136.623 211.921 136.432C211.761 136.238 211.637 136.055 211.547 135.883H211.478V139.659H209.807ZM211.446 133.455C211.446 133.913 211.511 134.315 211.64 134.659C211.772 135.004 211.961 135.273 212.208 135.467C212.457 135.658 212.759 135.754 213.112 135.754C213.482 135.754 213.791 135.655 214.04 135.458C214.29 135.258 214.477 134.986 214.604 134.641C214.733 134.293 214.797 133.898 214.797 133.455C214.797 133.014 214.734 132.624 214.608 132.282C214.482 131.94 214.294 131.673 214.045 131.479C213.796 131.285 213.485 131.188 213.112 131.188C212.755 131.188 212.452 131.282 212.203 131.469C211.954 131.657 211.764 131.92 211.635 132.259C211.509 132.597 211.446 132.996 211.446 133.455ZM219.83 137.143C219.38 137.143 218.975 137.063 218.615 136.903C218.258 136.74 217.975 136.5 217.766 136.183C217.56 135.866 217.457 135.475 217.457 135.01C217.457 134.61 217.531 134.279 217.678 134.018C217.826 133.756 218.028 133.547 218.283 133.39C218.538 133.233 218.826 133.114 219.146 133.034C219.469 132.951 219.803 132.891 220.148 132.854C220.564 132.811 220.901 132.773 221.159 132.739C221.418 132.702 221.605 132.647 221.722 132.573C221.842 132.496 221.902 132.377 221.902 132.217V132.19C221.902 131.842 221.799 131.573 221.593 131.382C221.387 131.191 221.09 131.096 220.702 131.096C220.293 131.096 219.968 131.185 219.728 131.363C219.491 131.542 219.331 131.753 219.248 131.996L217.687 131.774C217.811 131.343 218.014 130.983 218.297 130.694C218.58 130.402 218.926 130.183 219.336 130.038C219.745 129.891 220.197 129.817 220.693 129.817C221.034 129.817 221.375 129.857 221.713 129.937C222.052 130.017 222.361 130.149 222.641 130.334C222.921 130.515 223.146 130.763 223.315 131.077C223.487 131.391 223.573 131.783 223.573 132.254V137H221.967V136.026H221.912C221.81 136.223 221.667 136.408 221.482 136.58C221.301 136.749 221.071 136.886 220.794 136.991C220.52 137.092 220.199 137.143 219.83 137.143ZM220.263 135.915C220.599 135.915 220.89 135.849 221.136 135.717C221.382 135.581 221.571 135.403 221.704 135.181C221.839 134.96 221.907 134.718 221.907 134.456V133.621C221.855 133.664 221.765 133.704 221.639 133.741C221.516 133.778 221.378 133.81 221.224 133.838C221.07 133.865 220.917 133.89 220.767 133.912C220.616 133.933 220.485 133.952 220.374 133.967C220.125 134.001 219.902 134.056 219.705 134.133C219.508 134.21 219.352 134.318 219.239 134.456C219.125 134.592 219.068 134.767 219.068 134.983C219.068 135.29 219.18 135.523 219.405 135.68C219.629 135.837 219.916 135.915 220.263 135.915ZM228.204 137.138C227.496 137.138 226.888 136.983 226.38 136.672C225.876 136.361 225.486 135.932 225.212 135.384C224.942 134.833 224.806 134.199 224.806 133.482C224.806 132.762 224.945 132.127 225.222 131.576C225.499 131.022 225.89 130.591 226.394 130.283C226.902 129.972 227.502 129.817 228.195 129.817C228.77 129.817 229.28 129.923 229.723 130.135C230.169 130.345 230.524 130.642 230.789 131.026C231.054 131.408 231.205 131.854 231.242 132.365H229.644C229.58 132.023 229.426 131.739 229.183 131.511C228.943 131.28 228.621 131.165 228.218 131.165C227.876 131.165 227.576 131.257 227.318 131.442C227.059 131.623 226.857 131.885 226.713 132.227C226.571 132.568 226.5 132.978 226.5 133.455C226.5 133.938 226.571 134.353 226.713 134.701C226.854 135.046 227.053 135.312 227.308 135.5C227.567 135.684 227.87 135.777 228.218 135.777C228.464 135.777 228.684 135.73 228.878 135.638C229.075 135.543 229.24 135.406 229.372 135.227C229.504 135.049 229.595 134.832 229.644 134.576H231.242C231.202 135.078 231.054 135.523 230.798 135.911C230.543 136.295 230.195 136.597 229.755 136.815C229.315 137.031 228.798 137.138 228.204 137.138ZM236.012 129.909V131.202H231.935V129.909H236.012ZM232.942 128.21H234.613V134.867C234.613 135.092 234.647 135.264 234.714 135.384C234.785 135.501 234.878 135.581 234.991 135.624C235.105 135.667 235.231 135.689 235.37 135.689C235.475 135.689 235.57 135.681 235.656 135.666C235.745 135.65 235.813 135.637 235.859 135.624L236.141 136.931C236.052 136.962 235.924 136.995 235.758 137.032C235.595 137.069 235.395 137.091 235.158 137.097C234.739 137.109 234.362 137.046 234.027 136.908C233.691 136.766 233.425 136.548 233.228 136.252C233.034 135.957 232.939 135.587 232.942 135.144V128.21ZM240.422 127.545H242.518L245.324 134.396H245.435L248.242 127.545H250.338V137H248.694V130.505H248.607L245.994 136.972H244.766L242.153 130.491H242.065V137H240.422V127.545ZM255.125 137.138C254.414 137.138 253.8 136.991 253.283 136.695C252.769 136.397 252.374 135.975 252.097 135.43C251.82 134.883 251.681 134.238 251.681 133.496C251.681 132.767 251.82 132.127 252.097 131.576C252.377 131.022 252.768 130.591 253.27 130.283C253.771 129.972 254.361 129.817 255.038 129.817C255.475 129.817 255.887 129.888 256.275 130.029C256.666 130.168 257.01 130.383 257.309 130.675C257.611 130.968 257.848 131.34 258.02 131.793C258.192 132.242 258.278 132.777 258.278 133.399V133.912H252.466V132.785H256.676C256.673 132.465 256.604 132.18 256.469 131.931C256.333 131.679 256.144 131.48 255.901 131.336C255.661 131.191 255.381 131.119 255.061 131.119C254.719 131.119 254.419 131.202 254.161 131.368C253.902 131.531 253.7 131.746 253.556 132.014C253.414 132.279 253.342 132.57 253.339 132.887V133.87C253.339 134.282 253.414 134.636 253.565 134.932C253.716 135.224 253.927 135.449 254.197 135.606C254.468 135.76 254.785 135.837 255.148 135.837C255.392 135.837 255.612 135.803 255.809 135.735C256.006 135.664 256.176 135.561 256.321 135.426C256.466 135.29 256.575 135.123 256.649 134.923L258.209 135.098C258.111 135.51 257.923 135.871 257.646 136.178C257.372 136.483 257.021 136.72 256.593 136.889C256.166 137.055 255.676 137.138 255.125 137.138ZM263.09 129.909V131.202H259.014V129.909H263.09ZM260.02 128.21H261.691V134.867C261.691 135.092 261.725 135.264 261.793 135.384C261.864 135.501 261.956 135.581 262.07 135.624C262.184 135.667 262.31 135.689 262.448 135.689C262.553 135.689 262.648 135.681 262.735 135.666C262.824 135.65 262.892 135.637 262.938 135.624L263.219 136.931C263.13 136.962 263.002 136.995 262.836 137.032C262.673 137.069 262.473 137.091 262.236 137.097C261.817 137.109 261.44 137.046 261.105 136.908C260.769 136.766 260.503 136.548 260.306 136.252C260.112 135.957 260.017 135.587 260.02 135.144V128.21ZM264.345 137V129.909H265.965V131.091H266.039C266.168 130.682 266.39 130.366 266.704 130.145C267.021 129.92 267.382 129.808 267.789 129.808C267.881 129.808 267.984 129.812 268.098 129.821C268.215 129.828 268.312 129.838 268.389 129.854V131.391C268.318 131.366 268.206 131.345 268.052 131.326C267.901 131.305 267.755 131.294 267.613 131.294C267.308 131.294 267.035 131.36 266.791 131.493C266.551 131.622 266.362 131.802 266.224 132.033C266.085 132.263 266.016 132.53 266.016 132.831V137H264.345ZM269.356 137V129.909H271.027V137H269.356ZM270.196 128.903C269.932 128.903 269.704 128.815 269.513 128.64C269.322 128.461 269.227 128.247 269.227 127.998C269.227 127.746 269.322 127.532 269.513 127.356C269.704 127.178 269.932 127.088 270.196 127.088C270.464 127.088 270.692 127.178 270.879 127.356C271.07 127.532 271.166 127.746 271.166 127.998C271.166 128.247 271.07 128.461 270.879 128.64C270.692 128.815 270.464 128.903 270.196 128.903ZM275.696 137.138C274.988 137.138 274.38 136.983 273.872 136.672C273.367 136.361 272.978 135.932 272.704 135.384C272.433 134.833 272.298 134.199 272.298 133.482C272.298 132.762 272.436 132.127 272.713 131.576C272.99 131.022 273.381 130.591 273.886 130.283C274.394 129.972 274.994 129.817 275.686 129.817C276.262 129.817 276.771 129.923 277.214 130.135C277.661 130.345 278.016 130.642 278.281 131.026C278.546 131.408 278.696 131.854 278.733 132.365H277.136C277.071 132.023 276.917 131.739 276.674 131.511C276.434 131.28 276.113 131.165 275.71 131.165C275.368 131.165 275.068 131.257 274.809 131.442C274.551 131.623 274.349 131.885 274.205 132.227C274.063 132.568 273.992 132.978 273.992 133.455C273.992 133.938 274.063 134.353 274.205 134.701C274.346 135.046 274.545 135.312 274.8 135.5C275.059 135.684 275.362 135.777 275.71 135.777C275.956 135.777 276.176 135.73 276.37 135.638C276.567 135.543 276.731 135.406 276.864 135.227C276.996 135.049 277.087 134.832 277.136 134.576H278.733C278.693 135.078 278.546 135.523 278.29 135.911C278.035 136.295 277.687 136.597 277.247 136.815C276.807 137.031 276.29 137.138 275.696 137.138ZM285.567 131.783L284.044 131.95C284 131.796 283.925 131.651 283.817 131.516C283.713 131.38 283.571 131.271 283.393 131.188C283.214 131.105 282.996 131.063 282.737 131.063C282.389 131.063 282.097 131.139 281.86 131.289C281.626 131.44 281.511 131.636 281.514 131.876C281.511 132.082 281.586 132.25 281.74 132.379C281.897 132.508 282.155 132.614 282.515 132.697L283.725 132.956C284.396 133.101 284.894 133.33 285.221 133.644C285.55 133.958 285.716 134.369 285.719 134.876C285.716 135.323 285.585 135.717 285.327 136.058C285.071 136.397 284.716 136.661 284.26 136.852C283.805 137.043 283.282 137.138 282.691 137.138C281.823 137.138 281.124 136.957 280.595 136.594C280.066 136.228 279.75 135.718 279.649 135.066L281.278 134.909C281.352 135.229 281.509 135.47 281.749 135.634C281.989 135.797 282.302 135.878 282.686 135.878C283.083 135.878 283.402 135.797 283.642 135.634C283.885 135.47 284.007 135.269 284.007 135.029C284.007 134.826 283.928 134.658 283.771 134.526C283.617 134.393 283.377 134.292 283.051 134.221L281.841 133.967C281.161 133.825 280.658 133.587 280.332 133.251C280.006 132.913 279.844 132.485 279.847 131.968C279.844 131.531 279.963 131.152 280.203 130.832C280.446 130.509 280.783 130.26 281.214 130.085C281.648 129.906 282.148 129.817 282.714 129.817C283.545 129.817 284.199 129.994 284.676 130.348C285.156 130.702 285.453 131.18 285.567 131.783Z" fill="#171717"/>
<path d="M197.805 148V156H196.594V149.211H196.547L194.633 150.461V149.305L196.629 148H197.805ZM202.754 156.133C202.137 156.13 201.609 155.967 201.172 155.645C200.734 155.322 200.4 154.852 200.168 154.234C199.936 153.617 199.82 152.874 199.82 152.004C199.82 151.137 199.936 150.396 200.168 149.781C200.402 149.167 200.738 148.698 201.176 148.375C201.616 148.052 202.142 147.891 202.754 147.891C203.366 147.891 203.891 148.053 204.328 148.379C204.766 148.702 205.1 149.171 205.332 149.785C205.566 150.397 205.684 151.137 205.684 152.004C205.684 152.876 205.568 153.621 205.336 154.238C205.104 154.853 204.77 155.323 204.332 155.648C203.895 155.971 203.368 156.133 202.754 156.133ZM202.754 155.09C203.296 155.09 203.719 154.826 204.023 154.297C204.331 153.768 204.484 153.004 204.484 152.004C204.484 151.34 204.414 150.779 204.273 150.32C204.135 149.859 203.936 149.51 203.676 149.273C203.418 149.034 203.111 148.914 202.754 148.914C202.215 148.914 201.792 149.18 201.484 149.711C201.177 150.242 201.022 151.007 201.02 152.004C201.02 152.671 201.089 153.234 201.227 153.695C201.367 154.154 201.566 154.501 201.824 154.738C202.082 154.973 202.392 155.09 202.754 155.09ZM208.314 154.906L208.256 155.332C208.217 155.645 208.15 155.97 208.057 156.309C207.965 156.65 207.87 156.966 207.771 157.258C207.675 157.549 207.596 157.781 207.533 157.953H206.705C206.739 157.792 206.786 157.573 206.846 157.297C206.906 157.023 206.964 156.717 207.021 156.379C207.079 156.04 207.122 155.695 207.15 155.344L207.189 154.906H208.314ZM212.443 156.133C211.826 156.13 211.299 155.967 210.861 155.645C210.424 155.322 210.089 154.852 209.857 154.234C209.626 153.617 209.51 152.874 209.51 152.004C209.51 151.137 209.626 150.396 209.857 149.781C210.092 149.167 210.428 148.698 210.865 148.375C211.305 148.052 211.831 147.891 212.443 147.891C213.055 147.891 213.58 148.053 214.018 148.379C214.455 148.702 214.79 149.171 215.021 149.785C215.256 150.397 215.373 151.137 215.373 152.004C215.373 152.876 215.257 153.621 215.025 154.238C214.794 154.853 214.459 155.323 214.021 155.648C213.584 155.971 213.058 156.133 212.443 156.133ZM212.443 155.09C212.985 155.09 213.408 154.826 213.713 154.297C214.02 153.768 214.174 153.004 214.174 152.004C214.174 151.34 214.104 150.779 213.963 150.32C213.825 149.859 213.626 149.51 213.365 149.273C213.107 149.034 212.8 148.914 212.443 148.914C211.904 148.914 211.481 149.18 211.174 149.711C210.867 150.242 210.712 151.007 210.709 152.004C210.709 152.671 210.778 153.234 210.916 153.695C211.057 154.154 211.256 154.501 211.514 154.738C211.771 154.973 212.081 155.09 212.443 155.09ZM219.544 156.133C218.927 156.13 218.399 155.967 217.962 155.645C217.524 155.322 217.19 154.852 216.958 154.234C216.726 153.617 216.61 152.874 216.61 152.004C216.61 151.137 216.726 150.396 216.958 149.781C217.192 149.167 217.528 148.698 217.966 148.375C218.406 148.052 218.932 147.891 219.544 147.891C220.156 147.891 220.681 148.053 221.118 148.379C221.556 148.702 221.89 149.171 222.122 149.785C222.356 150.397 222.474 151.137 222.474 152.004C222.474 152.876 222.358 153.621 222.126 154.238C221.894 154.853 221.56 155.323 221.122 155.648C220.685 155.971 220.159 156.133 219.544 156.133ZM219.544 155.09C220.086 155.09 220.509 154.826 220.813 154.297C221.121 153.768 221.274 153.004 221.274 152.004C221.274 151.34 221.204 150.779 221.063 150.32C220.925 149.859 220.726 149.51 220.466 149.273C220.208 149.034 219.901 148.914 219.544 148.914C219.005 148.914 218.582 149.18 218.274 149.711C217.967 150.242 217.812 151.007 217.81 152.004C217.81 152.671 217.879 153.234 218.017 153.695C218.157 154.154 218.356 154.501 218.614 154.738C218.872 154.973 219.182 155.09 219.544 155.09ZM226.645 156.133C226.027 156.13 225.5 155.967 225.063 155.645C224.625 155.322 224.29 154.852 224.059 154.234C223.827 153.617 223.711 152.874 223.711 152.004C223.711 151.137 223.827 150.396 224.059 149.781C224.293 149.167 224.629 148.698 225.066 148.375C225.507 148.052 226.033 147.891 226.645 147.891C227.257 147.891 227.781 148.053 228.219 148.379C228.656 148.702 228.991 149.171 229.223 149.785C229.457 150.397 229.574 151.137 229.574 152.004C229.574 152.876 229.458 153.621 229.227 154.238C228.995 154.853 228.66 155.323 228.223 155.648C227.785 155.971 227.259 156.133 226.645 156.133ZM226.645 155.09C227.186 155.09 227.609 154.826 227.914 154.297C228.221 153.768 228.375 153.004 228.375 152.004C228.375 151.34 228.305 150.779 228.164 150.32C228.026 149.859 227.827 149.51 227.566 149.273C227.309 149.034 227.001 148.914 226.645 148.914C226.105 148.914 225.682 149.18 225.375 149.711C225.068 150.242 224.913 151.007 224.91 152.004C224.91 152.671 224.979 153.234 225.117 153.695C225.258 154.154 225.457 154.501 225.715 154.738C225.973 154.973 226.283 155.09 226.645 155.09ZM233.327 155.492V150.211H234.378V155.492H233.327ZM231.214 153.375V152.324H236.495V153.375H231.214ZM241.213 156V150H242.381V156H241.213ZM241.803 149.074C241.6 149.074 241.425 149.007 241.279 148.871C241.136 148.733 241.064 148.569 241.064 148.379C241.064 148.186 241.136 148.022 241.279 147.887C241.425 147.749 241.6 147.68 241.803 147.68C242.006 147.68 242.179 147.749 242.322 147.887C242.468 148.022 242.541 148.186 242.541 148.379C242.541 148.569 242.468 148.733 242.322 148.871C242.179 149.007 242.006 149.074 241.803 149.074ZM248.448 151.465L247.39 151.652C247.345 151.517 247.275 151.388 247.179 151.266C247.085 151.143 246.957 151.043 246.796 150.965C246.634 150.887 246.433 150.848 246.19 150.848C245.86 150.848 245.584 150.922 245.362 151.07C245.141 151.216 245.03 151.405 245.03 151.637C245.03 151.837 245.104 151.999 245.253 152.121C245.401 152.243 245.641 152.344 245.972 152.422L246.925 152.641C247.477 152.768 247.888 152.965 248.159 153.23C248.43 153.496 248.565 153.841 248.565 154.266C248.565 154.625 248.461 154.945 248.253 155.227C248.047 155.505 247.759 155.724 247.39 155.883C247.022 156.042 246.597 156.121 246.112 156.121C245.44 156.121 244.892 155.978 244.468 155.691C244.043 155.402 243.783 154.992 243.687 154.461L244.815 154.289C244.886 154.583 245.03 154.806 245.249 154.957C245.468 155.105 245.753 155.18 246.104 155.18C246.487 155.18 246.793 155.1 247.022 154.941C247.252 154.78 247.366 154.583 247.366 154.352C247.366 154.164 247.296 154.007 247.155 153.879C247.017 153.751 246.805 153.655 246.519 153.59L245.503 153.367C244.943 153.24 244.529 153.036 244.261 152.758C243.995 152.479 243.862 152.126 243.862 151.699C243.862 151.345 243.961 151.035 244.159 150.77C244.357 150.504 244.631 150.297 244.979 150.148C245.328 149.997 245.728 149.922 246.179 149.922C246.827 149.922 247.338 150.062 247.71 150.344C248.082 150.622 248.328 150.996 248.448 151.465ZM254.346 151.465L253.287 151.652C253.243 151.517 253.173 151.388 253.076 151.266C252.982 151.143 252.855 151.043 252.693 150.965C252.532 150.887 252.33 150.848 252.088 150.848C251.757 150.848 251.481 150.922 251.26 151.07C251.038 151.216 250.928 151.405 250.928 151.637C250.928 151.837 251.002 151.999 251.15 152.121C251.299 152.243 251.538 152.344 251.869 152.422L252.822 152.641C253.374 152.768 253.786 152.965 254.057 153.23C254.327 153.496 254.463 153.841 254.463 154.266C254.463 154.625 254.359 154.945 254.15 155.227C253.945 155.505 253.657 155.724 253.287 155.883C252.92 156.042 252.494 156.121 252.01 156.121C251.338 156.121 250.79 155.978 250.365 155.691C249.941 155.402 249.68 154.992 249.584 154.461L250.713 154.289C250.783 154.583 250.928 154.806 251.146 154.957C251.365 155.105 251.65 155.18 252.002 155.18C252.385 155.18 252.691 155.1 252.92 154.941C253.149 154.78 253.264 154.583 253.264 154.352C253.264 154.164 253.193 154.007 253.053 153.879C252.915 153.751 252.702 153.655 252.416 153.59L251.4 153.367C250.84 153.24 250.426 153.036 250.158 152.758C249.893 152.479 249.76 152.126 249.76 151.699C249.76 151.345 249.859 151.035 250.057 150.77C250.255 150.504 250.528 150.297 250.877 150.148C251.226 149.997 251.626 149.922 252.076 149.922C252.725 149.922 253.235 150.062 253.607 150.344C253.98 150.622 254.226 150.996 254.346 151.465ZM259.548 153.512V150H260.72V156H259.571V154.961H259.509C259.371 155.281 259.149 155.548 258.845 155.762C258.543 155.973 258.166 156.078 257.716 156.078C257.33 156.078 256.989 155.993 256.692 155.824C256.398 155.652 256.166 155.398 255.997 155.062C255.83 154.727 255.747 154.311 255.747 153.816V150H256.915V153.676C256.915 154.085 257.028 154.41 257.255 154.652C257.481 154.895 257.776 155.016 258.138 155.016C258.356 155.016 258.574 154.961 258.79 154.852C259.009 154.742 259.19 154.577 259.333 154.355C259.479 154.134 259.55 153.853 259.548 153.512ZM264.875 156.121C264.284 156.121 263.775 155.995 263.348 155.742C262.923 155.487 262.595 155.129 262.363 154.668C262.134 154.204 262.02 153.661 262.02 153.039C262.02 152.424 262.134 151.883 262.363 151.414C262.595 150.945 262.918 150.579 263.332 150.316C263.749 150.053 264.236 149.922 264.793 149.922C265.132 149.922 265.46 149.978 265.777 150.09C266.095 150.202 266.38 150.378 266.633 150.617C266.885 150.857 267.085 151.168 267.23 151.551C267.376 151.931 267.449 152.393 267.449 152.937V153.352H262.68V152.477H266.305C266.305 152.169 266.242 151.897 266.117 151.66C265.992 151.421 265.816 151.232 265.59 151.094C265.366 150.956 265.103 150.887 264.801 150.887C264.473 150.887 264.186 150.967 263.941 151.129C263.699 151.288 263.512 151.496 263.379 151.754C263.249 152.009 263.184 152.286 263.184 152.586V153.27C263.184 153.671 263.254 154.012 263.395 154.293C263.538 154.574 263.737 154.789 263.992 154.937C264.247 155.083 264.546 155.156 264.887 155.156C265.108 155.156 265.31 155.125 265.492 155.062C265.674 154.997 265.832 154.901 265.965 154.773C266.098 154.646 266.199 154.488 266.27 154.301L267.375 154.5C267.286 154.826 267.128 155.111 266.898 155.355C266.672 155.598 266.387 155.786 266.043 155.922C265.702 156.055 265.312 156.121 264.875 156.121ZM273.241 151.465L272.183 151.652C272.138 151.517 272.068 151.388 271.972 151.266C271.878 151.143 271.75 151.043 271.589 150.965C271.427 150.887 271.226 150.848 270.983 150.848C270.653 150.848 270.377 150.922 270.155 151.07C269.934 151.216 269.823 151.405 269.823 151.637C269.823 151.837 269.897 151.999 270.046 152.121C270.194 152.243 270.434 152.344 270.765 152.422L271.718 152.641C272.27 152.768 272.681 152.965 272.952 153.23C273.223 153.496 273.358 153.841 273.358 154.266C273.358 154.625 273.254 154.945 273.046 155.227C272.84 155.505 272.552 155.724 272.183 155.883C271.815 156.042 271.39 156.121 270.905 156.121C270.233 156.121 269.685 155.978 269.261 155.691C268.836 155.402 268.576 154.992 268.479 154.461L269.608 154.289C269.679 154.583 269.823 154.806 270.042 154.957C270.261 155.105 270.546 155.18 270.897 155.18C271.28 155.18 271.586 155.1 271.815 154.941C272.045 154.78 272.159 154.583 272.159 154.352C272.159 154.164 272.089 154.007 271.948 153.879C271.81 153.751 271.598 153.655 271.312 153.59L270.296 153.367C269.736 153.24 269.322 153.036 269.054 152.758C268.788 152.479 268.655 152.126 268.655 151.699C268.655 151.345 268.754 151.035 268.952 150.77C269.15 150.504 269.424 150.297 269.772 150.148C270.121 149.997 270.521 149.922 270.972 149.922C271.62 149.922 272.131 150.062 272.503 150.344C272.875 150.622 273.121 150.996 273.241 151.465ZM280.409 150V150.937H277.019V150H280.409ZM277.948 156V149.305C277.948 148.93 278.03 148.618 278.194 148.371C278.358 148.121 278.576 147.935 278.847 147.812C279.118 147.687 279.412 147.625 279.729 147.625C279.964 147.625 280.164 147.645 280.331 147.684C280.498 147.72 280.621 147.754 280.702 147.785L280.429 148.73C280.374 148.715 280.304 148.697 280.218 148.676C280.132 148.652 280.028 148.641 279.905 148.641C279.621 148.641 279.418 148.711 279.296 148.852C279.176 148.992 279.116 149.195 279.116 149.461V156H277.948ZM281.614 156V150H282.782V156H281.614ZM282.204 149.074C282.001 149.074 281.826 149.007 281.681 148.871C281.537 148.733 281.466 148.569 281.466 148.379C281.466 148.186 281.537 148.022 281.681 147.887C281.826 147.749 282.001 147.68 282.204 147.68C282.407 147.68 282.58 147.749 282.724 147.887C282.869 148.022 282.942 148.186 282.942 148.379C282.942 148.569 282.869 148.733 282.724 148.871C282.58 149.007 282.407 149.074 282.204 149.074ZM285.275 150L286.6 152.336L287.936 150H289.213L287.342 153L289.229 156H287.951L286.6 153.758L285.252 156H283.971L285.838 153L283.994 150H285.275ZM292.762 156.121C292.171 156.121 291.661 155.995 291.234 155.742C290.81 155.487 290.482 155.129 290.25 154.668C290.021 154.204 289.906 153.661 289.906 153.039C289.906 152.424 290.021 151.883 290.25 151.414C290.482 150.945 290.805 150.579 291.219 150.316C291.635 150.053 292.122 149.922 292.68 149.922C293.018 149.922 293.346 149.978 293.664 150.09C293.982 150.202 294.267 150.378 294.52 150.617C294.772 150.857 294.971 151.168 295.117 151.551C295.263 151.931 295.336 152.393 295.336 152.937V153.352H290.566V152.477H294.191C294.191 152.169 294.129 151.897 294.004 151.66C293.879 151.421 293.703 151.232 293.477 151.094C293.253 150.956 292.99 150.887 292.687 150.887C292.359 150.887 292.073 150.967 291.828 151.129C291.586 151.288 291.398 151.496 291.266 151.754C291.135 152.009 291.07 152.286 291.07 152.586V153.27C291.07 153.671 291.141 154.012 291.281 154.293C291.424 154.574 291.624 154.789 291.879 154.937C292.134 155.083 292.432 155.156 292.773 155.156C292.995 155.156 293.197 155.125 293.379 155.062C293.561 154.997 293.719 154.901 293.852 154.773C293.984 154.646 294.086 154.488 294.156 154.301L295.262 154.5C295.173 154.826 295.014 155.111 294.785 155.355C294.559 155.598 294.273 155.786 293.93 155.922C293.589 156.055 293.199 156.121 292.762 156.121ZM298.878 156.117C298.394 156.117 297.961 155.993 297.581 155.746C297.203 155.496 296.907 155.141 296.69 154.68C296.477 154.216 296.37 153.66 296.37 153.012C296.37 152.363 296.478 151.809 296.694 151.348C296.913 150.887 297.213 150.534 297.593 150.289C297.973 150.044 298.404 149.922 298.886 149.922C299.258 149.922 299.558 149.984 299.784 150.109C300.013 150.232 300.19 150.375 300.315 150.539C300.443 150.703 300.542 150.848 300.612 150.973H300.683V148H301.851V156H300.71V155.066H300.612C300.542 155.194 300.44 155.34 300.308 155.504C300.177 155.668 299.998 155.811 299.769 155.934C299.539 156.056 299.243 156.117 298.878 156.117ZM299.136 155.121C299.472 155.121 299.756 155.033 299.987 154.855C300.222 154.676 300.399 154.427 300.519 154.109C300.641 153.792 300.702 153.422 300.702 153C300.702 152.583 300.642 152.219 300.522 151.906C300.403 151.594 300.227 151.35 299.995 151.176C299.763 151.001 299.477 150.914 299.136 150.914C298.784 150.914 298.491 151.005 298.257 151.188C298.022 151.37 297.845 151.618 297.726 151.934C297.608 152.249 297.55 152.604 297.55 153C297.55 153.401 297.61 153.762 297.729 154.082C297.849 154.402 298.026 154.656 298.261 154.844C298.498 155.029 298.789 155.121 299.136 155.121Z" fill="#A4A4A4"/>
</g>
<rect x="2.5" y="1.5" width="351" height="177" rx="11.5" stroke="#EAEAEA"/>
</g>
<defs>
<filter id="filter0_d_56_1686" x="0" y="0" width="356" height="182" filterUnits="userSpaceOnUse" color-interpolation-filters="sRGB">
<feFlood flood-opacity="0" result="BackgroundImageFix"/>
<feColorMatrix in="SourceAlpha" type="matrix" values="0 0 0 0 0 0 0 0 0 0 0 0 0 0 0 0 0 0 127 0" result="hardAlpha"/>
<feOffset dy="1"/>
<feGaussianBlur stdDeviation="1"/>
<feComposite in2="hardAlpha" operator="out"/>
<feColorMatrix type="matrix" values="0 0 0 0 0.0392157 0 0 0 0 0.0509804 0 0 0 0 0.0784314 0 0 0 0.03 0"/>
<feBlend mode="normal" in2="BackgroundImageFix" result="effect1_dropShadow_56_1686"/>
<feBlend mode="normal" in="SourceGraphic" in2="effect1_dropShadow_56_1686" result="shape"/>
</filter>
<clipPath id="clip0_56_1686">
<rect x="2" y="1" width="352" height="178" rx="12" fill="white"/>
</clipPath>
</defs>
</svg>
